<?xml version="1.0" encoding="UTF-8"?>
<svg xmlns="http://www.w3.org/2000/svg" width="1254" height="1254" viewBox="0 0 1254 1254" fill="none">
  <path d="M 834 352 L 826 348 L 820 347 L 819 346 L 808 346 L 807 347 L 803 347 L 802 348 L 794 350 L 791 352 L 785 353 L 784 354 L 776 356 L 773 358 L 771 358 L 764 361 L 761 361 L 755 364 L 753 364 L 737 370 L 734 370 L 728 373 L 726 373 L 710 379 L 707 379 L 704 381 L 702 381 L 701 382 L 699 382 L 698 383 L 696 383 L 695 384 L 693 384 L 692 385 L 690 385 L 689 386 L 654 397 L 651 399 L 649 399 L 645 401 L 642 401 L 641 402 L 636 403 L 633 405 L 631 405 L 630 406 L 628 406 L 627 407 L 625 407 L 624 408 L 622 408 L 621 409 L 619 409 L 618 410 L 616 410 L 594 418 L 591 418 L 585 421 L 583 421 L 582 422 L 580 422 L 579 423 L 577 423 L 576 424 L 574 424 L 552 432 L 549 432 L 543 435 L 540 435 L 537 437 L 526 440 L 520 444 L 518 444 L 517 446 L 511 451 L 508 455 L 507 458 L 505 459 L 505 462 L 503 465 L 502 471 L 500 475 L 500 711 L 499 712 L 500 724 L 499 725 L 499 727 L 498 728 L 496 728 L 494 725 L 492 725 L 482 719 L 480 719 L 477 717 L 475 717 L 468 714 L 460 713 L 459 712 L 428 712 L 427 713 L 424 713 L 423 715 L 420 715 L 414 718 L 410 718 L 406 720 L 402 724 L 394 728 L 392 731 L 390 731 L 389 733 L 386 735 L 386 736 L 380 742 L 372 753 L 364 770 L 364 773 L 362 778 L 362 782 L 361 783 L 360 802 L 361 803 L 361 812 L 362 813 L 363 820 L 365 824 L 365 827 L 373 843 L 378 849 L 378 851 L 380 852 L 382 855 L 392 864 L 392 865 L 395 866 L 396 868 L 398 868 L 403 872 L 413 877 L 415 877 L 422 880 L 429 881 L 430 882 L 435 882 L 436 883 L 453 883 L 454 882 L 461 882 L 462 881 L 469 880 L 470 879 L 475 878 L 478 876 L 480 876 L 488 872 L 497 866 L 512 851 L 512 850 L 515 848 L 515 846 L 517 845 L 517 843 L 519 842 L 520 838 L 522 837 L 522 834 L 524 832 L 524 829 L 526 826 L 527 820 L 529 818 L 530 808 L 531 807 L 531 584 L 530 583 L 530 581 L 534 578 L 536 578 L 543 575 L 548 575 L 550 573 L 552 573 L 555 571 L 557 571 L 567 567 L 570 567 L 571 566 L 576 565 L 579 563 L 581 563 L 591 559 L 594 559 L 600 556 L 602 556 L 603 555 L 605 555 L 606 554 L 608 554 L 609 553 L 611 553 L 612 552 L 614 552 L 615 551 L 617 551 L 618 550 L 620 550 L 621 549 L 623 549 L 624 548 L 626 548 L 648 540 L 652 540 L 666 534 L 670 534 L 671 532 L 674 532 L 680 529 L 686 528 L 687 527 L 692 526 L 695 524 L 697 524 L 713 518 L 716 518 L 719 516 L 721 516 L 734 511 L 737 511 L 743 508 L 745 508 L 746 507 L 748 507 L 749 506 L 751 506 L 752 505 L 754 505 L 755 504 L 757 504 L 758 503 L 760 503 L 761 502 L 763 502 L 764 501 L 766 501 L 767 500 L 769 500 L 770 499 L 772 499 L 773 498 L 775 498 L 776 497 L 778 497 L 779 496 L 781 496 L 782 495 L 784 495 L 785 494 L 787 494 L 788 493 L 790 493 L 791 492 L 793 492 L 794 491 L 796 491 L 818 483 L 820 483 L 821 484 L 821 657 L 820 658 L 817 658 L 816 656 L 814 656 L 813 654 L 811 654 L 810 652 L 806 651 L 797 646 L 795 646 L 791 644 L 788 644 L 787 643 L 784 643 L 783 642 L 778 642 L 777 641 L 754 641 L 753 642 L 748 642 L 747 643 L 737 645 L 722 652 L 717 656 L 715 656 L 714 658 L 713 658 L 702 669 L 701 669 L 695 678 L 693 679 L 693 681 L 691 682 L 689 686 L 689 688 L 686 693 L 686 695 L 684 698 L 683 704 L 681 705 L 679 729 L 680 730 L 680 742 L 681 743 L 681 747 L 683 748 L 683 753 L 684 754 L 684 756 L 687 760 L 689 767 L 691 768 L 692 772 L 696 778 L 699 780 L 701 783 L 701 785 L 702 786 L 704 786 L 709 792 L 711 792 L 712 794 L 717 798 L 719 798 L 729 804 L 736 806 L 737 808 L 742 808 L 743 809 L 751 810 L 752 811 L 782 811 L 784 809 L 795 807 L 797 805 L 802 804 L 809 799 L 811 799 L 811 798 L 812 797 L 814 797 L 816 794 L 818 794 L 818 793 L 821 791 L 830 781 L 832 780 L 832 778 L 835 775 L 842 764 L 842 761 L 844 758 L 844 756 L 847 749 L 847 746 L 848 745 L 848 741 L 849 740 L 849 375 L 845 364 Z M 433 742 L 442 742 L 443 741 L 447 741 L 448 742 L 459 742 L 460 743 L 468 745 L 475 750 L 478 750 L 479 752 L 481 752 L 482 754 L 492 763 L 492 765 L 494 766 L 494 768 L 497 772 L 499 777 L 499 784 L 501 785 L 501 788 L 499 790 L 499 795 L 500 796 L 499 814 L 497 819 L 495 820 L 493 827 L 490 829 L 490 831 L 488 832 L 488 833 L 482 839 L 481 839 L 478 843 L 476 843 L 475 845 L 465 850 L 455 852 L 454 853 L 437 853 L 436 852 L 432 852 L 431 851 L 426 850 L 423 848 L 421 848 L 420 846 L 418 846 L 413 843 L 404 835 L 396 824 L 394 820 L 394 818 L 392 815 L 391 808 L 390 807 L 390 802 L 389 801 L 390 787 L 391 786 L 392 779 L 394 778 L 394 776 L 397 769 L 405 760 L 405 759 L 410 754 L 411 754 L 412 752 L 414 752 L 417 750 L 418 748 L 421 748 L 421 747 L 424 745 L 426 745 Z M 758 670 L 773 670 L 774 671 L 779 671 L 780 672 L 788 674 L 800 681 L 809 689 L 812 693 L 812 695 L 814 696 L 819 707 L 820 715 L 821 716 L 821 730 L 820 731 L 819 741 L 818 742 L 817 747 L 811 758 L 809 759 L 809 761 L 801 769 L 794 774 L 791 774 L 788 777 L 784 779 L 774 781 L 773 782 L 758 782 L 757 781 L 753 781 L 752 779 L 746 779 L 734 773 L 730 770 L 724 764 L 724 763 L 721 761 L 721 759 L 718 757 L 718 755 L 714 750 L 714 748 L 712 745 L 711 739 L 710 738 L 710 726 L 709 725 L 710 714 L 711 713 L 712 707 L 713 705 L 715 704 L 717 697 L 719 694 L 729 683 L 736 678 L 741 677 L 741 676 L 744 674 L 746 674 L 753 671 L 757 671 Z M 820 380 L 820 382 L 821 383 L 821 450 L 820 451 L 804 456 L 803 457 L 801 457 L 800 458 L 798 458 L 797 459 L 795 459 L 794 460 L 788 461 L 785 463 L 783 463 L 770 468 L 767 468 L 754 473 L 750 473 L 748 475 L 744 475 L 743 476 L 741 476 L 739 478 L 735 478 L 733 480 L 731 480 L 709 488 L 705 488 L 703 490 L 701 490 L 698 492 L 696 492 L 674 500 L 668 501 L 665 503 L 663 503 L 662 504 L 660 504 L 659 505 L 657 505 L 656 506 L 654 506 L 653 507 L 651 507 L 650 508 L 648 508 L 647 509 L 645 509 L 644 510 L 642 510 L 641 511 L 639 511 L 638 512 L 636 512 L 635 513 L 633 513 L 632 514 L 630 514 L 629 515 L 627 515 L 626 516 L 624 516 L 623 517 L 621 517 L 620 518 L 618 518 L 617 519 L 615 519 L 614 520 L 612 520 L 611 521 L 609 521 L 608 522 L 606 522 L 605 523 L 603 523 L 602 524 L 600 524 L 599 525 L 564 536 L 558 539 L 552 540 L 549 542 L 546 542 L 545 543 L 540 544 L 537 546 L 532 546 L 531 545 L 531 537 L 530 536 L 530 532 L 531 531 L 531 489 L 530 488 L 530 482 L 531 481 L 531 475 L 536 469 L 543 466 L 546 466 L 547 465 L 561 461 L 567 458 L 570 458 L 573 456 L 575 456 L 579 454 L 582 454 L 585 452 L 587 452 L 591 450 L 594 450 L 595 449 L 603 447 L 606 445 L 608 445 L 621 440 L 624 440 L 627 438 L 629 438 L 630 437 L 632 437 L 633 436 L 635 436 L 636 435 L 638 435 L 639 434 L 641 434 L 642 433 L 644 433 L 645 432 L 647 432 L 648 431 L 650 431 L 651 430 L 653 430 L 654 429 L 656 429 L 657 428 L 659 428 L 660 427 L 662 427 L 663 426 L 665 426 L 666 425 L 668 425 L 669 424 L 671 424 L 672 423 L 674 423 L 675 422 L 677 422 L 678 421 L 680 421 L 681 420 L 683 420 L 684 419 L 686 419 L 687 418 L 689 418 L 690 417 L 692 417 L 714 409 L 718 409 L 720 407 L 728 405 L 731 403 L 733 403 L 737 401 L 740 401 L 746 398 L 748 398 L 749 397 L 751 397 L 752 396 L 754 396 L 755 395 L 757 395 L 758 394 L 760 394 L 761 393 L 763 393 L 764 392 L 766 392 L 788 384 L 791 384 L 794 382 L 796 382 L 803 379 L 806 379 L 811 377 L 817 377 Z" fill="rgb(42,30,62)" fill-rule="evenodd"/>
</svg>
