<?xml version="1.0" encoding="UTF-8"?>
<svg xmlns="http://www.w3.org/2000/svg" width="1254" height="1254" viewBox="0 0 1254 1254" fill="none">
  <g transform="rotate(130 627 627)">
    <path d="M 135 634 L 135 642 L 137 646 L 137 649 L 138 650 L 139 655 L 142 657 L 142 659 L 143 660 L 145 660 L 150 664 L 156 665 L 159 667 L 165 667 L 166 666 L 468 666 L 469 667 L 475 667 L 476 666 L 480 666 L 485 671 L 490 673 L 494 673 L 495 674 L 508 673 L 513 671 L 515 669 L 517 669 L 520 666 L 535 666 L 536 667 L 545 667 L 546 666 L 577 666 L 585 670 L 592 671 L 593 672 L 602 671 L 610 667 L 620 667 L 621 666 L 655 666 L 662 670 L 669 671 L 670 672 L 672 672 L 673 671 L 679 671 L 686 668 L 688 666 L 690 666 L 691 667 L 697 667 L 698 666 L 723 666 L 724 667 L 728 667 L 729 666 L 732 666 L 734 668 L 738 670 L 740 670 L 742 672 L 744 672 L 745 671 L 755 671 L 765 666 L 794 666 L 795 667 L 797 667 L 798 666 L 807 666 L 815 670 L 817 670 L 818 671 L 823 671 L 824 672 L 839 669 L 841 666 L 885 666 L 887 668 L 893 671 L 908 671 L 916 667 L 948 666 L 949 667 L 963 667 L 970 671 L 985 671 L 992 668 L 994 666 L 1071 666 L 1072 667 L 1075 667 L 1076 666 L 1092 666 L 1093 667 L 1095 667 L 1098 665 L 1101 665 L 1102 664 L 1107 663 L 1107 662 L 1114 656 L 1119 645 L 1119 639 L 1118 638 L 1119 613 L 1115 603 L 1111 599 L 1111 598 L 1101 592 L 1090 592 L 1089 591 L 1082 591 L 1081 592 L 1063 592 L 1062 591 L 1059 591 L 1058 592 L 1051 592 L 1050 591 L 1041 591 L 1040 592 L 1036 592 L 1035 591 L 1034 584 L 1033 582 L 1030 580 L 592 580 L 589 582 L 588 584 L 588 590 L 586 592 L 583 592 L 582 591 L 569 591 L 568 592 L 561 592 L 560 591 L 554 591 L 553 592 L 523 591 L 522 592 L 519 592 L 514 587 L 510 585 L 488 585 L 482 588 L 480 591 L 475 591 L 474 592 L 471 592 L 470 591 L 465 591 L 464 592 L 450 592 L 449 591 L 444 591 L 443 592 L 434 592 L 433 591 L 411 591 L 410 592 L 373 592 L 372 591 L 364 591 L 363 592 L 347 592 L 346 591 L 342 591 L 341 592 L 334 592 L 333 591 L 315 591 L 314 592 L 291 592 L 290 591 L 275 591 L 274 592 L 259 592 L 258 591 L 250 591 L 249 592 L 209 592 L 208 591 L 189 591 L 188 592 L 175 592 L 174 591 L 171 591 L 170 592 L 163 592 L 162 591 L 159 591 L 158 592 L 154 592 L 147 595 L 140 602 L 136 612 L 136 633 Z M 969 630 L 976 627 L 979 627 L 980 628 L 985 629 L 991 637 L 990 649 L 984 655 L 971 655 L 970 653 L 969 653 L 965 649 L 964 644 L 963 643 L 963 640 L 965 639 L 966 633 L 968 632 Z M 899 627 L 903 627 L 908 629 L 914 638 L 914 648 L 909 654 L 907 654 L 905 656 L 897 656 L 895 654 L 893 654 L 888 648 L 888 636 L 889 634 L 893 631 L 894 629 Z M 823 627 L 826 627 L 827 628 L 832 629 L 838 636 L 838 647 L 836 651 L 829 656 L 821 656 L 820 655 L 818 655 L 812 648 L 812 642 L 811 641 L 811 637 L 816 630 L 818 630 L 820 628 L 822 628 Z M 743 628 L 745 628 L 746 627 L 753 628 L 761 635 L 762 646 L 761 647 L 761 649 L 758 651 L 755 655 L 744 656 L 737 651 L 736 645 L 734 644 L 735 636 L 736 634 Z M 670 627 L 673 627 L 674 628 L 679 629 L 685 638 L 685 645 L 684 646 L 683 651 L 681 653 L 679 653 L 678 655 L 676 655 L 675 656 L 667 656 L 666 654 L 662 653 L 659 649 L 657 644 L 657 640 L 660 633 L 663 630 L 665 630 L 667 628 L 669 628 Z M 593 627 L 596 627 L 597 628 L 602 629 L 604 632 L 607 634 L 609 638 L 609 640 L 608 641 L 608 648 L 607 650 L 603 654 L 600 654 L 599 656 L 591 656 L 590 655 L 588 655 L 587 653 L 582 649 L 581 637 L 582 635 L 584 634 L 584 632 L 586 630 L 588 630 L 590 628 L 592 628 Z M 278 627 L 279 626 L 281 626 L 282 624 L 287 624 L 288 625 L 312 624 L 314 627 L 314 631 L 313 632 L 298 632 L 297 633 L 281 633 L 280 631 L 278 630 Z M 1072 607 L 1098 608 L 1103 613 L 1103 645 L 1098 650 L 1096 650 L 1095 651 L 1072 651 L 1071 650 L 1071 633 L 1070 632 L 1070 629 L 1072 628 L 1072 625 L 1071 624 L 1071 608 Z M 522 649 L 522 641 L 521 640 L 521 622 L 522 621 L 522 609 L 523 608 L 533 608 L 534 607 L 559 607 L 560 608 L 566 608 L 567 607 L 576 607 L 577 608 L 581 608 L 582 607 L 586 607 L 587 608 L 587 612 L 578 618 L 576 618 L 570 626 L 566 636 L 566 650 L 565 651 L 527 651 Z M 319 609 L 320 608 L 334 608 L 335 607 L 420 607 L 421 608 L 427 608 L 428 607 L 470 607 L 471 608 L 475 608 L 476 609 L 476 616 L 477 617 L 477 621 L 476 622 L 476 650 L 475 651 L 316 651 L 315 650 L 315 648 L 321 645 L 323 645 L 327 640 L 330 634 L 330 624 L 329 623 L 329 621 L 326 617 L 326 615 L 325 614 L 323 614 L 322 612 L 320 612 L 319 611 Z M 152 611 L 155 608 L 171 608 L 172 607 L 202 607 L 203 608 L 205 608 L 206 607 L 234 607 L 235 608 L 237 608 L 238 607 L 275 607 L 276 608 L 276 610 L 271 613 L 267 617 L 265 621 L 265 623 L 263 624 L 263 627 L 264 628 L 263 633 L 265 635 L 265 637 L 268 642 L 273 646 L 278 647 L 279 648 L 279 650 L 278 651 L 159 651 L 155 649 L 152 644 L 152 641 L 151 640 L 151 637 L 152 636 Z M 493 600 L 504 600 L 506 602 L 506 632 L 505 633 L 505 637 L 506 638 L 506 644 L 505 645 L 505 647 L 506 648 L 506 655 L 504 658 L 494 658 L 493 657 L 493 650 L 492 649 L 492 636 L 493 635 L 493 631 L 492 630 L 492 628 L 493 627 L 492 601 Z M 986 597 L 991 595 L 1019 595 L 1020 596 L 1020 605 L 1019 606 L 1019 611 L 1020 612 L 1020 627 L 1023 632 L 1030 632 L 1034 630 L 1034 627 L 1036 623 L 1036 621 L 1035 620 L 1035 608 L 1036 607 L 1054 608 L 1056 613 L 1056 650 L 1055 651 L 1007 651 L 1006 650 L 1006 641 L 1007 640 L 1006 632 L 1004 631 L 1003 627 L 1001 624 L 994 617 L 986 613 L 986 608 L 985 607 Z M 909 595 L 917 595 L 918 596 L 933 596 L 934 595 L 954 595 L 955 596 L 964 596 L 965 595 L 968 595 L 970 597 L 970 600 L 969 601 L 970 612 L 968 614 L 966 614 L 961 617 L 956 622 L 955 622 L 954 623 L 954 625 L 951 627 L 951 631 L 950 632 L 949 639 L 948 640 L 948 643 L 949 644 L 949 650 L 948 651 L 931 651 L 930 650 L 930 641 L 931 640 L 931 638 L 929 635 L 929 633 L 927 629 L 927 626 L 925 625 L 919 618 L 912 614 L 910 614 L 908 612 L 908 596 Z M 834 595 L 846 595 L 847 596 L 856 596 L 857 595 L 884 595 L 885 596 L 893 596 L 894 597 L 894 612 L 882 619 L 880 622 L 877 624 L 877 626 L 875 628 L 875 630 L 873 634 L 873 638 L 872 639 L 872 646 L 873 647 L 873 650 L 872 651 L 854 651 L 853 650 L 854 639 L 853 638 L 852 631 L 849 625 L 841 617 L 836 614 L 834 614 L 832 611 L 832 597 Z M 758 596 L 761 596 L 762 595 L 769 595 L 770 596 L 777 596 L 778 595 L 804 595 L 805 596 L 816 596 L 817 597 L 817 600 L 818 601 L 818 603 L 817 604 L 817 612 L 815 614 L 807 618 L 800 626 L 796 636 L 796 650 L 795 651 L 778 651 L 777 650 L 777 640 L 778 639 L 777 632 L 775 631 L 772 625 L 772 623 L 768 619 L 757 613 L 757 597 Z M 681 595 L 691 595 L 692 596 L 699 596 L 700 595 L 710 595 L 711 596 L 715 596 L 716 595 L 734 595 L 735 596 L 740 596 L 741 597 L 741 599 L 740 600 L 740 602 L 741 603 L 741 612 L 729 619 L 723 626 L 720 634 L 720 637 L 719 638 L 720 649 L 718 651 L 701 651 L 700 650 L 701 640 L 700 639 L 700 635 L 696 625 L 688 617 L 685 615 L 681 614 L 679 611 L 679 597 Z M 603 595 L 608 595 L 609 596 L 621 596 L 622 595 L 643 595 L 644 596 L 653 596 L 654 595 L 662 595 L 664 597 L 664 612 L 662 614 L 660 614 L 655 617 L 645 628 L 645 631 L 643 635 L 643 650 L 642 651 L 625 651 L 623 649 L 623 647 L 624 646 L 624 638 L 623 637 L 622 631 L 619 625 L 611 617 L 603 613 L 603 603 L 602 602 L 602 596 Z" fill="rgb(45,30,66)" fill-rule="evenodd"/>
  </g>
</svg>
