<?xml version="1.0" encoding="UTF-8"?>
<svg xmlns="http://www.w3.org/2000/svg" width="1254" height="1254" viewBox="0 0 1254 1254" fill="none">
  <g transform="rotate(40 627 627)">
    <path d="M 670 713 L 665 720 L 665 727 L 666 728 L 666 730 L 670 733 L 675 733 L 675 732 L 680 728 L 680 721 L 681 720 L 684 720 L 689 732 L 689 734 L 688 735 L 688 738 L 690 739 L 690 741 L 689 742 L 689 762 L 690 763 L 690 765 L 688 766 L 688 768 L 689 769 L 689 779 L 691 780 L 690 787 L 692 790 L 692 794 L 695 801 L 695 805 L 696 807 L 699 809 L 699 811 L 704 816 L 706 816 L 708 818 L 715 819 L 716 820 L 727 818 L 728 816 L 730 816 L 732 814 L 732 812 L 734 811 L 734 808 L 736 806 L 736 801 L 734 800 L 734 797 L 729 794 L 722 794 L 721 795 L 719 795 L 717 799 L 717 806 L 719 809 L 719 811 L 718 812 L 713 811 L 708 805 L 708 800 L 707 799 L 706 792 L 704 788 L 704 775 L 705 774 L 705 763 L 704 762 L 704 754 L 703 753 L 704 741 L 702 739 L 702 734 L 701 733 L 700 728 L 698 725 L 698 722 L 696 721 L 696 719 L 694 718 L 691 714 L 689 714 L 683 711 L 676 711 L 675 712 Z M 583 713 L 577 710 L 571 710 L 569 712 L 562 714 L 557 721 L 554 723 L 554 727 L 551 734 L 551 739 L 549 740 L 549 742 L 550 743 L 550 750 L 548 752 L 548 764 L 549 765 L 549 787 L 547 790 L 547 798 L 546 799 L 546 802 L 543 808 L 540 811 L 534 812 L 533 811 L 533 809 L 537 806 L 535 797 L 531 794 L 524 794 L 523 795 L 521 795 L 519 800 L 517 801 L 517 806 L 519 808 L 519 811 L 521 812 L 521 814 L 523 816 L 525 816 L 526 818 L 529 818 L 534 820 L 542 819 L 543 818 L 545 818 L 547 816 L 549 816 L 553 812 L 554 809 L 556 808 L 558 804 L 558 801 L 561 794 L 561 790 L 563 786 L 562 779 L 564 778 L 564 764 L 563 763 L 563 755 L 564 754 L 564 740 L 563 739 L 563 734 L 564 733 L 564 729 L 566 724 L 568 723 L 568 721 L 569 720 L 572 720 L 573 721 L 573 728 L 575 731 L 577 731 L 578 733 L 583 733 L 585 732 L 587 727 L 589 725 L 589 722 L 588 721 L 588 719 L 586 718 Z M 622 192 L 621 193 L 617 193 L 611 196 L 609 196 L 598 206 L 595 211 L 595 213 L 593 217 L 593 224 L 586 229 L 581 236 L 581 238 L 579 242 L 579 251 L 581 255 L 581 259 L 583 260 L 590 268 L 593 269 L 596 272 L 596 287 L 595 288 L 590 288 L 589 287 L 577 287 L 574 283 L 571 281 L 571 280 L 569 280 L 563 277 L 556 277 L 555 278 L 551 278 L 549 279 L 543 286 L 541 290 L 541 293 L 539 294 L 539 298 L 541 301 L 541 303 L 543 307 L 545 309 L 545 311 L 546 312 L 548 312 L 549 314 L 551 314 L 552 316 L 565 316 L 568 314 L 571 314 L 578 306 L 581 306 L 582 305 L 594 305 L 595 306 L 595 337 L 594 338 L 590 338 L 589 339 L 580 339 L 576 337 L 575 335 L 569 330 L 569 329 L 558 327 L 557 328 L 551 329 L 544 334 L 544 336 L 542 338 L 542 340 L 540 344 L 540 350 L 541 351 L 541 354 L 544 358 L 544 360 L 547 363 L 549 363 L 554 366 L 557 366 L 558 367 L 565 367 L 566 365 L 571 364 L 578 356 L 591 356 L 594 358 L 594 384 L 593 385 L 593 416 L 592 417 L 592 448 L 591 449 L 591 463 L 589 465 L 586 465 L 585 466 L 576 466 L 575 467 L 570 467 L 569 468 L 561 468 L 560 470 L 557 470 L 550 473 L 546 473 L 545 475 L 543 475 L 534 480 L 531 480 L 529 483 L 525 484 L 525 485 L 524 486 L 522 486 L 520 489 L 518 489 L 515 493 L 514 493 L 506 500 L 506 502 L 501 506 L 501 508 L 498 510 L 496 513 L 495 517 L 493 518 L 490 526 L 488 527 L 488 531 L 483 542 L 482 550 L 480 551 L 480 561 L 479 562 L 479 566 L 478 567 L 478 579 L 479 580 L 479 585 L 480 586 L 480 597 L 481 598 L 481 602 L 483 603 L 484 610 L 487 618 L 488 631 L 486 633 L 486 640 L 482 645 L 482 648 L 480 651 L 480 653 L 478 655 L 478 657 L 480 660 L 480 663 L 482 664 L 482 666 L 483 667 L 485 667 L 488 669 L 495 669 L 496 670 L 504 669 L 510 672 L 514 676 L 514 679 L 516 683 L 518 684 L 519 690 L 520 691 L 520 701 L 521 702 L 521 707 L 522 708 L 522 711 L 521 712 L 521 722 L 519 725 L 518 736 L 517 737 L 516 743 L 514 744 L 514 748 L 513 750 L 511 751 L 511 753 L 509 754 L 509 756 L 507 757 L 502 763 L 495 766 L 480 765 L 478 763 L 473 763 L 472 765 L 468 766 L 466 769 L 463 771 L 463 781 L 467 790 L 467 809 L 466 810 L 464 818 L 462 819 L 461 821 L 461 825 L 456 835 L 456 837 L 451 850 L 450 858 L 448 859 L 448 864 L 447 865 L 447 883 L 446 884 L 446 887 L 447 888 L 446 901 L 447 902 L 448 914 L 450 916 L 451 923 L 455 933 L 455 936 L 458 940 L 458 944 L 461 948 L 462 951 L 464 952 L 465 956 L 467 957 L 467 959 L 469 960 L 469 962 L 471 965 L 475 968 L 475 970 L 478 972 L 492 987 L 494 987 L 497 991 L 499 991 L 500 993 L 502 993 L 503 995 L 505 995 L 506 997 L 508 997 L 509 999 L 513 1000 L 514 1002 L 524 1007 L 527 1007 L 530 1009 L 532 1009 L 535 1011 L 537 1011 L 547 1015 L 550 1015 L 551 1016 L 558 1017 L 559 1018 L 563 1018 L 565 1020 L 569 1020 L 570 1021 L 587 1022 L 588 1023 L 596 1022 L 597 1023 L 609 1024 L 611 1029 L 611 1034 L 613 1037 L 613 1039 L 616 1042 L 618 1042 L 621 1044 L 632 1044 L 636 1041 L 638 1041 L 639 1040 L 639 1038 L 642 1034 L 642 1024 L 643 1023 L 656 1023 L 657 1022 L 659 1022 L 660 1023 L 666 1023 L 669 1021 L 671 1021 L 672 1022 L 674 1022 L 675 1021 L 682 1021 L 683 1020 L 688 1020 L 690 1018 L 694 1018 L 695 1017 L 706 1015 L 713 1012 L 717 1012 L 721 1009 L 723 1009 L 728 1006 L 731 1006 L 737 1003 L 738 1001 L 744 999 L 745 997 L 747 997 L 748 995 L 750 995 L 751 993 L 753 993 L 754 991 L 756 991 L 759 987 L 761 987 L 764 983 L 779 969 L 782 965 L 782 963 L 784 962 L 784 960 L 786 957 L 788 956 L 791 948 L 793 947 L 795 943 L 795 940 L 797 939 L 797 935 L 799 934 L 799 930 L 803 919 L 803 915 L 805 913 L 805 909 L 806 908 L 806 880 L 807 879 L 807 872 L 806 871 L 806 866 L 804 864 L 804 859 L 803 858 L 801 847 L 797 837 L 797 833 L 795 832 L 795 830 L 792 825 L 792 821 L 791 819 L 789 818 L 789 815 L 787 813 L 787 811 L 786 810 L 786 790 L 787 789 L 787 787 L 789 786 L 789 782 L 791 780 L 791 775 L 789 773 L 789 771 L 787 768 L 784 766 L 784 765 L 781 765 L 780 763 L 774 763 L 773 765 L 767 765 L 766 766 L 757 766 L 751 763 L 744 755 L 744 754 L 741 752 L 738 746 L 738 744 L 736 741 L 735 731 L 733 730 L 733 725 L 732 724 L 733 717 L 731 714 L 731 703 L 733 699 L 733 690 L 734 689 L 734 686 L 735 685 L 735 683 L 737 682 L 738 680 L 738 677 L 740 676 L 744 671 L 749 669 L 756 670 L 757 669 L 765 669 L 767 668 L 771 664 L 772 664 L 772 662 L 774 658 L 772 647 L 769 641 L 767 640 L 767 638 L 766 637 L 766 622 L 767 621 L 767 614 L 768 613 L 769 606 L 771 605 L 772 597 L 773 596 L 773 592 L 774 591 L 775 566 L 773 562 L 774 557 L 773 556 L 772 547 L 770 545 L 769 539 L 765 531 L 765 527 L 762 521 L 759 519 L 754 509 L 752 508 L 752 506 L 747 502 L 742 495 L 740 495 L 736 490 L 733 489 L 729 485 L 727 485 L 726 483 L 724 483 L 722 480 L 719 480 L 710 475 L 697 471 L 696 469 L 689 469 L 688 468 L 678 467 L 677 466 L 668 466 L 665 464 L 662 464 L 661 463 L 661 421 L 660 420 L 659 357 L 660 356 L 670 356 L 671 357 L 675 357 L 679 360 L 682 364 L 684 364 L 685 366 L 687 367 L 695 367 L 696 366 L 699 366 L 702 364 L 704 364 L 705 362 L 707 362 L 709 360 L 709 358 L 711 356 L 711 354 L 713 353 L 713 345 L 712 344 L 712 341 L 709 336 L 709 334 L 706 331 L 704 331 L 699 328 L 695 328 L 694 327 L 682 330 L 681 332 L 678 334 L 678 336 L 676 337 L 675 339 L 659 338 L 658 337 L 658 325 L 659 324 L 658 307 L 660 305 L 663 305 L 664 306 L 676 306 L 678 308 L 678 310 L 681 313 L 685 314 L 686 316 L 688 317 L 702 315 L 704 314 L 704 313 L 706 312 L 709 308 L 710 308 L 711 304 L 713 303 L 713 295 L 712 294 L 712 290 L 710 287 L 710 285 L 708 284 L 705 280 L 703 280 L 697 277 L 690 277 L 686 279 L 683 279 L 676 287 L 663 288 L 662 287 L 658 287 L 657 286 L 657 272 L 669 263 L 669 261 L 673 254 L 673 249 L 675 247 L 675 245 L 673 244 L 673 239 L 670 233 L 664 227 L 664 226 L 662 226 L 661 225 L 659 215 L 656 208 L 654 206 L 654 204 L 653 204 L 647 198 L 639 194 L 632 193 L 631 192 Z M 602 864 L 650 864 L 652 866 L 652 870 L 650 872 L 650 880 L 649 881 L 649 885 L 647 887 L 647 895 L 646 896 L 646 900 L 645 901 L 645 905 L 644 906 L 644 911 L 642 913 L 642 923 L 641 924 L 640 937 L 638 940 L 639 946 L 638 947 L 638 956 L 637 957 L 637 964 L 636 965 L 636 967 L 637 968 L 637 974 L 636 975 L 636 985 L 635 986 L 636 1008 L 633 1011 L 620 1011 L 617 1006 L 617 982 L 616 981 L 616 960 L 615 959 L 616 952 L 614 947 L 615 942 L 613 938 L 613 931 L 612 930 L 612 925 L 611 924 L 611 914 L 610 913 L 610 908 L 608 906 L 607 892 L 605 890 L 605 886 L 604 885 L 604 881 L 603 880 L 603 873 L 601 871 L 601 865 Z M 640 784 L 649 784 L 650 785 L 649 822 L 648 823 L 649 848 L 647 850 L 640 850 L 639 849 L 639 844 L 640 843 L 640 836 L 639 835 L 639 785 Z M 613 784 L 614 785 L 614 795 L 613 796 L 613 815 L 614 816 L 613 831 L 614 832 L 614 845 L 612 849 L 605 850 L 604 849 L 605 837 L 604 836 L 604 819 L 603 818 L 603 785 L 604 784 Z M 623 783 L 630 784 L 631 785 L 631 794 L 632 795 L 632 810 L 631 811 L 632 834 L 631 835 L 631 842 L 632 843 L 632 848 L 630 850 L 623 850 L 621 848 L 621 835 L 622 834 L 622 822 L 621 821 L 622 792 L 621 791 L 621 785 Z M 622 660 L 629 660 L 630 661 L 630 665 L 631 666 L 631 696 L 632 697 L 632 699 L 631 700 L 631 702 L 632 703 L 632 752 L 631 753 L 631 762 L 632 763 L 632 765 L 631 766 L 623 766 L 622 765 L 622 756 L 621 755 L 621 661 Z M 639 659 L 647 659 L 648 660 L 648 668 L 647 669 L 648 714 L 649 715 L 649 727 L 648 728 L 648 732 L 649 733 L 649 739 L 648 740 L 649 765 L 648 766 L 641 766 L 639 764 L 639 756 L 640 755 L 640 750 L 639 749 L 639 717 L 638 716 L 638 682 L 639 681 L 639 676 L 638 675 L 638 660 Z M 607 659 L 614 659 L 615 660 L 615 682 L 614 683 L 614 736 L 613 737 L 614 763 L 612 766 L 604 766 L 603 765 L 603 753 L 605 751 L 605 744 L 604 743 L 604 732 L 605 731 L 605 724 L 604 723 L 604 702 L 605 701 L 605 699 L 604 698 L 604 693 L 606 689 L 606 685 L 605 684 L 605 661 Z M 672 483 L 673 485 L 687 486 L 688 487 L 691 487 L 692 488 L 700 490 L 701 492 L 705 492 L 716 498 L 717 500 L 719 500 L 721 503 L 723 503 L 725 506 L 738 518 L 738 520 L 739 520 L 741 522 L 741 524 L 743 525 L 743 528 L 746 530 L 748 534 L 748 536 L 750 539 L 750 541 L 752 544 L 752 550 L 754 551 L 755 561 L 756 562 L 756 564 L 755 565 L 755 568 L 756 569 L 756 578 L 755 579 L 756 587 L 755 588 L 755 593 L 753 598 L 753 602 L 752 603 L 750 613 L 749 614 L 749 618 L 747 621 L 747 635 L 749 637 L 749 641 L 750 642 L 752 650 L 749 652 L 745 652 L 744 653 L 736 655 L 735 657 L 729 660 L 727 662 L 727 664 L 724 666 L 724 668 L 722 670 L 720 674 L 720 676 L 718 679 L 717 685 L 715 686 L 714 701 L 713 702 L 713 717 L 715 722 L 715 733 L 716 734 L 716 738 L 718 739 L 718 742 L 719 743 L 720 748 L 722 751 L 722 755 L 725 761 L 728 763 L 728 765 L 730 766 L 730 768 L 731 768 L 738 775 L 738 776 L 743 778 L 744 780 L 746 781 L 752 782 L 753 784 L 768 785 L 769 786 L 769 789 L 767 792 L 767 794 L 768 795 L 768 808 L 769 809 L 769 813 L 771 817 L 771 820 L 776 830 L 776 834 L 778 835 L 780 842 L 782 845 L 782 847 L 784 851 L 784 854 L 785 855 L 785 858 L 786 859 L 786 862 L 787 863 L 788 875 L 789 876 L 789 882 L 788 883 L 788 891 L 789 892 L 789 896 L 788 897 L 788 904 L 787 905 L 787 910 L 786 911 L 785 919 L 777 939 L 775 941 L 773 946 L 769 952 L 766 954 L 766 956 L 762 959 L 754 969 L 752 969 L 748 974 L 732 985 L 713 994 L 711 994 L 701 998 L 698 998 L 697 999 L 694 999 L 689 1001 L 685 1001 L 684 1002 L 680 1002 L 679 1003 L 672 1003 L 671 1004 L 656 1005 L 651 1003 L 651 999 L 650 998 L 651 957 L 652 956 L 652 948 L 653 947 L 653 940 L 654 939 L 654 933 L 655 932 L 655 926 L 656 925 L 657 914 L 658 913 L 659 903 L 660 902 L 661 893 L 663 888 L 663 884 L 664 883 L 664 879 L 665 878 L 665 874 L 666 873 L 666 869 L 667 868 L 667 864 L 668 863 L 668 859 L 666 854 L 660 849 L 657 849 L 656 848 L 656 789 L 658 784 L 662 784 L 668 779 L 669 774 L 668 773 L 668 771 L 664 767 L 662 766 L 657 766 L 656 765 L 656 748 L 657 747 L 657 740 L 656 739 L 656 718 L 655 717 L 655 664 L 654 663 L 654 661 L 655 660 L 658 660 L 659 658 L 663 657 L 665 655 L 666 650 L 667 649 L 667 647 L 666 646 L 666 604 L 665 603 L 665 568 L 664 567 L 664 531 L 663 530 L 663 496 L 662 495 L 662 484 L 663 483 Z M 581 483 L 583 483 L 584 484 L 590 484 L 591 485 L 591 488 L 590 489 L 590 521 L 589 522 L 589 560 L 588 561 L 588 596 L 587 597 L 587 633 L 586 634 L 586 651 L 587 652 L 587 655 L 589 657 L 591 657 L 598 661 L 598 707 L 597 708 L 597 721 L 596 722 L 596 728 L 597 729 L 597 760 L 596 761 L 596 765 L 595 766 L 590 766 L 588 767 L 584 773 L 585 779 L 591 784 L 595 784 L 596 785 L 597 849 L 596 850 L 591 850 L 590 852 L 588 852 L 585 859 L 585 863 L 586 864 L 586 869 L 587 870 L 587 874 L 588 875 L 590 889 L 592 894 L 592 898 L 594 903 L 595 914 L 596 915 L 597 925 L 598 926 L 598 931 L 599 932 L 600 947 L 601 948 L 601 958 L 602 959 L 602 978 L 603 979 L 603 1004 L 602 1005 L 581 1004 L 580 1003 L 575 1003 L 574 1002 L 569 1002 L 568 1001 L 564 1001 L 563 1000 L 555 999 L 554 998 L 540 994 L 537 992 L 535 992 L 521 985 L 519 983 L 516 982 L 515 980 L 513 980 L 512 978 L 510 978 L 492 962 L 492 961 L 487 956 L 487 954 L 484 952 L 484 950 L 482 949 L 479 943 L 477 941 L 473 933 L 473 931 L 471 928 L 471 926 L 467 916 L 467 912 L 466 911 L 466 907 L 465 906 L 465 899 L 464 898 L 464 893 L 465 892 L 465 889 L 464 888 L 464 875 L 465 874 L 466 862 L 467 861 L 469 851 L 471 850 L 471 845 L 472 844 L 473 839 L 480 825 L 482 817 L 484 816 L 484 813 L 485 812 L 485 796 L 486 795 L 486 791 L 484 790 L 484 786 L 485 785 L 492 786 L 494 784 L 500 784 L 501 782 L 505 782 L 506 780 L 514 776 L 522 769 L 524 766 L 524 764 L 526 763 L 527 759 L 529 758 L 530 753 L 532 752 L 532 748 L 535 741 L 535 738 L 537 737 L 537 733 L 538 732 L 538 727 L 539 726 L 538 719 L 540 718 L 540 705 L 539 704 L 539 700 L 538 699 L 538 697 L 539 696 L 538 687 L 537 686 L 537 683 L 535 682 L 534 677 L 529 667 L 520 657 L 518 657 L 516 655 L 508 652 L 504 652 L 501 650 L 501 647 L 504 640 L 504 636 L 506 634 L 506 622 L 505 621 L 504 610 L 502 609 L 500 599 L 499 598 L 499 590 L 497 588 L 497 586 L 498 585 L 498 579 L 496 577 L 497 560 L 498 559 L 498 555 L 500 553 L 500 547 L 501 546 L 502 541 L 504 538 L 504 536 L 505 534 L 507 533 L 507 530 L 508 528 L 510 527 L 510 525 L 512 524 L 512 522 L 514 521 L 514 519 L 518 516 L 518 514 L 526 506 L 528 506 L 531 502 L 537 498 L 541 497 L 542 495 L 550 491 L 552 491 L 562 487 L 565 487 L 566 486 L 580 485 Z M 638 373 L 640 373 L 641 374 L 641 381 L 642 382 L 642 396 L 643 397 L 643 418 L 642 419 L 642 427 L 643 428 L 643 445 L 644 446 L 644 454 L 643 455 L 643 458 L 644 459 L 644 482 L 645 483 L 645 490 L 644 491 L 644 506 L 645 507 L 645 520 L 646 521 L 646 526 L 645 527 L 645 555 L 646 556 L 646 573 L 647 574 L 646 604 L 647 605 L 647 622 L 648 623 L 647 641 L 646 642 L 639 642 L 638 641 L 638 586 L 637 585 L 637 469 L 636 468 L 636 379 L 637 378 L 637 374 Z M 625 373 L 628 373 L 629 374 L 629 384 L 628 385 L 628 392 L 629 393 L 629 444 L 630 445 L 629 530 L 630 531 L 630 559 L 631 560 L 631 605 L 630 606 L 631 641 L 630 642 L 623 642 L 622 641 L 622 628 L 623 627 L 623 615 L 622 614 L 622 602 L 623 601 L 623 584 L 622 583 L 622 539 L 623 538 L 623 513 L 624 512 L 624 502 L 623 501 L 623 498 L 624 497 L 624 490 L 623 489 L 623 481 L 624 480 L 624 477 L 623 476 L 623 474 L 624 473 L 624 462 L 623 461 L 623 423 L 624 422 L 624 374 Z M 616 373 L 617 374 L 617 437 L 616 438 L 616 551 L 615 552 L 615 599 L 614 600 L 614 605 L 615 606 L 615 625 L 614 626 L 614 641 L 613 642 L 606 642 L 605 641 L 605 639 L 606 638 L 606 635 L 605 634 L 605 603 L 606 602 L 606 580 L 607 579 L 606 555 L 607 554 L 607 539 L 608 538 L 608 522 L 607 521 L 608 491 L 609 490 L 608 470 L 609 469 L 609 458 L 610 457 L 610 450 L 609 449 L 609 431 L 610 430 L 610 414 L 611 413 L 610 392 L 611 391 L 611 374 L 612 373 Z M 624 209 L 633 210 L 639 214 L 639 216 L 643 222 L 643 233 L 646 237 L 648 237 L 652 239 L 656 244 L 656 249 L 655 250 L 655 252 L 651 255 L 647 255 L 643 257 L 640 261 L 640 275 L 639 276 L 639 278 L 640 279 L 640 308 L 641 309 L 641 324 L 640 325 L 641 352 L 636 354 L 620 354 L 619 353 L 613 353 L 612 352 L 612 337 L 613 336 L 613 333 L 612 332 L 612 304 L 613 303 L 613 286 L 614 285 L 614 278 L 613 277 L 614 263 L 608 256 L 600 254 L 598 251 L 598 249 L 596 248 L 597 243 L 601 239 L 608 236 L 608 234 L 610 231 L 610 225 L 611 224 L 611 218 L 612 216 L 616 212 Z" fill="rgb(46,32,68)" fill-rule="evenodd"/>
  </g>
</svg>
