<?xml version="1.0" encoding="UTF-8"?>
<svg xmlns="http://www.w3.org/2000/svg" width="1254" height="1254" viewBox="0 0 1254 1254" fill="none">
  <path d="M 410 371 L 397 384 L 397 385 L 390 393 L 386 399 L 384 404 L 382 406 L 379 412 L 379 414 L 377 415 L 377 419 L 373 429 L 373 432 L 371 437 L 371 442 L 370 443 L 370 799 L 371 800 L 372 806 L 375 812 L 377 814 L 377 816 L 378 816 L 387 825 L 390 826 L 392 829 L 396 829 L 403 832 L 411 832 L 412 833 L 412 836 L 413 837 L 413 841 L 412 842 L 412 872 L 413 873 L 413 883 L 417 889 L 423 892 L 429 892 L 430 891 L 432 891 L 438 886 L 439 882 L 441 880 L 441 877 L 440 876 L 440 852 L 441 851 L 441 846 L 440 845 L 440 833 L 441 832 L 451 832 L 452 833 L 458 833 L 459 832 L 667 832 L 668 833 L 670 833 L 671 832 L 811 832 L 813 834 L 813 879 L 814 880 L 814 883 L 817 888 L 821 891 L 823 891 L 824 892 L 830 892 L 835 890 L 839 886 L 841 882 L 841 833 L 842 832 L 848 833 L 851 831 L 861 829 L 866 826 L 868 823 L 875 818 L 875 816 L 879 811 L 882 805 L 882 802 L 884 797 L 884 655 L 885 654 L 885 649 L 884 648 L 884 640 L 883 639 L 882 627 L 881 626 L 881 623 L 880 622 L 878 614 L 871 600 L 863 589 L 854 579 L 852 579 L 844 572 L 822 561 L 820 561 L 816 559 L 813 559 L 812 558 L 809 558 L 808 557 L 805 557 L 804 556 L 798 556 L 794 554 L 789 554 L 788 555 L 786 555 L 785 554 L 778 554 L 777 553 L 772 553 L 771 552 L 767 552 L 759 549 L 756 549 L 755 548 L 747 546 L 744 544 L 742 544 L 739 542 L 737 542 L 735 541 L 734 539 L 731 539 L 725 536 L 723 534 L 718 532 L 717 530 L 715 530 L 703 521 L 701 518 L 686 504 L 686 502 L 681 498 L 681 496 L 680 496 L 676 492 L 672 486 L 666 480 L 666 478 L 661 474 L 657 468 L 651 462 L 651 460 L 647 457 L 643 451 L 638 446 L 638 444 L 634 441 L 634 440 L 624 429 L 624 427 L 619 423 L 619 422 L 614 417 L 613 414 L 609 411 L 609 410 L 604 405 L 603 402 L 599 399 L 596 394 L 595 394 L 573 373 L 565 368 L 562 365 L 544 355 L 542 355 L 537 352 L 535 352 L 522 347 L 514 346 L 513 345 L 509 345 L 508 344 L 494 343 L 493 342 L 476 343 L 475 344 L 469 344 L 468 345 L 459 345 L 458 347 L 452 348 L 451 349 L 443 351 L 436 355 L 434 355 L 432 357 L 422 362 Z M 805 705 L 810 705 L 811 704 L 822 704 L 823 705 L 845 704 L 846 705 L 856 705 L 857 706 L 857 785 L 856 786 L 856 796 L 855 798 L 848 804 L 846 804 L 845 805 L 797 805 L 796 804 L 796 784 L 795 783 L 795 778 L 796 777 L 796 763 L 797 762 L 800 762 L 804 759 L 804 749 L 803 748 L 803 744 L 804 743 L 803 719 L 804 718 L 804 706 Z M 732 704 L 738 704 L 739 705 L 761 704 L 762 705 L 772 705 L 773 706 L 773 745 L 772 746 L 772 750 L 773 751 L 773 759 L 775 762 L 779 762 L 781 764 L 781 778 L 780 779 L 780 784 L 781 785 L 781 804 L 780 805 L 724 805 L 723 804 L 723 796 L 724 795 L 723 764 L 725 762 L 728 762 L 731 760 L 731 705 Z M 635 705 L 639 705 L 640 704 L 649 704 L 650 705 L 687 704 L 688 705 L 700 705 L 701 706 L 701 761 L 707 762 L 709 764 L 709 786 L 708 787 L 708 792 L 709 793 L 709 804 L 708 805 L 635 805 L 634 804 L 634 706 Z M 555 705 L 573 705 L 574 704 L 603 705 L 604 704 L 612 704 L 613 705 L 619 705 L 620 706 L 620 804 L 619 805 L 557 805 L 556 804 L 546 805 L 545 804 L 545 782 L 544 781 L 545 763 L 546 762 L 552 761 L 552 759 L 554 758 L 554 751 L 553 750 L 553 747 L 554 746 L 554 706 Z M 483 704 L 491 704 L 492 705 L 514 704 L 515 705 L 520 705 L 521 706 L 521 714 L 522 715 L 522 743 L 521 744 L 521 752 L 522 753 L 522 759 L 524 762 L 528 762 L 530 764 L 530 779 L 529 780 L 530 804 L 529 805 L 474 805 L 472 803 L 472 763 L 473 762 L 480 761 L 480 759 L 481 758 L 481 706 Z M 397 705 L 402 705 L 403 704 L 406 704 L 407 705 L 410 705 L 411 704 L 417 704 L 418 705 L 439 704 L 440 705 L 449 705 L 450 706 L 450 759 L 452 762 L 457 762 L 458 763 L 458 772 L 457 773 L 457 777 L 458 778 L 458 804 L 457 805 L 408 805 L 403 803 L 399 799 L 399 797 L 397 796 L 397 793 L 396 792 L 396 706 Z M 409 414 L 411 413 L 411 411 L 417 403 L 421 399 L 422 399 L 422 398 L 424 397 L 428 392 L 430 392 L 432 389 L 441 384 L 443 382 L 447 380 L 450 380 L 451 378 L 455 378 L 456 376 L 466 374 L 467 373 L 475 373 L 476 372 L 481 372 L 482 371 L 506 372 L 507 373 L 511 373 L 512 375 L 527 378 L 528 380 L 532 380 L 542 385 L 544 388 L 547 388 L 550 392 L 555 394 L 559 397 L 564 403 L 566 403 L 571 408 L 571 409 L 580 418 L 580 420 L 583 422 L 589 429 L 590 432 L 595 436 L 598 441 L 603 446 L 603 448 L 609 453 L 609 455 L 613 458 L 614 461 L 618 464 L 619 467 L 622 469 L 623 472 L 627 475 L 628 478 L 632 481 L 632 483 L 636 486 L 636 488 L 641 492 L 641 494 L 646 498 L 646 500 L 649 502 L 651 506 L 655 509 L 655 511 L 660 515 L 661 518 L 664 520 L 664 522 L 671 528 L 671 530 L 676 535 L 681 538 L 685 543 L 687 543 L 690 547 L 692 547 L 694 550 L 697 552 L 699 552 L 700 554 L 702 554 L 703 556 L 707 557 L 708 559 L 711 561 L 714 561 L 729 569 L 739 572 L 740 574 L 742 574 L 743 575 L 748 575 L 752 577 L 759 578 L 761 580 L 764 580 L 765 581 L 783 582 L 788 584 L 795 584 L 796 585 L 803 585 L 804 586 L 807 586 L 813 589 L 815 589 L 823 594 L 825 594 L 826 596 L 828 596 L 830 599 L 833 600 L 845 613 L 846 617 L 851 623 L 851 625 L 853 628 L 853 630 L 855 634 L 855 637 L 856 638 L 856 648 L 857 649 L 857 652 L 856 653 L 856 658 L 857 659 L 857 674 L 855 676 L 402 676 L 401 675 L 397 675 L 396 674 L 396 453 L 397 452 L 397 446 L 398 445 L 399 437 L 401 435 L 402 428 Z" fill="rgb(43,30,65)" fill-rule="evenodd"/>
</svg>
