<?xml version="1.0" encoding="UTF-8"?>
<svg xmlns="http://www.w3.org/2000/svg" width="1254" height="1254" viewBox="0 0 1254 1254" fill="none">
  <path d="M 414 739 L 411 744 L 410 750 L 411 751 L 411 754 L 415 760 L 425 770 L 426 770 L 441 786 L 442 786 L 452 796 L 453 796 L 479 823 L 486 826 L 493 826 L 494 824 L 496 824 L 500 818 L 500 810 L 496 803 L 491 798 L 490 798 L 477 784 L 469 778 L 431 739 L 429 739 L 426 737 L 419 737 L 416 739 Z M 550 617 L 549 618 L 546 618 L 545 619 L 542 619 L 541 620 L 536 621 L 530 624 L 528 626 L 525 627 L 521 631 L 519 631 L 517 634 L 515 635 L 513 639 L 510 641 L 510 643 L 508 644 L 508 646 L 506 647 L 504 654 L 501 660 L 501 663 L 499 665 L 498 684 L 500 686 L 500 693 L 502 695 L 503 700 L 507 707 L 507 710 L 510 712 L 510 714 L 513 716 L 514 719 L 519 724 L 521 724 L 532 733 L 536 733 L 539 735 L 545 736 L 547 738 L 553 738 L 554 739 L 556 739 L 557 738 L 573 738 L 574 736 L 582 735 L 583 733 L 587 733 L 589 730 L 593 729 L 593 728 L 599 723 L 602 722 L 603 721 L 603 719 L 607 716 L 608 713 L 615 703 L 615 700 L 619 689 L 619 683 L 620 682 L 619 666 L 618 665 L 618 661 L 616 657 L 616 653 L 615 651 L 613 650 L 611 645 L 604 637 L 604 635 L 601 632 L 599 632 L 595 628 L 586 622 L 583 622 L 580 620 L 578 620 L 574 618 L 570 618 L 569 617 Z M 555 641 L 564 641 L 565 642 L 569 642 L 581 648 L 587 656 L 590 658 L 594 666 L 595 673 L 596 674 L 596 680 L 595 681 L 594 689 L 590 697 L 588 698 L 588 700 L 586 701 L 582 706 L 580 706 L 579 708 L 577 708 L 575 710 L 570 712 L 561 712 L 560 714 L 558 714 L 557 712 L 548 712 L 546 710 L 542 708 L 540 708 L 537 706 L 536 704 L 530 699 L 530 697 L 528 696 L 525 689 L 525 682 L 524 681 L 524 677 L 523 676 L 526 663 L 528 659 L 530 658 L 530 656 L 532 655 L 536 651 L 536 650 L 541 646 L 547 643 L 550 643 Z M 901 290 L 899 290 L 896 288 L 895 286 L 892 286 L 891 284 L 886 283 L 885 282 L 882 282 L 881 283 L 871 282 L 870 284 L 863 285 L 858 289 L 856 289 L 856 290 L 848 298 L 848 299 L 843 303 L 839 309 L 834 313 L 834 315 L 832 317 L 829 317 L 828 315 L 823 310 L 819 308 L 818 306 L 812 306 L 810 307 L 810 308 L 807 310 L 805 314 L 805 319 L 809 325 L 814 329 L 816 332 L 816 335 L 814 338 L 809 342 L 809 344 L 806 346 L 805 348 L 802 348 L 791 338 L 782 338 L 782 339 L 778 343 L 778 345 L 777 346 L 777 349 L 780 355 L 783 357 L 790 365 L 790 367 L 788 368 L 788 370 L 785 375 L 785 377 L 783 381 L 783 394 L 773 404 L 772 404 L 768 408 L 768 409 L 756 420 L 756 421 L 746 431 L 746 432 L 743 434 L 743 435 L 741 436 L 739 439 L 700 477 L 699 479 L 698 479 L 692 487 L 675 504 L 674 504 L 673 506 L 671 507 L 656 523 L 655 523 L 655 525 L 651 529 L 647 529 L 643 525 L 643 524 L 641 524 L 639 521 L 637 521 L 634 519 L 633 517 L 631 517 L 618 510 L 613 509 L 612 507 L 606 507 L 601 505 L 595 505 L 591 503 L 586 503 L 585 504 L 582 504 L 581 503 L 566 504 L 565 505 L 558 506 L 557 508 L 554 508 L 546 512 L 542 512 L 537 515 L 536 517 L 532 518 L 531 520 L 529 520 L 529 521 L 527 523 L 525 523 L 523 526 L 521 526 L 518 530 L 512 535 L 512 537 L 508 540 L 508 542 L 505 544 L 505 546 L 503 547 L 502 551 L 500 552 L 499 556 L 494 564 L 494 567 L 492 568 L 491 574 L 487 582 L 485 583 L 484 587 L 481 589 L 481 591 L 479 592 L 479 593 L 472 600 L 470 600 L 468 603 L 452 610 L 449 610 L 444 612 L 438 612 L 437 613 L 426 614 L 425 615 L 417 616 L 413 618 L 410 618 L 409 619 L 398 622 L 380 631 L 378 633 L 372 636 L 369 639 L 367 639 L 365 642 L 364 642 L 359 647 L 355 649 L 355 650 L 343 663 L 338 671 L 336 672 L 336 674 L 333 676 L 333 679 L 331 680 L 331 682 L 328 688 L 326 690 L 326 693 L 324 694 L 324 698 L 322 701 L 322 703 L 319 710 L 319 713 L 317 714 L 316 722 L 315 723 L 315 727 L 314 728 L 314 736 L 313 737 L 313 743 L 314 744 L 313 766 L 314 767 L 314 773 L 316 775 L 316 780 L 317 781 L 317 785 L 318 786 L 318 792 L 319 793 L 319 795 L 321 796 L 321 798 L 323 802 L 323 806 L 325 807 L 325 809 L 333 824 L 334 829 L 337 831 L 338 834 L 341 837 L 341 839 L 343 840 L 343 842 L 347 845 L 347 847 L 350 849 L 359 859 L 359 860 L 361 860 L 364 864 L 368 867 L 387 887 L 389 887 L 392 891 L 394 891 L 397 894 L 401 896 L 402 898 L 404 898 L 406 899 L 407 901 L 409 901 L 411 903 L 418 906 L 419 908 L 423 908 L 425 909 L 426 911 L 430 911 L 433 913 L 435 913 L 442 916 L 445 916 L 446 918 L 449 918 L 450 919 L 459 919 L 462 921 L 467 921 L 468 922 L 472 922 L 473 921 L 480 921 L 481 922 L 485 922 L 486 921 L 495 921 L 496 922 L 500 922 L 501 921 L 506 921 L 509 919 L 513 919 L 514 918 L 521 917 L 525 915 L 528 915 L 534 912 L 538 912 L 539 910 L 541 910 L 555 903 L 557 901 L 560 901 L 562 898 L 566 896 L 569 893 L 571 893 L 574 889 L 579 886 L 579 885 L 589 875 L 591 874 L 593 870 L 596 868 L 596 866 L 599 864 L 599 862 L 601 861 L 601 859 L 603 856 L 605 855 L 607 849 L 609 848 L 610 844 L 612 842 L 613 837 L 615 836 L 615 832 L 617 829 L 617 827 L 620 820 L 620 817 L 622 813 L 623 806 L 624 805 L 624 800 L 625 799 L 625 795 L 626 794 L 626 790 L 627 789 L 629 778 L 632 772 L 632 770 L 638 760 L 641 758 L 641 756 L 645 752 L 648 751 L 651 747 L 653 747 L 654 745 L 657 745 L 660 742 L 667 740 L 673 737 L 674 735 L 682 732 L 683 730 L 685 730 L 686 728 L 688 728 L 689 726 L 691 726 L 692 724 L 699 718 L 701 718 L 705 714 L 705 712 L 709 708 L 710 708 L 711 705 L 713 704 L 713 702 L 715 701 L 715 699 L 717 698 L 717 696 L 719 692 L 721 691 L 722 689 L 722 686 L 724 683 L 724 681 L 728 671 L 728 667 L 730 665 L 730 661 L 731 660 L 731 651 L 730 650 L 730 631 L 729 630 L 729 627 L 727 625 L 727 622 L 726 621 L 725 616 L 723 613 L 722 607 L 720 603 L 717 601 L 716 597 L 715 597 L 711 592 L 711 590 L 706 586 L 705 581 L 710 576 L 710 575 L 718 568 L 718 566 L 729 555 L 730 555 L 753 532 L 754 530 L 756 529 L 759 524 L 793 491 L 799 483 L 813 469 L 814 469 L 814 468 L 816 467 L 816 466 L 825 457 L 826 457 L 838 444 L 839 444 L 843 440 L 850 439 L 861 433 L 863 431 L 865 431 L 874 441 L 876 441 L 877 442 L 884 442 L 889 439 L 889 437 L 890 436 L 890 429 L 879 418 L 879 415 L 892 402 L 894 402 L 899 407 L 899 408 L 902 410 L 902 411 L 904 411 L 906 413 L 912 413 L 915 411 L 917 411 L 919 407 L 919 400 L 917 396 L 908 388 L 908 386 L 913 381 L 914 381 L 914 380 L 918 376 L 919 376 L 920 374 L 922 373 L 922 372 L 927 367 L 928 367 L 931 363 L 932 363 L 932 361 L 936 354 L 936 352 L 938 350 L 939 340 L 937 337 L 937 333 L 935 329 L 935 326 L 932 323 L 929 317 L 922 310 L 921 310 L 914 302 L 912 302 Z M 796 417 L 808 430 L 810 430 L 812 432 L 812 435 L 810 436 L 810 437 L 808 438 L 803 445 L 795 453 L 794 453 L 793 455 L 784 464 L 782 465 L 782 466 L 762 486 L 762 487 L 760 488 L 755 493 L 755 494 L 721 527 L 715 535 L 686 563 L 686 565 L 675 576 L 675 578 L 673 579 L 673 585 L 675 587 L 675 589 L 679 593 L 679 594 L 686 600 L 688 604 L 692 607 L 692 609 L 693 609 L 694 610 L 694 612 L 696 613 L 696 616 L 700 623 L 702 631 L 704 632 L 705 644 L 706 645 L 706 653 L 704 654 L 703 668 L 701 669 L 701 674 L 696 684 L 694 685 L 694 687 L 692 688 L 692 690 L 688 693 L 688 695 L 684 699 L 680 701 L 679 703 L 674 707 L 672 707 L 671 709 L 669 709 L 649 720 L 644 721 L 642 724 L 638 725 L 636 728 L 634 728 L 633 730 L 631 730 L 623 738 L 621 742 L 616 748 L 615 751 L 613 752 L 613 754 L 609 761 L 609 763 L 607 766 L 607 768 L 605 772 L 605 775 L 604 776 L 604 779 L 602 784 L 602 788 L 601 789 L 601 793 L 599 798 L 599 802 L 598 803 L 597 810 L 596 811 L 593 822 L 585 839 L 572 857 L 555 873 L 553 873 L 547 877 L 546 879 L 542 880 L 541 882 L 533 886 L 530 886 L 528 888 L 524 888 L 523 890 L 521 890 L 520 891 L 505 893 L 503 895 L 490 895 L 489 896 L 464 895 L 463 894 L 458 894 L 457 892 L 450 891 L 446 889 L 441 889 L 440 888 L 438 888 L 431 884 L 429 884 L 423 881 L 421 878 L 418 878 L 417 876 L 415 876 L 414 874 L 412 874 L 408 870 L 402 866 L 397 861 L 397 860 L 396 860 L 394 857 L 393 857 L 392 855 L 391 855 L 390 853 L 382 845 L 381 845 L 370 833 L 367 831 L 366 828 L 362 825 L 362 823 L 360 822 L 360 820 L 355 814 L 354 809 L 350 801 L 348 800 L 348 798 L 346 795 L 346 793 L 344 789 L 344 783 L 343 782 L 342 775 L 340 773 L 340 760 L 338 757 L 338 746 L 340 744 L 340 730 L 342 728 L 342 725 L 344 720 L 344 714 L 345 713 L 345 711 L 347 710 L 347 706 L 350 702 L 350 699 L 352 695 L 354 694 L 356 688 L 358 687 L 358 685 L 360 684 L 361 681 L 364 679 L 364 677 L 367 675 L 368 673 L 370 672 L 370 671 L 383 659 L 386 657 L 388 657 L 388 656 L 392 653 L 406 646 L 411 645 L 417 642 L 428 640 L 429 639 L 433 639 L 434 638 L 438 638 L 439 637 L 444 637 L 445 636 L 449 636 L 450 635 L 458 634 L 459 633 L 467 631 L 481 624 L 483 622 L 485 622 L 486 620 L 488 620 L 489 618 L 495 614 L 498 609 L 502 606 L 502 604 L 504 603 L 504 601 L 506 600 L 506 598 L 508 597 L 508 595 L 510 591 L 513 588 L 513 584 L 514 582 L 516 581 L 516 577 L 517 575 L 519 574 L 521 567 L 523 563 L 525 562 L 527 559 L 527 557 L 531 554 L 532 551 L 535 548 L 538 547 L 541 543 L 543 543 L 552 537 L 556 536 L 557 534 L 561 534 L 563 532 L 565 532 L 566 531 L 574 531 L 576 529 L 578 529 L 579 530 L 586 530 L 587 529 L 590 529 L 591 530 L 597 530 L 599 532 L 605 532 L 606 533 L 608 533 L 609 535 L 611 536 L 615 536 L 617 537 L 619 540 L 623 541 L 624 543 L 626 543 L 631 549 L 633 549 L 641 558 L 643 558 L 648 561 L 650 561 L 652 559 L 656 559 L 657 557 L 664 550 L 665 550 L 684 530 L 688 527 L 688 525 L 730 484 L 730 482 L 766 447 L 766 446 L 773 439 L 773 438 L 784 427 L 785 427 L 794 417 Z M 884 310 L 888 313 L 891 317 L 893 317 L 911 336 L 913 339 L 913 345 L 912 346 L 912 348 L 910 349 L 901 358 L 901 359 L 894 366 L 893 366 L 891 369 L 856 404 L 852 407 L 852 408 L 846 414 L 842 416 L 832 416 L 828 414 L 826 411 L 825 411 L 817 403 L 816 403 L 811 397 L 809 396 L 808 391 L 807 390 L 807 387 L 808 386 L 809 381 L 812 379 L 813 376 L 818 371 L 818 370 L 824 365 L 824 363 L 828 360 L 830 356 L 833 354 L 836 349 L 841 345 L 842 342 L 849 335 L 849 334 L 854 330 L 855 327 L 860 322 L 861 322 L 861 320 L 864 318 L 872 309 L 881 309 L 882 310 Z" fill="rgb(44,31,66)" fill-rule="evenodd"/>
</svg>
