<?xml version="1.0" encoding="UTF-8"?>
<svg xmlns="http://www.w3.org/2000/svg" width="1254" height="1254" viewBox="0 0 1254 1254" fill="none">
  <path d="M 620 617 L 612 613 L 601 613 L 600 614 L 595 615 L 595 616 L 592 618 L 589 622 L 588 622 L 588 624 L 579 634 L 571 645 L 567 648 L 567 650 L 562 655 L 558 662 L 557 669 L 558 670 L 559 677 L 561 678 L 561 680 L 571 686 L 579 687 L 580 686 L 585 686 L 586 684 L 590 682 L 591 680 L 595 677 L 595 675 L 599 672 L 599 670 L 603 666 L 607 660 L 611 657 L 611 655 L 616 650 L 616 649 L 620 646 L 620 644 L 623 642 L 623 640 L 625 636 L 625 625 L 622 621 L 622 619 Z M 853 302 L 848 299 L 846 299 L 845 297 L 843 297 L 841 295 L 824 287 L 823 285 L 819 285 L 804 279 L 793 277 L 791 275 L 787 275 L 786 274 L 771 274 L 770 273 L 766 273 L 765 272 L 756 272 L 755 273 L 750 273 L 749 274 L 742 273 L 738 275 L 733 275 L 732 276 L 728 276 L 727 277 L 720 277 L 718 279 L 716 279 L 715 280 L 712 280 L 708 282 L 701 283 L 700 285 L 696 285 L 696 286 L 693 288 L 690 288 L 681 292 L 678 294 L 677 296 L 673 297 L 672 299 L 670 299 L 669 301 L 667 301 L 666 303 L 664 303 L 663 305 L 661 305 L 659 308 L 657 308 L 655 311 L 643 322 L 642 322 L 638 326 L 635 331 L 630 335 L 630 337 L 627 339 L 627 341 L 622 347 L 621 350 L 619 351 L 619 353 L 617 355 L 609 370 L 609 372 L 604 382 L 604 384 L 600 394 L 600 397 L 598 401 L 598 404 L 597 405 L 597 409 L 596 410 L 596 414 L 595 415 L 595 421 L 594 422 L 594 427 L 593 428 L 593 433 L 594 434 L 594 463 L 595 464 L 595 481 L 591 487 L 589 488 L 588 491 L 585 494 L 583 498 L 571 514 L 569 515 L 569 517 L 566 519 L 566 521 L 557 533 L 554 535 L 554 537 L 552 538 L 551 541 L 546 548 L 543 550 L 543 552 L 540 554 L 540 556 L 537 558 L 537 560 L 534 564 L 532 565 L 532 567 L 529 569 L 529 571 L 526 573 L 526 575 L 523 577 L 523 579 L 520 581 L 520 583 L 517 585 L 517 587 L 515 588 L 515 590 L 512 592 L 512 594 L 509 596 L 509 598 L 506 600 L 506 602 L 503 604 L 503 606 L 501 607 L 501 609 L 498 611 L 498 613 L 495 615 L 495 617 L 492 619 L 492 621 L 489 623 L 489 625 L 487 626 L 486 629 L 484 630 L 484 632 L 481 634 L 481 636 L 478 638 L 478 640 L 476 641 L 475 644 L 473 645 L 473 647 L 470 649 L 469 652 L 467 653 L 464 657 L 464 659 L 461 661 L 461 663 L 458 665 L 458 667 L 455 669 L 455 671 L 453 672 L 452 675 L 450 676 L 450 678 L 447 680 L 447 682 L 444 684 L 444 686 L 441 688 L 441 690 L 439 691 L 438 694 L 436 695 L 436 697 L 432 701 L 427 709 L 424 711 L 424 713 L 422 714 L 421 717 L 418 720 L 416 724 L 410 732 L 408 733 L 407 736 L 404 739 L 402 743 L 398 747 L 396 751 L 394 752 L 393 755 L 364 793 L 362 797 L 359 799 L 359 801 L 356 803 L 355 807 L 350 814 L 348 821 L 346 822 L 345 824 L 345 826 L 344 827 L 344 834 L 342 836 L 342 859 L 343 860 L 342 866 L 344 867 L 344 872 L 346 876 L 346 879 L 355 898 L 358 901 L 358 903 L 360 904 L 360 906 L 361 906 L 366 911 L 366 913 L 368 915 L 370 915 L 374 919 L 374 920 L 375 921 L 377 921 L 380 925 L 383 925 L 385 928 L 388 928 L 390 931 L 394 931 L 399 934 L 401 934 L 405 937 L 408 937 L 409 938 L 418 938 L 421 940 L 432 940 L 433 939 L 447 939 L 448 938 L 452 938 L 454 936 L 456 936 L 460 934 L 464 934 L 465 932 L 469 932 L 470 930 L 475 929 L 477 926 L 479 926 L 480 924 L 483 922 L 485 922 L 487 919 L 490 918 L 492 915 L 499 909 L 499 907 L 504 903 L 504 901 L 510 896 L 510 894 L 516 889 L 516 887 L 522 882 L 522 880 L 527 876 L 527 874 L 533 869 L 534 866 L 539 862 L 539 860 L 545 855 L 545 853 L 551 848 L 551 846 L 557 841 L 557 839 L 562 835 L 562 833 L 565 831 L 569 825 L 574 821 L 574 819 L 579 815 L 580 812 L 583 810 L 584 808 L 585 808 L 586 805 L 592 800 L 592 798 L 597 794 L 598 791 L 604 786 L 604 784 L 609 780 L 611 776 L 615 773 L 616 770 L 621 766 L 622 763 L 627 759 L 628 756 L 633 752 L 634 749 L 640 744 L 640 742 L 644 739 L 647 734 L 652 730 L 652 728 L 658 722 L 658 721 L 662 718 L 664 714 L 669 710 L 669 708 L 675 703 L 675 701 L 682 694 L 682 693 L 688 688 L 688 686 L 694 681 L 694 679 L 699 675 L 699 673 L 705 668 L 706 665 L 712 660 L 712 658 L 718 653 L 718 651 L 724 646 L 724 644 L 730 639 L 730 637 L 736 632 L 736 630 L 741 626 L 742 623 L 747 619 L 747 617 L 751 614 L 752 611 L 755 608 L 757 607 L 763 607 L 764 606 L 772 606 L 774 604 L 782 604 L 783 603 L 791 602 L 793 600 L 796 600 L 800 598 L 805 598 L 807 596 L 817 593 L 820 591 L 826 590 L 827 588 L 831 586 L 836 585 L 842 580 L 844 580 L 845 578 L 853 574 L 854 572 L 856 572 L 858 569 L 860 569 L 863 565 L 865 565 L 870 560 L 870 559 L 882 548 L 884 544 L 888 541 L 888 539 L 891 537 L 891 535 L 898 526 L 903 516 L 905 515 L 905 513 L 909 507 L 909 504 L 910 502 L 912 501 L 912 497 L 914 496 L 914 492 L 916 491 L 916 489 L 917 488 L 917 482 L 919 478 L 920 470 L 921 469 L 921 465 L 923 463 L 923 457 L 924 456 L 924 449 L 923 448 L 923 445 L 924 444 L 924 430 L 923 429 L 923 427 L 924 426 L 924 419 L 923 418 L 923 412 L 922 411 L 922 408 L 920 405 L 919 398 L 918 397 L 917 391 L 916 390 L 914 382 L 912 379 L 912 377 L 904 360 L 894 345 L 894 343 L 891 341 L 891 339 L 888 337 L 887 334 L 883 331 L 883 329 L 880 327 L 868 314 L 865 313 L 861 308 L 859 308 L 857 305 L 855 305 Z M 612 515 L 615 519 L 617 519 L 619 522 L 621 522 L 624 526 L 626 526 L 628 529 L 631 530 L 634 534 L 636 534 L 639 538 L 641 538 L 643 541 L 645 541 L 648 545 L 651 546 L 654 550 L 656 550 L 658 553 L 660 553 L 662 556 L 664 556 L 668 561 L 670 561 L 673 565 L 675 565 L 677 569 L 680 569 L 683 573 L 684 573 L 688 577 L 690 577 L 692 580 L 694 580 L 698 585 L 700 585 L 701 586 L 701 588 L 704 588 L 707 592 L 709 592 L 712 596 L 714 596 L 715 598 L 719 601 L 719 605 L 715 608 L 713 612 L 708 616 L 707 619 L 701 624 L 701 626 L 695 631 L 695 633 L 689 638 L 689 640 L 685 643 L 683 647 L 676 653 L 676 655 L 672 658 L 670 662 L 666 665 L 664 669 L 661 671 L 658 676 L 653 680 L 652 683 L 646 689 L 646 690 L 642 693 L 641 696 L 635 702 L 635 703 L 630 707 L 629 710 L 624 714 L 623 717 L 617 723 L 617 724 L 613 727 L 611 731 L 605 737 L 605 738 L 600 742 L 600 744 L 593 751 L 587 759 L 583 762 L 580 767 L 576 770 L 575 773 L 569 778 L 569 780 L 563 786 L 557 794 L 551 799 L 551 801 L 546 806 L 546 807 L 540 812 L 540 814 L 535 818 L 534 821 L 528 826 L 528 828 L 523 832 L 523 834 L 517 839 L 517 841 L 511 846 L 511 848 L 507 851 L 506 854 L 499 860 L 499 862 L 497 863 L 494 868 L 489 872 L 489 874 L 484 878 L 480 884 L 478 884 L 477 888 L 475 889 L 468 897 L 464 898 L 462 901 L 454 905 L 450 905 L 448 907 L 441 907 L 440 908 L 422 908 L 421 907 L 414 907 L 413 906 L 408 905 L 407 903 L 403 901 L 400 901 L 394 897 L 392 894 L 384 887 L 378 877 L 377 872 L 375 871 L 375 868 L 373 864 L 373 859 L 372 858 L 372 856 L 373 855 L 373 847 L 372 846 L 372 844 L 373 843 L 373 839 L 374 838 L 375 832 L 377 831 L 377 827 L 379 826 L 381 822 L 381 820 L 384 818 L 384 816 L 387 814 L 387 812 L 390 810 L 390 808 L 393 806 L 393 804 L 395 803 L 396 800 L 399 797 L 401 793 L 404 791 L 404 789 L 406 788 L 407 785 L 410 781 L 414 778 L 416 775 L 416 773 L 419 770 L 421 766 L 424 764 L 424 762 L 427 760 L 427 758 L 429 757 L 430 754 L 433 750 L 435 749 L 436 746 L 438 745 L 438 743 L 441 739 L 443 738 L 444 735 L 450 728 L 452 724 L 458 716 L 461 714 L 461 712 L 467 704 L 470 702 L 470 700 L 473 698 L 473 696 L 475 695 L 475 693 L 478 691 L 478 689 L 481 687 L 481 685 L 484 683 L 484 681 L 487 679 L 487 677 L 489 676 L 489 674 L 492 672 L 492 670 L 495 668 L 495 666 L 498 664 L 498 662 L 501 660 L 501 658 L 504 656 L 504 654 L 506 653 L 506 651 L 510 648 L 510 646 L 512 645 L 512 643 L 515 641 L 515 639 L 518 637 L 518 635 L 521 633 L 521 631 L 524 629 L 524 627 L 527 625 L 527 623 L 529 622 L 529 620 L 532 618 L 532 616 L 535 614 L 535 612 L 538 610 L 540 607 L 540 605 L 543 603 L 543 601 L 546 599 L 546 597 L 549 595 L 549 593 L 552 591 L 552 589 L 554 588 L 554 586 L 557 584 L 557 582 L 560 580 L 560 578 L 563 576 L 563 574 L 566 572 L 566 570 L 567 569 L 569 569 L 569 566 L 571 565 L 571 563 L 575 560 L 577 557 L 577 555 L 580 553 L 580 551 L 583 547 L 586 545 L 588 542 L 588 540 L 591 538 L 592 535 L 594 534 L 594 532 L 597 530 L 597 528 L 600 526 L 600 524 L 603 522 L 603 520 L 605 519 L 605 517 L 608 515 Z M 634 388 L 635 387 L 641 387 L 646 390 L 648 390 L 650 392 L 653 392 L 654 394 L 656 395 L 662 396 L 682 406 L 683 408 L 691 411 L 693 413 L 696 414 L 697 416 L 701 417 L 702 419 L 705 421 L 707 421 L 712 425 L 715 426 L 719 430 L 721 430 L 722 432 L 725 433 L 726 435 L 728 435 L 736 441 L 738 444 L 741 445 L 744 449 L 746 449 L 751 454 L 752 454 L 757 460 L 759 460 L 773 475 L 775 475 L 785 486 L 785 487 L 795 496 L 797 500 L 801 503 L 801 505 L 806 509 L 808 513 L 810 514 L 811 517 L 814 519 L 814 521 L 817 523 L 817 525 L 820 527 L 820 529 L 823 531 L 827 538 L 830 541 L 830 543 L 832 544 L 833 550 L 828 552 L 826 555 L 820 558 L 818 558 L 817 560 L 815 561 L 811 561 L 809 562 L 808 564 L 798 567 L 795 569 L 792 569 L 791 570 L 781 572 L 780 573 L 766 575 L 761 577 L 756 577 L 755 578 L 745 578 L 744 580 L 742 580 L 731 572 L 729 569 L 727 569 L 724 565 L 721 564 L 717 561 L 714 557 L 712 557 L 709 553 L 707 553 L 704 549 L 702 549 L 699 545 L 697 545 L 694 541 L 692 541 L 688 536 L 686 536 L 683 532 L 681 532 L 679 529 L 677 529 L 674 525 L 672 525 L 669 521 L 667 521 L 665 518 L 663 518 L 660 514 L 658 514 L 655 510 L 652 509 L 650 506 L 648 506 L 645 502 L 643 502 L 640 498 L 638 498 L 634 494 L 633 494 L 630 490 L 628 490 L 627 488 L 625 487 L 625 481 L 626 480 L 626 478 L 625 477 L 625 473 L 624 472 L 624 447 L 623 446 L 623 435 L 624 434 L 624 425 L 625 424 L 626 413 L 628 412 L 628 405 L 629 404 L 629 401 Z M 656 351 L 660 347 L 661 347 L 670 338 L 671 336 L 673 336 L 676 332 L 678 332 L 680 329 L 682 329 L 682 328 L 683 327 L 685 327 L 686 325 L 689 325 L 691 322 L 694 322 L 695 320 L 699 319 L 702 317 L 704 317 L 704 316 L 707 314 L 711 314 L 712 312 L 714 312 L 721 309 L 724 309 L 725 308 L 732 308 L 737 306 L 742 306 L 746 304 L 748 304 L 749 305 L 753 305 L 754 304 L 771 305 L 772 304 L 775 304 L 776 305 L 781 305 L 784 307 L 787 307 L 792 309 L 798 309 L 799 310 L 807 312 L 810 314 L 812 314 L 814 315 L 815 317 L 826 321 L 828 324 L 831 324 L 832 326 L 834 326 L 835 328 L 837 328 L 839 331 L 841 331 L 844 335 L 846 335 L 847 337 L 860 350 L 862 351 L 862 353 L 866 356 L 866 358 L 868 359 L 869 362 L 871 363 L 871 365 L 873 366 L 874 370 L 876 371 L 876 373 L 881 382 L 881 384 L 883 385 L 883 389 L 888 399 L 888 401 L 889 402 L 889 408 L 890 409 L 890 412 L 892 415 L 892 427 L 893 428 L 893 432 L 894 433 L 894 442 L 892 444 L 892 456 L 891 457 L 891 466 L 890 467 L 889 474 L 888 475 L 886 483 L 884 484 L 884 488 L 882 490 L 882 493 L 877 503 L 875 504 L 874 508 L 872 509 L 871 513 L 868 515 L 866 518 L 866 520 L 863 522 L 859 528 L 857 528 L 855 526 L 855 524 L 853 523 L 853 521 L 851 520 L 851 518 L 849 517 L 843 509 L 840 503 L 837 501 L 837 499 L 834 497 L 834 495 L 832 494 L 825 486 L 824 483 L 819 479 L 818 476 L 808 467 L 802 459 L 794 451 L 789 448 L 780 438 L 778 438 L 774 433 L 770 431 L 768 428 L 765 427 L 762 423 L 760 423 L 758 420 L 755 419 L 753 416 L 751 416 L 748 413 L 744 411 L 742 408 L 740 408 L 737 406 L 736 404 L 733 403 L 714 390 L 675 369 L 673 369 L 664 364 L 662 364 L 659 362 L 657 362 L 652 359 L 652 356 L 656 353 Z" fill="rgb(39,24,62)" fill-rule="evenodd"/>
</svg>
