<?xml version="1.0" encoding="UTF-8"?>
<svg xmlns="http://www.w3.org/2000/svg" width="1254" height="1254" viewBox="0 0 1254 1254" fill="none">
  <path d="M 733 539 L 731 539 L 728 536 L 723 534 L 714 533 L 713 534 L 710 534 L 709 536 L 706 536 L 702 538 L 696 538 L 695 540 L 693 540 L 692 541 L 689 541 L 685 543 L 682 543 L 678 545 L 668 547 L 661 550 L 658 550 L 651 553 L 641 555 L 634 558 L 631 558 L 624 561 L 621 561 L 620 562 L 614 563 L 607 566 L 604 566 L 597 569 L 594 569 L 590 571 L 580 573 L 573 576 L 571 578 L 569 578 L 565 584 L 562 591 L 562 612 L 561 613 L 561 623 L 562 624 L 562 631 L 561 632 L 561 634 L 562 635 L 562 669 L 561 670 L 562 707 L 561 708 L 561 720 L 562 721 L 562 726 L 561 727 L 559 727 L 554 724 L 552 724 L 548 722 L 545 722 L 544 721 L 532 721 L 531 720 L 526 720 L 525 722 L 521 722 L 520 723 L 515 724 L 510 727 L 508 727 L 507 729 L 505 729 L 504 731 L 502 731 L 502 732 L 492 742 L 492 743 L 490 744 L 490 746 L 488 747 L 485 753 L 483 763 L 481 766 L 481 768 L 482 769 L 482 785 L 485 793 L 485 797 L 487 798 L 489 803 L 491 805 L 491 807 L 494 809 L 494 811 L 496 813 L 500 815 L 502 818 L 505 819 L 506 821 L 521 827 L 524 827 L 525 828 L 544 828 L 545 827 L 549 827 L 550 826 L 555 825 L 561 822 L 563 820 L 565 820 L 566 818 L 568 818 L 572 814 L 572 813 L 575 811 L 580 804 L 582 799 L 584 798 L 584 794 L 585 793 L 585 791 L 587 790 L 587 787 L 588 786 L 588 765 L 589 764 L 589 753 L 588 752 L 588 728 L 589 727 L 589 710 L 588 709 L 588 683 L 589 682 L 589 674 L 588 673 L 588 662 L 589 661 L 592 661 L 593 660 L 595 660 L 599 658 L 602 658 L 612 654 L 615 654 L 616 653 L 622 652 L 626 650 L 629 650 L 639 646 L 642 646 L 646 644 L 656 642 L 657 641 L 659 641 L 666 638 L 669 638 L 676 635 L 679 635 L 683 633 L 691 632 L 693 630 L 696 630 L 697 629 L 699 629 L 703 627 L 706 627 L 710 625 L 712 625 L 713 626 L 713 693 L 712 694 L 710 694 L 708 693 L 707 691 L 703 691 L 702 690 L 695 689 L 694 688 L 678 688 L 677 689 L 673 689 L 669 691 L 665 691 L 661 693 L 659 696 L 657 696 L 652 701 L 651 701 L 648 705 L 644 708 L 644 710 L 642 711 L 642 713 L 638 719 L 638 721 L 636 724 L 636 727 L 635 728 L 635 732 L 634 733 L 634 745 L 633 746 L 633 748 L 635 750 L 636 758 L 642 770 L 644 772 L 644 774 L 658 787 L 661 787 L 665 789 L 666 791 L 671 793 L 679 793 L 680 794 L 697 794 L 699 792 L 704 791 L 713 786 L 715 786 L 716 784 L 718 784 L 719 782 L 726 777 L 727 774 L 729 773 L 732 769 L 733 765 L 735 762 L 736 757 L 738 756 L 738 754 L 739 753 L 739 745 L 740 744 L 740 552 L 738 551 L 738 548 Z M 529 747 L 541 747 L 543 749 L 547 749 L 549 752 L 557 758 L 560 763 L 560 765 L 562 769 L 562 776 L 561 777 L 560 786 L 559 788 L 550 798 L 541 802 L 529 802 L 520 798 L 514 793 L 514 791 L 511 789 L 508 781 L 508 768 L 510 763 L 512 761 L 512 759 L 520 752 L 527 749 Z M 678 715 L 695 715 L 701 718 L 702 720 L 708 725 L 708 727 L 710 728 L 712 733 L 712 745 L 711 746 L 711 751 L 707 758 L 704 760 L 703 762 L 701 762 L 700 764 L 689 768 L 683 768 L 672 764 L 667 759 L 665 755 L 662 753 L 662 751 L 660 747 L 659 740 L 660 739 L 660 735 L 663 727 L 665 726 L 665 724 L 668 721 Z M 713 564 L 713 596 L 711 598 L 708 598 L 701 601 L 694 602 L 693 603 L 691 603 L 684 606 L 681 606 L 674 609 L 671 609 L 667 611 L 660 612 L 650 616 L 647 616 L 640 619 L 630 621 L 623 624 L 613 626 L 612 627 L 610 627 L 606 629 L 603 629 L 599 631 L 596 631 L 595 632 L 590 632 L 589 631 L 589 627 L 588 626 L 588 599 L 589 598 L 592 598 L 596 596 L 599 596 L 603 594 L 613 592 L 623 588 L 630 587 L 631 586 L 633 586 L 637 584 L 640 584 L 644 582 L 653 581 L 654 579 L 664 577 L 671 574 L 680 573 L 681 572 L 683 572 L 684 570 L 687 570 L 691 568 L 698 567 L 708 563 L 712 563 Z M 416 303 L 414 306 L 408 309 L 408 310 L 402 315 L 394 326 L 389 338 L 389 341 L 388 342 L 388 350 L 387 351 L 387 895 L 388 896 L 387 902 L 389 903 L 389 907 L 392 913 L 392 915 L 398 926 L 400 927 L 400 929 L 406 935 L 408 935 L 412 938 L 414 941 L 417 941 L 419 942 L 420 944 L 424 944 L 431 947 L 438 947 L 440 949 L 442 949 L 443 948 L 453 948 L 454 949 L 461 949 L 462 948 L 650 948 L 651 949 L 655 949 L 656 948 L 733 948 L 734 949 L 737 949 L 738 948 L 811 948 L 812 949 L 814 949 L 815 948 L 826 948 L 827 947 L 832 948 L 834 946 L 839 946 L 840 945 L 842 945 L 843 943 L 851 939 L 853 939 L 855 936 L 857 936 L 862 931 L 862 930 L 865 928 L 865 926 L 871 918 L 875 908 L 876 900 L 878 895 L 878 890 L 877 889 L 877 576 L 878 575 L 878 573 L 877 572 L 877 460 L 876 459 L 875 451 L 870 441 L 870 439 L 867 437 L 867 436 L 825 394 L 825 393 L 823 392 L 806 375 L 806 374 L 805 374 L 804 372 L 803 372 L 774 343 L 772 340 L 771 340 L 737 306 L 736 306 L 734 303 L 731 303 L 729 302 L 728 300 L 724 300 L 719 298 L 438 298 L 437 297 L 434 297 L 432 299 L 428 299 L 422 302 L 418 302 Z M 724 343 L 725 342 L 727 342 L 730 344 L 737 351 L 737 352 L 800 414 L 801 416 L 803 416 L 807 420 L 807 421 L 818 433 L 819 433 L 833 446 L 833 449 L 831 451 L 742 451 L 741 450 L 737 450 L 736 448 L 733 448 L 725 439 L 725 436 L 724 435 L 724 428 L 723 427 L 723 419 L 724 418 L 724 361 L 723 360 L 723 346 L 724 345 Z M 429 333 L 431 333 L 431 332 L 434 330 L 441 330 L 442 328 L 691 328 L 692 329 L 692 439 L 695 447 L 695 451 L 697 452 L 698 457 L 701 459 L 701 461 L 704 463 L 708 469 L 710 469 L 713 473 L 715 473 L 716 475 L 718 475 L 723 478 L 725 478 L 729 480 L 733 480 L 734 481 L 838 481 L 839 482 L 845 482 L 846 483 L 846 487 L 845 488 L 845 492 L 846 493 L 846 896 L 843 904 L 841 905 L 841 907 L 838 910 L 831 914 L 829 914 L 828 916 L 824 916 L 823 917 L 447 917 L 446 916 L 441 917 L 440 915 L 434 915 L 432 914 L 423 906 L 423 904 L 421 903 L 421 901 L 419 897 L 419 348 L 421 343 L 423 341 L 423 339 L 425 338 Z" fill="rgb(45,31,69)" fill-rule="evenodd"/>
</svg>
