<?xml version="1.0" encoding="UTF-8"?>
<svg xmlns="http://www.w3.org/2000/svg" width="1254" height="1254" viewBox="0 0 1254 1254" fill="none">
  <path d="M 444 897 L 443 899 L 441 899 L 441 900 L 437 903 L 437 905 L 434 911 L 434 920 L 435 921 L 436 926 L 438 927 L 438 929 L 442 933 L 445 933 L 449 935 L 459 935 L 464 932 L 466 932 L 466 931 L 470 927 L 471 927 L 471 925 L 473 922 L 473 919 L 475 917 L 475 913 L 473 911 L 472 906 L 467 900 L 460 896 L 448 896 L 447 897 Z M 450 909 L 455 909 L 460 913 L 460 918 L 457 922 L 449 921 L 447 919 L 447 912 L 449 911 Z M 486 855 L 482 858 L 479 862 L 477 867 L 475 868 L 475 879 L 477 880 L 477 883 L 484 890 L 488 892 L 490 892 L 491 893 L 499 893 L 500 892 L 502 892 L 506 890 L 512 884 L 513 880 L 515 879 L 515 877 L 514 876 L 514 867 L 508 858 L 505 856 L 503 856 L 499 854 L 491 854 L 490 855 Z M 489 872 L 492 867 L 498 867 L 500 869 L 500 871 L 502 872 L 502 875 L 499 877 L 498 879 L 491 879 L 489 877 Z M 373 794 L 369 798 L 369 800 L 368 801 L 370 808 L 374 812 L 375 812 L 387 824 L 387 825 L 389 826 L 409 846 L 409 847 L 423 862 L 427 864 L 434 864 L 436 863 L 439 859 L 439 853 L 431 844 L 431 843 L 428 841 L 413 826 L 407 818 L 405 818 L 404 817 L 404 815 L 403 815 L 387 798 L 386 798 L 382 794 L 380 794 L 379 793 L 375 793 Z M 421 742 L 421 743 L 416 746 L 415 748 L 400 763 L 398 767 L 397 777 L 400 785 L 407 793 L 408 793 L 415 800 L 415 801 L 448 833 L 452 835 L 456 835 L 457 836 L 461 836 L 462 835 L 465 835 L 468 833 L 470 833 L 470 832 L 475 827 L 476 827 L 487 817 L 487 815 L 489 813 L 489 811 L 490 810 L 490 807 L 492 806 L 492 803 L 491 802 L 490 797 L 487 792 L 487 790 L 484 788 L 477 781 L 477 780 L 474 778 L 450 754 L 450 753 L 449 753 L 442 746 L 441 744 L 439 744 L 436 742 L 433 742 L 432 741 Z M 427 761 L 432 761 L 437 766 L 438 766 L 442 770 L 442 771 L 445 773 L 446 776 L 450 780 L 452 780 L 460 789 L 460 790 L 464 794 L 465 794 L 472 802 L 472 805 L 460 818 L 457 818 L 456 816 L 454 815 L 440 801 L 440 800 L 431 792 L 431 790 L 429 789 L 416 775 L 416 772 Z M 490 677 L 486 679 L 484 682 L 469 696 L 469 698 L 467 699 L 467 702 L 466 703 L 466 710 L 465 711 L 466 716 L 468 717 L 469 721 L 471 722 L 478 729 L 478 730 L 479 730 L 499 750 L 502 755 L 513 765 L 514 765 L 515 767 L 517 767 L 518 769 L 521 769 L 522 771 L 524 771 L 525 770 L 533 770 L 541 766 L 556 751 L 558 748 L 560 734 L 558 733 L 556 726 L 555 726 L 543 714 L 539 708 L 534 703 L 533 703 L 510 679 L 507 679 L 501 676 Z M 494 696 L 499 695 L 503 699 L 504 699 L 508 703 L 508 704 L 541 736 L 541 741 L 533 749 L 531 749 L 528 752 L 526 752 L 522 748 L 521 748 L 512 739 L 512 738 L 511 738 L 497 724 L 497 722 L 496 722 L 484 709 L 484 706 L 487 704 Z M 989 267 L 984 264 L 976 263 L 973 261 L 966 261 L 965 262 L 961 262 L 960 264 L 956 264 L 955 263 L 956 258 L 954 255 L 952 248 L 951 248 L 947 244 L 941 241 L 939 241 L 938 242 L 933 242 L 924 247 L 924 249 L 922 250 L 921 252 L 921 256 L 920 257 L 920 261 L 922 265 L 922 268 L 924 269 L 924 271 L 931 275 L 931 277 L 929 279 L 923 282 L 920 282 L 919 281 L 919 276 L 920 275 L 920 273 L 918 272 L 918 269 L 917 269 L 913 264 L 907 261 L 902 261 L 901 260 L 895 261 L 895 262 L 887 269 L 884 274 L 884 279 L 886 282 L 887 287 L 888 287 L 891 291 L 896 294 L 896 296 L 894 298 L 892 298 L 887 301 L 885 301 L 884 300 L 884 292 L 882 287 L 879 283 L 872 279 L 865 279 L 864 278 L 862 278 L 861 280 L 856 282 L 853 285 L 851 289 L 851 291 L 849 293 L 851 303 L 859 313 L 859 315 L 857 316 L 856 318 L 852 320 L 849 320 L 848 319 L 848 309 L 847 308 L 847 306 L 845 303 L 841 300 L 841 299 L 836 298 L 835 296 L 822 299 L 822 300 L 820 301 L 816 306 L 816 308 L 814 312 L 814 316 L 815 317 L 815 320 L 817 323 L 817 325 L 819 326 L 821 329 L 825 330 L 826 331 L 826 333 L 820 336 L 814 342 L 813 342 L 809 350 L 809 354 L 808 355 L 808 374 L 807 375 L 807 380 L 805 385 L 793 397 L 792 397 L 785 405 L 784 405 L 775 414 L 774 414 L 770 418 L 770 419 L 763 426 L 762 426 L 756 432 L 756 433 L 737 452 L 735 453 L 735 454 L 731 458 L 727 460 L 727 461 L 723 464 L 720 468 L 719 468 L 711 476 L 710 476 L 710 477 L 701 485 L 701 486 L 688 499 L 688 500 L 685 502 L 664 524 L 663 524 L 644 543 L 643 543 L 643 544 L 641 545 L 639 548 L 626 561 L 625 561 L 623 564 L 619 567 L 619 568 L 582 605 L 581 605 L 576 611 L 571 612 L 570 613 L 563 613 L 562 612 L 560 612 L 556 610 L 552 606 L 552 605 L 547 601 L 544 594 L 544 576 L 545 575 L 546 568 L 547 566 L 549 565 L 550 561 L 553 559 L 553 558 L 557 554 L 558 551 L 569 540 L 570 540 L 573 537 L 573 535 L 575 534 L 575 531 L 577 528 L 577 525 L 578 524 L 577 511 L 568 499 L 566 499 L 565 497 L 563 496 L 560 496 L 556 494 L 551 494 L 550 493 L 539 493 L 536 495 L 533 495 L 532 496 L 524 498 L 517 502 L 513 503 L 512 505 L 510 505 L 509 507 L 507 507 L 506 509 L 504 509 L 502 512 L 500 512 L 499 514 L 497 515 L 497 516 L 482 530 L 482 532 L 478 535 L 478 537 L 475 539 L 475 541 L 473 542 L 471 545 L 471 547 L 469 548 L 468 552 L 466 553 L 464 557 L 464 559 L 462 563 L 460 564 L 458 568 L 458 571 L 453 581 L 451 583 L 450 588 L 443 602 L 441 603 L 440 607 L 434 616 L 432 617 L 420 630 L 416 633 L 414 633 L 413 635 L 409 636 L 408 638 L 406 638 L 399 642 L 397 642 L 391 645 L 389 645 L 382 648 L 379 648 L 372 651 L 369 651 L 368 652 L 362 653 L 358 655 L 355 655 L 351 657 L 347 657 L 346 659 L 335 662 L 328 666 L 324 666 L 307 677 L 305 677 L 303 680 L 301 680 L 297 683 L 295 686 L 291 688 L 286 693 L 286 694 L 279 700 L 279 702 L 275 705 L 275 707 L 273 710 L 271 711 L 271 713 L 269 714 L 268 718 L 266 719 L 262 727 L 262 730 L 259 735 L 259 737 L 255 747 L 255 750 L 253 755 L 253 759 L 251 762 L 251 767 L 250 768 L 250 773 L 251 774 L 250 794 L 251 795 L 253 812 L 255 813 L 255 816 L 257 820 L 257 825 L 258 826 L 258 828 L 260 829 L 260 833 L 262 834 L 262 838 L 263 838 L 265 841 L 265 844 L 267 847 L 268 851 L 271 853 L 271 856 L 273 859 L 275 860 L 275 862 L 277 866 L 280 868 L 280 870 L 282 871 L 282 873 L 284 876 L 287 878 L 287 880 L 291 883 L 291 885 L 295 888 L 295 890 L 300 894 L 300 896 L 308 903 L 308 905 L 320 917 L 321 917 L 322 919 L 334 931 L 336 931 L 343 939 L 345 939 L 349 944 L 351 944 L 354 948 L 356 948 L 359 952 L 361 952 L 363 955 L 365 955 L 366 957 L 368 957 L 369 959 L 371 959 L 372 961 L 374 961 L 375 963 L 377 963 L 379 966 L 382 966 L 383 968 L 387 969 L 388 971 L 396 975 L 399 975 L 400 977 L 402 978 L 406 978 L 407 980 L 411 980 L 418 983 L 421 983 L 422 985 L 425 985 L 430 987 L 445 987 L 446 988 L 455 988 L 456 987 L 458 987 L 459 988 L 465 988 L 466 987 L 470 987 L 473 985 L 480 984 L 484 982 L 488 982 L 488 981 L 491 979 L 495 979 L 496 977 L 504 974 L 505 972 L 507 972 L 508 970 L 510 970 L 511 968 L 513 968 L 515 965 L 517 965 L 520 961 L 522 961 L 531 952 L 531 950 L 537 945 L 537 943 L 540 941 L 540 939 L 542 938 L 542 936 L 544 935 L 544 933 L 546 932 L 546 930 L 548 929 L 551 921 L 553 920 L 556 914 L 556 911 L 560 905 L 560 902 L 562 901 L 563 894 L 565 893 L 566 886 L 568 884 L 568 882 L 569 881 L 569 876 L 571 872 L 571 869 L 573 868 L 573 862 L 575 858 L 575 855 L 577 853 L 577 848 L 578 847 L 580 839 L 582 838 L 582 834 L 586 826 L 588 825 L 588 823 L 590 822 L 590 820 L 592 819 L 599 811 L 602 809 L 604 809 L 607 807 L 608 805 L 613 804 L 615 802 L 619 801 L 622 799 L 629 798 L 630 796 L 641 793 L 644 791 L 648 791 L 650 790 L 651 788 L 659 784 L 662 784 L 665 782 L 667 779 L 669 779 L 671 776 L 673 776 L 674 774 L 682 767 L 683 767 L 683 765 L 688 761 L 688 759 L 690 758 L 690 756 L 692 755 L 692 753 L 696 746 L 696 744 L 699 737 L 699 721 L 698 720 L 698 717 L 696 713 L 693 710 L 693 708 L 691 706 L 689 706 L 685 703 L 679 702 L 678 701 L 669 701 L 668 703 L 661 705 L 661 706 L 660 707 L 658 707 L 656 710 L 654 710 L 652 713 L 647 716 L 644 716 L 643 718 L 639 718 L 637 720 L 633 720 L 632 721 L 626 721 L 624 719 L 619 719 L 617 718 L 616 716 L 614 716 L 610 712 L 607 706 L 607 702 L 606 701 L 606 699 L 607 698 L 607 693 L 614 686 L 618 680 L 626 672 L 627 672 L 630 668 L 643 656 L 643 654 L 646 652 L 671 626 L 672 626 L 672 624 L 681 615 L 682 615 L 694 603 L 699 596 L 721 575 L 723 571 L 740 555 L 745 548 L 765 529 L 768 524 L 788 505 L 790 501 L 808 484 L 811 479 L 819 471 L 820 471 L 834 456 L 835 456 L 835 454 L 844 445 L 845 445 L 850 440 L 850 439 L 858 432 L 859 430 L 868 426 L 899 426 L 904 424 L 906 422 L 908 422 L 912 418 L 917 409 L 920 407 L 921 402 L 923 401 L 923 399 L 925 398 L 925 396 L 929 391 L 929 389 L 932 387 L 932 384 L 934 383 L 935 379 L 938 376 L 939 372 L 942 370 L 942 367 L 944 366 L 945 362 L 947 361 L 948 357 L 950 356 L 951 352 L 953 351 L 955 345 L 956 344 L 965 344 L 976 340 L 980 340 L 984 338 L 986 335 L 990 333 L 990 332 L 996 327 L 996 325 L 998 324 L 1000 318 L 1002 317 L 1002 315 L 1003 314 L 1003 309 L 1005 306 L 1005 292 L 1004 291 L 1004 288 L 1002 287 L 1002 283 L 996 274 L 992 270 L 991 270 Z M 559 653 L 562 653 L 572 663 L 572 664 L 579 671 L 579 672 L 590 682 L 590 684 L 586 687 L 580 694 L 578 695 L 575 695 L 565 685 L 564 685 L 549 669 L 546 667 L 546 665 L 548 664 Z M 587 625 L 589 625 L 593 629 L 594 629 L 617 652 L 617 655 L 615 658 L 611 662 L 610 662 L 602 671 L 600 672 L 598 672 L 595 670 L 570 644 L 570 642 L 575 637 L 576 637 Z M 619 594 L 622 594 L 626 598 L 627 598 L 643 614 L 643 615 L 649 620 L 648 624 L 638 633 L 638 634 L 629 644 L 626 644 L 625 642 L 623 642 L 613 631 L 613 630 L 610 628 L 599 616 L 599 614 L 611 602 L 611 601 Z M 650 562 L 653 562 L 680 589 L 680 591 L 674 597 L 673 597 L 659 612 L 657 612 L 642 597 L 642 596 L 631 584 L 631 582 Z M 683 531 L 686 531 L 696 541 L 697 541 L 700 545 L 701 545 L 706 550 L 706 552 L 710 556 L 710 558 L 707 561 L 707 563 L 699 571 L 698 571 L 698 572 L 691 579 L 689 579 L 662 553 L 662 550 L 668 544 L 670 544 L 675 539 L 675 538 Z M 552 512 L 553 513 L 555 513 L 556 515 L 559 517 L 560 522 L 558 526 L 541 542 L 541 544 L 537 547 L 537 549 L 533 554 L 527 567 L 527 570 L 525 571 L 525 574 L 524 575 L 524 580 L 525 581 L 525 589 L 524 590 L 524 592 L 526 594 L 526 601 L 527 603 L 529 604 L 529 607 L 532 610 L 532 612 L 534 613 L 534 615 L 541 622 L 552 628 L 554 628 L 555 629 L 555 631 L 532 653 L 532 654 L 527 659 L 526 663 L 524 664 L 524 668 L 526 670 L 529 676 L 550 696 L 556 704 L 564 712 L 572 716 L 581 716 L 588 712 L 590 712 L 594 720 L 601 728 L 601 729 L 603 731 L 605 731 L 606 733 L 608 733 L 609 735 L 611 736 L 621 738 L 623 740 L 635 740 L 638 738 L 647 737 L 648 735 L 652 735 L 656 733 L 658 730 L 661 729 L 664 726 L 666 726 L 672 721 L 674 721 L 675 720 L 678 720 L 681 724 L 681 735 L 676 746 L 673 748 L 673 750 L 671 751 L 662 761 L 659 762 L 658 764 L 656 764 L 655 766 L 651 767 L 650 769 L 644 772 L 642 772 L 637 775 L 635 775 L 632 777 L 630 777 L 620 781 L 616 781 L 615 783 L 610 784 L 599 790 L 597 790 L 596 792 L 594 792 L 593 794 L 591 794 L 590 796 L 583 801 L 580 805 L 576 808 L 576 810 L 573 812 L 573 814 L 571 816 L 568 823 L 566 824 L 566 827 L 563 833 L 563 835 L 559 845 L 559 848 L 557 852 L 556 858 L 554 859 L 553 869 L 552 870 L 546 890 L 544 891 L 544 895 L 542 898 L 542 900 L 541 902 L 539 903 L 539 905 L 536 910 L 536 912 L 534 916 L 532 918 L 531 921 L 529 922 L 527 925 L 527 927 L 525 928 L 525 930 L 521 934 L 521 935 L 509 946 L 507 949 L 505 949 L 502 953 L 500 953 L 500 954 L 499 955 L 497 955 L 496 957 L 482 964 L 480 964 L 476 966 L 473 966 L 472 967 L 469 967 L 468 968 L 453 969 L 452 968 L 434 968 L 433 967 L 429 967 L 425 965 L 422 965 L 421 964 L 413 962 L 408 958 L 404 958 L 398 955 L 397 953 L 394 951 L 391 951 L 389 948 L 386 948 L 383 945 L 380 944 L 378 941 L 376 941 L 375 939 L 373 939 L 371 936 L 369 936 L 366 932 L 364 932 L 360 928 L 359 928 L 354 922 L 352 922 L 341 910 L 338 909 L 333 904 L 328 897 L 324 894 L 323 892 L 322 892 L 317 887 L 316 884 L 310 879 L 310 877 L 306 874 L 300 866 L 300 864 L 297 862 L 297 860 L 296 860 L 293 856 L 292 853 L 289 849 L 289 847 L 288 847 L 286 844 L 286 841 L 284 840 L 280 832 L 280 830 L 277 825 L 277 823 L 273 813 L 272 800 L 270 799 L 270 791 L 269 790 L 269 784 L 270 783 L 269 772 L 270 771 L 270 763 L 272 762 L 272 758 L 273 757 L 273 750 L 274 749 L 275 744 L 277 743 L 277 739 L 286 722 L 288 721 L 288 719 L 292 716 L 292 714 L 297 709 L 298 709 L 307 699 L 315 693 L 317 693 L 318 691 L 323 690 L 325 687 L 342 679 L 347 678 L 350 676 L 352 676 L 359 673 L 362 673 L 366 671 L 369 671 L 379 667 L 382 667 L 383 666 L 400 661 L 403 659 L 408 658 L 418 653 L 425 648 L 427 648 L 429 645 L 431 645 L 433 642 L 434 642 L 443 634 L 443 632 L 449 626 L 453 619 L 455 618 L 455 616 L 457 614 L 479 568 L 481 566 L 483 561 L 489 552 L 491 551 L 491 549 L 494 547 L 494 545 L 498 542 L 499 539 L 503 536 L 508 530 L 510 530 L 511 528 L 514 525 L 516 525 L 518 522 L 521 522 L 523 519 L 526 519 L 528 518 L 529 516 L 534 514 L 540 514 L 541 513 Z M 712 501 L 714 501 L 717 503 L 722 508 L 722 509 L 723 509 L 724 511 L 740 526 L 740 528 L 738 529 L 733 534 L 733 535 L 725 542 L 725 544 L 722 547 L 719 547 L 710 537 L 710 536 L 705 531 L 704 531 L 695 521 L 695 519 L 699 515 L 699 514 Z M 747 467 L 749 467 L 755 473 L 755 474 L 763 481 L 763 483 L 764 483 L 772 491 L 771 496 L 766 501 L 765 501 L 751 516 L 746 515 L 739 508 L 739 507 L 723 492 L 723 490 L 732 481 L 734 481 L 736 478 L 746 469 Z M 785 431 L 791 437 L 795 443 L 797 443 L 798 444 L 798 446 L 799 446 L 807 455 L 807 458 L 795 470 L 794 470 L 794 472 L 783 483 L 781 483 L 774 475 L 774 474 L 766 466 L 766 465 L 760 461 L 759 456 L 783 431 Z M 813 403 L 817 404 L 824 411 L 824 412 L 836 423 L 837 425 L 837 427 L 833 430 L 831 433 L 820 443 L 819 445 L 816 445 L 812 442 L 794 424 L 794 421 L 796 420 L 800 416 L 800 415 Z M 827 313 L 830 309 L 833 309 L 837 313 L 837 315 L 834 318 L 829 318 L 827 316 Z M 865 292 L 869 292 L 871 294 L 871 298 L 869 300 L 865 300 L 862 298 L 862 295 Z M 984 288 L 985 290 L 985 296 L 987 298 L 987 301 L 986 302 L 985 309 L 983 313 L 981 314 L 981 316 L 978 319 L 971 323 L 966 323 L 965 324 L 951 326 L 950 327 L 948 327 L 947 329 L 945 329 L 945 330 L 942 332 L 942 334 L 940 335 L 939 339 L 937 340 L 937 342 L 935 344 L 933 349 L 931 350 L 930 354 L 928 355 L 927 359 L 924 361 L 924 364 L 922 365 L 921 369 L 919 370 L 918 374 L 916 375 L 915 379 L 913 380 L 912 384 L 910 386 L 909 389 L 906 391 L 906 394 L 904 395 L 903 399 L 901 400 L 901 402 L 897 407 L 892 409 L 886 409 L 885 408 L 867 408 L 866 409 L 862 409 L 854 413 L 851 413 L 841 403 L 841 402 L 824 386 L 824 384 L 825 383 L 825 377 L 826 376 L 826 372 L 825 371 L 825 368 L 826 367 L 826 356 L 828 353 L 833 350 L 835 350 L 837 347 L 845 343 L 848 343 L 858 337 L 860 337 L 862 335 L 867 333 L 868 331 L 873 330 L 874 328 L 877 328 L 883 324 L 892 320 L 893 318 L 899 315 L 902 315 L 906 313 L 907 311 L 909 311 L 913 309 L 914 307 L 930 299 L 933 299 L 940 295 L 941 293 L 948 291 L 949 289 L 953 287 L 956 287 L 958 284 L 964 281 L 978 282 L 979 284 Z M 897 276 L 901 273 L 904 273 L 906 275 L 906 281 L 905 282 L 903 282 L 898 280 L 897 279 Z M 935 254 L 940 254 L 941 256 L 943 257 L 943 260 L 941 261 L 940 263 L 935 263 L 933 260 L 933 256 Z" fill="rgb(39,24,63)" fill-rule="evenodd"/>
</svg>
