<?xml version="1.0" encoding="UTF-8"?>
<svg xmlns="http://www.w3.org/2000/svg" width="1254" height="1254" viewBox="0 0 1254 1254" fill="none">
  <path d="M 307 339 L 302 348 L 301 355 L 299 357 L 299 359 L 300 360 L 300 367 L 303 374 L 306 376 L 306 378 L 310 382 L 313 383 L 320 391 L 323 392 L 330 400 L 333 401 L 340 409 L 343 410 L 350 418 L 354 420 L 360 427 L 365 430 L 373 438 L 374 438 L 379 444 L 385 448 L 390 454 L 396 458 L 402 465 L 403 465 L 411 472 L 411 476 L 410 477 L 408 477 L 406 479 L 399 481 L 396 483 L 390 484 L 389 486 L 384 487 L 378 491 L 376 491 L 372 493 L 371 495 L 368 495 L 366 498 L 360 502 L 358 502 L 356 505 L 354 505 L 350 510 L 346 512 L 345 515 L 340 520 L 338 524 L 335 527 L 335 529 L 331 539 L 331 609 L 332 610 L 333 616 L 336 621 L 336 624 L 338 625 L 343 631 L 343 633 L 350 639 L 350 690 L 346 693 L 343 694 L 336 701 L 335 701 L 335 703 L 332 708 L 332 711 L 331 712 L 331 763 L 332 765 L 334 766 L 335 770 L 336 770 L 338 773 L 342 776 L 342 777 L 350 781 L 350 808 L 352 812 L 352 816 L 355 818 L 355 820 L 357 821 L 357 822 L 365 831 L 367 831 L 371 835 L 375 837 L 376 839 L 378 839 L 379 841 L 383 842 L 384 844 L 386 844 L 394 848 L 396 850 L 400 852 L 402 852 L 418 860 L 426 862 L 429 864 L 431 864 L 441 868 L 444 868 L 448 870 L 451 870 L 455 872 L 458 872 L 459 873 L 462 873 L 463 874 L 466 874 L 467 875 L 470 875 L 475 877 L 479 877 L 480 878 L 484 878 L 485 879 L 489 879 L 490 880 L 494 880 L 495 881 L 500 881 L 501 882 L 505 882 L 506 883 L 519 884 L 520 885 L 527 885 L 528 886 L 543 887 L 544 888 L 554 888 L 557 890 L 559 890 L 560 889 L 567 889 L 568 890 L 583 890 L 584 891 L 592 891 L 593 892 L 599 892 L 600 891 L 610 891 L 611 892 L 654 891 L 655 892 L 661 892 L 662 891 L 670 891 L 671 890 L 686 890 L 687 889 L 697 890 L 699 888 L 709 888 L 710 887 L 718 887 L 719 886 L 726 886 L 727 885 L 732 885 L 733 884 L 747 883 L 748 882 L 758 881 L 759 880 L 764 880 L 765 879 L 769 879 L 770 878 L 773 878 L 778 876 L 782 876 L 783 875 L 787 875 L 791 873 L 798 872 L 802 870 L 805 870 L 809 868 L 812 868 L 813 867 L 827 863 L 830 861 L 832 861 L 840 857 L 842 857 L 858 849 L 860 849 L 861 847 L 868 844 L 875 839 L 877 839 L 879 836 L 881 836 L 882 834 L 890 829 L 893 826 L 895 822 L 898 819 L 900 814 L 902 813 L 902 808 L 904 804 L 904 796 L 903 795 L 903 781 L 907 779 L 908 777 L 910 777 L 918 769 L 920 765 L 920 763 L 922 762 L 922 713 L 921 712 L 921 708 L 918 703 L 918 701 L 910 694 L 904 691 L 904 680 L 903 679 L 903 648 L 904 647 L 904 637 L 906 636 L 909 632 L 913 629 L 913 627 L 917 624 L 917 621 L 920 616 L 920 614 L 922 613 L 922 592 L 923 591 L 923 584 L 922 583 L 922 566 L 923 565 L 923 556 L 922 555 L 922 536 L 920 535 L 920 533 L 913 520 L 907 514 L 907 513 L 904 511 L 900 506 L 898 506 L 895 502 L 893 502 L 888 498 L 885 497 L 884 495 L 882 495 L 878 493 L 877 491 L 875 491 L 871 488 L 866 487 L 865 485 L 863 484 L 859 484 L 856 482 L 854 482 L 851 480 L 844 478 L 842 476 L 842 474 L 846 470 L 846 469 L 854 463 L 861 455 L 869 449 L 872 445 L 878 441 L 884 434 L 889 431 L 892 427 L 901 419 L 902 419 L 904 416 L 906 416 L 915 406 L 920 403 L 926 396 L 929 395 L 937 386 L 940 385 L 943 381 L 948 377 L 951 372 L 951 368 L 953 367 L 953 351 L 951 350 L 951 348 L 946 339 L 941 334 L 940 334 L 939 332 L 937 332 L 934 330 L 928 329 L 927 328 L 914 328 L 913 330 L 909 330 L 906 332 L 904 335 L 897 340 L 889 349 L 884 352 L 884 353 L 882 354 L 882 355 L 875 362 L 874 362 L 861 375 L 860 375 L 849 386 L 848 386 L 838 396 L 837 396 L 835 399 L 834 399 L 823 410 L 822 410 L 813 419 L 812 419 L 789 441 L 784 444 L 779 450 L 774 453 L 769 459 L 760 458 L 759 457 L 753 457 L 751 455 L 740 455 L 737 453 L 725 453 L 724 452 L 715 452 L 714 451 L 695 450 L 694 449 L 682 449 L 681 448 L 663 448 L 662 447 L 656 447 L 655 446 L 645 446 L 644 447 L 606 447 L 605 446 L 596 446 L 595 447 L 589 447 L 588 448 L 578 447 L 577 448 L 572 448 L 571 449 L 564 448 L 563 449 L 559 449 L 558 450 L 548 450 L 547 451 L 538 451 L 537 452 L 532 451 L 528 453 L 516 453 L 512 455 L 495 456 L 494 457 L 484 458 L 462 437 L 461 437 L 456 431 L 450 427 L 401 381 L 400 381 L 397 377 L 389 371 L 380 361 L 378 361 L 365 348 L 364 348 L 360 343 L 353 338 L 349 333 L 347 333 L 340 329 L 336 329 L 335 328 L 322 328 L 321 330 L 317 330 L 315 331 L 314 333 Z M 626 760 L 632 761 L 636 766 L 636 803 L 635 804 L 635 806 L 631 809 L 622 809 L 620 808 L 618 805 L 618 797 L 617 796 L 617 783 L 618 782 L 618 772 L 617 771 L 617 769 L 618 768 L 618 764 L 621 761 L 625 761 Z M 887 711 L 898 711 L 901 715 L 901 720 L 902 721 L 902 726 L 901 727 L 901 752 L 902 753 L 902 756 L 897 760 L 886 759 L 884 757 L 884 755 L 883 754 L 883 717 L 884 716 L 884 714 L 886 713 Z M 356 711 L 364 711 L 369 714 L 369 728 L 370 729 L 370 739 L 369 740 L 369 757 L 365 760 L 356 759 L 352 756 L 352 753 L 353 752 L 353 748 L 352 747 L 352 715 Z M 882 656 L 882 658 L 883 659 L 883 669 L 884 670 L 884 673 L 883 674 L 883 689 L 881 692 L 877 693 L 869 699 L 869 701 L 867 702 L 865 705 L 865 710 L 864 711 L 864 740 L 863 741 L 863 746 L 864 747 L 864 760 L 865 761 L 865 765 L 867 769 L 869 770 L 870 773 L 874 775 L 875 777 L 877 777 L 878 779 L 883 780 L 884 781 L 884 786 L 883 787 L 883 796 L 884 797 L 884 800 L 882 801 L 881 807 L 875 814 L 872 815 L 870 818 L 858 826 L 834 838 L 829 839 L 821 843 L 817 843 L 816 845 L 813 845 L 800 850 L 797 850 L 796 851 L 793 851 L 792 852 L 789 852 L 785 854 L 781 854 L 780 855 L 777 855 L 772 857 L 765 857 L 763 859 L 748 860 L 747 862 L 741 862 L 740 863 L 728 864 L 727 865 L 720 865 L 719 866 L 712 866 L 711 867 L 703 867 L 702 868 L 681 868 L 677 870 L 661 870 L 660 871 L 645 871 L 644 870 L 637 870 L 636 869 L 636 867 L 637 866 L 637 860 L 636 859 L 636 839 L 637 838 L 637 829 L 639 827 L 644 825 L 650 820 L 650 818 L 652 816 L 655 809 L 655 760 L 654 759 L 652 751 L 651 751 L 646 745 L 636 740 L 636 724 L 637 723 L 636 704 L 638 702 L 657 703 L 658 702 L 664 702 L 665 701 L 682 701 L 683 700 L 685 700 L 686 701 L 693 701 L 697 699 L 708 699 L 709 698 L 717 698 L 718 697 L 724 698 L 727 696 L 734 696 L 735 695 L 742 695 L 743 694 L 754 694 L 755 692 L 772 690 L 773 689 L 787 687 L 788 686 L 791 686 L 792 685 L 795 685 L 800 683 L 804 683 L 809 681 L 815 681 L 816 679 L 819 679 L 829 675 L 832 675 L 833 674 L 844 671 L 852 667 L 856 667 L 857 665 L 859 665 L 864 662 L 866 662 L 876 657 L 878 655 L 881 655 Z M 369 655 L 370 654 L 373 654 L 379 658 L 383 659 L 396 666 L 404 668 L 405 670 L 409 670 L 412 672 L 414 672 L 421 675 L 424 675 L 434 679 L 437 679 L 438 680 L 441 680 L 442 681 L 445 681 L 446 682 L 449 682 L 450 683 L 453 683 L 454 684 L 457 684 L 462 686 L 466 686 L 467 687 L 471 687 L 472 688 L 486 690 L 487 691 L 492 691 L 493 692 L 498 692 L 499 693 L 504 693 L 505 694 L 511 694 L 513 696 L 535 697 L 536 699 L 545 698 L 546 699 L 556 699 L 561 701 L 567 701 L 568 700 L 570 700 L 573 702 L 589 701 L 590 702 L 597 702 L 598 703 L 603 703 L 604 702 L 606 702 L 607 703 L 616 703 L 617 704 L 617 709 L 616 710 L 616 716 L 617 717 L 617 739 L 615 741 L 608 744 L 603 749 L 603 750 L 601 751 L 601 753 L 598 759 L 598 810 L 600 813 L 600 816 L 602 817 L 602 819 L 603 819 L 605 822 L 610 826 L 614 827 L 617 829 L 617 843 L 616 844 L 616 849 L 617 850 L 617 870 L 616 871 L 593 871 L 592 870 L 574 870 L 569 868 L 567 868 L 566 869 L 561 869 L 560 868 L 550 868 L 549 867 L 541 867 L 540 866 L 533 866 L 532 865 L 519 864 L 518 863 L 513 863 L 512 862 L 506 862 L 505 860 L 495 860 L 494 859 L 490 859 L 489 857 L 481 857 L 480 856 L 477 856 L 472 854 L 468 854 L 457 850 L 450 849 L 449 848 L 432 843 L 429 841 L 424 840 L 419 837 L 417 837 L 395 826 L 378 814 L 372 808 L 372 805 L 369 801 L 370 780 L 371 779 L 374 779 L 376 777 L 378 777 L 378 776 L 382 773 L 387 766 L 388 760 L 390 759 L 390 747 L 389 746 L 389 733 L 390 732 L 390 725 L 389 724 L 389 712 L 388 711 L 388 708 L 387 707 L 386 702 L 384 701 L 384 699 L 377 694 L 373 692 L 371 692 L 369 689 L 369 673 L 370 672 Z M 350 593 L 352 590 L 357 591 L 361 594 L 362 596 L 364 596 L 365 598 L 367 598 L 369 601 L 372 601 L 374 603 L 388 610 L 390 610 L 396 614 L 399 614 L 402 616 L 407 617 L 410 619 L 412 619 L 428 625 L 431 625 L 435 627 L 442 628 L 443 629 L 453 631 L 454 632 L 458 632 L 463 634 L 467 634 L 468 635 L 472 635 L 473 636 L 477 636 L 478 637 L 482 637 L 483 638 L 488 638 L 489 639 L 493 639 L 494 640 L 506 641 L 507 642 L 513 642 L 514 643 L 521 643 L 522 644 L 529 644 L 530 645 L 538 645 L 539 646 L 548 646 L 549 647 L 575 648 L 576 649 L 597 649 L 598 650 L 657 650 L 658 649 L 678 649 L 679 648 L 692 648 L 693 647 L 715 646 L 716 645 L 723 645 L 724 644 L 731 644 L 732 643 L 739 643 L 740 642 L 753 641 L 754 640 L 765 639 L 766 638 L 770 638 L 771 637 L 785 635 L 790 633 L 794 633 L 799 631 L 803 631 L 804 630 L 807 630 L 811 628 L 814 628 L 818 626 L 821 626 L 825 624 L 828 624 L 829 623 L 834 622 L 837 620 L 839 620 L 840 619 L 848 617 L 851 615 L 853 615 L 856 613 L 858 613 L 863 610 L 866 610 L 868 608 L 874 605 L 876 605 L 878 603 L 880 603 L 881 601 L 885 600 L 886 598 L 888 598 L 895 592 L 897 592 L 899 590 L 901 590 L 902 591 L 902 593 L 903 594 L 903 601 L 902 602 L 902 607 L 900 609 L 900 612 L 897 614 L 895 619 L 889 625 L 881 631 L 877 632 L 874 634 L 873 636 L 867 639 L 865 639 L 857 644 L 855 644 L 850 647 L 848 647 L 845 649 L 841 649 L 840 651 L 838 651 L 822 657 L 819 657 L 815 659 L 809 659 L 808 661 L 805 661 L 804 662 L 801 662 L 800 663 L 797 663 L 792 665 L 788 665 L 787 666 L 780 666 L 779 667 L 765 669 L 763 671 L 758 671 L 757 672 L 752 672 L 751 673 L 740 673 L 738 675 L 731 675 L 730 676 L 715 676 L 714 677 L 708 677 L 703 679 L 692 679 L 691 680 L 689 680 L 688 679 L 685 679 L 684 680 L 661 680 L 656 682 L 646 682 L 645 681 L 608 681 L 607 682 L 597 682 L 596 681 L 590 681 L 589 680 L 580 680 L 579 681 L 577 681 L 576 680 L 568 680 L 567 679 L 562 680 L 557 678 L 540 678 L 539 677 L 522 676 L 521 674 L 509 674 L 508 673 L 502 673 L 501 672 L 490 671 L 489 670 L 475 668 L 470 666 L 461 665 L 460 664 L 453 663 L 449 661 L 442 660 L 438 658 L 435 658 L 431 656 L 428 656 L 427 655 L 416 652 L 413 650 L 401 646 L 400 644 L 396 644 L 380 636 L 379 634 L 375 633 L 364 625 L 358 619 L 353 612 L 352 605 L 350 603 Z M 351 547 L 352 546 L 352 540 L 354 538 L 355 534 L 357 533 L 357 531 L 359 530 L 366 522 L 368 522 L 374 516 L 376 516 L 377 514 L 380 514 L 382 511 L 394 505 L 398 505 L 400 504 L 401 502 L 405 502 L 406 500 L 411 499 L 414 497 L 416 497 L 429 492 L 432 492 L 437 497 L 442 500 L 451 510 L 453 510 L 463 521 L 465 521 L 472 529 L 474 529 L 483 539 L 485 539 L 491 546 L 498 551 L 498 555 L 500 556 L 501 562 L 503 564 L 505 570 L 507 573 L 514 579 L 514 580 L 517 581 L 518 583 L 520 583 L 521 585 L 529 587 L 530 589 L 533 589 L 534 590 L 553 588 L 557 585 L 561 584 L 562 582 L 564 582 L 565 580 L 572 574 L 572 572 L 574 571 L 574 569 L 577 564 L 578 558 L 579 557 L 579 547 L 580 546 L 580 542 L 579 541 L 579 538 L 577 537 L 577 533 L 575 532 L 573 527 L 570 523 L 566 520 L 563 516 L 561 516 L 560 514 L 558 514 L 553 511 L 551 511 L 550 509 L 539 508 L 534 503 L 533 503 L 523 492 L 521 492 L 511 481 L 509 481 L 507 479 L 507 477 L 509 475 L 524 474 L 525 473 L 531 473 L 532 472 L 539 473 L 541 471 L 563 470 L 564 469 L 576 469 L 577 468 L 596 468 L 597 467 L 653 467 L 654 468 L 676 468 L 677 469 L 688 469 L 689 470 L 711 471 L 715 473 L 720 472 L 721 473 L 728 473 L 729 474 L 735 474 L 736 475 L 743 475 L 747 477 L 747 479 L 742 484 L 740 484 L 735 489 L 735 490 L 726 498 L 725 498 L 718 506 L 715 508 L 704 509 L 700 512 L 694 515 L 692 515 L 690 518 L 688 518 L 679 529 L 678 533 L 676 534 L 676 536 L 674 540 L 674 556 L 677 564 L 677 568 L 684 577 L 685 577 L 690 582 L 693 583 L 695 586 L 699 586 L 700 588 L 705 588 L 706 589 L 710 589 L 711 590 L 713 590 L 714 589 L 720 589 L 721 588 L 727 588 L 729 587 L 730 585 L 740 580 L 746 574 L 746 572 L 748 571 L 748 569 L 752 564 L 752 561 L 753 560 L 754 555 L 756 552 L 765 543 L 767 543 L 776 533 L 779 532 L 788 522 L 790 522 L 799 512 L 802 511 L 809 504 L 809 503 L 821 492 L 826 493 L 827 495 L 833 495 L 836 497 L 844 499 L 845 501 L 849 501 L 852 503 L 854 503 L 860 507 L 870 512 L 874 513 L 875 515 L 877 515 L 878 517 L 880 517 L 881 519 L 883 519 L 885 522 L 888 523 L 896 532 L 896 533 L 898 534 L 898 536 L 901 540 L 902 553 L 901 554 L 901 556 L 899 558 L 898 562 L 895 564 L 895 566 L 883 577 L 874 583 L 850 595 L 848 595 L 842 598 L 837 599 L 834 601 L 832 601 L 822 605 L 819 605 L 815 607 L 812 607 L 808 609 L 805 609 L 804 610 L 801 610 L 800 611 L 797 611 L 796 612 L 793 612 L 788 614 L 784 614 L 779 616 L 770 617 L 769 618 L 764 618 L 763 619 L 758 619 L 757 620 L 752 620 L 751 621 L 746 621 L 745 622 L 739 622 L 738 623 L 731 623 L 730 624 L 723 624 L 722 625 L 714 625 L 713 626 L 692 627 L 691 628 L 677 628 L 676 629 L 657 629 L 656 630 L 598 630 L 597 629 L 576 629 L 575 628 L 549 627 L 548 626 L 531 625 L 530 624 L 523 624 L 522 623 L 515 623 L 514 622 L 509 622 L 508 621 L 502 621 L 501 620 L 490 619 L 489 618 L 479 617 L 474 615 L 470 615 L 465 613 L 461 613 L 460 612 L 445 609 L 441 607 L 438 607 L 434 605 L 431 605 L 430 604 L 413 599 L 379 583 L 364 572 L 358 566 L 358 564 L 355 562 L 352 556 L 352 550 L 351 549 Z M 931 352 L 932 362 L 930 366 L 920 376 L 918 376 L 911 384 L 904 389 L 904 390 L 899 395 L 898 395 L 889 404 L 888 404 L 879 413 L 878 413 L 857 433 L 852 436 L 846 443 L 842 445 L 834 454 L 830 456 L 824 463 L 818 467 L 812 473 L 812 474 L 803 482 L 802 482 L 799 486 L 796 487 L 786 498 L 785 498 L 775 508 L 769 512 L 760 522 L 758 522 L 750 531 L 745 534 L 738 542 L 736 546 L 736 549 L 734 550 L 734 555 L 732 559 L 730 560 L 725 566 L 721 568 L 705 568 L 696 560 L 695 558 L 695 552 L 693 551 L 693 549 L 695 548 L 695 541 L 697 540 L 697 538 L 699 537 L 703 532 L 707 530 L 719 529 L 721 527 L 728 524 L 736 515 L 740 513 L 747 505 L 749 505 L 759 494 L 761 494 L 766 489 L 766 488 L 769 485 L 773 483 L 773 482 L 775 481 L 782 473 L 784 473 L 792 464 L 798 460 L 806 451 L 812 447 L 817 441 L 818 441 L 825 434 L 826 434 L 826 433 L 828 432 L 831 428 L 832 428 L 855 406 L 856 406 L 866 396 L 870 394 L 878 385 L 881 384 L 887 378 L 887 377 L 896 369 L 897 369 L 903 362 L 905 362 L 914 352 L 916 352 L 920 349 L 929 350 Z M 322 352 L 324 350 L 327 350 L 329 348 L 336 349 L 339 353 L 341 353 L 349 362 L 351 362 L 358 370 L 364 374 L 372 383 L 374 383 L 384 394 L 386 394 L 392 401 L 398 405 L 406 414 L 408 414 L 417 424 L 421 426 L 431 436 L 432 436 L 441 446 L 443 446 L 454 457 L 454 458 L 456 458 L 463 466 L 468 469 L 478 480 L 480 480 L 484 484 L 484 485 L 491 492 L 494 493 L 504 504 L 506 504 L 513 512 L 517 514 L 524 522 L 531 526 L 532 528 L 534 529 L 547 530 L 549 531 L 550 533 L 552 533 L 555 536 L 555 538 L 557 539 L 557 542 L 559 543 L 559 556 L 558 557 L 558 559 L 553 565 L 551 565 L 551 566 L 548 568 L 533 568 L 529 566 L 524 561 L 524 560 L 522 559 L 522 557 L 520 556 L 520 551 L 519 550 L 519 548 L 517 546 L 516 542 L 507 532 L 502 529 L 492 518 L 490 518 L 484 512 L 484 511 L 480 507 L 478 507 L 468 496 L 466 496 L 454 484 L 453 484 L 446 476 L 444 476 L 433 465 L 432 465 L 425 457 L 422 456 L 415 448 L 410 445 L 402 436 L 400 436 L 392 427 L 390 427 L 384 421 L 384 420 L 382 418 L 379 417 L 370 408 L 370 407 L 367 406 L 364 402 L 356 396 L 352 391 L 345 386 L 337 377 L 335 377 L 321 364 L 321 356 L 322 355 Z" fill="rgb(46,30,72)" fill-rule="evenodd"/>
</svg>
