<?xml version="1.0" encoding="UTF-8"?>
<svg xmlns="http://www.w3.org/2000/svg" width="1254" height="1254" viewBox="0 0 1254 1254" fill="none">
  <path d="M 750 654 L 742 659 L 742 661 L 740 665 L 740 734 L 739 735 L 670 735 L 668 737 L 663 738 L 661 740 L 661 742 L 659 745 L 659 753 L 660 754 L 660 756 L 661 756 L 664 760 L 666 760 L 670 762 L 728 762 L 729 763 L 738 762 L 740 764 L 740 810 L 739 811 L 739 815 L 740 816 L 740 829 L 739 830 L 739 832 L 741 834 L 741 838 L 743 839 L 743 841 L 744 842 L 746 842 L 749 844 L 757 844 L 758 843 L 761 843 L 764 840 L 764 837 L 766 836 L 766 834 L 765 833 L 765 763 L 766 762 L 840 762 L 842 761 L 846 756 L 849 750 L 849 747 L 847 745 L 847 743 L 845 740 L 841 737 L 839 737 L 837 735 L 767 735 L 766 734 L 766 723 L 765 722 L 765 661 L 764 659 L 758 655 L 756 655 L 755 654 Z M 404 649 L 404 650 L 402 651 L 393 661 L 388 670 L 388 672 L 386 676 L 386 695 L 385 696 L 385 760 L 386 761 L 386 766 L 385 767 L 385 802 L 386 803 L 386 809 L 385 810 L 385 816 L 386 817 L 386 822 L 387 823 L 388 830 L 390 833 L 390 835 L 391 835 L 392 836 L 392 838 L 394 839 L 394 841 L 395 841 L 404 850 L 407 851 L 408 853 L 413 854 L 419 857 L 425 857 L 426 858 L 562 858 L 563 857 L 568 857 L 569 856 L 576 855 L 581 851 L 587 848 L 592 843 L 594 839 L 596 838 L 596 836 L 598 832 L 600 831 L 601 829 L 601 822 L 603 820 L 603 680 L 601 677 L 599 666 L 598 664 L 595 662 L 595 660 L 594 660 L 593 658 L 584 650 L 584 649 L 582 649 L 581 647 L 571 643 L 567 643 L 566 642 L 558 642 L 557 641 L 437 641 L 436 642 L 422 642 L 421 643 L 418 643 L 417 644 L 412 645 L 409 647 L 407 647 L 406 649 Z M 417 672 L 420 671 L 421 669 L 426 669 L 427 667 L 545 667 L 546 668 L 556 667 L 557 668 L 565 668 L 573 674 L 576 679 L 576 703 L 577 704 L 577 723 L 576 724 L 576 751 L 577 752 L 576 796 L 577 797 L 577 806 L 576 807 L 576 820 L 574 824 L 572 825 L 568 830 L 563 832 L 430 832 L 429 831 L 422 831 L 414 824 L 413 819 L 411 818 L 411 682 L 412 681 L 412 679 L 414 678 L 415 674 Z M 663 390 L 652 402 L 647 413 L 646 423 L 645 424 L 645 456 L 646 457 L 646 462 L 645 463 L 645 539 L 646 540 L 646 558 L 645 559 L 645 561 L 647 564 L 648 572 L 650 573 L 651 578 L 655 581 L 655 583 L 665 592 L 668 592 L 672 594 L 673 596 L 675 596 L 679 598 L 688 598 L 689 599 L 821 599 L 822 598 L 829 598 L 830 596 L 835 596 L 836 594 L 840 592 L 842 592 L 847 589 L 853 582 L 858 573 L 860 572 L 860 568 L 862 563 L 862 549 L 863 548 L 863 433 L 862 432 L 862 417 L 861 416 L 859 408 L 853 398 L 842 388 L 828 382 L 682 382 L 681 383 L 678 383 L 677 384 L 672 385 Z M 679 410 L 682 410 L 683 408 L 686 408 L 687 407 L 699 407 L 700 408 L 740 408 L 741 407 L 748 407 L 749 408 L 756 408 L 757 407 L 788 408 L 789 407 L 792 407 L 793 408 L 822 408 L 823 409 L 827 409 L 828 411 L 830 411 L 834 415 L 834 417 L 836 419 L 836 427 L 837 428 L 837 452 L 836 453 L 836 460 L 837 461 L 837 483 L 836 484 L 836 486 L 837 487 L 837 538 L 836 539 L 836 561 L 831 568 L 829 568 L 824 571 L 821 571 L 820 572 L 692 572 L 691 573 L 689 573 L 688 571 L 681 571 L 674 565 L 672 561 L 672 532 L 671 531 L 671 500 L 672 499 L 672 495 L 671 494 L 671 469 L 672 468 L 672 447 L 671 446 L 672 430 L 671 429 L 671 422 L 672 421 L 672 419 L 674 418 L 674 415 L 677 413 Z M 402 391 L 392 402 L 388 410 L 387 416 L 386 417 L 386 422 L 385 423 L 385 547 L 386 548 L 386 564 L 388 568 L 388 572 L 390 573 L 390 575 L 393 578 L 395 582 L 400 587 L 400 588 L 403 590 L 405 590 L 407 593 L 410 593 L 411 595 L 415 595 L 416 596 L 426 598 L 427 599 L 559 599 L 560 598 L 569 598 L 570 596 L 575 596 L 576 594 L 584 591 L 585 589 L 587 588 L 592 583 L 592 582 L 596 579 L 596 576 L 598 575 L 599 573 L 601 563 L 603 561 L 603 419 L 601 418 L 601 414 L 599 410 L 599 407 L 597 403 L 595 402 L 595 400 L 594 400 L 586 391 L 580 387 L 574 384 L 568 383 L 567 382 L 421 382 L 420 383 L 412 385 Z M 418 411 L 423 408 L 436 408 L 437 407 L 445 407 L 446 408 L 470 408 L 471 407 L 474 407 L 475 408 L 517 408 L 518 407 L 520 407 L 521 408 L 561 408 L 562 409 L 567 409 L 568 411 L 570 411 L 572 413 L 573 416 L 574 416 L 576 419 L 576 433 L 577 434 L 577 446 L 576 447 L 576 479 L 577 480 L 577 511 L 576 512 L 576 529 L 577 530 L 577 538 L 576 539 L 576 561 L 571 568 L 567 569 L 566 571 L 559 571 L 558 572 L 429 572 L 428 571 L 422 571 L 420 570 L 419 568 L 418 568 L 413 563 L 412 561 L 412 553 L 411 552 L 411 422 L 412 421 L 412 419 L 414 418 L 415 414 Z" fill="rgb(35,19,64)" fill-rule="evenodd"/>
</svg>
