<?xml version="1.0" encoding="UTF-8"?>
<svg xmlns="http://www.w3.org/2000/svg" width="1254" height="1254" viewBox="0 0 1254 1254" fill="none">
  <path d="M 496 943 L 495 945 L 491 946 L 486 951 L 484 956 L 482 957 L 482 959 L 483 960 L 483 969 L 485 970 L 486 974 L 490 976 L 493 979 L 497 979 L 498 981 L 503 981 L 504 979 L 508 979 L 510 978 L 510 977 L 512 976 L 515 972 L 516 972 L 517 968 L 519 967 L 519 965 L 518 964 L 518 959 L 519 958 L 519 956 L 517 955 L 516 951 L 515 951 L 510 946 L 506 945 L 505 943 Z M 500 958 L 502 958 L 504 960 L 504 963 L 502 965 L 499 965 L 496 963 L 496 961 Z M 532 904 L 531 906 L 525 909 L 522 914 L 520 915 L 519 925 L 521 929 L 521 932 L 523 933 L 523 935 L 531 940 L 534 940 L 535 942 L 539 942 L 540 940 L 543 940 L 546 938 L 548 938 L 548 937 L 554 932 L 554 928 L 555 927 L 555 918 L 554 917 L 553 912 L 551 911 L 548 907 L 546 907 L 542 904 L 540 904 L 539 905 Z M 534 921 L 535 920 L 540 920 L 541 921 L 541 925 L 540 926 L 536 926 L 534 924 Z M 950 246 L 948 246 L 944 244 L 943 242 L 939 242 L 934 240 L 923 240 L 922 241 L 913 242 L 912 244 L 908 245 L 907 247 L 905 247 L 902 251 L 900 251 L 898 253 L 894 253 L 891 250 L 892 242 L 890 239 L 890 235 L 889 235 L 883 228 L 879 227 L 876 225 L 870 225 L 868 227 L 863 229 L 860 232 L 858 236 L 858 238 L 856 240 L 856 246 L 858 248 L 858 250 L 863 257 L 865 257 L 868 259 L 871 259 L 872 260 L 878 259 L 884 264 L 884 266 L 877 273 L 872 275 L 870 279 L 867 282 L 865 282 L 859 289 L 857 289 L 851 283 L 851 272 L 846 264 L 844 264 L 843 262 L 840 262 L 839 261 L 830 261 L 824 264 L 821 267 L 818 274 L 818 281 L 820 286 L 822 288 L 822 290 L 824 290 L 826 293 L 829 293 L 830 294 L 841 294 L 845 298 L 845 300 L 844 302 L 836 308 L 831 314 L 829 314 L 823 321 L 820 323 L 817 323 L 815 320 L 812 318 L 812 316 L 813 315 L 813 309 L 810 303 L 810 301 L 808 299 L 806 299 L 802 296 L 791 295 L 790 297 L 784 300 L 781 304 L 781 306 L 779 310 L 779 315 L 780 316 L 780 319 L 782 321 L 782 323 L 783 323 L 786 327 L 788 327 L 791 329 L 802 330 L 806 334 L 806 336 L 804 337 L 801 341 L 799 342 L 799 344 L 797 345 L 797 348 L 795 352 L 795 359 L 796 360 L 796 363 L 802 375 L 802 380 L 800 385 L 790 397 L 790 398 L 786 401 L 786 403 L 778 412 L 775 417 L 771 420 L 771 422 L 767 426 L 767 427 L 763 431 L 751 447 L 748 449 L 748 451 L 744 454 L 744 456 L 739 461 L 739 462 L 736 464 L 735 467 L 732 469 L 732 471 L 727 475 L 727 477 L 723 480 L 723 482 L 719 485 L 719 487 L 716 489 L 715 492 L 711 495 L 711 497 L 707 500 L 707 502 L 703 505 L 703 507 L 699 510 L 699 512 L 695 515 L 695 517 L 692 519 L 690 523 L 687 525 L 687 527 L 682 531 L 682 533 L 680 534 L 678 538 L 674 541 L 674 543 L 670 546 L 670 548 L 666 551 L 666 553 L 661 558 L 657 564 L 653 567 L 653 569 L 648 574 L 643 581 L 641 582 L 640 585 L 622 606 L 622 607 L 605 627 L 597 638 L 593 641 L 593 643 L 586 651 L 582 653 L 575 653 L 574 652 L 568 651 L 565 647 L 562 645 L 561 643 L 561 637 L 560 636 L 560 634 L 561 633 L 561 624 L 562 623 L 562 621 L 564 619 L 564 616 L 566 615 L 567 611 L 569 610 L 570 606 L 573 604 L 573 602 L 575 601 L 579 593 L 581 592 L 583 589 L 583 585 L 586 579 L 586 573 L 583 565 L 583 562 L 581 561 L 581 559 L 579 558 L 579 556 L 578 555 L 576 555 L 570 550 L 568 550 L 564 548 L 549 547 L 548 549 L 541 550 L 534 554 L 532 554 L 531 556 L 527 557 L 525 560 L 523 560 L 520 564 L 518 564 L 516 567 L 506 576 L 506 578 L 502 581 L 502 583 L 499 585 L 498 588 L 496 589 L 496 591 L 494 592 L 494 594 L 491 596 L 491 599 L 490 601 L 488 602 L 488 604 L 482 615 L 482 617 L 480 618 L 480 622 L 477 628 L 476 634 L 473 641 L 473 644 L 472 645 L 472 648 L 471 649 L 471 652 L 470 653 L 470 656 L 469 657 L 469 660 L 468 661 L 468 664 L 467 665 L 466 670 L 464 673 L 464 675 L 462 676 L 460 680 L 458 687 L 456 689 L 455 692 L 452 694 L 452 696 L 450 698 L 448 698 L 440 708 L 439 708 L 435 712 L 433 712 L 432 714 L 430 714 L 429 716 L 419 720 L 418 722 L 414 722 L 409 726 L 405 726 L 404 728 L 400 728 L 399 730 L 397 730 L 390 733 L 386 733 L 385 735 L 381 735 L 381 736 L 378 738 L 374 738 L 369 742 L 358 748 L 355 751 L 353 751 L 351 754 L 349 754 L 348 756 L 334 769 L 334 771 L 330 774 L 330 776 L 327 778 L 327 780 L 325 783 L 323 784 L 322 788 L 320 789 L 315 798 L 315 802 L 312 807 L 311 812 L 309 813 L 309 815 L 308 816 L 308 819 L 307 820 L 307 828 L 305 830 L 305 834 L 304 835 L 304 841 L 305 842 L 304 861 L 306 862 L 306 869 L 307 870 L 309 881 L 311 885 L 311 889 L 313 890 L 315 897 L 320 906 L 321 911 L 324 913 L 325 916 L 327 918 L 327 920 L 329 921 L 330 925 L 334 928 L 334 930 L 335 930 L 337 932 L 337 934 L 342 938 L 342 940 L 346 943 L 362 959 L 364 962 L 366 962 L 371 968 L 373 968 L 376 972 L 378 972 L 380 975 L 382 975 L 384 978 L 386 978 L 387 980 L 389 980 L 391 983 L 393 983 L 394 985 L 396 985 L 397 987 L 401 990 L 404 990 L 405 992 L 407 992 L 408 994 L 411 995 L 413 997 L 420 999 L 421 1001 L 424 1001 L 431 1005 L 433 1005 L 434 1007 L 438 1007 L 439 1009 L 444 1009 L 451 1012 L 454 1012 L 459 1014 L 464 1014 L 466 1016 L 472 1016 L 473 1017 L 496 1017 L 497 1016 L 502 1016 L 505 1014 L 513 1013 L 517 1011 L 522 1011 L 526 1008 L 528 1008 L 537 1003 L 542 1002 L 544 999 L 548 998 L 549 996 L 551 996 L 552 994 L 555 993 L 557 990 L 559 990 L 561 987 L 575 974 L 577 970 L 580 968 L 582 965 L 582 963 L 584 962 L 584 960 L 586 959 L 586 957 L 588 956 L 589 952 L 594 942 L 596 941 L 596 937 L 599 933 L 599 930 L 600 929 L 601 924 L 603 923 L 604 913 L 605 912 L 606 904 L 607 903 L 607 898 L 608 897 L 608 892 L 610 890 L 610 885 L 611 884 L 610 879 L 611 878 L 611 872 L 612 871 L 613 862 L 614 861 L 616 853 L 620 845 L 622 844 L 622 842 L 625 840 L 626 837 L 634 831 L 636 828 L 638 828 L 639 826 L 641 826 L 649 820 L 654 819 L 657 817 L 658 815 L 663 813 L 665 811 L 667 811 L 668 809 L 670 809 L 671 807 L 673 807 L 675 804 L 677 804 L 678 802 L 682 799 L 689 791 L 691 790 L 691 788 L 694 786 L 694 784 L 698 779 L 701 772 L 703 770 L 703 767 L 705 766 L 706 760 L 707 759 L 707 757 L 706 756 L 706 754 L 707 753 L 707 740 L 705 739 L 704 735 L 698 727 L 696 727 L 695 725 L 689 724 L 687 722 L 682 722 L 680 724 L 675 724 L 674 726 L 666 730 L 659 738 L 657 738 L 653 741 L 652 743 L 645 746 L 632 746 L 631 745 L 629 745 L 628 743 L 626 743 L 624 739 L 621 737 L 621 731 L 624 726 L 627 724 L 627 722 L 630 720 L 630 718 L 633 714 L 636 712 L 636 710 L 639 708 L 639 706 L 642 702 L 644 701 L 644 699 L 647 695 L 650 693 L 650 691 L 653 689 L 653 687 L 655 686 L 656 683 L 662 676 L 664 672 L 667 670 L 667 668 L 670 666 L 670 664 L 674 660 L 679 652 L 682 650 L 682 648 L 685 644 L 688 642 L 688 640 L 691 638 L 691 636 L 694 633 L 696 629 L 699 627 L 699 625 L 703 621 L 703 620 L 705 619 L 705 617 L 708 615 L 708 613 L 711 609 L 713 608 L 713 606 L 716 604 L 716 602 L 719 598 L 722 596 L 722 594 L 726 591 L 728 587 L 731 584 L 731 582 L 733 581 L 734 578 L 736 577 L 736 575 L 740 572 L 744 566 L 744 564 L 747 562 L 747 560 L 750 558 L 752 555 L 752 553 L 756 550 L 758 547 L 758 545 L 761 543 L 761 541 L 764 539 L 764 537 L 767 535 L 769 532 L 769 530 L 772 528 L 772 526 L 774 525 L 780 517 L 780 515 L 782 514 L 785 510 L 785 508 L 788 506 L 788 504 L 791 502 L 791 500 L 794 498 L 794 496 L 796 495 L 797 492 L 799 491 L 799 489 L 802 487 L 802 485 L 805 483 L 805 481 L 807 480 L 807 478 L 810 476 L 810 474 L 813 472 L 813 470 L 816 468 L 816 466 L 819 464 L 821 461 L 821 459 L 824 457 L 824 455 L 827 451 L 829 450 L 829 448 L 832 446 L 832 444 L 835 441 L 837 437 L 841 434 L 841 432 L 850 420 L 853 418 L 853 416 L 860 410 L 866 410 L 874 414 L 880 414 L 883 412 L 887 411 L 896 403 L 897 403 L 897 401 L 899 398 L 901 397 L 901 395 L 906 385 L 906 383 L 909 376 L 909 373 L 912 366 L 912 363 L 914 359 L 914 356 L 916 352 L 916 349 L 918 345 L 918 342 L 919 341 L 919 339 L 921 338 L 921 336 L 922 335 L 922 329 L 924 327 L 924 325 L 926 324 L 927 322 L 931 322 L 933 320 L 942 319 L 943 317 L 947 315 L 949 315 L 949 314 L 950 313 L 952 313 L 954 310 L 956 310 L 957 309 L 957 307 L 961 304 L 961 302 L 963 301 L 965 297 L 966 291 L 968 290 L 968 284 L 969 283 L 969 275 L 968 274 L 968 270 L 966 269 L 965 263 L 964 261 L 962 260 L 962 258 L 960 257 L 960 255 L 959 255 L 952 248 L 951 248 Z M 395 899 L 400 900 L 401 902 L 405 904 L 407 907 L 409 907 L 412 911 L 414 911 L 417 915 L 419 915 L 421 918 L 423 918 L 426 922 L 428 922 L 435 928 L 437 931 L 436 936 L 433 938 L 433 940 L 430 942 L 430 944 L 429 945 L 427 945 L 425 943 L 423 943 L 422 942 L 422 940 L 418 939 L 414 935 L 413 935 L 411 932 L 409 932 L 406 928 L 404 928 L 402 925 L 398 923 L 396 920 L 394 920 L 391 916 L 389 916 L 386 912 L 386 910 L 388 909 L 391 903 L 394 901 Z M 457 886 L 458 887 L 458 889 L 456 891 L 456 893 L 453 895 L 453 897 L 450 899 L 450 901 L 447 903 L 446 906 L 442 911 L 435 910 L 430 904 L 430 902 L 432 901 L 433 898 L 437 895 L 437 893 L 440 891 L 440 889 L 443 887 L 443 885 L 447 882 L 450 882 L 451 883 L 453 883 L 455 886 Z M 477 876 L 479 876 L 484 880 L 484 882 L 481 886 L 479 886 L 477 883 L 475 883 L 474 882 L 474 880 Z M 434 868 L 441 874 L 441 877 L 436 884 L 433 886 L 433 888 L 430 890 L 430 892 L 427 894 L 426 897 L 425 898 L 420 898 L 417 894 L 415 894 L 413 892 L 413 889 L 418 882 L 422 879 L 422 877 L 425 875 L 425 873 L 430 868 Z M 461 864 L 463 864 L 466 866 L 468 869 L 470 869 L 471 870 L 471 872 L 468 876 L 466 876 L 463 872 L 460 871 L 458 869 L 458 867 Z M 442 852 L 443 851 L 447 851 L 448 853 L 454 857 L 454 861 L 453 862 L 448 862 L 443 858 L 442 856 Z M 430 842 L 434 841 L 437 844 L 437 846 L 435 849 L 431 849 L 429 846 L 429 843 Z M 487 834 L 489 836 L 491 836 L 494 840 L 493 845 L 490 847 L 490 849 L 487 851 L 487 853 L 484 855 L 484 857 L 483 858 L 476 857 L 475 855 L 472 853 L 472 848 L 476 845 L 476 843 L 480 839 L 480 838 L 482 837 L 482 835 L 483 834 Z M 511 832 L 513 831 L 513 829 L 514 828 L 518 828 L 519 830 L 523 832 L 523 834 L 521 835 L 519 838 L 516 838 L 515 836 L 511 834 Z M 473 822 L 476 826 L 478 826 L 479 827 L 479 829 L 475 832 L 475 834 L 472 836 L 471 839 L 468 841 L 468 843 L 465 845 L 459 844 L 458 842 L 454 839 L 454 836 L 457 834 L 457 832 L 461 828 L 461 827 L 464 825 L 464 823 L 467 821 Z M 496 817 L 497 816 L 504 817 L 508 822 L 507 827 L 506 828 L 503 828 L 502 826 L 500 826 L 499 824 L 495 821 Z M 479 804 L 481 802 L 483 802 L 487 804 L 489 807 L 491 807 L 492 808 L 492 812 L 488 815 L 486 815 L 484 812 L 482 812 L 478 808 Z M 467 792 L 470 792 L 474 794 L 474 800 L 473 801 L 469 802 L 468 800 L 465 798 L 465 794 Z M 771 496 L 772 497 L 772 499 L 770 500 L 770 502 L 767 504 L 767 506 L 765 507 L 765 509 L 762 511 L 762 513 L 759 515 L 759 517 L 756 519 L 756 521 L 753 523 L 753 525 L 751 526 L 751 528 L 749 530 L 747 530 L 747 533 L 745 534 L 745 536 L 742 538 L 742 540 L 741 541 L 739 541 L 739 544 L 736 546 L 736 548 L 734 549 L 734 551 L 731 553 L 731 555 L 728 557 L 728 559 L 725 561 L 725 563 L 722 565 L 722 567 L 718 570 L 717 574 L 713 577 L 713 579 L 711 580 L 711 582 L 708 584 L 708 586 L 705 588 L 705 590 L 702 592 L 701 595 L 699 596 L 699 598 L 696 600 L 696 602 L 693 604 L 693 606 L 690 608 L 690 610 L 688 611 L 687 614 L 685 615 L 685 617 L 683 618 L 681 622 L 678 624 L 678 626 L 676 627 L 676 629 L 673 631 L 673 633 L 670 635 L 670 637 L 667 639 L 667 641 L 665 642 L 664 645 L 661 649 L 658 651 L 658 653 L 655 655 L 655 657 L 653 658 L 652 661 L 646 669 L 644 670 L 644 672 L 641 674 L 641 676 L 639 677 L 638 680 L 635 684 L 632 686 L 632 688 L 629 690 L 629 692 L 627 693 L 626 696 L 620 704 L 617 706 L 617 708 L 610 716 L 606 722 L 605 726 L 603 727 L 603 730 L 604 731 L 604 740 L 609 750 L 616 758 L 618 758 L 619 760 L 622 762 L 630 763 L 632 766 L 634 766 L 636 764 L 646 765 L 647 764 L 652 763 L 653 761 L 657 761 L 664 757 L 666 754 L 671 751 L 676 745 L 678 745 L 681 742 L 683 742 L 684 741 L 686 741 L 689 745 L 689 748 L 688 749 L 688 759 L 682 771 L 679 774 L 678 778 L 674 781 L 666 790 L 665 790 L 661 794 L 659 794 L 658 796 L 651 799 L 644 804 L 635 808 L 627 814 L 625 814 L 624 816 L 614 825 L 613 825 L 613 827 L 609 830 L 609 832 L 605 837 L 602 843 L 602 845 L 600 848 L 600 850 L 596 860 L 596 864 L 595 865 L 595 869 L 594 870 L 594 876 L 593 877 L 593 883 L 592 884 L 592 889 L 591 890 L 591 894 L 590 895 L 590 900 L 589 901 L 589 905 L 587 906 L 587 913 L 586 914 L 586 917 L 585 918 L 583 926 L 574 945 L 572 946 L 571 950 L 569 951 L 569 953 L 566 955 L 566 957 L 561 962 L 561 963 L 555 969 L 554 969 L 550 974 L 547 975 L 544 979 L 542 979 L 541 981 L 526 990 L 524 990 L 521 992 L 519 992 L 509 996 L 506 996 L 505 997 L 490 998 L 489 999 L 478 999 L 477 998 L 470 998 L 469 997 L 459 996 L 458 994 L 452 994 L 451 993 L 443 991 L 440 989 L 438 989 L 431 985 L 429 985 L 423 982 L 422 980 L 420 980 L 416 977 L 413 976 L 410 974 L 409 972 L 405 971 L 403 968 L 401 968 L 394 963 L 393 961 L 391 961 L 390 960 L 390 958 L 386 957 L 384 954 L 380 952 L 374 945 L 372 945 L 360 933 L 358 929 L 352 924 L 352 922 L 350 919 L 346 916 L 346 914 L 344 913 L 336 900 L 335 895 L 332 889 L 330 888 L 329 883 L 327 880 L 326 870 L 324 869 L 324 865 L 323 864 L 323 832 L 325 830 L 326 820 L 327 819 L 328 814 L 330 813 L 330 809 L 334 804 L 334 801 L 336 797 L 338 796 L 338 794 L 340 793 L 342 789 L 345 786 L 345 784 L 348 782 L 349 779 L 356 772 L 358 772 L 363 766 L 365 766 L 367 763 L 369 763 L 370 761 L 373 761 L 375 759 L 380 757 L 381 755 L 385 755 L 385 754 L 388 752 L 390 752 L 393 750 L 397 750 L 398 748 L 400 748 L 407 745 L 411 745 L 412 743 L 416 743 L 416 742 L 419 740 L 423 740 L 426 737 L 428 737 L 430 735 L 434 734 L 435 732 L 439 731 L 440 729 L 442 729 L 443 727 L 445 727 L 447 724 L 450 723 L 451 721 L 455 717 L 456 717 L 463 709 L 465 708 L 465 706 L 468 703 L 473 694 L 476 692 L 476 689 L 478 688 L 478 685 L 481 679 L 484 668 L 486 667 L 486 661 L 487 660 L 488 653 L 490 652 L 490 645 L 491 644 L 496 627 L 504 610 L 506 609 L 507 605 L 509 604 L 509 602 L 511 601 L 513 598 L 513 596 L 516 594 L 516 592 L 521 588 L 522 585 L 528 579 L 530 579 L 534 574 L 536 574 L 537 572 L 539 572 L 539 571 L 542 569 L 545 569 L 546 567 L 548 567 L 549 566 L 560 566 L 567 570 L 568 572 L 568 578 L 567 579 L 567 581 L 561 590 L 559 591 L 559 593 L 556 595 L 556 597 L 553 599 L 553 602 L 551 603 L 551 605 L 546 614 L 546 616 L 543 623 L 543 629 L 542 630 L 542 645 L 544 646 L 544 648 L 547 653 L 548 657 L 557 665 L 560 666 L 561 668 L 564 668 L 567 670 L 570 670 L 572 672 L 572 675 L 566 683 L 562 686 L 562 688 L 558 692 L 554 698 L 551 700 L 551 702 L 548 704 L 547 707 L 544 709 L 543 712 L 539 715 L 539 717 L 536 719 L 536 721 L 532 724 L 532 726 L 528 729 L 528 731 L 525 735 L 521 738 L 521 740 L 518 742 L 518 744 L 514 747 L 514 749 L 510 752 L 510 754 L 507 756 L 507 758 L 504 760 L 504 762 L 500 765 L 500 767 L 497 769 L 497 771 L 492 776 L 488 782 L 483 783 L 474 776 L 472 776 L 470 774 L 465 774 L 464 776 L 462 776 L 457 781 L 457 782 L 455 783 L 455 785 L 452 787 L 449 793 L 448 801 L 449 803 L 451 804 L 451 806 L 457 811 L 459 811 L 461 813 L 461 817 L 457 820 L 457 822 L 453 826 L 453 827 L 450 829 L 450 831 L 449 832 L 444 832 L 442 829 L 440 829 L 438 827 L 433 825 L 427 826 L 421 830 L 418 836 L 414 841 L 414 843 L 412 845 L 412 848 L 419 858 L 421 858 L 424 861 L 424 864 L 419 871 L 416 873 L 416 875 L 412 878 L 412 880 L 407 886 L 405 886 L 404 884 L 402 884 L 400 882 L 394 882 L 393 881 L 389 882 L 382 891 L 380 895 L 376 899 L 374 903 L 371 905 L 369 914 L 372 922 L 377 925 L 380 929 L 382 929 L 384 932 L 386 932 L 388 935 L 392 937 L 394 940 L 396 940 L 399 944 L 401 944 L 403 947 L 406 948 L 409 952 L 411 952 L 413 955 L 415 955 L 418 959 L 420 959 L 421 961 L 424 961 L 427 963 L 430 963 L 431 961 L 436 960 L 438 956 L 441 954 L 441 952 L 445 948 L 447 944 L 450 942 L 450 940 L 454 935 L 454 927 L 452 924 L 452 922 L 448 920 L 448 915 L 450 911 L 453 909 L 453 907 L 456 905 L 456 903 L 463 894 L 467 894 L 469 897 L 471 897 L 474 900 L 478 901 L 479 903 L 486 902 L 488 899 L 490 899 L 491 898 L 491 896 L 493 895 L 494 892 L 497 890 L 497 888 L 499 887 L 499 883 L 501 882 L 501 880 L 499 879 L 499 876 L 497 872 L 494 871 L 492 868 L 488 866 L 488 862 L 490 861 L 490 859 L 494 856 L 494 854 L 499 848 L 504 847 L 506 849 L 508 849 L 510 852 L 512 852 L 513 854 L 523 854 L 525 853 L 529 849 L 529 848 L 532 846 L 532 844 L 536 841 L 537 837 L 539 836 L 539 829 L 537 828 L 535 823 L 531 821 L 529 818 L 527 818 L 525 816 L 525 813 L 530 809 L 530 807 L 533 805 L 533 803 L 536 801 L 536 799 L 539 797 L 539 795 L 542 793 L 542 791 L 545 789 L 545 787 L 548 785 L 548 783 L 551 781 L 551 779 L 555 776 L 555 774 L 557 773 L 557 771 L 561 767 L 561 766 L 563 765 L 563 763 L 567 760 L 570 756 L 570 754 L 573 752 L 573 750 L 576 748 L 576 746 L 579 744 L 579 742 L 582 740 L 582 738 L 586 735 L 586 733 L 588 732 L 589 729 L 592 727 L 592 725 L 595 723 L 595 721 L 599 718 L 599 716 L 602 714 L 602 712 L 605 710 L 606 707 L 611 703 L 611 701 L 615 698 L 615 696 L 617 695 L 618 692 L 621 690 L 621 688 L 624 686 L 624 684 L 628 681 L 628 679 L 632 675 L 632 674 L 635 672 L 635 670 L 638 668 L 638 666 L 646 657 L 649 652 L 652 650 L 652 648 L 655 646 L 656 643 L 659 639 L 662 637 L 662 635 L 666 631 L 666 630 L 669 628 L 669 626 L 670 625 L 672 625 L 672 622 L 676 618 L 682 609 L 685 607 L 685 605 L 686 604 L 688 604 L 689 600 L 692 598 L 692 596 L 696 593 L 696 591 L 699 587 L 702 585 L 702 583 L 705 581 L 705 579 L 708 577 L 708 575 L 712 572 L 712 570 L 715 568 L 715 566 L 718 564 L 718 562 L 721 560 L 721 558 L 724 556 L 724 554 L 727 552 L 727 550 L 730 548 L 730 546 L 734 544 L 734 541 L 735 540 L 737 540 L 737 537 L 738 536 L 740 536 L 740 533 L 741 532 L 743 532 L 743 529 L 744 528 L 746 528 L 746 525 L 747 524 L 749 524 L 749 521 L 754 518 L 755 513 L 758 511 L 758 509 L 761 507 L 761 505 L 764 503 L 764 501 L 767 499 L 767 497 L 768 496 Z M 746 483 L 747 484 L 747 487 L 745 489 L 743 489 L 742 493 L 739 497 L 736 499 L 736 501 L 734 503 L 732 503 L 732 506 L 728 508 L 728 511 L 724 515 L 724 516 L 721 518 L 721 520 L 717 523 L 717 525 L 713 528 L 713 530 L 710 533 L 708 533 L 708 535 L 706 537 L 706 539 L 703 541 L 703 543 L 698 547 L 698 549 L 695 551 L 695 553 L 691 556 L 691 558 L 688 560 L 688 562 L 683 566 L 683 568 L 676 576 L 676 577 L 673 579 L 673 581 L 669 584 L 669 586 L 666 588 L 666 590 L 662 594 L 658 600 L 655 602 L 654 605 L 651 607 L 651 609 L 647 612 L 647 614 L 643 618 L 643 619 L 640 621 L 640 623 L 636 627 L 636 628 L 633 630 L 633 632 L 630 634 L 625 642 L 621 645 L 621 647 L 617 651 L 613 657 L 609 660 L 609 662 L 604 667 L 601 672 L 597 675 L 597 677 L 592 681 L 592 683 L 588 687 L 584 693 L 581 695 L 581 697 L 577 700 L 577 702 L 575 703 L 570 711 L 567 713 L 566 716 L 562 720 L 562 721 L 559 723 L 559 725 L 556 727 L 556 729 L 552 733 L 552 734 L 548 737 L 548 739 L 545 743 L 542 745 L 542 747 L 539 749 L 539 751 L 535 754 L 535 756 L 531 760 L 525 769 L 521 772 L 521 774 L 518 776 L 518 778 L 515 780 L 515 782 L 512 784 L 512 786 L 508 789 L 508 791 L 504 796 L 499 796 L 495 792 L 494 792 L 492 790 L 492 788 L 494 785 L 497 783 L 497 781 L 501 777 L 501 776 L 504 774 L 504 772 L 507 770 L 507 768 L 511 765 L 511 763 L 515 760 L 515 758 L 519 754 L 519 753 L 523 750 L 523 748 L 527 745 L 527 743 L 530 741 L 530 739 L 534 736 L 534 734 L 537 732 L 537 730 L 541 727 L 541 725 L 545 722 L 545 720 L 549 717 L 549 715 L 554 711 L 556 708 L 556 706 L 559 704 L 560 701 L 563 697 L 566 695 L 566 693 L 570 690 L 570 688 L 574 685 L 574 683 L 577 681 L 578 678 L 581 674 L 584 672 L 585 670 L 593 668 L 596 666 L 601 659 L 605 656 L 605 654 L 609 651 L 610 648 L 613 644 L 617 641 L 617 639 L 620 637 L 626 628 L 629 626 L 629 624 L 633 620 L 633 619 L 637 616 L 642 608 L 646 605 L 646 603 L 651 599 L 651 597 L 656 592 L 659 587 L 664 583 L 664 581 L 665 580 L 667 580 L 668 576 L 674 570 L 677 565 L 681 562 L 681 560 L 685 557 L 685 555 L 690 550 L 690 549 L 693 547 L 693 545 L 697 542 L 697 540 L 698 539 L 700 539 L 701 535 L 706 532 L 706 529 L 710 526 L 710 524 L 714 521 L 714 519 L 718 516 L 718 514 L 722 511 L 722 509 L 726 507 L 726 504 L 730 502 L 730 499 L 732 497 L 734 497 L 734 494 L 738 491 L 738 489 L 739 488 L 741 488 L 741 485 L 743 483 Z M 785 476 L 786 477 L 786 480 L 784 481 L 784 483 L 781 485 L 781 487 L 778 489 L 778 491 L 776 492 L 776 494 L 774 496 L 771 496 L 770 495 L 770 493 L 773 491 L 773 489 L 775 488 L 775 486 L 778 484 L 778 482 L 782 480 L 782 477 L 783 476 Z M 754 473 L 755 474 L 755 477 L 751 481 L 750 481 L 750 483 L 749 484 L 747 484 L 746 483 L 746 479 L 750 476 L 750 474 L 751 473 Z M 785 473 L 786 472 L 788 472 L 789 473 L 789 476 L 788 477 L 786 477 L 785 476 Z M 788 469 L 789 468 L 791 468 L 792 469 L 792 472 L 791 473 L 789 473 L 788 472 Z M 791 465 L 792 464 L 794 464 L 795 465 L 795 468 L 794 469 L 792 469 L 791 468 Z M 794 461 L 795 460 L 797 460 L 798 461 L 798 464 L 797 465 L 795 465 L 794 464 Z M 769 454 L 770 455 L 770 458 L 764 465 L 762 465 L 762 468 L 758 471 L 758 473 L 757 474 L 755 474 L 754 473 L 754 469 L 758 466 L 758 464 L 759 463 L 761 463 L 762 459 L 764 458 L 767 454 Z M 808 445 L 809 446 L 809 449 L 807 450 L 807 452 L 804 454 L 803 457 L 800 460 L 798 460 L 797 459 L 797 457 L 800 453 L 802 452 L 802 450 L 803 449 L 805 449 L 805 446 L 806 445 Z M 817 434 L 818 435 L 818 437 L 815 439 L 815 441 L 813 442 L 812 445 L 811 446 L 809 446 L 808 445 L 808 442 L 811 440 L 811 438 L 813 437 L 813 435 L 814 434 Z M 795 422 L 796 423 L 796 425 L 792 429 L 792 430 L 788 433 L 788 435 L 786 436 L 786 438 L 781 443 L 780 443 L 780 445 L 777 447 L 777 449 L 775 451 L 773 451 L 773 454 L 772 455 L 770 455 L 769 454 L 769 450 L 770 449 L 772 449 L 774 446 L 774 444 L 778 442 L 778 439 L 781 437 L 781 435 L 782 434 L 784 434 L 785 430 L 789 427 L 790 424 L 793 422 Z M 797 417 L 799 417 L 800 418 L 800 420 L 798 422 L 796 422 L 795 421 L 795 419 Z M 833 412 L 834 413 L 834 415 L 832 416 L 832 418 L 829 420 L 829 422 L 826 426 L 823 428 L 823 430 L 821 431 L 821 433 L 820 434 L 817 434 L 816 433 L 816 431 L 817 430 L 819 430 L 819 427 L 821 426 L 824 420 L 826 419 L 826 417 L 829 415 L 829 413 L 830 412 Z M 825 405 L 826 406 L 826 408 L 819 416 L 816 421 L 813 423 L 813 425 L 812 426 L 810 426 L 810 429 L 806 433 L 803 438 L 801 439 L 801 441 L 798 443 L 798 445 L 789 457 L 786 459 L 786 461 L 785 462 L 783 462 L 783 465 L 777 473 L 774 475 L 774 477 L 771 479 L 771 481 L 759 497 L 756 499 L 756 501 L 753 503 L 753 505 L 749 509 L 746 514 L 743 516 L 743 518 L 740 520 L 740 522 L 737 524 L 737 526 L 734 530 L 731 532 L 731 534 L 727 537 L 727 539 L 724 541 L 724 543 L 721 545 L 721 547 L 718 549 L 718 551 L 715 553 L 715 555 L 712 557 L 712 559 L 708 563 L 708 564 L 706 565 L 706 567 L 703 569 L 703 571 L 700 573 L 700 575 L 696 578 L 696 580 L 692 584 L 689 589 L 686 591 L 686 593 L 683 595 L 683 597 L 679 600 L 679 602 L 669 614 L 667 618 L 664 620 L 664 622 L 661 624 L 660 627 L 657 631 L 655 632 L 650 640 L 647 642 L 647 644 L 644 646 L 643 649 L 637 657 L 633 660 L 633 662 L 630 664 L 629 667 L 626 671 L 622 674 L 622 676 L 620 677 L 619 680 L 615 684 L 612 689 L 609 691 L 609 693 L 605 696 L 605 698 L 598 706 L 598 707 L 595 709 L 595 711 L 594 712 L 592 712 L 591 716 L 580 729 L 578 733 L 575 735 L 575 737 L 571 741 L 568 746 L 565 748 L 565 750 L 562 752 L 562 754 L 559 756 L 559 758 L 556 760 L 555 763 L 549 771 L 546 773 L 546 775 L 545 776 L 543 776 L 543 779 L 540 781 L 540 783 L 537 785 L 537 787 L 534 791 L 531 793 L 531 795 L 528 797 L 528 799 L 525 801 L 522 807 L 520 809 L 517 809 L 515 807 L 513 807 L 510 804 L 510 799 L 513 797 L 513 795 L 517 792 L 517 790 L 520 788 L 520 786 L 524 783 L 524 781 L 528 778 L 528 776 L 531 774 L 531 772 L 534 770 L 534 768 L 538 765 L 538 763 L 541 761 L 541 759 L 544 757 L 550 750 L 551 746 L 555 743 L 555 741 L 557 740 L 558 737 L 561 735 L 561 733 L 565 730 L 565 728 L 569 725 L 569 723 L 572 721 L 572 719 L 576 716 L 576 714 L 580 711 L 580 709 L 583 707 L 583 705 L 587 702 L 587 700 L 590 698 L 591 695 L 594 691 L 598 688 L 598 686 L 602 683 L 602 681 L 607 676 L 611 670 L 615 667 L 615 665 L 619 662 L 619 660 L 624 655 L 624 654 L 627 652 L 627 650 L 630 648 L 631 645 L 634 641 L 638 638 L 638 636 L 642 632 L 650 621 L 653 619 L 653 617 L 657 614 L 657 612 L 661 608 L 669 597 L 672 595 L 672 593 L 675 591 L 675 589 L 679 586 L 680 583 L 687 575 L 690 570 L 694 567 L 694 565 L 697 563 L 698 560 L 706 551 L 706 550 L 709 548 L 709 546 L 713 543 L 713 541 L 716 539 L 717 536 L 720 532 L 724 529 L 724 527 L 728 524 L 728 522 L 732 519 L 732 517 L 735 515 L 735 513 L 739 510 L 739 508 L 742 506 L 742 504 L 746 501 L 746 499 L 750 496 L 750 494 L 753 492 L 753 490 L 756 488 L 756 486 L 760 483 L 760 481 L 764 478 L 764 476 L 768 473 L 768 471 L 771 469 L 772 466 L 775 462 L 779 459 L 779 457 L 783 454 L 783 452 L 787 448 L 787 447 L 789 446 L 789 444 L 796 438 L 797 434 L 801 430 L 801 429 L 804 427 L 804 425 L 807 423 L 807 421 L 810 419 L 810 417 L 814 413 L 814 412 L 816 411 L 817 408 L 819 407 L 821 404 Z M 812 400 L 813 401 L 813 404 L 807 410 L 804 415 L 802 417 L 800 417 L 799 416 L 800 411 L 802 410 L 803 407 L 808 401 Z M 941 261 L 944 265 L 947 267 L 947 270 L 949 273 L 949 277 L 951 278 L 950 287 L 940 300 L 936 302 L 931 302 L 930 304 L 923 305 L 917 309 L 915 309 L 911 313 L 911 315 L 908 318 L 908 321 L 906 322 L 906 326 L 905 327 L 904 333 L 902 337 L 902 340 L 899 347 L 899 350 L 896 357 L 896 360 L 893 364 L 893 370 L 892 371 L 889 382 L 886 388 L 884 389 L 884 391 L 882 392 L 879 396 L 874 396 L 868 393 L 857 393 L 850 396 L 846 400 L 844 400 L 836 393 L 835 393 L 829 387 L 828 387 L 826 384 L 824 384 L 819 380 L 819 372 L 818 371 L 817 366 L 812 358 L 812 354 L 820 345 L 822 345 L 829 337 L 831 337 L 838 329 L 840 329 L 847 321 L 849 321 L 856 313 L 858 313 L 865 305 L 867 305 L 874 297 L 876 297 L 882 290 L 885 289 L 891 282 L 893 282 L 899 275 L 902 274 L 908 267 L 910 267 L 915 261 L 925 257 L 927 257 L 928 258 L 935 258 Z" fill="rgb(46,32,69)" fill-rule="evenodd"/>
</svg>
