<?xml version="1.0" encoding="UTF-8"?>
<svg xmlns="http://www.w3.org/2000/svg" width="1254" height="1254" viewBox="0 0 1254 1254" fill="none">
  <path d="M 861 302 L 859 301 L 855 301 L 848 298 L 842 298 L 841 299 L 838 299 L 833 301 L 831 304 L 829 304 L 829 305 L 821 312 L 821 314 L 818 316 L 816 320 L 812 323 L 812 325 L 811 326 L 809 326 L 807 329 L 807 331 L 805 333 L 803 333 L 802 332 L 801 327 L 796 321 L 794 321 L 790 318 L 783 318 L 782 320 L 779 320 L 779 321 L 772 327 L 772 340 L 774 341 L 774 343 L 775 343 L 777 346 L 781 347 L 782 349 L 788 348 L 789 349 L 789 351 L 786 356 L 781 360 L 781 362 L 775 367 L 775 369 L 774 370 L 772 370 L 771 368 L 769 367 L 768 362 L 767 362 L 764 358 L 760 357 L 759 355 L 747 357 L 747 358 L 744 360 L 742 363 L 741 363 L 741 366 L 739 367 L 739 374 L 741 376 L 742 380 L 745 383 L 747 383 L 754 387 L 756 387 L 757 388 L 757 391 L 753 394 L 751 398 L 747 401 L 747 403 L 744 405 L 744 409 L 742 410 L 741 412 L 741 424 L 739 426 L 739 433 L 721 452 L 721 454 L 709 465 L 709 467 L 698 477 L 698 479 L 694 483 L 693 483 L 686 490 L 685 493 L 674 503 L 674 505 L 664 514 L 663 517 L 653 526 L 653 528 L 644 536 L 643 539 L 633 548 L 633 550 L 629 553 L 629 554 L 621 563 L 619 563 L 617 560 L 614 560 L 612 557 L 608 555 L 602 554 L 601 553 L 593 551 L 592 549 L 584 548 L 583 547 L 580 547 L 579 548 L 577 548 L 576 547 L 555 547 L 554 548 L 550 548 L 546 550 L 543 550 L 531 557 L 528 557 L 526 560 L 524 560 L 523 562 L 517 565 L 514 569 L 512 569 L 505 576 L 505 578 L 501 581 L 501 583 L 498 585 L 498 587 L 495 589 L 494 593 L 491 595 L 491 598 L 485 606 L 483 610 L 483 612 L 477 622 L 477 624 L 474 626 L 474 628 L 472 629 L 468 634 L 465 635 L 463 637 L 447 646 L 438 648 L 436 650 L 432 650 L 431 652 L 427 652 L 421 656 L 418 656 L 414 659 L 404 663 L 403 665 L 400 665 L 398 668 L 394 669 L 392 672 L 390 672 L 390 673 L 389 674 L 387 674 L 384 678 L 382 678 L 376 684 L 376 685 L 368 692 L 368 694 L 364 698 L 362 702 L 360 703 L 360 705 L 358 706 L 358 708 L 356 710 L 352 719 L 350 720 L 349 722 L 349 726 L 347 729 L 347 731 L 345 735 L 345 738 L 343 742 L 343 746 L 341 748 L 341 752 L 340 753 L 341 761 L 339 764 L 339 773 L 341 775 L 340 786 L 341 787 L 342 795 L 344 796 L 344 800 L 347 807 L 347 812 L 349 815 L 349 817 L 352 823 L 355 826 L 356 830 L 358 831 L 359 836 L 367 845 L 367 847 L 369 850 L 375 855 L 376 858 L 383 865 L 384 865 L 401 883 L 403 883 L 408 889 L 410 889 L 412 892 L 414 892 L 416 895 L 418 895 L 421 899 L 425 900 L 430 904 L 433 905 L 434 907 L 441 911 L 445 911 L 450 914 L 454 915 L 456 917 L 458 917 L 464 920 L 473 921 L 474 922 L 488 922 L 489 924 L 513 923 L 514 922 L 519 922 L 521 920 L 525 920 L 535 916 L 540 916 L 542 915 L 543 913 L 545 913 L 552 909 L 555 909 L 559 906 L 562 905 L 564 902 L 566 902 L 567 900 L 568 900 L 572 896 L 574 896 L 580 890 L 581 890 L 588 883 L 588 881 L 594 876 L 594 874 L 597 872 L 597 870 L 599 869 L 599 867 L 601 866 L 601 864 L 604 862 L 604 859 L 607 857 L 607 854 L 609 853 L 610 848 L 612 847 L 613 845 L 613 841 L 615 840 L 616 838 L 617 831 L 619 829 L 620 825 L 622 822 L 622 817 L 623 816 L 625 808 L 628 804 L 628 799 L 630 798 L 630 796 L 632 793 L 632 790 L 634 789 L 636 786 L 637 782 L 639 781 L 646 773 L 648 773 L 651 769 L 653 769 L 654 767 L 656 767 L 656 766 L 657 765 L 659 765 L 660 763 L 663 763 L 666 761 L 669 757 L 671 757 L 674 755 L 679 749 L 681 749 L 681 748 L 691 739 L 695 733 L 695 731 L 697 730 L 699 724 L 701 723 L 703 720 L 703 716 L 706 712 L 706 708 L 707 707 L 707 705 L 709 704 L 709 701 L 710 700 L 710 695 L 711 694 L 711 689 L 710 688 L 711 672 L 710 671 L 710 665 L 709 664 L 709 662 L 707 661 L 707 658 L 705 655 L 703 648 L 700 643 L 700 640 L 699 638 L 696 636 L 696 634 L 694 633 L 690 626 L 690 624 L 692 622 L 692 620 L 695 618 L 700 613 L 700 611 L 711 601 L 711 599 L 719 592 L 720 589 L 728 582 L 728 581 L 739 570 L 739 568 L 748 560 L 748 559 L 757 550 L 758 547 L 767 539 L 767 537 L 776 529 L 776 528 L 785 519 L 785 518 L 793 510 L 793 509 L 802 500 L 802 498 L 809 492 L 811 491 L 815 491 L 816 490 L 823 490 L 827 488 L 828 486 L 832 485 L 833 483 L 835 482 L 844 473 L 846 473 L 848 476 L 848 480 L 851 482 L 854 486 L 857 486 L 858 488 L 866 488 L 867 486 L 870 485 L 874 481 L 875 481 L 875 479 L 876 478 L 876 475 L 877 474 L 876 465 L 874 464 L 870 460 L 870 459 L 868 458 L 863 458 L 862 457 L 862 454 L 877 438 L 879 438 L 880 439 L 880 441 L 882 442 L 883 446 L 886 449 L 888 449 L 891 451 L 897 452 L 898 451 L 904 450 L 908 447 L 908 444 L 910 441 L 910 433 L 909 432 L 909 429 L 908 429 L 907 427 L 899 422 L 895 422 L 894 421 L 894 419 L 898 415 L 902 413 L 902 412 L 915 399 L 918 394 L 920 393 L 922 385 L 924 384 L 924 368 L 923 367 L 922 362 L 918 359 L 918 357 L 917 357 L 896 335 L 894 335 L 881 322 L 878 317 L 877 317 L 865 305 L 863 305 Z M 522 764 L 523 765 L 523 768 L 517 774 L 516 774 L 512 778 L 512 780 L 495 796 L 493 800 L 490 803 L 489 803 L 484 808 L 482 808 L 474 799 L 474 797 L 477 794 L 479 794 L 480 793 L 481 790 L 489 783 L 489 781 L 490 780 L 492 780 L 495 777 L 495 776 L 506 765 L 510 759 L 513 759 L 519 764 Z M 499 743 L 500 744 L 500 746 L 505 752 L 505 754 L 495 763 L 495 765 L 493 767 L 491 767 L 491 768 L 483 776 L 483 778 L 472 788 L 472 790 L 469 793 L 465 792 L 461 788 L 459 785 L 459 783 L 466 776 L 467 773 L 475 766 L 475 764 L 481 760 L 481 759 L 487 753 L 487 751 L 488 750 L 490 750 L 495 743 Z M 588 716 L 589 717 L 589 719 L 588 720 L 587 725 L 585 726 L 584 731 L 582 734 L 570 743 L 568 746 L 560 749 L 556 749 L 555 748 L 555 746 L 566 736 L 566 735 L 581 720 L 581 719 L 585 716 Z M 528 705 L 529 704 L 531 704 L 532 705 L 532 707 L 531 708 L 529 708 L 528 707 Z M 536 696 L 538 696 L 539 697 L 539 699 L 537 701 L 535 701 L 534 700 L 534 698 Z M 587 696 L 587 702 L 580 710 L 579 710 L 578 712 L 570 718 L 567 723 L 557 732 L 556 732 L 556 733 L 541 748 L 536 748 L 535 746 L 533 746 L 530 744 L 530 742 L 542 731 L 542 729 L 543 728 L 545 728 L 557 715 L 559 715 L 563 712 L 581 694 L 584 694 Z M 577 683 L 577 686 L 573 690 L 573 691 L 567 697 L 564 698 L 562 701 L 555 706 L 555 708 L 552 711 L 550 711 L 545 716 L 545 717 L 543 718 L 539 723 L 537 723 L 530 731 L 529 731 L 524 736 L 521 736 L 517 733 L 517 730 L 516 728 L 514 727 L 514 723 L 522 714 L 522 712 L 524 710 L 526 710 L 527 711 L 527 713 L 525 715 L 525 719 L 528 719 L 530 717 L 533 716 L 546 703 L 546 701 L 548 699 L 550 699 L 554 695 L 554 693 L 569 679 L 572 679 Z M 558 673 L 559 674 L 559 677 L 551 685 L 551 686 L 547 690 L 546 690 L 546 692 L 544 694 L 542 694 L 541 696 L 539 696 L 538 695 L 538 693 L 539 692 L 541 692 L 542 688 L 545 686 L 547 682 L 552 678 L 552 676 L 556 673 Z M 542 673 L 543 674 L 543 677 L 539 680 L 539 682 L 533 687 L 532 690 L 526 695 L 526 696 L 519 703 L 517 707 L 514 710 L 512 710 L 511 709 L 512 702 L 514 700 L 514 698 L 524 682 L 532 678 L 535 675 Z M 592 572 L 593 574 L 597 574 L 601 576 L 603 579 L 606 579 L 608 582 L 610 582 L 615 588 L 615 590 L 613 591 L 608 596 L 607 599 L 600 605 L 600 607 L 592 614 L 592 616 L 584 623 L 584 625 L 578 631 L 577 631 L 577 633 L 572 638 L 571 638 L 571 640 L 570 641 L 568 641 L 561 651 L 555 651 L 554 650 L 543 650 L 542 652 L 531 653 L 530 655 L 526 655 L 524 656 L 523 658 L 520 658 L 517 660 L 515 663 L 513 663 L 512 665 L 502 674 L 502 676 L 500 677 L 500 679 L 498 680 L 497 683 L 495 685 L 495 689 L 493 690 L 492 692 L 492 699 L 490 701 L 491 706 L 489 709 L 489 715 L 490 716 L 490 722 L 491 723 L 491 727 L 492 728 L 492 735 L 490 738 L 480 747 L 480 749 L 471 757 L 471 759 L 462 767 L 461 770 L 459 772 L 458 772 L 452 778 L 450 778 L 445 773 L 445 771 L 444 771 L 438 765 L 436 765 L 430 761 L 427 761 L 426 763 L 421 765 L 421 767 L 419 770 L 419 775 L 421 779 L 424 781 L 424 783 L 425 783 L 432 791 L 433 791 L 439 797 L 441 797 L 442 799 L 454 811 L 459 814 L 462 819 L 463 819 L 470 826 L 475 829 L 489 844 L 491 844 L 493 846 L 503 846 L 507 842 L 507 839 L 509 838 L 509 835 L 507 834 L 506 829 L 498 823 L 498 821 L 491 815 L 491 813 L 499 805 L 501 801 L 517 786 L 517 784 L 532 770 L 541 771 L 542 772 L 555 772 L 556 771 L 566 770 L 567 768 L 574 767 L 580 764 L 586 760 L 589 756 L 591 756 L 599 747 L 599 745 L 601 744 L 602 740 L 604 739 L 606 735 L 606 731 L 608 730 L 609 719 L 611 716 L 611 704 L 610 703 L 610 699 L 608 696 L 608 694 L 610 692 L 610 690 L 611 689 L 613 689 L 616 686 L 619 681 L 623 678 L 633 668 L 634 665 L 649 651 L 651 647 L 659 640 L 663 634 L 666 634 L 676 643 L 676 645 L 677 647 L 680 649 L 680 652 L 683 657 L 683 659 L 687 665 L 687 668 L 688 669 L 688 697 L 687 698 L 687 701 L 686 702 L 684 709 L 682 710 L 678 718 L 678 720 L 675 722 L 675 724 L 673 725 L 663 735 L 662 737 L 660 737 L 658 740 L 656 740 L 654 743 L 652 743 L 648 745 L 646 748 L 644 748 L 643 750 L 641 750 L 638 752 L 636 755 L 634 755 L 631 759 L 622 767 L 622 769 L 619 771 L 619 773 L 617 774 L 616 778 L 614 779 L 612 783 L 612 786 L 610 789 L 610 791 L 608 793 L 608 796 L 607 797 L 605 805 L 603 807 L 603 811 L 602 812 L 601 817 L 599 820 L 596 830 L 593 835 L 592 839 L 590 841 L 590 843 L 588 847 L 586 849 L 583 855 L 581 856 L 581 858 L 578 860 L 577 863 L 573 866 L 573 867 L 568 872 L 567 872 L 561 879 L 559 879 L 557 882 L 555 882 L 552 884 L 551 886 L 549 886 L 548 888 L 545 888 L 539 891 L 539 892 L 536 894 L 531 894 L 529 895 L 528 897 L 523 897 L 522 898 L 518 898 L 517 899 L 513 899 L 512 900 L 506 900 L 505 901 L 501 901 L 500 902 L 493 902 L 492 901 L 482 900 L 481 899 L 473 899 L 472 898 L 469 898 L 467 896 L 465 896 L 461 894 L 457 894 L 456 892 L 448 888 L 445 888 L 443 887 L 442 885 L 440 885 L 439 883 L 435 882 L 434 880 L 432 880 L 430 877 L 428 877 L 426 874 L 423 873 L 420 869 L 418 869 L 417 867 L 411 861 L 408 860 L 402 854 L 402 853 L 401 853 L 397 849 L 397 847 L 388 839 L 388 837 L 385 835 L 385 833 L 380 826 L 378 825 L 378 823 L 376 822 L 375 817 L 372 811 L 370 810 L 368 805 L 368 801 L 367 800 L 367 797 L 364 789 L 363 774 L 362 773 L 363 755 L 364 754 L 364 749 L 365 748 L 365 742 L 367 741 L 367 739 L 368 738 L 368 733 L 370 732 L 373 724 L 382 711 L 382 709 L 389 703 L 392 698 L 395 697 L 399 693 L 400 693 L 403 689 L 405 689 L 407 687 L 412 685 L 414 682 L 416 682 L 418 680 L 428 675 L 432 675 L 438 671 L 445 670 L 447 669 L 448 667 L 453 666 L 460 662 L 463 662 L 465 660 L 469 659 L 470 657 L 473 657 L 481 650 L 482 650 L 484 647 L 491 641 L 491 639 L 495 636 L 497 632 L 497 630 L 500 628 L 508 612 L 509 607 L 511 606 L 518 595 L 529 584 L 529 583 L 530 582 L 532 582 L 534 579 L 536 579 L 544 575 L 545 573 L 552 572 L 554 570 L 565 570 L 566 569 L 572 569 L 573 570 L 585 570 L 587 572 Z M 781 481 L 784 484 L 784 487 L 781 491 L 779 492 L 779 494 L 770 502 L 770 504 L 759 514 L 759 516 L 749 525 L 749 527 L 740 535 L 740 537 L 730 546 L 730 548 L 729 549 L 727 549 L 727 550 L 721 556 L 720 559 L 709 569 L 709 571 L 699 580 L 699 582 L 692 588 L 691 591 L 682 599 L 682 601 L 679 603 L 674 608 L 673 611 L 666 617 L 666 619 L 664 620 L 664 623 L 661 625 L 661 627 L 649 638 L 645 644 L 636 652 L 631 659 L 627 662 L 610 680 L 609 680 L 609 682 L 607 684 L 603 683 L 602 682 L 601 675 L 607 669 L 611 663 L 614 660 L 618 658 L 626 647 L 638 636 L 642 630 L 651 622 L 651 620 L 660 611 L 661 611 L 665 605 L 674 597 L 674 595 L 677 593 L 677 592 L 682 588 L 686 582 L 695 574 L 695 572 L 706 562 L 706 560 L 707 559 L 709 559 L 711 557 L 711 556 L 716 551 L 717 548 L 726 540 L 726 538 L 735 530 L 735 528 L 736 527 L 738 527 L 738 526 L 745 519 L 745 517 L 756 507 L 756 506 L 767 495 L 767 494 L 778 483 L 778 482 L 779 481 Z M 763 465 L 766 469 L 767 469 L 772 474 L 772 478 L 770 479 L 761 488 L 761 490 L 749 501 L 748 504 L 739 512 L 739 514 L 729 523 L 729 525 L 728 526 L 726 526 L 726 527 L 718 535 L 718 537 L 709 545 L 709 547 L 706 549 L 701 554 L 699 558 L 691 565 L 691 567 L 687 569 L 687 570 L 681 576 L 680 579 L 672 586 L 672 588 L 670 590 L 668 590 L 660 601 L 657 603 L 654 607 L 650 610 L 650 612 L 639 622 L 639 624 L 627 635 L 626 638 L 611 652 L 610 655 L 600 665 L 599 665 L 598 667 L 596 668 L 593 668 L 589 664 L 588 664 L 587 663 L 587 661 L 589 659 L 589 657 L 593 654 L 597 648 L 607 639 L 607 637 L 609 636 L 613 632 L 616 627 L 623 621 L 625 617 L 629 614 L 631 614 L 631 612 L 635 606 L 642 600 L 642 598 L 644 596 L 646 596 L 651 588 L 658 582 L 658 580 L 660 578 L 662 578 L 665 574 L 666 571 L 673 565 L 673 563 L 675 561 L 677 561 L 680 557 L 680 555 L 683 553 L 683 552 L 685 551 L 687 548 L 688 548 L 688 546 L 695 540 L 695 538 L 699 536 L 702 532 L 702 530 L 709 524 L 709 522 L 713 520 L 716 516 L 716 514 L 724 507 L 724 505 L 731 499 L 731 497 L 737 492 L 737 490 L 745 483 L 745 481 L 747 480 L 750 477 L 750 475 L 756 470 L 756 468 L 760 465 Z M 752 454 L 753 456 L 755 457 L 755 459 L 753 460 L 752 463 L 746 468 L 746 470 L 740 475 L 740 477 L 733 483 L 733 485 L 726 491 L 726 493 L 719 499 L 719 501 L 712 506 L 711 510 L 702 518 L 702 519 L 697 524 L 696 527 L 694 528 L 683 540 L 682 543 L 672 552 L 672 553 L 668 557 L 668 559 L 661 566 L 661 567 L 655 572 L 655 574 L 647 582 L 647 583 L 641 588 L 641 590 L 638 592 L 633 599 L 624 607 L 624 609 L 605 629 L 605 630 L 603 632 L 601 632 L 600 633 L 600 634 L 596 638 L 596 640 L 587 648 L 587 650 L 585 651 L 582 655 L 579 657 L 574 656 L 573 654 L 571 653 L 571 651 L 576 646 L 576 644 L 582 639 L 582 637 L 585 635 L 588 631 L 589 631 L 589 629 L 597 622 L 597 620 L 602 616 L 603 613 L 609 608 L 610 605 L 618 598 L 626 587 L 628 587 L 635 580 L 635 578 L 644 569 L 644 568 L 648 566 L 648 565 L 652 561 L 652 559 L 662 550 L 662 548 L 663 547 L 666 546 L 671 540 L 671 538 L 676 533 L 677 533 L 681 529 L 681 527 L 683 525 L 685 525 L 688 520 L 697 512 L 697 511 L 702 506 L 704 502 L 713 494 L 713 492 L 716 490 L 724 482 L 724 480 L 735 470 L 735 468 L 739 464 L 740 464 L 749 454 Z M 850 322 L 854 327 L 856 327 L 859 331 L 861 331 L 862 332 L 862 334 L 866 337 L 893 364 L 900 369 L 900 371 L 902 374 L 902 380 L 898 386 L 875 408 L 875 410 L 871 414 L 870 414 L 870 415 L 867 417 L 859 426 L 858 426 L 853 433 L 850 435 L 846 439 L 846 440 L 833 452 L 832 455 L 828 459 L 827 459 L 819 468 L 816 468 L 812 470 L 803 471 L 797 466 L 797 463 L 813 447 L 819 447 L 825 444 L 825 442 L 827 441 L 827 440 L 829 439 L 829 438 L 839 429 L 839 427 L 841 425 L 844 425 L 844 423 L 846 420 L 852 415 L 852 413 L 866 400 L 866 398 L 867 397 L 867 389 L 861 384 L 854 384 L 853 386 L 851 386 L 851 388 L 841 398 L 841 399 L 830 409 L 830 411 L 817 423 L 817 425 L 808 435 L 808 442 L 802 448 L 800 448 L 800 449 L 796 452 L 796 454 L 793 457 L 786 457 L 777 447 L 777 443 L 780 440 L 781 437 L 784 435 L 785 432 L 787 431 L 793 424 L 796 424 L 801 421 L 802 418 L 810 411 L 810 410 L 814 406 L 815 403 L 822 397 L 822 395 L 828 390 L 829 387 L 836 381 L 836 379 L 838 378 L 843 372 L 843 366 L 841 365 L 838 360 L 835 360 L 834 358 L 832 358 L 830 360 L 827 361 L 827 362 L 821 367 L 821 369 L 814 375 L 814 377 L 805 386 L 799 394 L 797 394 L 794 398 L 794 400 L 790 404 L 789 404 L 788 407 L 784 410 L 783 412 L 783 419 L 784 420 L 784 423 L 780 427 L 780 428 L 774 433 L 770 439 L 767 439 L 762 433 L 762 429 L 763 428 L 763 417 L 766 412 L 777 400 L 777 398 L 779 397 L 782 394 L 782 392 L 789 386 L 792 382 L 792 380 L 796 377 L 797 374 L 800 372 L 808 363 L 808 362 L 812 358 L 812 356 L 816 353 L 817 350 L 823 345 L 826 341 L 826 339 L 830 336 L 831 333 L 833 332 L 841 323 L 843 322 Z" fill="rgb(43,29,71)" fill-rule="evenodd"/>
</svg>
