<?xml version="1.0" encoding="UTF-8"?>
<svg xmlns="http://www.w3.org/2000/svg" width="1254" height="1254" viewBox="0 0 1254 1254" fill="none">
  <path d="M 902 291 L 900 291 L 899 289 L 897 289 L 895 286 L 891 286 L 890 284 L 879 283 L 877 281 L 867 281 L 866 282 L 859 281 L 859 282 L 856 284 L 852 284 L 850 285 L 843 293 L 831 293 L 829 294 L 824 301 L 824 309 L 825 311 L 827 312 L 827 317 L 826 319 L 824 320 L 824 322 L 822 323 L 821 326 L 819 327 L 819 329 L 816 331 L 816 333 L 813 335 L 811 338 L 809 338 L 806 334 L 806 329 L 803 324 L 803 322 L 801 320 L 799 320 L 792 316 L 787 316 L 786 318 L 779 320 L 777 324 L 775 325 L 774 331 L 773 332 L 773 336 L 775 340 L 775 343 L 778 346 L 780 346 L 781 348 L 785 350 L 793 350 L 794 349 L 796 349 L 799 351 L 799 355 L 796 359 L 791 363 L 791 365 L 780 378 L 775 378 L 774 377 L 774 371 L 772 370 L 771 366 L 768 362 L 763 359 L 761 359 L 760 358 L 752 358 L 746 361 L 742 365 L 740 369 L 740 380 L 744 387 L 746 387 L 748 390 L 753 390 L 754 391 L 756 391 L 757 390 L 762 390 L 765 393 L 765 396 L 761 399 L 761 402 L 759 404 L 758 416 L 756 420 L 750 425 L 750 427 L 744 432 L 744 434 L 739 439 L 739 440 L 733 445 L 733 447 L 730 449 L 728 453 L 723 457 L 723 459 L 717 464 L 717 466 L 713 469 L 713 471 L 708 475 L 708 476 L 703 481 L 702 484 L 697 488 L 697 490 L 692 494 L 692 496 L 687 500 L 687 502 L 682 506 L 682 508 L 678 511 L 678 513 L 673 517 L 673 519 L 668 523 L 668 525 L 664 528 L 664 530 L 659 534 L 656 538 L 655 541 L 651 545 L 651 546 L 647 549 L 647 551 L 643 554 L 642 557 L 637 562 L 624 566 L 623 567 L 620 567 L 617 569 L 615 569 L 593 577 L 591 577 L 588 579 L 580 581 L 577 583 L 569 585 L 566 587 L 564 587 L 563 588 L 558 589 L 555 591 L 553 591 L 550 593 L 545 594 L 542 596 L 535 598 L 530 601 L 528 601 L 525 603 L 518 605 L 502 613 L 499 613 L 487 620 L 484 620 L 478 624 L 470 627 L 463 632 L 454 636 L 452 638 L 448 639 L 447 641 L 442 643 L 437 647 L 435 647 L 434 649 L 432 649 L 431 651 L 429 651 L 428 653 L 426 653 L 422 656 L 420 659 L 417 660 L 415 663 L 412 664 L 389 688 L 379 702 L 377 703 L 377 705 L 373 710 L 363 728 L 363 730 L 360 735 L 358 742 L 356 743 L 356 747 L 353 754 L 352 761 L 350 762 L 349 778 L 347 780 L 347 786 L 348 787 L 348 789 L 347 790 L 347 802 L 348 803 L 348 809 L 347 810 L 347 812 L 348 813 L 348 821 L 349 822 L 350 831 L 352 832 L 353 839 L 357 849 L 357 854 L 360 856 L 360 860 L 362 861 L 364 865 L 364 868 L 367 870 L 368 875 L 371 877 L 372 880 L 377 886 L 377 888 L 380 890 L 380 892 L 384 895 L 384 897 L 390 903 L 391 903 L 402 915 L 404 915 L 410 921 L 411 921 L 414 925 L 418 926 L 419 928 L 422 929 L 423 931 L 427 932 L 429 935 L 432 935 L 433 937 L 437 938 L 447 944 L 451 944 L 452 946 L 456 946 L 457 948 L 461 948 L 463 950 L 468 950 L 472 952 L 475 952 L 477 954 L 482 954 L 483 955 L 487 955 L 488 956 L 493 956 L 494 955 L 496 955 L 501 957 L 513 957 L 514 956 L 518 956 L 519 955 L 521 955 L 522 956 L 527 956 L 528 955 L 537 954 L 539 952 L 542 952 L 543 951 L 549 951 L 550 949 L 552 949 L 556 947 L 561 947 L 563 946 L 564 944 L 568 944 L 570 943 L 571 941 L 577 938 L 580 938 L 587 934 L 589 931 L 591 931 L 593 930 L 594 928 L 596 928 L 597 926 L 599 926 L 601 923 L 603 923 L 605 920 L 607 920 L 610 916 L 614 914 L 630 898 L 630 896 L 634 893 L 635 890 L 639 887 L 639 885 L 642 883 L 642 881 L 645 879 L 645 877 L 647 874 L 649 873 L 650 869 L 652 868 L 653 864 L 655 862 L 659 853 L 662 849 L 662 847 L 666 840 L 666 838 L 672 825 L 672 823 L 677 810 L 677 807 L 680 800 L 680 797 L 682 796 L 682 790 L 683 789 L 683 785 L 685 781 L 685 777 L 687 772 L 687 768 L 688 767 L 688 763 L 689 762 L 689 757 L 691 756 L 691 750 L 692 749 L 692 745 L 693 744 L 693 733 L 695 730 L 695 726 L 696 725 L 695 718 L 697 717 L 697 712 L 696 711 L 696 709 L 698 708 L 698 697 L 699 696 L 698 690 L 699 689 L 699 684 L 700 683 L 699 676 L 701 674 L 700 659 L 702 657 L 702 647 L 701 646 L 701 642 L 703 637 L 703 627 L 702 626 L 702 622 L 703 621 L 703 613 L 706 609 L 710 606 L 711 602 L 714 600 L 714 598 L 717 596 L 719 593 L 719 591 L 722 589 L 722 587 L 725 585 L 725 583 L 728 581 L 728 579 L 731 577 L 731 575 L 733 574 L 733 572 L 736 570 L 736 568 L 739 566 L 739 564 L 742 562 L 742 560 L 745 558 L 747 554 L 752 548 L 752 546 L 755 544 L 755 542 L 758 540 L 760 537 L 760 535 L 763 533 L 765 530 L 765 528 L 767 527 L 773 519 L 773 517 L 775 516 L 781 508 L 781 506 L 784 504 L 786 501 L 786 499 L 789 497 L 789 495 L 792 493 L 794 490 L 794 488 L 797 486 L 797 484 L 799 483 L 799 481 L 803 478 L 804 474 L 807 472 L 807 470 L 809 469 L 809 467 L 812 465 L 812 463 L 814 462 L 815 460 L 818 460 L 820 457 L 825 455 L 828 455 L 833 452 L 833 450 L 837 447 L 839 443 L 842 443 L 845 446 L 846 457 L 853 463 L 857 464 L 859 466 L 864 466 L 865 464 L 867 464 L 873 461 L 877 457 L 879 447 L 878 446 L 878 443 L 874 436 L 868 432 L 864 432 L 863 431 L 861 431 L 860 432 L 855 432 L 850 428 L 850 426 L 853 422 L 855 421 L 855 419 L 858 417 L 858 415 L 860 412 L 863 410 L 863 408 L 866 406 L 866 404 L 871 398 L 874 398 L 877 402 L 876 407 L 878 408 L 878 410 L 880 414 L 883 417 L 885 417 L 890 420 L 897 420 L 898 419 L 900 419 L 909 413 L 909 410 L 911 406 L 911 400 L 909 396 L 909 393 L 900 387 L 897 387 L 896 386 L 894 386 L 893 387 L 886 387 L 883 384 L 884 380 L 887 378 L 887 376 L 891 373 L 891 371 L 899 362 L 911 363 L 912 361 L 916 360 L 920 354 L 920 348 L 918 347 L 918 339 L 920 336 L 920 334 L 922 333 L 922 326 L 918 315 L 918 311 L 916 310 L 915 307 L 913 305 L 913 303 L 911 302 L 911 300 L 908 298 L 902 292 Z M 527 791 L 528 792 L 528 795 L 525 797 L 524 800 L 521 802 L 520 805 L 517 807 L 517 809 L 513 812 L 513 814 L 510 816 L 509 819 L 504 823 L 503 827 L 499 830 L 499 832 L 497 833 L 496 836 L 493 838 L 493 840 L 492 841 L 487 841 L 484 837 L 484 832 L 488 829 L 488 827 L 492 823 L 492 822 L 495 820 L 495 818 L 496 817 L 498 817 L 499 813 L 503 810 L 503 808 L 506 806 L 506 804 L 510 801 L 510 799 L 513 797 L 513 795 L 517 792 L 519 788 L 522 788 L 523 790 Z M 510 779 L 509 784 L 505 787 L 505 789 L 502 791 L 502 793 L 498 796 L 498 798 L 494 801 L 494 803 L 491 805 L 491 807 L 487 810 L 487 812 L 484 814 L 483 817 L 480 821 L 476 824 L 476 826 L 473 828 L 471 828 L 469 825 L 466 824 L 465 823 L 465 821 L 467 820 L 467 818 L 471 815 L 472 812 L 476 808 L 476 807 L 479 805 L 479 803 L 483 800 L 483 798 L 488 793 L 491 788 L 494 786 L 494 784 L 498 781 L 498 779 L 503 775 L 505 775 Z M 585 715 L 586 716 L 586 718 L 587 718 L 589 721 L 589 725 L 591 727 L 591 730 L 592 731 L 592 748 L 588 758 L 585 760 L 583 763 L 583 765 L 580 768 L 578 768 L 577 770 L 573 773 L 566 776 L 559 776 L 558 778 L 549 778 L 548 777 L 543 777 L 542 776 L 540 776 L 539 774 L 537 773 L 537 769 L 541 766 L 541 764 L 545 761 L 546 758 L 551 754 L 551 753 L 558 745 L 558 743 L 563 739 L 563 738 L 567 734 L 567 732 L 571 729 L 571 727 L 574 725 L 574 723 L 576 722 L 578 718 L 582 715 Z M 571 703 L 573 705 L 573 709 L 569 712 L 568 715 L 564 718 L 564 720 L 559 725 L 555 731 L 551 734 L 551 736 L 547 740 L 547 741 L 544 743 L 544 745 L 540 748 L 540 750 L 537 752 L 535 756 L 530 761 L 530 762 L 527 765 L 525 765 L 521 761 L 522 755 L 527 751 L 527 749 L 532 745 L 532 743 L 535 741 L 535 739 L 539 736 L 539 734 L 543 731 L 543 729 L 546 727 L 548 723 L 551 721 L 551 719 L 554 717 L 554 715 L 558 712 L 558 710 L 562 707 L 562 705 L 566 702 Z M 552 696 L 553 697 L 553 700 L 551 702 L 550 705 L 546 709 L 546 710 L 541 714 L 541 716 L 537 719 L 537 721 L 533 724 L 533 726 L 529 729 L 529 731 L 525 734 L 525 736 L 520 740 L 520 742 L 518 743 L 516 746 L 514 746 L 513 745 L 513 741 L 512 740 L 512 727 L 513 726 L 514 721 L 516 720 L 517 718 L 517 715 L 519 714 L 519 712 L 521 711 L 527 704 L 529 704 L 530 702 L 533 702 L 539 698 L 546 698 L 548 696 Z M 676 611 L 679 614 L 679 617 L 677 618 L 676 621 L 673 623 L 673 625 L 669 628 L 668 631 L 661 639 L 661 640 L 657 643 L 657 645 L 653 648 L 653 650 L 649 654 L 649 655 L 646 657 L 646 659 L 643 661 L 643 663 L 640 665 L 639 668 L 635 672 L 631 678 L 627 681 L 627 683 L 624 685 L 624 687 L 621 689 L 619 693 L 616 695 L 616 697 L 612 701 L 609 706 L 606 708 L 604 708 L 603 707 L 603 705 L 601 703 L 601 700 L 603 698 L 603 696 L 607 693 L 607 691 L 611 687 L 611 686 L 615 683 L 615 681 L 618 679 L 618 677 L 623 673 L 623 671 L 627 667 L 631 661 L 634 659 L 634 657 L 635 656 L 637 656 L 638 652 L 643 647 L 646 642 L 650 639 L 650 637 L 654 634 L 654 632 L 658 628 L 661 623 L 665 620 L 665 618 L 668 616 L 669 613 L 672 610 Z M 662 600 L 663 601 L 663 604 L 660 607 L 660 609 L 656 612 L 656 614 L 654 615 L 649 623 L 645 626 L 645 628 L 641 631 L 641 633 L 639 634 L 633 643 L 629 646 L 629 648 L 626 650 L 625 653 L 621 657 L 617 663 L 614 665 L 614 667 L 610 670 L 610 672 L 608 673 L 606 677 L 602 681 L 598 687 L 593 691 L 589 690 L 586 687 L 586 685 L 590 682 L 590 680 L 594 677 L 594 675 L 599 670 L 599 669 L 602 667 L 602 665 L 606 662 L 606 660 L 610 657 L 610 655 L 615 650 L 618 645 L 622 642 L 622 640 L 626 637 L 626 635 L 630 631 L 630 630 L 634 627 L 634 625 L 638 622 L 638 620 L 641 618 L 646 610 L 650 607 L 650 605 L 655 601 L 655 599 L 656 598 L 658 598 L 660 600 Z M 622 588 L 623 589 L 623 591 L 620 595 L 617 597 L 617 599 L 614 601 L 608 610 L 605 612 L 605 614 L 601 617 L 600 620 L 595 625 L 588 635 L 584 638 L 584 640 L 580 644 L 572 655 L 569 657 L 569 659 L 565 662 L 565 664 L 560 668 L 560 670 L 555 676 L 545 676 L 544 677 L 539 677 L 538 679 L 535 679 L 531 681 L 527 681 L 525 682 L 524 684 L 522 684 L 520 685 L 519 687 L 517 687 L 516 689 L 514 689 L 501 703 L 500 707 L 495 716 L 494 723 L 492 724 L 492 729 L 491 730 L 491 741 L 492 742 L 492 748 L 494 749 L 494 753 L 497 759 L 497 763 L 495 765 L 495 767 L 491 770 L 491 772 L 487 775 L 487 777 L 483 780 L 483 782 L 479 785 L 479 787 L 476 789 L 476 791 L 472 794 L 472 796 L 468 799 L 468 801 L 463 806 L 463 807 L 460 809 L 460 811 L 456 814 L 454 814 L 452 813 L 450 810 L 448 810 L 444 805 L 442 805 L 438 801 L 434 799 L 429 799 L 424 802 L 422 807 L 422 811 L 424 816 L 429 820 L 431 820 L 436 825 L 437 825 L 439 828 L 441 828 L 444 832 L 447 833 L 451 837 L 452 837 L 455 841 L 457 841 L 458 843 L 462 845 L 465 849 L 467 849 L 468 851 L 472 853 L 475 857 L 477 857 L 480 861 L 482 861 L 485 865 L 487 865 L 488 867 L 496 872 L 499 876 L 501 876 L 504 880 L 506 880 L 507 881 L 513 881 L 514 880 L 516 880 L 519 877 L 519 874 L 521 873 L 521 869 L 519 868 L 518 865 L 516 864 L 514 861 L 511 860 L 509 857 L 507 857 L 505 854 L 502 853 L 500 851 L 500 847 L 503 845 L 504 842 L 507 840 L 507 838 L 510 836 L 510 834 L 514 831 L 514 829 L 518 826 L 518 824 L 521 822 L 521 820 L 526 816 L 529 812 L 529 810 L 532 808 L 532 806 L 535 804 L 540 797 L 545 797 L 546 798 L 559 798 L 562 796 L 573 795 L 575 794 L 576 792 L 580 792 L 583 790 L 584 788 L 586 788 L 587 786 L 589 786 L 591 783 L 593 783 L 598 778 L 598 776 L 601 774 L 601 772 L 603 771 L 603 769 L 605 768 L 608 762 L 608 759 L 610 755 L 610 751 L 612 749 L 613 737 L 611 732 L 610 720 L 614 717 L 614 715 L 616 714 L 618 710 L 621 708 L 621 706 L 625 703 L 625 701 L 629 698 L 629 696 L 633 693 L 633 691 L 635 690 L 637 686 L 640 684 L 641 681 L 644 677 L 650 672 L 651 668 L 656 663 L 659 658 L 663 655 L 663 653 L 667 650 L 667 648 L 670 646 L 670 644 L 673 642 L 675 638 L 678 636 L 678 634 L 679 633 L 682 633 L 683 634 L 682 645 L 681 646 L 681 656 L 682 657 L 682 659 L 681 660 L 681 664 L 679 666 L 679 669 L 681 670 L 681 674 L 679 678 L 679 689 L 678 690 L 678 698 L 677 699 L 677 710 L 676 711 L 676 718 L 675 719 L 675 725 L 674 726 L 674 733 L 673 734 L 673 739 L 672 740 L 672 749 L 670 751 L 669 761 L 668 762 L 667 770 L 665 775 L 665 782 L 664 783 L 663 790 L 661 791 L 661 797 L 659 801 L 659 804 L 658 805 L 654 819 L 652 822 L 652 824 L 648 830 L 648 834 L 644 842 L 642 844 L 639 852 L 637 853 L 636 857 L 634 860 L 632 861 L 628 869 L 625 873 L 622 875 L 622 877 L 617 882 L 617 883 L 602 897 L 601 899 L 599 899 L 595 904 L 593 904 L 590 906 L 587 910 L 585 910 L 585 911 L 584 912 L 582 912 L 581 914 L 579 914 L 577 915 L 576 917 L 570 919 L 569 921 L 563 924 L 560 924 L 558 926 L 555 926 L 553 928 L 549 928 L 541 931 L 534 932 L 532 934 L 521 934 L 519 936 L 517 936 L 516 935 L 509 935 L 508 934 L 506 934 L 505 936 L 495 936 L 493 934 L 482 934 L 481 932 L 478 932 L 473 930 L 467 930 L 466 929 L 464 929 L 463 927 L 459 927 L 457 925 L 454 925 L 452 924 L 451 922 L 447 920 L 444 920 L 443 918 L 439 917 L 438 915 L 434 914 L 433 912 L 431 912 L 430 910 L 428 910 L 426 907 L 424 907 L 422 904 L 419 903 L 416 899 L 413 898 L 411 895 L 399 884 L 399 882 L 395 879 L 395 877 L 392 875 L 388 869 L 388 867 L 386 866 L 386 863 L 383 861 L 377 849 L 377 845 L 375 844 L 375 842 L 372 835 L 372 829 L 371 828 L 371 826 L 369 824 L 369 820 L 368 819 L 368 802 L 366 801 L 366 793 L 367 792 L 367 787 L 368 786 L 368 781 L 369 780 L 369 774 L 370 773 L 370 765 L 371 764 L 371 761 L 373 759 L 376 746 L 378 745 L 378 741 L 385 727 L 387 726 L 388 722 L 390 721 L 392 718 L 393 714 L 396 712 L 396 710 L 399 708 L 399 706 L 403 703 L 403 701 L 409 696 L 410 693 L 414 689 L 415 689 L 418 685 L 421 684 L 426 678 L 428 678 L 431 674 L 435 671 L 439 670 L 442 666 L 445 665 L 450 661 L 452 661 L 453 659 L 458 657 L 460 655 L 464 654 L 465 652 L 468 652 L 469 650 L 477 647 L 478 645 L 496 636 L 499 636 L 507 631 L 510 631 L 516 627 L 519 627 L 525 623 L 529 623 L 530 621 L 532 621 L 537 618 L 541 618 L 542 616 L 547 615 L 550 613 L 554 613 L 560 609 L 564 609 L 565 607 L 570 606 L 573 604 L 580 603 L 587 599 L 592 599 L 596 596 L 599 596 L 601 594 L 603 594 L 619 588 Z M 644 587 L 647 590 L 647 592 L 645 594 L 645 596 L 641 600 L 633 611 L 629 614 L 629 616 L 625 620 L 621 626 L 617 629 L 617 631 L 613 634 L 612 637 L 605 645 L 605 646 L 601 649 L 601 651 L 597 654 L 597 656 L 593 660 L 589 666 L 585 669 L 585 671 L 581 674 L 581 676 L 577 680 L 577 681 L 576 682 L 571 681 L 569 679 L 570 673 L 574 670 L 574 668 L 578 665 L 578 663 L 580 662 L 582 658 L 585 656 L 586 653 L 591 649 L 593 646 L 593 644 L 597 641 L 598 638 L 602 634 L 606 628 L 610 625 L 610 623 L 614 620 L 614 618 L 618 614 L 621 609 L 625 606 L 625 604 L 630 599 L 639 587 Z M 672 551 L 674 551 L 678 556 L 686 562 L 688 562 L 691 566 L 693 566 L 696 570 L 698 570 L 700 573 L 702 573 L 704 576 L 703 582 L 701 583 L 701 585 L 697 588 L 695 591 L 695 593 L 693 594 L 691 597 L 688 597 L 685 593 L 683 593 L 680 589 L 678 589 L 676 586 L 674 586 L 672 583 L 664 578 L 662 575 L 660 575 L 659 574 L 659 572 L 657 571 L 658 566 L 662 563 L 662 561 L 667 556 L 667 555 Z M 697 519 L 699 518 L 705 519 L 707 522 L 709 522 L 712 526 L 714 526 L 716 529 L 718 529 L 721 533 L 723 533 L 726 537 L 728 537 L 729 539 L 732 541 L 732 543 L 729 545 L 729 547 L 727 548 L 727 550 L 724 552 L 724 554 L 721 556 L 721 558 L 720 559 L 715 560 L 712 556 L 710 556 L 707 552 L 705 552 L 703 549 L 701 549 L 699 546 L 697 546 L 694 542 L 692 542 L 688 537 L 686 537 L 685 536 L 685 533 L 688 531 L 689 528 Z M 728 482 L 730 482 L 734 486 L 735 486 L 737 489 L 739 489 L 741 492 L 743 492 L 746 496 L 748 496 L 757 504 L 757 508 L 755 509 L 755 511 L 753 512 L 752 515 L 749 517 L 749 519 L 747 520 L 745 523 L 740 523 L 737 519 L 735 519 L 733 516 L 731 516 L 728 512 L 726 512 L 723 508 L 721 508 L 719 505 L 717 505 L 714 501 L 714 498 L 719 494 L 719 492 L 724 488 L 724 486 Z M 762 442 L 764 442 L 767 446 L 769 446 L 771 449 L 773 449 L 776 453 L 778 453 L 782 456 L 784 459 L 786 459 L 788 461 L 788 465 L 783 471 L 781 475 L 776 480 L 776 482 L 771 488 L 769 488 L 767 486 L 765 486 L 764 484 L 760 482 L 758 479 L 755 478 L 754 476 L 752 476 L 749 472 L 747 472 L 745 468 L 743 467 L 744 462 L 748 459 L 748 457 L 754 452 L 755 449 L 757 448 Z M 886 304 L 887 306 L 889 306 L 896 314 L 897 317 L 899 319 L 899 321 L 901 322 L 902 328 L 898 334 L 897 340 L 895 342 L 891 343 L 889 346 L 888 346 L 880 353 L 880 355 L 877 357 L 877 359 L 873 363 L 870 368 L 867 370 L 864 374 L 864 376 L 861 378 L 861 380 L 859 381 L 858 384 L 855 388 L 853 389 L 853 391 L 850 393 L 850 395 L 848 396 L 845 402 L 842 404 L 840 407 L 840 409 L 834 416 L 832 420 L 830 421 L 830 423 L 828 424 L 827 427 L 824 430 L 821 436 L 818 438 L 812 439 L 811 441 L 807 442 L 806 444 L 804 444 L 802 446 L 800 446 L 797 443 L 795 443 L 793 440 L 791 440 L 789 437 L 787 437 L 784 433 L 780 430 L 778 430 L 775 426 L 775 423 L 777 422 L 778 414 L 780 412 L 780 408 L 784 404 L 784 402 L 789 398 L 789 396 L 794 392 L 794 390 L 798 387 L 799 384 L 803 381 L 803 379 L 807 376 L 807 374 L 811 371 L 811 369 L 815 366 L 818 362 L 819 359 L 821 358 L 822 355 L 824 354 L 825 351 L 829 348 L 831 345 L 831 343 L 835 339 L 837 335 L 841 332 L 842 328 L 844 327 L 844 325 L 846 322 L 846 320 L 847 319 L 847 314 L 848 313 L 853 312 L 857 308 L 857 305 L 859 303 L 862 303 L 863 302 Z" fill="rgb(44,28,67)" fill-rule="evenodd"/>
</svg>
