<?xml version="1.0" encoding="UTF-8"?>
<svg xmlns="http://www.w3.org/2000/svg" width="1254" height="1254" viewBox="0 0 1254 1254" fill="none">
  <g transform="rotate(40 627 627)">
    <path d="M 617 185 L 616 186 L 611 187 L 608 190 L 605 191 L 605 192 L 603 193 L 603 195 L 599 202 L 598 218 L 597 219 L 597 224 L 596 225 L 596 233 L 595 234 L 595 241 L 594 242 L 593 257 L 592 258 L 592 264 L 591 265 L 591 269 L 592 270 L 592 277 L 591 278 L 591 304 L 594 308 L 594 313 L 593 314 L 593 321 L 592 322 L 591 415 L 590 416 L 590 465 L 589 466 L 589 484 L 588 485 L 588 489 L 589 490 L 589 512 L 588 513 L 588 566 L 587 567 L 587 590 L 586 591 L 586 595 L 587 596 L 587 605 L 586 606 L 586 614 L 585 615 L 574 615 L 573 616 L 571 616 L 568 622 L 568 624 L 571 631 L 573 631 L 574 632 L 584 632 L 586 634 L 586 641 L 583 643 L 577 643 L 571 646 L 568 651 L 568 660 L 570 662 L 585 662 L 586 663 L 586 681 L 585 682 L 585 691 L 581 693 L 573 701 L 571 705 L 571 707 L 569 709 L 569 712 L 570 713 L 570 721 L 573 726 L 573 728 L 575 729 L 575 731 L 578 734 L 580 734 L 581 736 L 583 736 L 585 740 L 585 744 L 584 745 L 584 755 L 583 756 L 583 762 L 584 763 L 583 836 L 580 842 L 580 866 L 581 867 L 581 869 L 583 871 L 582 911 L 580 915 L 580 925 L 579 926 L 579 930 L 578 931 L 578 934 L 577 935 L 577 938 L 576 939 L 574 949 L 569 959 L 569 961 L 566 965 L 564 970 L 562 971 L 562 973 L 560 974 L 559 977 L 549 986 L 549 988 L 546 993 L 546 1003 L 550 1012 L 552 1014 L 554 1014 L 555 1016 L 560 1017 L 561 1018 L 567 1018 L 568 1019 L 573 1019 L 574 1020 L 581 1019 L 582 1020 L 606 1020 L 607 1021 L 642 1021 L 643 1020 L 658 1020 L 659 1021 L 663 1021 L 664 1020 L 668 1020 L 669 1019 L 676 1020 L 677 1019 L 690 1018 L 691 1017 L 696 1016 L 697 1014 L 699 1014 L 701 1012 L 704 1007 L 704 1005 L 706 1004 L 706 1001 L 707 1000 L 707 998 L 705 996 L 705 992 L 703 988 L 693 978 L 693 976 L 690 974 L 690 972 L 688 971 L 687 968 L 685 966 L 678 951 L 678 949 L 676 945 L 676 942 L 674 938 L 674 935 L 673 934 L 673 926 L 671 924 L 670 910 L 669 909 L 669 894 L 668 893 L 668 871 L 670 869 L 670 867 L 672 866 L 671 842 L 668 834 L 668 799 L 669 798 L 673 798 L 674 797 L 678 797 L 680 796 L 683 792 L 683 784 L 677 780 L 671 780 L 670 779 L 668 779 L 667 778 L 667 769 L 668 768 L 677 768 L 678 767 L 680 767 L 683 763 L 683 756 L 681 752 L 679 752 L 678 751 L 668 751 L 667 750 L 667 745 L 666 744 L 666 701 L 667 700 L 667 696 L 666 695 L 666 683 L 665 682 L 665 659 L 666 658 L 666 655 L 665 654 L 665 619 L 664 618 L 664 563 L 665 562 L 670 562 L 672 560 L 674 560 L 677 558 L 681 553 L 682 549 L 684 548 L 684 543 L 683 542 L 684 519 L 683 518 L 683 512 L 682 510 L 677 506 L 677 505 L 672 505 L 672 506 L 668 509 L 665 509 L 663 507 L 663 501 L 664 500 L 664 483 L 667 481 L 675 479 L 676 477 L 678 477 L 678 475 L 680 472 L 680 467 L 678 463 L 676 463 L 675 461 L 663 461 L 662 460 L 662 443 L 663 442 L 674 442 L 675 441 L 677 441 L 679 439 L 679 436 L 681 435 L 681 432 L 679 431 L 679 429 L 676 426 L 664 420 L 663 418 L 663 413 L 661 409 L 661 407 L 662 406 L 662 398 L 661 397 L 661 386 L 660 385 L 660 323 L 659 322 L 659 314 L 657 310 L 657 308 L 659 305 L 659 302 L 661 301 L 661 298 L 660 297 L 660 280 L 659 279 L 659 273 L 660 272 L 660 261 L 659 260 L 659 258 L 660 257 L 660 255 L 658 252 L 657 236 L 656 235 L 656 227 L 655 226 L 655 220 L 654 219 L 655 212 L 653 211 L 653 203 L 650 196 L 647 192 L 642 188 L 635 185 Z M 600 878 L 613 878 L 614 877 L 643 877 L 644 878 L 650 878 L 651 879 L 651 883 L 652 884 L 651 901 L 653 905 L 652 913 L 653 914 L 653 922 L 655 924 L 655 929 L 656 930 L 656 934 L 657 935 L 657 942 L 659 943 L 659 946 L 660 947 L 662 955 L 664 958 L 664 962 L 666 963 L 666 967 L 668 971 L 670 973 L 671 976 L 673 977 L 674 981 L 676 982 L 676 984 L 679 986 L 679 988 L 689 997 L 689 999 L 687 1001 L 685 1001 L 684 1002 L 669 1002 L 668 1003 L 644 1003 L 643 1004 L 606 1004 L 605 1003 L 599 1003 L 598 1002 L 596 1002 L 595 1003 L 580 1003 L 579 1002 L 565 1002 L 564 1001 L 564 997 L 569 992 L 570 989 L 573 987 L 573 985 L 576 983 L 579 976 L 582 973 L 585 967 L 585 964 L 587 963 L 587 959 L 589 958 L 589 954 L 592 947 L 593 939 L 595 938 L 595 935 L 596 934 L 596 925 L 597 924 L 597 917 L 598 916 L 598 907 L 600 902 L 600 891 L 599 890 L 599 879 Z M 596 848 L 597 847 L 653 847 L 654 848 L 655 859 L 654 860 L 640 860 L 639 859 L 603 860 L 602 859 L 597 859 L 596 858 Z M 601 802 L 602 801 L 604 801 L 606 802 L 608 805 L 612 808 L 612 809 L 616 810 L 617 812 L 622 812 L 623 813 L 636 812 L 637 810 L 643 807 L 646 803 L 649 803 L 650 804 L 650 809 L 651 810 L 652 830 L 651 831 L 643 831 L 642 830 L 634 830 L 633 831 L 600 831 L 599 830 L 599 821 L 600 820 L 600 808 L 601 807 Z M 625 779 L 628 779 L 629 781 L 634 783 L 634 793 L 631 796 L 622 796 L 620 793 L 618 792 L 619 784 L 622 781 L 624 781 Z M 594 705 L 599 706 L 604 712 L 603 718 L 599 721 L 598 723 L 592 723 L 587 718 L 587 711 L 591 706 L 593 706 Z M 603 669 L 605 669 L 610 676 L 612 676 L 614 679 L 617 679 L 621 681 L 628 681 L 629 682 L 631 682 L 632 680 L 634 680 L 642 676 L 645 673 L 647 673 L 648 674 L 648 685 L 649 686 L 649 718 L 650 719 L 650 730 L 649 731 L 649 743 L 650 744 L 649 760 L 650 761 L 650 772 L 649 773 L 646 773 L 640 767 L 634 764 L 631 764 L 628 762 L 623 762 L 622 764 L 619 764 L 613 767 L 608 772 L 607 772 L 607 774 L 606 775 L 601 775 L 600 774 L 601 755 L 602 754 L 602 745 L 601 744 L 601 741 L 603 738 L 607 738 L 608 736 L 611 734 L 615 734 L 617 733 L 618 730 L 624 726 L 633 726 L 637 724 L 640 718 L 640 711 L 637 707 L 633 705 L 619 704 L 614 697 L 610 694 L 610 693 L 606 692 L 605 690 L 603 689 L 603 678 L 602 677 L 602 670 Z M 624 647 L 628 647 L 633 650 L 633 652 L 634 653 L 634 659 L 632 663 L 630 663 L 629 664 L 623 664 L 617 658 L 617 654 L 619 653 L 620 650 Z M 648 610 L 648 612 L 647 613 L 648 638 L 647 639 L 644 639 L 637 633 L 634 633 L 630 631 L 622 631 L 618 633 L 615 633 L 608 639 L 606 640 L 604 640 L 603 639 L 603 629 L 604 628 L 603 616 L 604 615 L 604 611 L 605 610 L 609 611 L 612 613 L 613 615 L 615 615 L 618 617 L 620 617 L 621 618 L 627 618 L 628 619 L 630 619 L 632 617 L 635 617 L 641 614 L 641 613 L 645 609 L 647 609 Z M 624 585 L 630 586 L 634 591 L 634 596 L 632 600 L 629 602 L 623 602 L 619 599 L 619 596 L 617 595 L 618 589 Z M 604 549 L 605 548 L 608 548 L 614 554 L 618 554 L 623 556 L 632 556 L 633 555 L 635 555 L 636 553 L 639 552 L 643 548 L 645 548 L 646 549 L 646 555 L 647 556 L 647 575 L 646 576 L 644 576 L 638 571 L 636 571 L 633 569 L 630 569 L 629 568 L 619 568 L 618 570 L 613 572 L 608 577 L 606 577 L 605 576 L 605 571 L 604 570 Z M 621 523 L 628 523 L 633 527 L 633 534 L 631 538 L 622 539 L 618 536 L 618 526 L 620 525 Z M 645 488 L 645 498 L 646 499 L 646 512 L 645 513 L 643 513 L 640 510 L 630 505 L 621 505 L 619 507 L 612 509 L 609 513 L 607 513 L 606 512 L 606 508 L 605 507 L 605 490 L 607 488 L 612 489 L 613 491 L 618 492 L 622 494 L 629 494 L 631 492 L 633 492 L 639 488 L 641 488 L 642 487 L 644 487 Z M 623 459 L 629 460 L 631 464 L 633 465 L 633 471 L 632 473 L 626 477 L 620 476 L 616 471 L 616 465 L 619 461 L 622 461 Z M 645 423 L 645 449 L 644 450 L 642 450 L 639 447 L 637 447 L 632 444 L 628 444 L 626 442 L 623 442 L 621 444 L 617 444 L 614 446 L 612 446 L 610 449 L 608 449 L 607 448 L 606 438 L 607 437 L 607 429 L 609 425 L 611 425 L 612 427 L 614 428 L 617 428 L 622 430 L 627 430 L 635 427 L 638 427 L 642 422 L 644 422 Z M 620 397 L 622 396 L 628 396 L 633 401 L 633 408 L 630 412 L 628 413 L 621 413 L 618 408 L 616 407 L 616 402 Z M 612 317 L 619 317 L 623 315 L 626 315 L 627 316 L 635 316 L 636 317 L 640 317 L 642 319 L 642 327 L 643 328 L 643 351 L 644 352 L 644 362 L 643 363 L 644 385 L 643 386 L 641 386 L 639 384 L 633 381 L 631 381 L 630 380 L 623 380 L 622 379 L 620 379 L 619 381 L 614 382 L 611 384 L 609 384 L 608 383 L 608 369 L 609 368 L 608 344 L 609 343 L 610 319 Z M 607 285 L 608 284 L 642 284 L 643 285 L 643 296 L 642 297 L 638 297 L 637 296 L 629 296 L 628 297 L 608 296 L 607 295 Z M 622 201 L 630 201 L 631 202 L 633 202 L 635 206 L 637 207 L 638 229 L 640 233 L 640 240 L 641 241 L 641 248 L 642 249 L 642 256 L 643 257 L 643 266 L 642 267 L 628 268 L 627 267 L 618 267 L 617 266 L 609 266 L 608 265 L 608 262 L 609 261 L 609 254 L 610 253 L 610 246 L 611 245 L 611 238 L 612 237 L 612 230 L 614 227 L 614 214 L 616 210 L 616 206 L 619 202 L 621 202 Z" fill="rgb(48,33,70)" fill-rule="evenodd"/>
  </g>
</svg>
