<?xml version="1.0" encoding="UTF-8"?>
<svg xmlns="http://www.w3.org/2000/svg" width="1254" height="1254" viewBox="0 0 1254 1254" fill="none">
  <path d="M 378 306 L 376 307 L 375 309 L 373 309 L 368 315 L 364 324 L 364 329 L 362 330 L 362 334 L 364 336 L 364 341 L 367 347 L 367 349 L 370 351 L 370 353 L 371 354 L 373 354 L 375 357 L 380 360 L 382 360 L 383 361 L 390 361 L 391 362 L 402 362 L 403 363 L 414 363 L 415 364 L 424 364 L 425 365 L 447 366 L 448 367 L 450 367 L 451 366 L 453 366 L 454 367 L 468 367 L 469 366 L 472 366 L 477 364 L 479 361 L 481 361 L 485 357 L 487 357 L 488 356 L 507 355 L 508 354 L 514 354 L 515 353 L 534 353 L 535 354 L 540 355 L 543 357 L 546 357 L 548 360 L 550 360 L 551 361 L 551 363 L 559 372 L 562 378 L 562 380 L 563 381 L 563 386 L 564 387 L 564 391 L 563 392 L 563 400 L 564 401 L 564 404 L 562 406 L 563 412 L 562 413 L 562 420 L 561 421 L 561 429 L 559 431 L 560 437 L 559 438 L 559 444 L 558 445 L 558 452 L 556 456 L 557 462 L 555 465 L 555 470 L 554 471 L 554 478 L 553 479 L 554 486 L 553 487 L 553 494 L 551 497 L 551 503 L 550 504 L 549 520 L 548 521 L 549 526 L 547 529 L 547 542 L 545 545 L 546 550 L 544 553 L 544 560 L 543 561 L 544 566 L 542 570 L 543 575 L 541 577 L 541 585 L 540 586 L 540 592 L 539 593 L 539 602 L 538 603 L 538 610 L 537 611 L 537 618 L 536 619 L 536 627 L 535 628 L 534 642 L 533 643 L 534 650 L 532 653 L 532 659 L 531 660 L 531 668 L 530 669 L 530 674 L 529 675 L 529 685 L 528 686 L 528 693 L 527 694 L 527 701 L 526 702 L 526 709 L 525 710 L 525 717 L 524 718 L 523 735 L 522 736 L 522 742 L 521 743 L 521 748 L 522 749 L 522 751 L 520 754 L 520 760 L 519 761 L 519 769 L 518 770 L 517 785 L 516 786 L 516 793 L 515 794 L 515 801 L 514 802 L 513 820 L 512 821 L 512 828 L 511 829 L 511 835 L 510 836 L 510 860 L 511 861 L 512 875 L 514 877 L 514 884 L 515 885 L 515 887 L 517 888 L 520 901 L 523 907 L 525 908 L 525 911 L 527 915 L 530 917 L 530 919 L 532 923 L 536 926 L 536 928 L 539 930 L 539 932 L 544 936 L 544 938 L 550 944 L 552 944 L 558 951 L 560 951 L 562 954 L 564 954 L 567 958 L 574 962 L 578 963 L 580 966 L 588 970 L 592 970 L 593 972 L 595 973 L 600 973 L 601 975 L 606 975 L 607 977 L 609 977 L 610 978 L 617 978 L 619 980 L 630 981 L 631 982 L 639 982 L 640 981 L 642 981 L 643 982 L 652 982 L 653 981 L 656 981 L 657 982 L 664 982 L 665 981 L 671 981 L 672 980 L 676 980 L 677 979 L 684 978 L 685 977 L 687 977 L 689 975 L 696 974 L 697 972 L 702 972 L 708 969 L 709 967 L 714 966 L 721 961 L 724 960 L 727 956 L 729 956 L 731 953 L 733 953 L 736 949 L 738 949 L 751 936 L 764 918 L 764 915 L 767 913 L 772 903 L 772 899 L 774 898 L 775 896 L 775 892 L 777 891 L 778 886 L 780 883 L 780 877 L 782 876 L 782 873 L 784 868 L 784 864 L 785 863 L 785 859 L 786 858 L 786 854 L 787 853 L 787 849 L 788 848 L 788 844 L 789 843 L 789 839 L 790 838 L 790 831 L 792 830 L 792 824 L 794 823 L 794 818 L 795 817 L 795 815 L 797 814 L 798 808 L 800 807 L 800 805 L 805 797 L 805 794 L 807 793 L 808 789 L 810 788 L 812 784 L 817 778 L 817 776 L 819 774 L 821 774 L 822 771 L 828 765 L 829 765 L 831 761 L 834 760 L 837 756 L 839 756 L 842 752 L 844 752 L 845 750 L 848 750 L 849 751 L 856 751 L 857 752 L 863 752 L 864 751 L 868 751 L 869 749 L 875 748 L 882 743 L 887 734 L 887 732 L 889 731 L 889 728 L 888 727 L 889 717 L 887 715 L 887 712 L 886 711 L 885 706 L 883 703 L 883 699 L 881 698 L 879 693 L 875 688 L 875 686 L 873 685 L 872 682 L 867 676 L 866 673 L 863 671 L 863 669 L 859 666 L 850 654 L 849 654 L 848 652 L 838 642 L 831 637 L 826 631 L 824 631 L 820 626 L 817 625 L 805 616 L 804 614 L 802 614 L 801 612 L 799 612 L 788 604 L 771 595 L 769 595 L 762 591 L 760 591 L 756 589 L 749 588 L 748 586 L 746 586 L 745 587 L 743 587 L 742 586 L 732 586 L 731 587 L 725 588 L 719 591 L 713 596 L 708 606 L 708 622 L 709 623 L 709 626 L 713 636 L 713 639 L 712 640 L 712 642 L 710 643 L 708 646 L 708 649 L 706 650 L 703 658 L 701 659 L 696 669 L 696 673 L 694 674 L 693 676 L 693 680 L 691 682 L 690 688 L 688 689 L 688 691 L 687 692 L 687 697 L 686 698 L 686 700 L 684 701 L 684 707 L 682 711 L 682 714 L 680 716 L 680 719 L 679 720 L 678 730 L 677 731 L 677 741 L 675 744 L 674 759 L 673 760 L 673 770 L 672 771 L 672 778 L 673 779 L 673 782 L 672 783 L 672 788 L 670 789 L 670 791 L 672 793 L 672 795 L 671 796 L 671 799 L 669 800 L 669 802 L 670 803 L 670 807 L 669 808 L 669 819 L 668 820 L 668 825 L 667 826 L 667 829 L 665 834 L 665 839 L 661 846 L 659 847 L 653 854 L 651 854 L 647 857 L 645 857 L 644 858 L 627 858 L 624 856 L 622 856 L 621 854 L 620 854 L 610 844 L 610 842 L 609 841 L 609 823 L 610 822 L 609 816 L 611 812 L 612 801 L 613 800 L 617 800 L 618 799 L 629 799 L 631 800 L 635 804 L 635 808 L 634 809 L 634 817 L 636 818 L 636 821 L 637 821 L 640 825 L 643 825 L 644 826 L 648 826 L 655 823 L 655 821 L 657 818 L 657 801 L 656 800 L 656 797 L 654 794 L 654 791 L 652 790 L 652 788 L 650 787 L 647 782 L 645 782 L 644 780 L 642 780 L 635 776 L 631 776 L 628 774 L 620 774 L 619 776 L 616 776 L 615 775 L 616 763 L 617 762 L 617 752 L 619 749 L 631 749 L 632 748 L 635 748 L 636 746 L 638 746 L 643 743 L 645 743 L 646 741 L 648 741 L 652 737 L 652 735 L 655 732 L 657 728 L 658 723 L 660 722 L 660 720 L 659 719 L 659 717 L 660 716 L 659 705 L 655 697 L 655 694 L 651 691 L 645 684 L 640 683 L 639 681 L 637 680 L 629 680 L 627 678 L 627 672 L 629 671 L 629 663 L 630 662 L 632 662 L 633 661 L 643 661 L 647 659 L 651 659 L 656 656 L 658 653 L 665 647 L 665 644 L 668 639 L 668 637 L 670 636 L 669 631 L 671 629 L 671 625 L 669 623 L 669 618 L 668 617 L 668 615 L 661 603 L 656 598 L 646 594 L 643 594 L 639 591 L 639 584 L 641 579 L 649 579 L 650 578 L 653 578 L 654 577 L 656 577 L 657 575 L 661 573 L 663 573 L 664 571 L 666 571 L 670 567 L 670 565 L 676 557 L 677 549 L 679 547 L 679 541 L 677 540 L 677 535 L 674 528 L 672 526 L 672 523 L 670 523 L 669 522 L 669 520 L 667 518 L 665 518 L 663 515 L 661 515 L 656 512 L 654 512 L 653 510 L 650 510 L 648 508 L 647 501 L 649 497 L 661 496 L 666 494 L 666 493 L 667 492 L 669 492 L 670 490 L 672 490 L 678 484 L 678 482 L 681 480 L 682 478 L 682 474 L 684 470 L 684 452 L 683 450 L 681 449 L 681 447 L 679 444 L 675 440 L 675 438 L 673 438 L 671 435 L 669 435 L 668 433 L 666 433 L 663 431 L 661 431 L 657 429 L 653 429 L 651 426 L 651 407 L 652 406 L 651 390 L 650 389 L 651 370 L 649 366 L 649 358 L 648 357 L 648 353 L 647 352 L 646 345 L 644 341 L 644 337 L 642 336 L 642 334 L 636 323 L 636 321 L 634 320 L 634 317 L 630 314 L 630 312 L 627 310 L 627 308 L 620 301 L 619 301 L 614 295 L 612 295 L 609 291 L 604 288 L 600 287 L 599 285 L 595 283 L 592 283 L 589 281 L 581 279 L 580 277 L 572 276 L 571 275 L 563 275 L 562 274 L 545 274 L 544 275 L 537 275 L 536 276 L 532 276 L 531 277 L 524 278 L 523 280 L 516 281 L 508 284 L 502 284 L 501 286 L 495 286 L 494 288 L 491 288 L 487 290 L 481 290 L 480 291 L 476 291 L 473 289 L 467 288 L 466 286 L 461 286 L 460 287 L 457 287 L 456 286 L 445 287 L 444 288 L 442 288 L 442 289 L 439 291 L 432 291 L 431 292 L 421 294 L 419 296 L 413 296 L 412 297 L 409 297 L 408 299 L 398 300 L 397 301 L 390 302 L 389 304 Z M 621 703 L 629 703 L 630 704 L 632 704 L 635 707 L 637 711 L 637 718 L 636 719 L 636 721 L 633 724 L 623 725 L 618 723 L 615 717 L 615 711 L 617 707 Z M 629 617 L 631 617 L 633 615 L 642 616 L 643 618 L 647 621 L 647 633 L 645 634 L 642 638 L 630 638 L 629 636 L 626 634 L 624 629 L 624 625 L 626 624 L 626 620 L 628 619 Z M 734 610 L 747 610 L 748 611 L 751 611 L 752 613 L 754 613 L 757 615 L 761 615 L 769 619 L 770 621 L 773 623 L 776 623 L 778 626 L 781 626 L 782 628 L 784 628 L 785 630 L 787 630 L 791 633 L 792 635 L 794 635 L 795 637 L 797 637 L 800 641 L 802 641 L 803 643 L 811 650 L 814 651 L 818 655 L 818 656 L 840 677 L 840 679 L 842 682 L 844 682 L 845 683 L 845 685 L 849 689 L 849 690 L 851 691 L 851 693 L 854 695 L 854 698 L 856 701 L 859 703 L 861 710 L 863 711 L 863 715 L 865 716 L 865 725 L 861 727 L 854 727 L 849 725 L 843 725 L 840 723 L 838 723 L 837 721 L 833 721 L 825 717 L 824 715 L 818 713 L 817 711 L 815 711 L 814 709 L 810 708 L 808 705 L 805 703 L 803 703 L 802 701 L 800 701 L 798 698 L 796 698 L 793 694 L 791 694 L 787 689 L 785 689 L 778 681 L 776 681 L 772 677 L 772 676 L 763 668 L 763 666 L 756 660 L 756 658 L 752 655 L 751 652 L 748 650 L 748 648 L 746 645 L 743 643 L 743 640 L 740 638 L 740 636 L 739 634 L 737 633 L 735 629 L 735 626 L 733 624 L 733 619 L 732 618 L 732 613 Z M 642 533 L 647 533 L 651 535 L 656 541 L 655 550 L 648 555 L 639 555 L 637 554 L 633 549 L 633 542 L 635 538 L 638 535 Z M 650 451 L 654 451 L 655 453 L 657 453 L 662 457 L 662 467 L 661 468 L 661 470 L 656 473 L 648 473 L 646 472 L 640 464 L 641 458 L 643 455 L 648 453 Z M 434 318 L 434 322 L 435 323 L 434 330 L 435 331 L 435 338 L 436 339 L 436 341 L 435 342 L 430 342 L 429 340 L 423 340 L 422 341 L 420 341 L 419 340 L 408 340 L 406 338 L 400 338 L 399 339 L 397 339 L 393 337 L 387 337 L 386 336 L 385 331 L 387 329 L 389 329 L 390 327 L 394 327 L 402 324 L 405 324 L 406 322 L 409 322 L 410 321 L 417 321 L 421 319 L 428 318 L 429 316 L 432 316 Z M 458 309 L 460 309 L 463 311 L 463 318 L 464 319 L 464 325 L 465 326 L 465 335 L 466 336 L 466 340 L 464 342 L 460 342 L 458 338 L 458 331 L 457 330 L 457 310 Z M 537 299 L 551 299 L 552 297 L 556 297 L 557 299 L 570 299 L 573 301 L 578 301 L 579 303 L 583 305 L 589 306 L 591 309 L 594 309 L 596 312 L 598 312 L 603 318 L 605 318 L 606 319 L 606 321 L 612 327 L 612 328 L 614 329 L 615 333 L 618 335 L 619 340 L 621 342 L 623 347 L 624 355 L 626 357 L 626 366 L 628 369 L 628 371 L 627 372 L 627 386 L 629 388 L 629 393 L 628 394 L 628 412 L 629 413 L 629 429 L 630 430 L 630 438 L 624 445 L 620 452 L 615 453 L 612 458 L 612 466 L 614 471 L 620 474 L 623 480 L 627 484 L 627 492 L 625 494 L 626 501 L 624 502 L 624 506 L 625 507 L 625 509 L 624 510 L 624 516 L 617 525 L 615 530 L 614 531 L 610 531 L 603 539 L 603 549 L 607 553 L 610 553 L 614 557 L 614 560 L 618 566 L 618 575 L 616 577 L 617 583 L 615 587 L 616 592 L 615 593 L 615 599 L 614 600 L 614 602 L 611 604 L 608 608 L 607 611 L 605 612 L 605 614 L 604 615 L 600 615 L 599 616 L 597 616 L 595 618 L 595 620 L 593 624 L 593 627 L 595 632 L 598 635 L 605 639 L 605 643 L 608 647 L 608 655 L 607 656 L 607 661 L 606 662 L 606 672 L 604 674 L 604 686 L 603 687 L 603 689 L 598 695 L 596 699 L 593 699 L 589 701 L 586 705 L 584 706 L 584 715 L 585 716 L 585 718 L 593 724 L 593 726 L 594 727 L 594 729 L 596 731 L 596 735 L 597 736 L 597 738 L 596 739 L 596 746 L 595 747 L 595 755 L 593 756 L 594 763 L 592 765 L 592 777 L 588 781 L 584 781 L 583 782 L 578 783 L 575 786 L 575 789 L 573 792 L 573 794 L 575 796 L 575 799 L 577 801 L 581 802 L 582 804 L 587 804 L 588 805 L 587 821 L 585 824 L 585 828 L 586 829 L 587 849 L 588 851 L 590 852 L 592 856 L 592 858 L 594 859 L 598 866 L 602 870 L 604 870 L 606 873 L 608 873 L 609 875 L 611 875 L 616 878 L 618 878 L 622 880 L 626 880 L 628 882 L 632 882 L 633 881 L 645 881 L 646 880 L 649 880 L 650 879 L 655 878 L 660 875 L 663 875 L 666 873 L 669 869 L 674 866 L 679 860 L 679 858 L 682 856 L 682 853 L 686 846 L 686 844 L 689 837 L 689 833 L 691 831 L 691 827 L 692 826 L 691 819 L 693 818 L 692 808 L 693 807 L 693 803 L 694 802 L 693 795 L 695 791 L 695 784 L 694 783 L 694 781 L 696 778 L 696 767 L 697 766 L 696 759 L 698 758 L 698 751 L 699 750 L 699 745 L 700 744 L 700 739 L 701 738 L 702 728 L 703 727 L 703 724 L 704 723 L 704 720 L 706 715 L 706 709 L 709 702 L 710 696 L 712 695 L 714 691 L 714 688 L 716 685 L 716 681 L 718 677 L 720 676 L 725 666 L 725 663 L 726 662 L 728 662 L 731 666 L 737 671 L 737 673 L 744 679 L 744 681 L 752 689 L 753 689 L 767 704 L 769 704 L 773 709 L 775 709 L 780 715 L 783 717 L 785 717 L 788 721 L 792 722 L 795 726 L 802 730 L 804 730 L 805 732 L 809 733 L 811 736 L 816 738 L 818 740 L 818 742 L 816 745 L 804 756 L 804 758 L 800 761 L 800 763 L 796 766 L 796 768 L 792 774 L 790 775 L 790 777 L 788 778 L 787 782 L 785 784 L 782 791 L 780 792 L 778 796 L 778 800 L 776 801 L 775 807 L 774 808 L 771 819 L 769 820 L 769 827 L 768 828 L 768 831 L 766 836 L 766 840 L 764 842 L 764 847 L 762 852 L 762 860 L 761 861 L 761 865 L 759 869 L 759 872 L 758 873 L 755 884 L 753 885 L 753 889 L 751 893 L 749 894 L 749 896 L 746 900 L 746 903 L 744 904 L 743 908 L 740 910 L 738 913 L 738 915 L 734 918 L 734 920 L 732 921 L 722 931 L 721 933 L 719 933 L 716 937 L 714 937 L 712 940 L 708 941 L 707 943 L 704 943 L 698 948 L 694 948 L 694 949 L 691 951 L 689 951 L 685 953 L 680 953 L 679 954 L 672 955 L 670 957 L 656 957 L 655 959 L 651 959 L 650 958 L 648 958 L 647 959 L 642 959 L 641 958 L 636 958 L 635 957 L 630 957 L 629 956 L 624 956 L 623 955 L 616 955 L 615 953 L 609 953 L 608 951 L 604 951 L 602 949 L 597 948 L 596 946 L 594 945 L 591 945 L 587 943 L 585 940 L 580 937 L 578 937 L 576 934 L 574 934 L 570 929 L 568 929 L 566 927 L 566 925 L 562 923 L 562 921 L 560 918 L 555 915 L 555 913 L 552 911 L 552 909 L 550 908 L 550 906 L 547 900 L 545 898 L 544 894 L 542 893 L 541 891 L 541 887 L 539 886 L 539 884 L 537 880 L 537 873 L 536 872 L 536 868 L 535 867 L 535 862 L 533 859 L 533 857 L 534 856 L 534 837 L 535 836 L 535 830 L 536 829 L 536 820 L 537 819 L 537 813 L 538 812 L 538 805 L 539 804 L 539 797 L 540 796 L 540 787 L 541 786 L 541 780 L 542 779 L 543 763 L 544 762 L 545 746 L 546 745 L 546 737 L 547 736 L 547 729 L 548 728 L 548 721 L 549 720 L 549 711 L 550 710 L 550 703 L 551 702 L 552 688 L 553 687 L 553 680 L 554 679 L 554 672 L 555 671 L 555 662 L 556 661 L 557 647 L 558 646 L 558 638 L 559 637 L 559 629 L 560 628 L 560 621 L 561 620 L 561 612 L 562 611 L 562 605 L 563 604 L 563 595 L 564 594 L 564 587 L 565 586 L 565 578 L 566 577 L 566 571 L 567 570 L 567 562 L 568 561 L 568 555 L 569 554 L 569 546 L 570 545 L 570 538 L 571 537 L 571 529 L 572 528 L 572 523 L 573 522 L 573 513 L 574 512 L 574 505 L 575 504 L 575 497 L 576 496 L 576 489 L 577 488 L 577 481 L 578 480 L 578 472 L 579 471 L 579 464 L 580 463 L 580 456 L 581 455 L 581 448 L 582 447 L 582 440 L 583 439 L 583 432 L 584 431 L 584 422 L 585 421 L 586 407 L 587 406 L 587 384 L 586 383 L 586 377 L 585 376 L 585 374 L 583 373 L 583 369 L 581 367 L 581 364 L 579 360 L 577 359 L 576 355 L 573 353 L 573 351 L 569 346 L 567 346 L 561 340 L 560 340 L 558 337 L 555 337 L 553 334 L 549 334 L 543 331 L 534 330 L 533 328 L 511 329 L 509 331 L 506 331 L 505 330 L 503 330 L 502 331 L 490 331 L 489 330 L 489 328 L 487 327 L 487 325 L 488 324 L 487 315 L 489 313 L 492 313 L 496 311 L 499 311 L 507 308 L 510 308 L 511 307 L 513 307 L 514 305 L 521 304 L 525 302 L 531 302 L 533 300 L 536 300 Z" fill="rgb(45,30,70)" fill-rule="evenodd"/>
</svg>
