<?xml version="1.0" encoding="UTF-8"?>
<svg xmlns="http://www.w3.org/2000/svg" width="1254" height="1254" viewBox="0 0 1254 1254" fill="none">
  <g transform="rotate(40 627 627)">
    <path d="M 619 190 L 609 195 L 604 202 L 604 219 L 603 220 L 603 225 L 604 226 L 604 239 L 603 240 L 603 244 L 604 245 L 604 277 L 608 283 L 611 285 L 611 294 L 610 295 L 610 299 L 601 304 L 599 304 L 597 306 L 597 308 L 594 312 L 594 316 L 593 317 L 594 335 L 600 344 L 600 385 L 599 386 L 599 436 L 598 437 L 598 453 L 593 455 L 583 455 L 580 459 L 580 466 L 582 469 L 584 469 L 585 470 L 597 470 L 598 471 L 598 488 L 597 489 L 597 536 L 595 540 L 595 549 L 596 550 L 595 591 L 583 598 L 583 600 L 580 603 L 578 607 L 571 607 L 569 608 L 566 612 L 565 612 L 565 618 L 571 622 L 572 624 L 578 624 L 581 628 L 581 630 L 583 631 L 586 635 L 588 635 L 594 639 L 594 657 L 593 658 L 593 719 L 592 720 L 589 720 L 588 722 L 586 722 L 586 723 L 583 725 L 580 729 L 577 736 L 577 749 L 579 752 L 579 754 L 585 762 L 587 762 L 588 764 L 591 766 L 591 774 L 592 775 L 591 834 L 584 840 L 580 851 L 581 863 L 584 870 L 587 873 L 587 877 L 586 878 L 586 884 L 587 885 L 587 890 L 586 891 L 586 906 L 585 907 L 585 916 L 584 917 L 584 923 L 583 924 L 583 929 L 582 930 L 582 935 L 581 936 L 580 945 L 579 946 L 578 953 L 577 954 L 574 965 L 572 968 L 572 970 L 570 971 L 570 975 L 567 981 L 565 982 L 564 986 L 562 988 L 559 994 L 556 996 L 556 998 L 554 999 L 554 1001 L 552 1004 L 552 1024 L 556 1030 L 556 1032 L 558 1034 L 560 1034 L 561 1036 L 563 1036 L 570 1040 L 580 1042 L 582 1044 L 586 1044 L 587 1045 L 598 1045 L 599 1046 L 608 1046 L 613 1048 L 618 1048 L 619 1047 L 633 1047 L 634 1048 L 641 1048 L 644 1046 L 666 1045 L 667 1043 L 672 1043 L 673 1042 L 680 1041 L 686 1038 L 688 1038 L 692 1035 L 694 1035 L 695 1033 L 699 1030 L 699 1028 L 701 1025 L 701 1021 L 703 1019 L 703 1011 L 702 1010 L 702 1006 L 701 1005 L 700 1000 L 698 999 L 698 997 L 695 995 L 695 993 L 694 993 L 691 989 L 686 980 L 686 977 L 684 976 L 682 972 L 682 970 L 680 967 L 680 965 L 675 952 L 674 945 L 673 944 L 673 939 L 672 938 L 672 934 L 671 933 L 671 922 L 669 921 L 670 916 L 668 912 L 667 888 L 666 887 L 666 873 L 671 867 L 671 864 L 673 862 L 673 856 L 672 855 L 672 847 L 671 846 L 671 844 L 667 837 L 665 835 L 663 835 L 662 834 L 662 813 L 663 812 L 662 803 L 664 802 L 669 792 L 670 785 L 669 784 L 669 780 L 668 779 L 667 774 L 662 768 L 662 766 L 661 765 L 661 721 L 662 720 L 670 720 L 674 718 L 677 715 L 678 710 L 677 709 L 677 706 L 674 703 L 662 703 L 661 702 L 661 698 L 660 697 L 660 688 L 664 685 L 664 683 L 666 681 L 667 677 L 669 676 L 669 674 L 668 673 L 669 667 L 668 666 L 668 662 L 666 659 L 666 657 L 660 650 L 661 640 L 660 639 L 660 624 L 659 623 L 659 593 L 663 589 L 664 589 L 669 581 L 674 581 L 675 580 L 681 581 L 682 580 L 684 580 L 688 575 L 688 570 L 684 564 L 671 564 L 668 562 L 665 555 L 657 549 L 657 538 L 658 537 L 660 537 L 664 533 L 664 531 L 667 526 L 669 525 L 680 525 L 681 524 L 683 524 L 685 520 L 685 514 L 681 510 L 680 510 L 679 508 L 667 508 L 664 504 L 664 502 L 656 496 L 657 478 L 656 477 L 656 461 L 655 460 L 655 438 L 657 437 L 665 428 L 667 423 L 667 420 L 668 419 L 668 414 L 667 413 L 666 407 L 662 400 L 659 398 L 657 395 L 655 395 L 654 394 L 653 343 L 656 341 L 659 336 L 659 333 L 661 331 L 660 315 L 657 309 L 657 307 L 654 304 L 652 304 L 650 302 L 648 302 L 642 299 L 642 285 L 643 284 L 645 284 L 651 272 L 651 264 L 650 263 L 650 249 L 651 248 L 651 246 L 650 245 L 651 208 L 648 200 L 643 195 L 643 194 L 634 190 Z M 569 1018 L 570 1017 L 586 1017 L 587 1016 L 599 1016 L 600 1017 L 622 1017 L 623 1016 L 631 1016 L 632 1017 L 654 1017 L 655 1016 L 667 1016 L 668 1017 L 684 1017 L 685 1018 L 685 1020 L 684 1022 L 681 1024 L 679 1024 L 675 1026 L 672 1026 L 671 1027 L 668 1027 L 667 1028 L 662 1028 L 661 1029 L 657 1029 L 656 1030 L 650 1029 L 647 1031 L 630 1031 L 629 1032 L 626 1032 L 625 1031 L 606 1031 L 605 1029 L 600 1029 L 599 1030 L 597 1030 L 596 1029 L 586 1028 L 585 1027 L 582 1027 L 581 1026 L 578 1026 L 577 1025 L 572 1024 L 569 1020 Z M 604 877 L 630 877 L 631 878 L 634 878 L 635 877 L 649 877 L 650 878 L 650 880 L 651 881 L 650 893 L 651 894 L 651 898 L 652 899 L 652 903 L 651 904 L 651 906 L 652 907 L 652 919 L 653 920 L 653 924 L 655 928 L 655 938 L 657 940 L 657 944 L 659 949 L 659 956 L 661 957 L 661 963 L 664 967 L 664 971 L 666 972 L 667 977 L 674 990 L 674 992 L 678 997 L 678 999 L 677 1000 L 668 1000 L 667 999 L 658 999 L 657 1000 L 597 1000 L 596 999 L 577 1000 L 576 999 L 577 994 L 579 993 L 582 988 L 582 985 L 584 984 L 585 978 L 587 975 L 587 973 L 590 969 L 590 965 L 592 963 L 592 958 L 594 957 L 594 954 L 595 953 L 595 946 L 596 945 L 597 936 L 599 934 L 600 920 L 601 919 L 601 911 L 602 910 L 601 903 L 603 901 L 603 890 L 602 889 L 602 885 L 603 884 L 603 878 Z M 597 852 L 599 848 L 654 848 L 656 850 L 656 859 L 654 862 L 599 862 L 597 858 Z M 641 777 L 651 778 L 654 782 L 653 789 L 649 794 L 642 794 L 637 790 L 636 784 L 637 783 L 637 781 L 639 780 Z M 600 733 L 605 734 L 606 736 L 609 738 L 609 740 L 610 741 L 610 744 L 603 751 L 598 751 L 596 750 L 593 745 L 593 737 L 595 735 Z M 640 661 L 646 660 L 647 661 L 649 661 L 652 664 L 653 666 L 653 673 L 648 677 L 641 677 L 636 673 L 635 668 L 636 667 L 636 665 L 638 664 Z M 600 606 L 606 607 L 609 611 L 610 619 L 605 624 L 598 624 L 597 622 L 593 619 L 593 612 L 594 610 Z M 643 564 L 649 564 L 650 565 L 652 565 L 653 566 L 653 568 L 655 570 L 655 574 L 653 576 L 653 578 L 648 581 L 642 580 L 638 574 L 638 567 L 639 566 L 641 566 Z M 640 510 L 647 509 L 652 513 L 652 522 L 649 525 L 639 525 L 636 522 L 635 520 L 635 515 L 637 514 Z M 639 408 L 645 407 L 651 411 L 651 420 L 647 425 L 640 425 L 636 422 L 636 419 L 634 418 L 635 412 L 637 411 Z M 618 347 L 636 347 L 637 348 L 637 358 L 638 359 L 638 362 L 637 363 L 637 372 L 638 373 L 638 377 L 637 378 L 637 380 L 638 381 L 638 391 L 635 394 L 633 394 L 628 397 L 625 401 L 623 402 L 623 404 L 621 405 L 621 409 L 620 410 L 619 418 L 620 419 L 621 428 L 624 430 L 624 432 L 625 432 L 630 437 L 635 439 L 636 441 L 638 441 L 639 442 L 639 451 L 640 452 L 640 460 L 639 461 L 639 470 L 640 471 L 640 490 L 638 493 L 630 497 L 625 502 L 622 507 L 619 520 L 620 521 L 620 525 L 622 526 L 622 529 L 625 533 L 630 537 L 630 538 L 632 538 L 637 541 L 641 541 L 642 542 L 642 546 L 640 548 L 633 551 L 627 557 L 627 558 L 625 559 L 625 561 L 623 564 L 623 567 L 622 568 L 622 576 L 623 577 L 623 582 L 625 583 L 625 586 L 631 592 L 633 592 L 636 595 L 640 595 L 641 597 L 643 598 L 643 603 L 644 604 L 644 618 L 643 619 L 643 626 L 644 627 L 644 643 L 642 645 L 636 646 L 626 652 L 626 654 L 624 655 L 624 657 L 621 662 L 621 676 L 624 681 L 624 683 L 626 684 L 626 686 L 629 689 L 631 689 L 633 691 L 638 693 L 644 693 L 645 694 L 645 701 L 643 703 L 634 702 L 632 704 L 629 705 L 627 708 L 627 714 L 629 717 L 632 718 L 633 720 L 643 720 L 644 721 L 644 730 L 645 731 L 645 737 L 644 738 L 645 756 L 644 757 L 644 760 L 643 761 L 637 761 L 635 762 L 634 764 L 631 765 L 626 770 L 622 778 L 621 788 L 622 789 L 622 793 L 625 798 L 625 800 L 627 801 L 627 803 L 629 803 L 632 807 L 634 807 L 638 809 L 641 809 L 645 812 L 645 814 L 646 815 L 646 823 L 647 824 L 647 832 L 646 833 L 616 833 L 615 832 L 609 832 L 608 831 L 608 827 L 607 826 L 607 798 L 608 797 L 607 783 L 608 782 L 608 767 L 610 766 L 611 764 L 615 763 L 615 762 L 617 761 L 621 756 L 622 756 L 623 751 L 625 747 L 624 732 L 623 730 L 621 729 L 614 721 L 612 721 L 609 719 L 609 713 L 608 712 L 609 676 L 610 675 L 610 659 L 609 658 L 610 638 L 611 637 L 614 637 L 615 635 L 622 630 L 625 625 L 625 619 L 626 618 L 626 612 L 625 611 L 625 608 L 623 603 L 620 600 L 620 598 L 618 596 L 616 596 L 615 594 L 613 594 L 611 592 L 611 574 L 612 573 L 611 556 L 612 555 L 612 532 L 613 531 L 612 515 L 613 514 L 613 507 L 614 506 L 614 499 L 613 498 L 613 492 L 614 491 L 613 471 L 614 470 L 627 470 L 632 464 L 632 461 L 628 455 L 615 455 L 614 454 L 614 452 L 615 451 L 615 445 L 614 444 L 614 405 L 616 404 L 616 396 L 615 395 L 615 385 L 616 384 L 615 362 L 616 361 L 616 352 Z M 610 318 L 611 317 L 616 317 L 617 318 L 623 318 L 624 317 L 642 317 L 644 319 L 644 328 L 643 329 L 610 329 L 609 328 Z M 621 206 L 630 206 L 632 207 L 635 211 L 635 213 L 634 214 L 634 227 L 635 228 L 635 263 L 634 264 L 634 270 L 632 273 L 629 273 L 628 272 L 621 272 L 619 267 L 619 249 L 620 248 L 620 242 L 619 241 L 619 224 L 620 223 L 620 219 L 619 218 L 619 209 Z" fill="rgb(46,32,68)" fill-rule="evenodd"/>
  </g>
</svg>
