<?xml version="1.0" encoding="UTF-8"?>
<svg xmlns="http://www.w3.org/2000/svg" width="1254" height="1254" viewBox="0 0 1254 1254" fill="none">
  <path d="M 1018 458 L 1016 457 L 1016 454 L 1014 453 L 1013 449 L 1011 448 L 1007 443 L 1005 443 L 1003 440 L 993 438 L 992 437 L 988 437 L 987 436 L 985 436 L 984 437 L 979 437 L 978 439 L 975 439 L 971 441 L 970 443 L 968 443 L 964 447 L 964 449 L 962 450 L 962 452 L 960 456 L 958 457 L 958 459 L 957 460 L 957 465 L 956 467 L 954 468 L 954 471 L 949 478 L 949 481 L 946 483 L 945 486 L 943 488 L 943 490 L 941 491 L 936 497 L 936 499 L 932 502 L 923 511 L 922 513 L 920 513 L 916 518 L 914 518 L 910 521 L 908 524 L 906 524 L 905 526 L 903 526 L 902 528 L 900 528 L 900 529 L 899 530 L 897 530 L 896 532 L 890 534 L 890 535 L 887 537 L 885 537 L 878 541 L 876 541 L 872 543 L 872 544 L 869 546 L 866 546 L 864 548 L 859 550 L 855 550 L 854 552 L 852 552 L 851 553 L 847 553 L 846 555 L 844 555 L 843 556 L 840 556 L 829 560 L 823 560 L 822 561 L 820 561 L 818 563 L 815 563 L 810 565 L 802 565 L 800 567 L 796 567 L 795 568 L 786 568 L 783 570 L 777 570 L 776 571 L 770 570 L 769 572 L 754 573 L 753 574 L 747 574 L 746 575 L 740 575 L 739 576 L 732 576 L 731 577 L 724 577 L 723 578 L 716 578 L 715 579 L 702 579 L 701 580 L 699 580 L 687 570 L 685 570 L 681 568 L 678 568 L 677 567 L 666 567 L 664 564 L 664 558 L 662 555 L 662 542 L 664 540 L 668 540 L 670 538 L 674 537 L 677 534 L 677 532 L 679 529 L 679 522 L 678 521 L 678 518 L 677 518 L 672 512 L 662 512 L 661 511 L 657 511 L 656 512 L 647 512 L 646 513 L 630 514 L 628 516 L 624 518 L 622 518 L 622 520 L 620 521 L 620 523 L 618 527 L 618 532 L 619 533 L 620 538 L 626 543 L 632 543 L 633 545 L 639 545 L 640 546 L 640 556 L 641 557 L 641 566 L 642 567 L 642 569 L 636 572 L 627 573 L 625 574 L 623 577 L 621 577 L 618 581 L 616 581 L 614 579 L 611 579 L 608 577 L 605 577 L 604 576 L 597 576 L 596 577 L 594 577 L 591 575 L 591 573 L 590 572 L 590 565 L 589 564 L 588 551 L 590 549 L 593 549 L 595 547 L 598 547 L 599 545 L 601 545 L 603 543 L 604 538 L 605 537 L 604 527 L 602 526 L 602 524 L 600 522 L 595 521 L 594 519 L 586 519 L 585 520 L 578 520 L 577 521 L 559 522 L 558 523 L 554 523 L 553 525 L 550 525 L 550 526 L 544 531 L 544 542 L 545 543 L 545 546 L 550 551 L 555 553 L 559 553 L 563 551 L 565 551 L 566 552 L 566 561 L 567 562 L 566 568 L 568 570 L 568 572 L 567 573 L 568 579 L 567 580 L 556 582 L 551 585 L 549 585 L 549 586 L 548 587 L 546 587 L 544 590 L 542 590 L 538 587 L 536 587 L 535 586 L 531 586 L 530 585 L 518 585 L 516 583 L 515 570 L 514 569 L 514 559 L 517 557 L 521 557 L 523 556 L 524 554 L 530 549 L 530 547 L 531 546 L 531 540 L 524 530 L 518 529 L 517 528 L 506 528 L 505 530 L 499 529 L 495 531 L 493 531 L 492 530 L 480 531 L 479 533 L 476 533 L 475 535 L 473 535 L 472 536 L 472 538 L 470 539 L 470 542 L 468 543 L 468 550 L 472 557 L 474 557 L 476 560 L 484 560 L 490 563 L 490 565 L 491 566 L 491 574 L 492 575 L 492 580 L 493 581 L 493 588 L 492 589 L 482 591 L 470 598 L 470 600 L 468 601 L 466 604 L 465 610 L 462 613 L 449 614 L 448 615 L 427 616 L 424 618 L 417 618 L 416 619 L 409 619 L 408 620 L 396 620 L 392 622 L 385 622 L 384 623 L 377 623 L 376 624 L 369 624 L 368 625 L 363 624 L 359 626 L 352 626 L 351 627 L 344 627 L 343 628 L 336 628 L 335 629 L 328 629 L 327 630 L 320 630 L 319 631 L 312 631 L 311 632 L 304 632 L 303 633 L 295 633 L 294 634 L 287 634 L 286 635 L 278 635 L 274 632 L 274 630 L 268 623 L 266 623 L 265 621 L 263 621 L 258 618 L 256 618 L 255 617 L 250 617 L 249 615 L 247 615 L 243 617 L 236 617 L 235 618 L 233 618 L 230 620 L 228 620 L 218 628 L 218 630 L 216 631 L 215 633 L 215 635 L 213 639 L 213 642 L 211 643 L 211 656 L 212 657 L 213 671 L 214 672 L 214 677 L 215 678 L 215 689 L 216 690 L 216 696 L 218 698 L 219 705 L 222 711 L 229 718 L 231 718 L 232 720 L 235 720 L 236 722 L 241 723 L 242 724 L 245 724 L 246 723 L 256 724 L 257 723 L 261 723 L 262 721 L 266 721 L 267 719 L 269 719 L 271 718 L 273 715 L 275 715 L 276 714 L 276 712 L 277 711 L 279 711 L 280 706 L 283 701 L 283 698 L 284 697 L 290 697 L 291 696 L 297 696 L 298 695 L 304 695 L 305 694 L 321 693 L 323 691 L 331 691 L 332 690 L 338 691 L 339 690 L 346 690 L 347 688 L 349 688 L 350 689 L 350 692 L 348 693 L 348 695 L 346 696 L 346 698 L 344 699 L 344 701 L 341 706 L 341 708 L 339 709 L 338 711 L 338 716 L 336 717 L 335 724 L 334 725 L 334 729 L 333 730 L 333 733 L 334 734 L 334 737 L 333 738 L 333 744 L 334 745 L 333 754 L 334 755 L 334 759 L 336 761 L 337 770 L 344 784 L 346 785 L 346 787 L 347 787 L 348 788 L 348 790 L 350 791 L 350 793 L 354 796 L 355 799 L 361 805 L 363 805 L 366 809 L 368 809 L 369 811 L 371 811 L 372 813 L 374 813 L 375 815 L 378 817 L 385 820 L 391 821 L 392 823 L 397 823 L 399 825 L 402 825 L 403 826 L 411 826 L 412 827 L 427 827 L 428 826 L 443 826 L 444 825 L 458 825 L 459 824 L 473 824 L 474 823 L 490 823 L 493 821 L 495 821 L 496 822 L 502 822 L 503 821 L 521 821 L 522 819 L 525 819 L 526 820 L 533 820 L 534 819 L 552 819 L 553 818 L 564 818 L 565 817 L 581 817 L 584 815 L 586 815 L 587 816 L 595 816 L 596 815 L 627 814 L 628 813 L 639 813 L 640 812 L 655 812 L 656 811 L 671 811 L 672 810 L 685 810 L 686 809 L 702 809 L 703 808 L 715 808 L 716 807 L 746 806 L 747 805 L 758 805 L 763 803 L 765 803 L 766 804 L 793 803 L 794 802 L 798 802 L 799 801 L 804 801 L 805 800 L 812 799 L 815 797 L 819 796 L 823 793 L 828 792 L 828 791 L 831 789 L 834 789 L 836 786 L 838 786 L 839 784 L 841 784 L 844 782 L 849 776 L 851 776 L 854 773 L 856 769 L 861 765 L 861 763 L 864 760 L 867 754 L 870 752 L 870 749 L 874 742 L 874 740 L 875 738 L 877 737 L 877 732 L 878 731 L 878 728 L 880 723 L 880 716 L 882 715 L 882 705 L 881 704 L 882 695 L 880 694 L 881 688 L 879 686 L 878 679 L 876 675 L 876 667 L 875 667 L 873 664 L 871 663 L 870 660 L 867 656 L 867 654 L 868 653 L 877 653 L 880 655 L 884 655 L 885 656 L 893 656 L 894 657 L 901 658 L 908 661 L 911 661 L 912 662 L 917 663 L 920 665 L 922 665 L 923 667 L 927 667 L 939 673 L 947 679 L 950 679 L 951 681 L 953 681 L 956 683 L 958 686 L 960 686 L 964 691 L 966 691 L 968 694 L 977 702 L 977 704 L 979 707 L 984 711 L 985 715 L 987 716 L 988 721 L 996 729 L 998 729 L 1000 732 L 1004 732 L 1005 734 L 1007 734 L 1008 735 L 1013 735 L 1014 734 L 1021 735 L 1022 734 L 1024 734 L 1030 731 L 1031 729 L 1033 729 L 1033 728 L 1039 723 L 1039 721 L 1042 719 L 1045 711 L 1045 707 L 1046 706 L 1046 698 L 1044 696 L 1044 694 L 1045 693 L 1045 689 L 1044 688 L 1044 678 L 1043 677 L 1043 670 L 1042 669 L 1042 662 L 1041 661 L 1041 653 L 1039 649 L 1040 644 L 1038 641 L 1039 634 L 1038 633 L 1038 626 L 1037 625 L 1037 617 L 1036 616 L 1036 609 L 1035 608 L 1034 593 L 1033 592 L 1033 586 L 1031 583 L 1032 576 L 1031 575 L 1030 561 L 1029 560 L 1029 552 L 1028 551 L 1027 535 L 1026 534 L 1026 527 L 1025 526 L 1025 516 L 1024 515 L 1024 507 L 1023 506 L 1023 498 L 1022 497 L 1022 488 L 1021 487 L 1021 478 L 1020 477 L 1020 467 L 1018 464 Z M 796 726 L 796 730 L 795 731 L 794 736 L 788 741 L 772 742 L 771 743 L 751 745 L 750 746 L 745 746 L 744 747 L 737 747 L 736 748 L 731 748 L 730 749 L 722 749 L 721 750 L 716 750 L 715 751 L 709 751 L 708 752 L 702 752 L 701 753 L 695 753 L 694 754 L 687 754 L 686 755 L 682 755 L 679 757 L 668 757 L 667 758 L 661 758 L 660 759 L 654 759 L 653 760 L 647 760 L 646 761 L 640 761 L 639 762 L 619 764 L 618 765 L 613 765 L 612 766 L 606 766 L 604 768 L 579 770 L 578 771 L 573 771 L 570 773 L 564 773 L 563 774 L 551 775 L 550 776 L 533 777 L 532 778 L 527 778 L 526 779 L 520 779 L 518 781 L 512 781 L 511 782 L 500 782 L 498 784 L 486 785 L 485 786 L 479 786 L 478 787 L 473 787 L 472 788 L 467 788 L 466 789 L 455 789 L 454 791 L 450 791 L 443 788 L 439 782 L 439 779 L 437 778 L 437 774 L 438 773 L 439 768 L 448 762 L 451 762 L 452 761 L 459 761 L 460 760 L 465 760 L 466 759 L 472 759 L 473 758 L 479 758 L 480 757 L 486 757 L 487 756 L 499 755 L 500 754 L 506 754 L 507 753 L 513 753 L 514 752 L 526 751 L 527 750 L 533 750 L 534 749 L 539 749 L 540 748 L 547 748 L 548 747 L 554 747 L 555 746 L 567 745 L 568 744 L 583 743 L 584 742 L 590 742 L 591 741 L 596 741 L 597 740 L 603 740 L 604 739 L 610 739 L 611 738 L 617 738 L 618 737 L 625 737 L 626 736 L 639 735 L 640 734 L 645 734 L 646 733 L 654 733 L 655 732 L 668 731 L 669 730 L 675 730 L 676 729 L 691 728 L 692 727 L 696 727 L 697 726 L 704 726 L 705 725 L 720 724 L 721 723 L 733 722 L 734 721 L 740 721 L 741 720 L 759 719 L 760 718 L 770 717 L 771 716 L 789 716 L 793 721 L 794 725 Z M 472 672 L 474 675 L 474 681 L 475 682 L 475 686 L 476 687 L 476 692 L 477 693 L 477 698 L 478 699 L 478 704 L 479 705 L 479 710 L 480 711 L 480 716 L 481 717 L 481 721 L 482 722 L 483 732 L 482 733 L 478 733 L 477 734 L 471 734 L 470 735 L 464 735 L 463 736 L 458 736 L 457 737 L 452 737 L 451 738 L 445 738 L 443 740 L 436 741 L 434 743 L 431 744 L 424 751 L 424 753 L 422 754 L 422 756 L 419 759 L 418 765 L 416 766 L 416 786 L 418 788 L 418 791 L 420 796 L 423 798 L 425 801 L 425 803 L 424 804 L 420 804 L 419 803 L 414 803 L 413 804 L 411 804 L 410 803 L 401 802 L 387 796 L 385 794 L 382 793 L 380 790 L 378 790 L 370 782 L 369 779 L 366 777 L 366 775 L 364 774 L 363 769 L 361 765 L 359 764 L 359 762 L 357 758 L 357 748 L 356 747 L 356 735 L 357 734 L 358 726 L 361 719 L 361 715 L 362 713 L 364 712 L 371 701 L 377 695 L 383 691 L 384 689 L 386 689 L 387 687 L 390 687 L 394 685 L 395 683 L 397 683 L 398 682 L 408 681 L 409 680 L 417 680 L 418 679 L 426 679 L 427 678 L 432 678 L 437 676 L 451 676 L 453 674 L 468 674 L 470 672 Z M 541 658 L 542 659 L 542 667 L 543 668 L 544 679 L 545 680 L 545 686 L 546 687 L 546 695 L 547 696 L 547 702 L 548 703 L 548 710 L 550 711 L 550 718 L 551 719 L 551 722 L 549 724 L 541 724 L 540 725 L 533 725 L 532 726 L 526 726 L 525 727 L 520 727 L 519 728 L 511 728 L 510 729 L 507 729 L 506 728 L 506 722 L 505 721 L 505 717 L 504 716 L 504 711 L 503 710 L 502 700 L 500 699 L 500 690 L 499 689 L 499 683 L 498 682 L 497 673 L 495 671 L 495 664 L 496 663 L 500 663 L 501 662 L 508 663 L 509 662 L 516 662 L 517 660 L 525 660 L 526 659 Z M 611 650 L 612 651 L 612 655 L 613 656 L 614 673 L 616 677 L 616 686 L 617 687 L 616 696 L 617 697 L 618 713 L 616 715 L 603 715 L 602 716 L 597 716 L 596 717 L 589 717 L 588 718 L 582 718 L 581 719 L 574 719 L 573 718 L 572 703 L 571 702 L 571 697 L 570 696 L 570 688 L 569 687 L 569 680 L 568 679 L 568 673 L 567 672 L 567 667 L 566 666 L 566 659 L 565 658 L 565 656 L 567 654 L 573 654 L 574 653 L 580 654 L 581 652 L 587 653 L 590 651 Z M 681 642 L 682 643 L 682 651 L 684 656 L 684 660 L 683 661 L 683 672 L 684 673 L 684 693 L 685 694 L 686 703 L 680 706 L 668 706 L 667 707 L 661 707 L 660 708 L 654 708 L 653 709 L 645 709 L 644 710 L 642 710 L 641 709 L 640 695 L 639 694 L 639 690 L 638 689 L 638 680 L 637 679 L 637 677 L 638 676 L 638 670 L 637 669 L 637 663 L 635 658 L 635 656 L 636 655 L 636 648 L 638 646 L 643 646 L 647 644 L 662 644 L 663 642 L 672 642 L 673 641 Z M 239 639 L 252 639 L 253 641 L 256 643 L 256 651 L 257 652 L 257 659 L 258 660 L 258 667 L 259 668 L 258 674 L 260 675 L 260 684 L 261 685 L 261 690 L 262 691 L 262 695 L 260 696 L 257 700 L 243 700 L 238 690 L 238 683 L 237 682 L 238 675 L 237 674 L 237 669 L 235 665 L 235 659 L 234 658 L 235 651 L 233 650 L 233 647 L 234 646 L 234 644 L 236 643 Z M 468 639 L 468 650 L 467 651 L 456 651 L 455 652 L 438 653 L 437 654 L 424 655 L 420 657 L 409 657 L 408 658 L 394 659 L 393 660 L 386 660 L 385 661 L 378 661 L 377 662 L 371 662 L 370 663 L 363 663 L 362 664 L 354 664 L 353 665 L 347 665 L 346 666 L 330 667 L 329 668 L 316 669 L 313 671 L 306 671 L 305 672 L 290 672 L 289 673 L 283 673 L 282 672 L 282 665 L 281 664 L 281 658 L 282 657 L 287 657 L 288 656 L 303 656 L 304 655 L 309 655 L 312 653 L 320 653 L 321 652 L 327 652 L 328 651 L 335 652 L 336 650 L 339 650 L 340 651 L 342 651 L 343 650 L 352 650 L 353 648 L 360 648 L 361 647 L 368 647 L 369 646 L 374 647 L 377 645 L 382 646 L 385 644 L 392 644 L 393 643 L 400 643 L 401 642 L 416 642 L 417 640 L 433 639 L 434 638 L 447 638 L 448 637 L 455 637 L 456 636 L 462 636 L 463 635 L 465 635 Z M 850 669 L 852 673 L 852 676 L 853 678 L 855 679 L 855 684 L 858 692 L 858 700 L 859 701 L 859 704 L 858 705 L 858 718 L 857 719 L 857 725 L 855 727 L 855 731 L 853 733 L 853 736 L 851 740 L 849 741 L 848 745 L 845 747 L 845 749 L 837 758 L 834 759 L 829 765 L 823 768 L 821 770 L 814 772 L 813 774 L 809 774 L 808 776 L 805 776 L 801 778 L 789 778 L 788 780 L 764 780 L 763 781 L 758 781 L 757 782 L 750 782 L 749 781 L 746 781 L 742 783 L 735 782 L 734 783 L 728 783 L 727 784 L 714 784 L 713 785 L 701 784 L 700 786 L 690 785 L 689 786 L 685 786 L 684 787 L 655 788 L 654 789 L 639 789 L 638 788 L 638 786 L 639 785 L 645 785 L 646 784 L 652 784 L 653 783 L 659 783 L 660 782 L 666 782 L 667 781 L 673 781 L 674 780 L 680 780 L 681 779 L 687 779 L 688 778 L 694 778 L 695 777 L 702 777 L 703 776 L 723 774 L 724 773 L 729 773 L 730 772 L 736 772 L 737 771 L 751 770 L 752 769 L 758 769 L 759 768 L 765 768 L 766 767 L 772 767 L 773 766 L 779 766 L 780 765 L 792 764 L 793 762 L 797 762 L 798 760 L 802 759 L 803 757 L 805 757 L 809 753 L 809 751 L 811 750 L 811 748 L 813 747 L 815 744 L 815 742 L 816 741 L 816 736 L 818 733 L 818 724 L 815 717 L 815 713 L 812 708 L 809 706 L 809 704 L 805 699 L 803 699 L 800 696 L 796 694 L 787 693 L 784 691 L 782 691 L 781 692 L 772 692 L 771 693 L 764 693 L 763 694 L 750 695 L 749 696 L 741 696 L 740 697 L 728 698 L 727 699 L 710 700 L 708 695 L 708 686 L 707 685 L 707 681 L 706 680 L 706 676 L 707 675 L 707 664 L 705 663 L 705 660 L 706 659 L 706 646 L 705 645 L 705 642 L 706 641 L 713 641 L 714 640 L 721 640 L 722 639 L 728 640 L 730 638 L 744 638 L 746 636 L 751 637 L 752 636 L 761 636 L 762 635 L 768 635 L 769 634 L 788 633 L 789 632 L 791 632 L 794 634 L 806 635 L 807 636 L 812 637 L 814 639 L 817 639 L 819 640 L 820 642 L 823 642 L 824 644 L 826 644 L 827 646 L 829 646 L 833 650 L 834 650 L 837 654 L 843 659 L 843 661 L 845 664 L 848 666 L 848 668 Z M 534 609 L 535 615 L 537 617 L 537 619 L 536 620 L 537 630 L 539 631 L 539 634 L 537 636 L 525 636 L 524 637 L 518 637 L 515 639 L 507 639 L 506 640 L 491 640 L 490 639 L 489 632 L 487 631 L 487 627 L 486 626 L 486 622 L 485 621 L 485 614 L 487 613 L 488 611 L 508 610 L 509 609 L 513 609 L 517 607 L 531 607 Z M 609 604 L 609 606 L 608 607 L 609 614 L 610 615 L 610 617 L 609 618 L 609 623 L 610 624 L 610 626 L 609 627 L 607 627 L 606 628 L 600 628 L 599 629 L 585 629 L 584 630 L 579 630 L 574 632 L 563 632 L 562 631 L 561 623 L 560 622 L 560 613 L 559 612 L 559 606 L 562 602 L 573 602 L 574 601 L 580 601 L 581 600 L 591 600 L 592 599 L 603 598 L 607 601 L 607 603 Z M 680 592 L 680 609 L 681 610 L 681 618 L 680 619 L 678 619 L 677 618 L 674 618 L 672 620 L 665 619 L 664 620 L 658 620 L 655 622 L 647 622 L 646 623 L 639 623 L 638 624 L 636 624 L 633 622 L 633 618 L 631 615 L 631 612 L 632 611 L 632 602 L 630 601 L 630 599 L 632 598 L 635 594 L 639 594 L 640 593 L 648 593 L 649 592 L 657 592 L 658 591 L 663 591 L 664 590 L 673 590 L 674 589 L 676 589 Z M 1023 706 L 1022 708 L 1018 711 L 1012 711 L 1010 710 L 1006 704 L 1004 703 L 1004 701 L 1002 700 L 1002 698 L 998 692 L 993 688 L 992 684 L 990 683 L 983 676 L 983 675 L 981 675 L 978 673 L 975 669 L 973 669 L 971 666 L 968 664 L 966 664 L 965 662 L 963 662 L 962 660 L 960 660 L 959 658 L 955 657 L 954 655 L 948 652 L 946 652 L 940 648 L 937 648 L 936 646 L 934 645 L 930 645 L 929 643 L 925 643 L 924 642 L 922 642 L 915 639 L 912 639 L 908 637 L 905 637 L 900 635 L 896 635 L 895 633 L 891 633 L 890 632 L 880 632 L 879 631 L 873 631 L 869 629 L 864 630 L 860 628 L 858 628 L 857 629 L 840 628 L 838 625 L 834 623 L 832 623 L 826 619 L 819 617 L 818 615 L 813 615 L 809 613 L 801 612 L 800 611 L 773 611 L 772 612 L 764 612 L 763 613 L 756 613 L 755 614 L 747 614 L 746 615 L 740 615 L 739 616 L 725 616 L 723 618 L 705 619 L 704 618 L 704 612 L 703 611 L 702 604 L 703 603 L 708 603 L 709 602 L 717 602 L 718 601 L 724 601 L 725 600 L 731 600 L 732 599 L 738 599 L 739 598 L 755 597 L 756 596 L 761 596 L 765 594 L 777 594 L 778 593 L 792 592 L 793 591 L 798 591 L 799 590 L 803 590 L 808 588 L 812 588 L 814 586 L 821 586 L 822 585 L 833 583 L 834 581 L 840 581 L 841 579 L 843 579 L 844 578 L 850 578 L 851 577 L 856 576 L 859 574 L 861 574 L 862 572 L 866 572 L 872 569 L 874 569 L 876 568 L 877 566 L 881 566 L 887 563 L 888 561 L 891 561 L 899 557 L 901 554 L 906 553 L 912 549 L 914 546 L 916 546 L 917 544 L 921 543 L 924 539 L 926 539 L 928 536 L 930 536 L 934 531 L 936 531 L 943 524 L 943 523 L 955 512 L 958 508 L 958 506 L 961 504 L 961 502 L 963 501 L 963 499 L 965 498 L 965 496 L 968 494 L 969 491 L 971 489 L 973 485 L 973 483 L 975 480 L 975 477 L 977 476 L 977 472 L 979 471 L 979 466 L 981 465 L 982 462 L 984 461 L 985 459 L 990 459 L 996 464 L 996 466 L 997 467 L 997 475 L 998 476 L 997 484 L 998 485 L 998 490 L 999 491 L 999 504 L 1001 505 L 1001 508 L 1000 509 L 1000 512 L 1001 513 L 1001 523 L 1003 524 L 1003 526 L 1002 527 L 1002 532 L 1003 533 L 1003 539 L 1005 542 L 1004 548 L 1005 549 L 1006 566 L 1008 569 L 1009 584 L 1010 585 L 1010 591 L 1011 592 L 1011 600 L 1012 601 L 1013 617 L 1014 618 L 1014 625 L 1015 626 L 1015 640 L 1017 642 L 1017 644 L 1016 645 L 1016 648 L 1017 649 L 1017 658 L 1018 659 L 1018 666 L 1020 668 L 1019 674 L 1020 675 L 1020 681 L 1022 686 L 1021 694 L 1022 695 Z" fill="rgb(43,29,68)" fill-rule="evenodd"/>
</svg>
