<?xml version="1.0" encoding="UTF-8"?>
<svg xmlns="http://www.w3.org/2000/svg" width="1254" height="1254" viewBox="0 0 1254 1254" fill="none">
  <path d="M 1021 452 L 1019 451 L 1019 449 L 1017 448 L 1017 446 L 1012 441 L 1009 440 L 1005 436 L 1001 434 L 998 434 L 997 432 L 991 432 L 988 430 L 986 430 L 985 431 L 978 431 L 977 430 L 974 430 L 970 432 L 967 432 L 966 433 L 961 434 L 954 438 L 952 438 L 951 440 L 949 440 L 948 442 L 944 443 L 943 445 L 941 445 L 940 447 L 938 447 L 932 452 L 930 452 L 929 454 L 927 454 L 923 457 L 920 458 L 918 461 L 916 461 L 915 463 L 911 464 L 910 466 L 907 468 L 905 468 L 905 469 L 904 470 L 902 470 L 901 472 L 897 473 L 896 475 L 894 475 L 894 476 L 893 477 L 891 477 L 890 479 L 886 480 L 880 484 L 879 486 L 877 486 L 876 488 L 872 489 L 871 491 L 869 491 L 868 493 L 866 493 L 866 494 L 865 495 L 863 495 L 862 497 L 858 498 L 857 500 L 855 500 L 854 502 L 852 502 L 851 504 L 849 504 L 849 505 L 848 506 L 846 506 L 845 508 L 841 509 L 840 511 L 838 511 L 837 513 L 835 513 L 834 515 L 832 515 L 832 516 L 831 517 L 829 517 L 828 519 L 824 520 L 823 522 L 821 522 L 820 524 L 818 524 L 817 526 L 815 526 L 815 527 L 814 528 L 812 528 L 811 530 L 807 531 L 806 533 L 804 533 L 803 535 L 801 535 L 801 536 L 800 537 L 798 537 L 797 539 L 795 539 L 788 543 L 786 546 L 780 550 L 778 550 L 777 552 L 774 552 L 771 554 L 769 557 L 757 565 L 755 565 L 754 567 L 752 567 L 751 569 L 748 570 L 740 576 L 736 577 L 734 580 L 732 580 L 731 582 L 722 588 L 720 588 L 719 590 L 717 590 L 716 592 L 714 592 L 713 594 L 698 604 L 696 604 L 695 606 L 693 606 L 692 608 L 690 608 L 689 610 L 680 616 L 677 617 L 674 620 L 664 625 L 662 628 L 659 629 L 645 639 L 642 640 L 641 642 L 639 642 L 633 647 L 631 647 L 630 649 L 627 651 L 625 651 L 625 652 L 624 653 L 622 653 L 621 655 L 617 656 L 615 659 L 613 659 L 612 661 L 604 665 L 603 667 L 601 667 L 600 669 L 598 669 L 597 671 L 595 671 L 594 673 L 592 673 L 592 674 L 591 675 L 589 675 L 588 677 L 586 677 L 584 679 L 581 680 L 578 683 L 572 686 L 570 689 L 567 689 L 563 692 L 562 694 L 560 694 L 559 696 L 557 696 L 556 698 L 554 698 L 553 700 L 551 700 L 550 702 L 548 702 L 547 704 L 545 704 L 545 705 L 544 706 L 542 706 L 541 708 L 537 709 L 536 711 L 534 711 L 534 712 L 533 713 L 531 713 L 530 715 L 527 715 L 525 717 L 523 717 L 520 715 L 520 712 L 517 708 L 515 707 L 514 703 L 512 702 L 512 700 L 511 700 L 510 699 L 510 697 L 508 696 L 507 692 L 506 692 L 503 688 L 502 685 L 500 683 L 500 681 L 498 680 L 498 678 L 497 678 L 496 677 L 496 675 L 494 674 L 494 671 L 491 669 L 487 663 L 486 659 L 484 658 L 483 653 L 486 649 L 489 649 L 493 646 L 494 644 L 496 644 L 497 642 L 499 642 L 500 640 L 504 639 L 510 635 L 511 633 L 515 632 L 518 630 L 519 628 L 521 628 L 522 626 L 526 625 L 527 623 L 530 623 L 533 621 L 534 619 L 536 619 L 540 617 L 541 615 L 547 612 L 550 612 L 558 608 L 563 604 L 571 600 L 574 600 L 582 595 L 586 595 L 588 594 L 589 592 L 592 592 L 594 590 L 598 590 L 603 587 L 605 587 L 606 585 L 610 585 L 611 583 L 617 582 L 619 580 L 623 580 L 624 578 L 629 578 L 632 576 L 637 575 L 638 573 L 640 573 L 644 571 L 647 571 L 652 569 L 661 569 L 662 568 L 677 568 L 678 569 L 680 569 L 681 568 L 689 568 L 690 569 L 694 569 L 695 571 L 701 572 L 705 574 L 721 577 L 722 575 L 726 575 L 733 571 L 736 568 L 738 563 L 740 562 L 740 560 L 742 557 L 742 542 L 741 541 L 740 533 L 737 529 L 737 527 L 734 520 L 733 512 L 728 505 L 727 499 L 724 493 L 722 492 L 717 482 L 716 477 L 713 475 L 713 472 L 710 470 L 708 465 L 701 455 L 701 453 L 699 452 L 699 449 L 695 446 L 689 436 L 686 433 L 686 431 L 683 429 L 683 427 L 680 425 L 680 423 L 677 421 L 672 413 L 659 401 L 658 401 L 656 398 L 652 398 L 648 396 L 638 397 L 631 401 L 630 403 L 626 406 L 626 410 L 623 418 L 623 427 L 624 428 L 624 431 L 623 432 L 622 446 L 620 448 L 618 461 L 609 481 L 607 482 L 607 484 L 605 486 L 604 489 L 602 492 L 599 494 L 599 496 L 596 500 L 593 502 L 592 505 L 586 511 L 585 511 L 584 514 L 574 524 L 569 527 L 562 535 L 560 535 L 556 540 L 553 541 L 551 544 L 549 544 L 546 548 L 544 548 L 542 551 L 540 551 L 536 554 L 534 557 L 526 562 L 523 565 L 521 565 L 520 567 L 513 571 L 507 576 L 505 576 L 504 578 L 502 578 L 501 580 L 477 596 L 474 597 L 471 600 L 469 600 L 468 602 L 466 602 L 465 604 L 462 605 L 459 608 L 457 608 L 456 610 L 453 611 L 439 621 L 436 622 L 435 624 L 431 625 L 430 627 L 421 633 L 419 633 L 418 635 L 416 635 L 415 637 L 413 637 L 412 639 L 409 641 L 407 641 L 406 643 L 404 643 L 403 645 L 400 647 L 398 647 L 397 649 L 395 649 L 394 651 L 392 651 L 391 653 L 389 653 L 386 655 L 385 657 L 381 658 L 380 660 L 377 662 L 375 662 L 372 664 L 371 666 L 369 666 L 368 668 L 366 668 L 365 670 L 363 670 L 362 672 L 360 672 L 359 674 L 357 674 L 356 676 L 352 677 L 351 679 L 349 679 L 346 681 L 345 683 L 343 683 L 342 685 L 340 685 L 337 687 L 336 689 L 334 689 L 332 690 L 331 692 L 327 693 L 325 696 L 323 696 L 322 698 L 320 698 L 316 700 L 314 703 L 312 703 L 311 705 L 307 706 L 304 708 L 303 710 L 301 710 L 300 712 L 298 712 L 297 714 L 293 715 L 293 716 L 292 717 L 290 717 L 289 719 L 285 720 L 283 723 L 281 723 L 281 724 L 280 725 L 278 725 L 276 728 L 274 728 L 271 732 L 262 740 L 261 743 L 259 744 L 258 747 L 256 748 L 254 754 L 251 756 L 251 760 L 249 763 L 249 765 L 247 769 L 247 772 L 245 773 L 245 777 L 244 778 L 244 785 L 245 786 L 244 800 L 245 801 L 246 808 L 248 809 L 248 812 L 250 815 L 252 823 L 254 825 L 255 828 L 258 830 L 258 831 L 263 836 L 263 838 L 266 841 L 268 841 L 279 850 L 281 850 L 285 853 L 291 854 L 292 856 L 295 856 L 296 857 L 316 857 L 317 858 L 322 858 L 323 857 L 326 857 L 328 855 L 334 855 L 335 853 L 338 853 L 340 851 L 342 851 L 346 848 L 354 845 L 356 842 L 366 837 L 372 833 L 373 831 L 375 831 L 381 827 L 382 825 L 384 825 L 385 823 L 387 823 L 388 821 L 390 821 L 393 818 L 395 818 L 398 816 L 399 814 L 401 814 L 402 812 L 404 812 L 407 809 L 409 809 L 410 807 L 412 807 L 413 805 L 429 797 L 432 797 L 441 792 L 443 792 L 445 791 L 446 789 L 451 789 L 455 792 L 455 794 L 458 796 L 465 796 L 468 794 L 471 794 L 473 791 L 475 791 L 476 789 L 478 789 L 478 787 L 480 784 L 480 778 L 478 775 L 478 773 L 479 772 L 481 772 L 488 768 L 490 765 L 492 765 L 493 763 L 496 763 L 509 754 L 512 753 L 514 750 L 516 750 L 517 748 L 519 748 L 521 747 L 522 745 L 524 745 L 525 743 L 527 743 L 528 741 L 530 741 L 540 735 L 542 732 L 544 732 L 545 730 L 547 730 L 551 728 L 557 723 L 566 718 L 568 715 L 570 715 L 571 713 L 575 712 L 577 709 L 579 709 L 580 707 L 586 706 L 591 716 L 594 718 L 598 724 L 598 726 L 600 727 L 600 729 L 605 737 L 607 738 L 608 741 L 610 743 L 610 745 L 612 746 L 612 748 L 611 749 L 609 749 L 608 751 L 606 751 L 605 753 L 599 757 L 597 757 L 596 759 L 594 759 L 593 761 L 591 761 L 590 763 L 588 763 L 587 765 L 585 765 L 584 767 L 578 771 L 576 771 L 575 773 L 573 773 L 572 775 L 569 775 L 566 779 L 563 780 L 562 782 L 560 783 L 560 786 L 559 787 L 560 795 L 566 799 L 573 800 L 579 797 L 582 794 L 609 777 L 611 774 L 613 774 L 613 773 L 614 772 L 616 772 L 617 770 L 621 769 L 623 766 L 625 766 L 625 765 L 626 764 L 628 764 L 629 762 L 631 762 L 636 759 L 638 756 L 640 756 L 641 754 L 643 754 L 643 753 L 644 752 L 646 752 L 647 750 L 649 750 L 653 748 L 655 745 L 657 745 L 658 743 L 660 743 L 661 741 L 663 741 L 664 739 L 666 739 L 667 737 L 669 737 L 669 736 L 670 735 L 672 735 L 673 733 L 675 733 L 682 729 L 684 726 L 686 726 L 686 725 L 687 724 L 689 724 L 690 722 L 692 722 L 702 716 L 704 713 L 706 713 L 707 711 L 709 711 L 710 709 L 712 709 L 713 707 L 716 707 L 722 703 L 724 700 L 726 700 L 727 698 L 729 698 L 730 696 L 732 696 L 733 694 L 736 694 L 743 689 L 744 687 L 747 685 L 749 685 L 750 683 L 754 682 L 756 679 L 760 678 L 761 676 L 763 676 L 764 674 L 766 674 L 767 672 L 769 672 L 769 671 L 770 670 L 772 670 L 773 668 L 777 667 L 779 664 L 783 662 L 785 662 L 787 659 L 789 659 L 790 657 L 793 656 L 795 654 L 797 654 L 800 652 L 801 650 L 807 646 L 811 645 L 813 642 L 815 642 L 816 640 L 820 639 L 821 637 L 829 633 L 830 631 L 833 631 L 836 629 L 838 626 L 844 622 L 846 622 L 850 620 L 852 617 L 854 617 L 855 615 L 857 615 L 861 613 L 869 607 L 872 606 L 875 604 L 877 601 L 881 600 L 884 598 L 885 596 L 887 596 L 888 594 L 891 594 L 894 592 L 896 589 L 899 589 L 902 587 L 904 584 L 906 584 L 910 582 L 912 579 L 915 579 L 926 571 L 935 566 L 936 564 L 938 564 L 950 557 L 952 554 L 954 554 L 956 553 L 957 551 L 959 551 L 963 549 L 965 546 L 968 546 L 970 543 L 972 543 L 987 534 L 988 532 L 990 532 L 994 529 L 997 528 L 1001 525 L 1003 522 L 1005 522 L 1007 519 L 1009 519 L 1014 514 L 1014 512 L 1017 510 L 1017 508 L 1019 507 L 1019 505 L 1021 504 L 1022 499 L 1024 496 L 1024 494 L 1026 493 L 1026 490 L 1027 489 L 1027 484 L 1028 483 L 1028 481 L 1027 480 L 1027 466 L 1026 465 L 1026 462 L 1021 454 Z M 454 763 L 456 763 L 458 766 L 461 768 L 462 772 L 464 773 L 464 776 L 465 777 L 465 779 L 464 780 L 462 780 L 458 777 L 456 772 L 454 770 L 454 768 L 452 767 L 452 765 Z M 465 667 L 466 668 L 466 670 L 468 671 L 468 674 L 470 677 L 473 679 L 473 681 L 475 682 L 475 684 L 477 685 L 477 688 L 479 691 L 482 693 L 482 695 L 485 699 L 486 702 L 489 704 L 489 707 L 497 719 L 499 720 L 499 722 L 504 729 L 504 731 L 499 735 L 497 735 L 496 737 L 494 737 L 492 738 L 491 740 L 489 740 L 488 742 L 485 742 L 483 745 L 481 745 L 480 747 L 477 748 L 475 750 L 471 751 L 470 753 L 468 753 L 467 754 L 465 754 L 464 753 L 464 751 L 460 748 L 458 748 L 457 747 L 450 748 L 448 751 L 445 752 L 443 754 L 441 754 L 437 760 L 437 764 L 439 766 L 439 769 L 438 770 L 425 776 L 422 776 L 418 778 L 418 779 L 415 781 L 413 781 L 410 783 L 406 783 L 404 780 L 402 779 L 398 771 L 396 770 L 396 768 L 394 767 L 393 763 L 391 760 L 389 759 L 389 757 L 387 756 L 383 747 L 380 744 L 378 740 L 376 739 L 376 737 L 374 736 L 374 734 L 372 733 L 371 731 L 372 724 L 373 723 L 376 723 L 382 719 L 384 716 L 386 716 L 387 714 L 389 714 L 390 712 L 394 711 L 395 709 L 397 709 L 406 703 L 407 701 L 409 701 L 412 699 L 413 697 L 417 696 L 419 693 L 421 693 L 422 691 L 426 690 L 428 687 L 430 687 L 434 685 L 439 680 L 441 680 L 442 678 L 446 677 L 450 674 L 451 672 L 454 670 L 456 670 L 457 668 Z M 1003 465 L 1003 468 L 1005 470 L 1005 486 L 1001 495 L 998 497 L 998 499 L 995 502 L 992 503 L 990 506 L 988 506 L 987 508 L 983 509 L 982 511 L 980 511 L 979 513 L 975 514 L 974 516 L 970 517 L 969 519 L 967 519 L 966 521 L 962 522 L 961 524 L 958 524 L 956 527 L 953 527 L 951 530 L 947 531 L 946 533 L 943 534 L 941 536 L 939 536 L 938 538 L 934 539 L 933 541 L 930 541 L 927 545 L 923 546 L 922 548 L 919 549 L 917 551 L 915 551 L 915 552 L 914 553 L 912 553 L 911 555 L 907 556 L 907 557 L 903 560 L 899 561 L 898 563 L 896 563 L 895 565 L 892 566 L 881 574 L 870 580 L 834 604 L 831 605 L 829 607 L 827 607 L 826 609 L 824 609 L 823 611 L 820 612 L 815 616 L 813 616 L 813 617 L 812 618 L 810 618 L 809 620 L 806 621 L 804 623 L 802 623 L 801 625 L 795 629 L 793 629 L 792 631 L 790 631 L 790 632 L 789 633 L 787 633 L 786 635 L 784 635 L 781 638 L 779 638 L 778 640 L 776 640 L 775 642 L 768 645 L 767 647 L 765 647 L 764 649 L 762 649 L 762 650 L 761 651 L 759 651 L 758 653 L 754 654 L 748 658 L 747 660 L 745 660 L 744 662 L 742 662 L 741 664 L 739 664 L 738 666 L 736 666 L 735 668 L 733 668 L 729 671 L 726 672 L 723 674 L 721 677 L 719 677 L 718 679 L 714 680 L 711 682 L 710 684 L 708 684 L 707 686 L 703 687 L 701 690 L 699 690 L 698 692 L 696 692 L 689 697 L 686 698 L 683 700 L 681 703 L 679 703 L 678 705 L 676 705 L 676 706 L 675 707 L 673 707 L 672 709 L 668 710 L 662 714 L 661 716 L 659 716 L 658 718 L 656 718 L 655 720 L 653 720 L 652 722 L 649 724 L 647 724 L 646 726 L 644 726 L 643 728 L 641 728 L 633 733 L 632 735 L 630 735 L 629 733 L 627 732 L 627 730 L 622 724 L 622 722 L 620 721 L 619 717 L 617 714 L 615 713 L 615 711 L 613 710 L 612 707 L 610 705 L 610 703 L 609 703 L 608 702 L 608 700 L 606 699 L 606 697 L 604 696 L 604 693 L 608 690 L 609 688 L 611 688 L 612 686 L 614 686 L 617 684 L 618 682 L 621 680 L 623 680 L 624 678 L 628 677 L 630 674 L 632 674 L 633 672 L 639 668 L 643 667 L 645 664 L 648 662 L 652 661 L 655 659 L 657 656 L 659 656 L 660 654 L 663 652 L 665 652 L 666 650 L 668 650 L 668 649 L 669 648 L 671 648 L 672 646 L 676 645 L 678 642 L 680 642 L 681 640 L 683 640 L 684 638 L 686 638 L 689 636 L 690 634 L 692 634 L 693 632 L 696 630 L 698 630 L 699 628 L 701 628 L 702 626 L 706 625 L 708 622 L 710 622 L 711 620 L 715 619 L 724 613 L 725 611 L 727 611 L 728 609 L 732 608 L 735 605 L 739 603 L 740 601 L 742 601 L 743 599 L 745 599 L 746 597 L 748 597 L 749 595 L 751 595 L 752 593 L 754 593 L 758 591 L 761 588 L 765 586 L 766 584 L 768 584 L 769 582 L 771 582 L 772 580 L 774 580 L 775 578 L 777 578 L 781 575 L 784 574 L 790 570 L 792 567 L 794 567 L 798 565 L 805 560 L 806 558 L 808 558 L 809 556 L 811 556 L 815 553 L 818 552 L 829 544 L 838 539 L 840 536 L 844 535 L 846 533 L 849 532 L 851 529 L 853 529 L 857 526 L 860 525 L 863 523 L 865 520 L 867 520 L 868 518 L 871 518 L 889 506 L 890 504 L 892 504 L 893 502 L 895 502 L 896 500 L 899 500 L 905 496 L 907 493 L 909 493 L 909 492 L 910 491 L 912 491 L 913 489 L 916 489 L 922 485 L 924 482 L 931 479 L 932 477 L 934 477 L 935 475 L 937 475 L 937 474 L 938 473 L 940 473 L 941 471 L 944 471 L 946 468 L 951 465 L 953 465 L 954 463 L 956 463 L 956 462 L 957 461 L 959 461 L 960 459 L 963 459 L 965 457 L 968 456 L 969 454 L 971 454 L 972 453 L 989 453 L 995 456 L 999 462 Z M 657 429 L 658 430 L 658 432 L 661 434 L 664 440 L 668 443 L 669 447 L 672 449 L 675 455 L 677 456 L 677 458 L 679 459 L 679 461 L 681 462 L 681 465 L 683 468 L 686 470 L 686 472 L 687 474 L 689 475 L 689 477 L 693 485 L 696 487 L 696 490 L 699 494 L 702 502 L 704 505 L 706 506 L 706 509 L 710 515 L 710 519 L 711 521 L 713 522 L 713 527 L 715 530 L 717 538 L 719 541 L 719 551 L 718 552 L 710 552 L 703 549 L 695 548 L 694 546 L 690 546 L 689 545 L 682 546 L 681 544 L 673 544 L 672 545 L 666 544 L 663 546 L 656 545 L 655 546 L 647 547 L 646 549 L 639 550 L 623 556 L 619 556 L 618 558 L 616 558 L 608 562 L 603 563 L 600 565 L 596 565 L 594 566 L 593 568 L 591 568 L 581 573 L 579 573 L 570 578 L 566 578 L 564 579 L 563 581 L 559 582 L 546 589 L 543 589 L 539 591 L 537 594 L 526 599 L 520 603 L 518 603 L 517 605 L 515 605 L 514 607 L 512 607 L 509 610 L 506 611 L 504 613 L 502 613 L 502 614 L 501 615 L 499 615 L 498 617 L 496 617 L 492 619 L 490 622 L 488 622 L 488 623 L 487 624 L 485 624 L 484 626 L 480 627 L 476 631 L 473 633 L 471 633 L 470 635 L 468 635 L 467 637 L 465 637 L 465 638 L 464 639 L 462 639 L 461 641 L 459 641 L 458 643 L 456 643 L 450 648 L 443 651 L 441 654 L 439 654 L 439 655 L 438 656 L 436 656 L 435 658 L 431 659 L 430 661 L 427 663 L 425 663 L 422 665 L 421 667 L 419 667 L 418 669 L 416 669 L 415 671 L 413 671 L 412 673 L 410 673 L 409 675 L 407 675 L 406 677 L 404 677 L 403 679 L 401 679 L 400 681 L 396 682 L 395 684 L 393 684 L 392 686 L 390 686 L 389 688 L 387 688 L 387 689 L 386 690 L 384 690 L 383 692 L 381 692 L 374 697 L 371 698 L 362 704 L 361 706 L 353 713 L 353 716 L 352 718 L 350 719 L 350 724 L 349 725 L 348 731 L 350 732 L 350 736 L 354 743 L 354 745 L 357 747 L 357 749 L 359 750 L 360 754 L 362 755 L 366 761 L 367 765 L 370 767 L 371 770 L 373 772 L 374 776 L 376 779 L 379 781 L 380 785 L 382 786 L 387 794 L 387 797 L 386 798 L 384 798 L 383 800 L 380 801 L 369 809 L 367 809 L 366 811 L 364 811 L 363 813 L 360 814 L 349 822 L 347 822 L 345 824 L 342 825 L 340 828 L 336 830 L 334 830 L 332 832 L 330 832 L 327 834 L 320 834 L 319 835 L 305 835 L 304 834 L 297 834 L 289 830 L 284 825 L 275 818 L 275 816 L 273 815 L 273 812 L 270 809 L 267 801 L 267 784 L 266 783 L 266 781 L 267 780 L 267 776 L 268 775 L 270 768 L 272 767 L 272 764 L 274 763 L 275 759 L 278 755 L 281 753 L 288 745 L 290 745 L 294 742 L 296 739 L 299 739 L 305 735 L 307 732 L 309 732 L 310 730 L 312 730 L 314 729 L 315 727 L 317 727 L 321 724 L 324 723 L 333 717 L 335 714 L 338 712 L 340 712 L 353 704 L 354 702 L 358 701 L 364 697 L 366 694 L 369 693 L 371 691 L 375 690 L 378 688 L 381 684 L 384 683 L 386 681 L 388 681 L 389 679 L 393 678 L 399 674 L 401 671 L 403 671 L 405 668 L 410 667 L 413 663 L 416 661 L 418 661 L 419 659 L 425 656 L 428 653 L 430 653 L 431 651 L 434 651 L 437 647 L 439 647 L 440 645 L 442 645 L 443 643 L 449 639 L 451 639 L 452 637 L 454 637 L 454 636 L 455 635 L 457 635 L 458 633 L 462 632 L 463 630 L 465 630 L 466 628 L 468 628 L 469 626 L 472 624 L 474 624 L 475 622 L 477 622 L 478 620 L 480 620 L 480 619 L 481 618 L 483 618 L 484 616 L 488 615 L 490 612 L 492 612 L 493 610 L 495 610 L 496 608 L 498 608 L 498 607 L 499 606 L 501 606 L 502 604 L 504 604 L 506 602 L 514 598 L 524 591 L 526 588 L 528 588 L 529 586 L 533 585 L 544 577 L 546 574 L 548 574 L 551 571 L 555 569 L 559 565 L 560 565 L 563 561 L 567 560 L 569 556 L 573 555 L 573 554 L 577 551 L 584 543 L 585 543 L 594 534 L 595 534 L 599 530 L 600 527 L 608 520 L 608 518 L 612 515 L 612 513 L 615 511 L 615 509 L 618 507 L 620 504 L 620 502 L 622 501 L 624 498 L 625 494 L 627 493 L 631 483 L 634 480 L 634 476 L 636 475 L 636 471 L 637 470 L 637 468 L 640 461 L 641 454 L 642 453 L 642 448 L 644 447 L 644 439 L 645 438 L 644 429 L 645 428 L 645 422 L 646 421 L 648 421 L 656 429 Z" fill="rgb(41,27,67)" fill-rule="evenodd"/>
</svg>
