<?xml version="1.0" encoding="UTF-8"?>
<svg xmlns="http://www.w3.org/2000/svg" width="1254" height="1254" viewBox="0 0 1254 1254" fill="none">
  <g transform="rotate(38 627 627)">
    <path d="M 573 144 L 572 146 L 568 146 L 563 149 L 561 149 L 560 151 L 555 156 L 554 156 L 554 158 L 550 166 L 550 173 L 549 174 L 549 179 L 551 180 L 552 186 L 554 187 L 554 189 L 555 189 L 561 196 L 561 205 L 562 206 L 562 464 L 561 465 L 561 469 L 562 470 L 562 504 L 561 505 L 561 508 L 562 509 L 562 616 L 561 617 L 561 622 L 562 623 L 562 655 L 561 656 L 561 666 L 562 667 L 562 726 L 561 727 L 561 733 L 562 734 L 562 748 L 561 749 L 561 751 L 562 752 L 562 754 L 561 755 L 561 758 L 562 759 L 562 901 L 561 902 L 561 907 L 562 908 L 562 1054 L 563 1055 L 563 1059 L 566 1066 L 566 1070 L 568 1071 L 572 1079 L 581 1088 L 581 1090 L 584 1092 L 586 1092 L 595 1098 L 597 1098 L 604 1101 L 607 1101 L 608 1102 L 630 1102 L 631 1101 L 637 1101 L 639 1100 L 640 1098 L 643 1098 L 649 1093 L 651 1093 L 655 1089 L 656 1089 L 656 1088 L 660 1084 L 667 1071 L 667 1069 L 669 1068 L 669 1064 L 670 1063 L 671 1054 L 672 1053 L 672 1049 L 673 1048 L 673 1039 L 672 1038 L 672 998 L 673 997 L 673 986 L 672 985 L 672 978 L 673 977 L 673 975 L 672 974 L 672 895 L 673 894 L 673 891 L 672 890 L 672 879 L 673 878 L 673 876 L 672 875 L 672 841 L 673 840 L 673 830 L 675 829 L 675 828 L 677 827 L 681 822 L 682 822 L 682 820 L 684 819 L 684 815 L 685 814 L 685 810 L 686 809 L 686 804 L 685 803 L 685 799 L 683 796 L 683 793 L 682 793 L 681 792 L 681 790 L 680 790 L 675 785 L 675 784 L 673 783 L 673 773 L 672 772 L 672 759 L 673 758 L 673 747 L 672 746 L 672 728 L 673 727 L 673 725 L 672 724 L 672 713 L 673 712 L 673 705 L 672 704 L 672 691 L 673 690 L 673 675 L 672 674 L 672 662 L 673 661 L 673 653 L 672 652 L 672 646 L 673 645 L 673 637 L 672 636 L 672 634 L 673 633 L 673 625 L 672 624 L 672 609 L 673 608 L 673 542 L 672 541 L 672 534 L 673 533 L 673 522 L 672 521 L 672 511 L 673 510 L 676 510 L 680 504 L 682 503 L 682 501 L 681 500 L 681 491 L 682 490 L 682 487 L 681 487 L 680 485 L 672 478 L 673 450 L 675 445 L 674 440 L 676 439 L 676 430 L 677 429 L 679 422 L 681 421 L 681 419 L 686 413 L 692 412 L 693 411 L 705 411 L 706 413 L 708 413 L 709 415 L 713 418 L 713 421 L 716 425 L 716 427 L 718 428 L 720 441 L 722 443 L 723 455 L 724 456 L 725 462 L 727 463 L 727 467 L 729 468 L 729 472 L 731 475 L 733 476 L 733 478 L 736 480 L 736 482 L 739 485 L 739 490 L 741 491 L 745 496 L 750 497 L 752 500 L 756 502 L 758 502 L 759 504 L 761 504 L 763 505 L 764 507 L 768 508 L 769 510 L 771 510 L 773 513 L 783 515 L 786 517 L 788 517 L 792 520 L 796 520 L 797 522 L 801 522 L 802 523 L 807 524 L 808 526 L 812 526 L 813 528 L 817 528 L 818 530 L 823 530 L 824 528 L 826 528 L 829 524 L 830 519 L 832 518 L 833 511 L 836 505 L 836 498 L 833 494 L 829 493 L 828 491 L 824 491 L 823 490 L 821 490 L 820 488 L 816 488 L 815 486 L 811 486 L 810 484 L 806 484 L 804 482 L 798 481 L 797 479 L 793 477 L 786 477 L 785 475 L 778 474 L 776 472 L 774 472 L 773 471 L 768 471 L 767 470 L 765 470 L 764 468 L 762 467 L 749 466 L 747 463 L 745 462 L 745 459 L 743 457 L 741 443 L 740 442 L 740 439 L 738 438 L 738 434 L 736 429 L 736 423 L 734 418 L 733 418 L 731 415 L 731 412 L 729 411 L 728 407 L 717 397 L 711 394 L 709 394 L 708 392 L 690 392 L 689 393 L 683 394 L 677 398 L 675 398 L 668 406 L 668 407 L 665 409 L 665 412 L 661 419 L 661 421 L 659 422 L 658 428 L 657 429 L 656 448 L 654 450 L 654 459 L 655 460 L 655 465 L 654 466 L 654 479 L 649 481 L 646 485 L 641 485 L 640 484 L 640 446 L 639 445 L 639 442 L 640 441 L 640 419 L 639 418 L 639 405 L 640 404 L 640 316 L 639 315 L 639 301 L 640 300 L 640 205 L 639 204 L 639 196 L 642 194 L 648 187 L 650 186 L 650 182 L 652 178 L 652 168 L 648 157 L 643 152 L 643 151 L 641 149 L 639 149 L 634 146 L 630 146 L 628 144 Z M 611 1012 L 612 1011 L 614 1011 L 615 1012 L 616 1016 L 618 1019 L 618 1021 L 619 1021 L 622 1026 L 624 1028 L 626 1028 L 628 1031 L 636 1032 L 637 1034 L 643 1034 L 647 1032 L 654 1031 L 655 1032 L 655 1048 L 653 1051 L 644 1051 L 643 1052 L 637 1052 L 636 1051 L 622 1051 L 621 1052 L 619 1052 L 618 1051 L 615 1051 L 612 1046 L 612 1039 L 611 1038 L 611 1026 L 612 1025 L 612 1015 L 611 1014 Z M 634 995 L 636 994 L 644 994 L 648 996 L 652 1000 L 653 1002 L 653 1010 L 648 1017 L 643 1019 L 640 1019 L 635 1017 L 634 1015 L 629 1011 L 629 1008 L 628 1007 L 629 1001 Z M 581 935 L 586 936 L 588 939 L 593 940 L 595 943 L 595 945 L 594 946 L 594 955 L 595 956 L 595 989 L 594 990 L 594 993 L 595 994 L 595 1029 L 594 1030 L 594 1042 L 595 1043 L 595 1049 L 596 1050 L 596 1052 L 599 1057 L 599 1059 L 606 1065 L 610 1067 L 617 1068 L 618 1069 L 632 1069 L 633 1070 L 646 1070 L 647 1071 L 647 1073 L 645 1074 L 641 1079 L 639 1079 L 638 1081 L 633 1082 L 632 1084 L 615 1085 L 614 1084 L 606 1084 L 605 1083 L 603 1083 L 599 1081 L 598 1079 L 594 1076 L 592 1076 L 591 1075 L 591 1073 L 589 1073 L 588 1072 L 588 1070 L 585 1068 L 585 1066 L 581 1060 L 581 1053 L 580 1052 L 580 1045 L 579 1044 L 579 966 L 580 965 L 579 938 Z M 630 928 L 631 929 L 631 933 L 632 934 L 632 950 L 631 951 L 632 973 L 631 974 L 631 980 L 623 985 L 620 989 L 619 989 L 619 991 L 616 995 L 615 999 L 614 1000 L 612 1000 L 611 999 L 611 989 L 612 988 L 612 980 L 611 979 L 611 974 L 612 973 L 611 946 L 612 945 L 612 943 L 614 941 L 617 940 L 619 937 L 621 937 L 624 934 L 625 931 L 627 930 L 628 928 Z M 598 903 L 605 903 L 606 904 L 608 904 L 612 906 L 613 908 L 615 909 L 615 920 L 611 925 L 606 926 L 605 928 L 602 928 L 601 926 L 598 926 L 596 924 L 593 923 L 591 920 L 591 917 L 590 916 L 591 910 L 592 908 Z M 649 868 L 654 868 L 656 872 L 656 884 L 655 885 L 655 891 L 656 892 L 656 896 L 655 897 L 655 906 L 656 907 L 656 916 L 655 917 L 655 974 L 656 975 L 656 980 L 655 981 L 649 980 L 647 978 L 647 969 L 648 968 L 648 869 Z M 630 850 L 631 849 L 647 849 L 648 850 L 648 852 L 646 854 L 631 854 L 630 853 Z M 581 815 L 626 815 L 627 816 L 633 815 L 636 822 L 640 828 L 642 828 L 643 829 L 643 832 L 641 834 L 628 834 L 619 838 L 616 845 L 617 862 L 621 866 L 626 868 L 630 868 L 631 869 L 631 889 L 632 890 L 632 902 L 631 903 L 628 903 L 625 897 L 620 892 L 616 891 L 615 889 L 612 889 L 610 887 L 607 887 L 606 886 L 603 886 L 600 888 L 593 888 L 588 891 L 588 892 L 585 894 L 582 898 L 580 898 L 579 897 L 579 894 L 580 893 L 580 891 L 579 890 L 579 882 L 578 881 L 578 878 L 579 877 L 579 829 L 580 828 L 580 826 L 579 825 L 579 817 Z M 650 798 L 657 795 L 664 795 L 665 797 L 667 797 L 669 799 L 669 802 L 670 803 L 670 811 L 669 812 L 669 814 L 665 818 L 652 818 L 648 814 L 647 812 L 647 802 Z M 654 767 L 655 778 L 649 782 L 645 782 L 644 784 L 635 792 L 634 796 L 632 798 L 624 798 L 623 799 L 601 799 L 600 798 L 597 798 L 596 799 L 581 799 L 580 798 L 580 791 L 579 790 L 579 766 L 580 765 L 635 765 L 636 764 L 642 764 L 643 765 L 652 765 Z M 607 685 L 609 685 L 610 687 L 613 687 L 618 690 L 620 695 L 620 705 L 616 709 L 611 711 L 604 711 L 603 710 L 600 710 L 596 705 L 596 702 L 595 701 L 595 693 L 597 692 L 601 687 L 606 687 Z M 580 632 L 582 632 L 583 634 L 592 642 L 599 645 L 599 654 L 598 655 L 599 670 L 595 672 L 587 679 L 586 679 L 584 681 L 584 683 L 582 686 L 580 686 L 579 685 L 579 633 Z M 600 606 L 602 605 L 611 605 L 612 606 L 614 606 L 620 611 L 620 613 L 621 614 L 621 621 L 615 629 L 610 631 L 605 631 L 604 630 L 602 630 L 596 625 L 595 620 L 594 619 L 594 615 L 596 610 L 598 609 Z M 582 553 L 584 553 L 585 554 L 585 556 L 589 560 L 594 563 L 597 563 L 598 564 L 598 577 L 599 578 L 599 588 L 598 590 L 592 593 L 589 596 L 587 596 L 587 598 L 585 600 L 582 600 L 581 599 L 581 589 L 580 588 L 580 566 L 581 565 L 581 554 Z M 601 525 L 613 525 L 619 529 L 621 540 L 620 541 L 620 543 L 618 544 L 615 548 L 613 549 L 602 549 L 601 547 L 599 547 L 598 546 L 595 539 L 595 531 L 597 530 Z M 793 497 L 795 495 L 798 495 L 799 497 L 801 498 L 806 498 L 807 500 L 811 500 L 813 502 L 818 503 L 819 504 L 819 509 L 818 510 L 818 512 L 817 513 L 815 513 L 814 511 L 810 511 L 808 509 L 802 508 L 801 506 L 799 505 L 794 505 L 793 504 Z M 756 483 L 757 482 L 760 482 L 761 483 L 772 486 L 773 488 L 778 488 L 779 489 L 778 494 L 776 496 L 774 496 L 772 493 L 769 493 L 767 492 L 766 490 L 764 490 L 763 488 L 760 486 L 757 486 L 756 485 Z M 582 472 L 611 472 L 612 471 L 618 471 L 620 472 L 622 477 L 621 497 L 622 497 L 623 499 L 629 504 L 637 504 L 638 503 L 645 504 L 646 506 L 650 509 L 652 509 L 654 511 L 654 514 L 653 515 L 653 522 L 654 523 L 654 528 L 653 529 L 653 548 L 654 549 L 654 577 L 653 578 L 653 591 L 654 592 L 654 608 L 653 609 L 653 629 L 654 630 L 654 649 L 653 650 L 653 664 L 654 665 L 654 697 L 653 698 L 653 711 L 654 712 L 654 719 L 653 720 L 653 728 L 654 729 L 654 745 L 653 746 L 581 746 L 579 744 L 579 736 L 580 735 L 579 713 L 580 712 L 582 712 L 583 713 L 583 715 L 585 716 L 585 718 L 594 725 L 600 726 L 601 728 L 604 728 L 605 727 L 614 728 L 615 726 L 622 725 L 624 722 L 627 721 L 630 718 L 630 716 L 632 715 L 633 711 L 635 710 L 635 705 L 636 704 L 636 693 L 635 692 L 635 687 L 633 686 L 633 684 L 632 682 L 629 680 L 629 678 L 625 676 L 624 674 L 622 674 L 621 672 L 618 672 L 617 671 L 617 645 L 629 638 L 629 636 L 632 633 L 633 630 L 635 629 L 635 624 L 636 623 L 636 612 L 635 611 L 635 606 L 633 605 L 632 601 L 630 600 L 630 598 L 622 592 L 617 590 L 617 566 L 623 562 L 624 560 L 626 560 L 630 556 L 630 554 L 632 553 L 634 549 L 635 544 L 637 542 L 637 539 L 636 538 L 636 531 L 635 530 L 633 522 L 631 519 L 630 519 L 628 516 L 625 514 L 625 513 L 623 513 L 621 510 L 613 509 L 611 507 L 603 507 L 602 509 L 595 510 L 594 512 L 590 513 L 589 515 L 584 519 L 582 519 L 581 518 L 580 504 L 581 503 L 581 473 Z M 582 389 L 584 389 L 586 391 L 588 391 L 589 393 L 592 395 L 596 395 L 597 397 L 600 397 L 601 398 L 610 398 L 611 397 L 614 397 L 615 395 L 617 395 L 618 394 L 621 394 L 622 395 L 622 397 L 621 398 L 621 406 L 622 407 L 622 417 L 621 418 L 621 420 L 622 421 L 622 452 L 621 453 L 588 453 L 587 452 L 582 452 L 581 451 L 581 403 L 580 402 L 580 396 L 581 395 L 581 390 Z M 598 355 L 601 355 L 602 354 L 612 354 L 613 356 L 619 361 L 619 373 L 618 375 L 615 378 L 613 378 L 612 380 L 610 380 L 609 381 L 603 381 L 598 379 L 594 374 L 593 369 L 592 368 L 592 362 L 594 361 Z M 620 202 L 621 203 L 621 211 L 622 212 L 622 308 L 621 309 L 621 319 L 622 320 L 622 339 L 621 340 L 618 340 L 614 338 L 611 338 L 610 336 L 608 336 L 607 337 L 597 337 L 595 338 L 594 340 L 591 340 L 591 341 L 584 347 L 582 347 L 581 346 L 581 202 L 582 201 L 587 201 L 588 202 L 594 202 L 595 201 L 612 201 L 613 202 Z M 568 170 L 571 165 L 575 163 L 628 163 L 631 165 L 635 171 L 635 175 L 630 181 L 625 183 L 599 183 L 598 182 L 592 182 L 591 183 L 576 183 L 571 181 L 569 179 L 569 177 L 568 176 Z" fill="rgb(35,19,60)" fill-rule="evenodd"/>
  </g>
</svg>
