<?xml version="1.0" encoding="UTF-8"?>
<svg xmlns="http://www.w3.org/2000/svg" width="1254" height="1254" viewBox="0 0 1254 1254" fill="none">
  <g transform="rotate(40 627 627)">
    <path d="M 680 717 L 679 719 L 674 721 L 671 724 L 669 729 L 669 734 L 672 739 L 676 741 L 679 741 L 680 740 L 683 740 L 686 735 L 686 729 L 687 728 L 689 728 L 692 730 L 694 733 L 694 739 L 696 740 L 696 760 L 695 761 L 695 779 L 696 780 L 696 790 L 697 791 L 696 799 L 697 800 L 698 809 L 700 810 L 701 816 L 703 818 L 704 822 L 706 823 L 706 825 L 711 830 L 713 830 L 714 832 L 716 832 L 720 834 L 732 834 L 737 831 L 739 831 L 743 827 L 744 822 L 746 821 L 746 814 L 744 813 L 744 811 L 741 808 L 738 807 L 736 805 L 733 805 L 732 807 L 729 807 L 728 809 L 726 810 L 726 812 L 724 813 L 724 819 L 725 819 L 728 823 L 728 825 L 727 826 L 724 826 L 719 821 L 718 821 L 717 820 L 717 816 L 716 814 L 714 813 L 713 804 L 712 803 L 712 798 L 713 797 L 713 777 L 712 776 L 712 765 L 711 764 L 712 752 L 710 750 L 709 740 L 708 739 L 707 734 L 703 728 L 703 726 L 702 726 L 697 721 L 691 718 L 683 718 L 682 717 Z M 577 719 L 575 718 L 570 718 L 569 717 L 562 717 L 550 726 L 550 728 L 547 732 L 547 734 L 544 741 L 543 749 L 542 750 L 542 761 L 540 764 L 541 797 L 539 801 L 539 812 L 538 813 L 538 815 L 534 822 L 533 822 L 529 826 L 526 826 L 525 825 L 525 823 L 527 822 L 529 818 L 529 814 L 527 813 L 526 810 L 524 808 L 520 806 L 513 807 L 509 811 L 508 815 L 506 816 L 506 818 L 508 820 L 508 824 L 509 826 L 510 826 L 514 830 L 514 831 L 521 834 L 533 834 L 538 831 L 540 831 L 541 829 L 543 829 L 546 826 L 546 824 L 548 823 L 548 821 L 550 820 L 552 816 L 553 809 L 555 808 L 556 798 L 557 797 L 556 791 L 558 788 L 558 752 L 557 751 L 557 749 L 558 748 L 558 742 L 559 741 L 559 734 L 561 733 L 561 730 L 562 729 L 566 728 L 567 729 L 567 735 L 569 739 L 573 740 L 574 742 L 579 741 L 580 739 L 582 739 L 582 737 L 585 732 L 585 729 L 583 728 L 583 725 L 581 724 L 581 722 L 578 721 Z M 623 175 L 622 176 L 619 176 L 618 177 L 615 177 L 610 179 L 608 181 L 605 182 L 599 188 L 594 196 L 593 202 L 592 203 L 592 209 L 582 217 L 582 219 L 579 224 L 579 228 L 578 229 L 578 236 L 579 237 L 579 240 L 583 248 L 588 253 L 589 253 L 590 255 L 592 255 L 595 257 L 595 272 L 594 273 L 590 273 L 589 274 L 577 274 L 574 272 L 574 270 L 570 266 L 568 266 L 562 263 L 551 263 L 541 272 L 540 276 L 538 277 L 538 279 L 539 280 L 539 289 L 541 292 L 541 294 L 543 295 L 543 297 L 544 298 L 546 298 L 547 300 L 549 300 L 552 302 L 555 302 L 556 303 L 564 302 L 570 299 L 576 292 L 588 292 L 589 291 L 592 291 L 594 293 L 594 299 L 593 300 L 593 306 L 594 307 L 594 324 L 593 325 L 584 325 L 583 324 L 577 325 L 575 324 L 569 317 L 563 314 L 553 313 L 547 316 L 547 317 L 542 322 L 541 322 L 541 324 L 539 327 L 539 332 L 538 333 L 539 340 L 541 343 L 541 345 L 542 345 L 546 349 L 546 350 L 548 350 L 554 354 L 561 354 L 564 352 L 567 352 L 569 351 L 569 350 L 571 349 L 571 348 L 574 346 L 576 343 L 592 343 L 593 344 L 593 368 L 592 369 L 592 397 L 591 398 L 591 432 L 590 433 L 590 453 L 588 455 L 574 455 L 573 456 L 568 456 L 567 457 L 557 458 L 555 460 L 548 461 L 547 462 L 536 465 L 531 468 L 527 468 L 518 473 L 517 475 L 513 476 L 512 478 L 510 478 L 509 480 L 507 480 L 506 482 L 504 482 L 502 485 L 500 485 L 500 486 L 496 490 L 494 490 L 486 498 L 485 501 L 481 504 L 481 506 L 478 508 L 478 510 L 476 513 L 474 514 L 473 518 L 471 519 L 470 523 L 465 532 L 464 537 L 462 538 L 462 543 L 460 547 L 459 554 L 457 557 L 457 563 L 456 564 L 456 569 L 457 570 L 457 583 L 456 584 L 456 586 L 457 587 L 457 599 L 458 600 L 459 608 L 461 609 L 462 616 L 464 620 L 464 626 L 465 627 L 466 638 L 465 639 L 464 650 L 462 653 L 462 655 L 460 656 L 459 658 L 457 668 L 458 669 L 459 674 L 465 678 L 468 678 L 469 679 L 471 679 L 472 678 L 479 678 L 480 679 L 485 678 L 486 679 L 491 680 L 494 682 L 495 684 L 501 689 L 501 691 L 503 692 L 505 697 L 505 702 L 506 703 L 506 707 L 507 708 L 507 716 L 509 717 L 509 721 L 508 722 L 508 734 L 506 736 L 506 739 L 505 740 L 505 747 L 504 748 L 504 750 L 502 752 L 502 755 L 499 761 L 497 762 L 495 765 L 495 767 L 492 769 L 490 772 L 488 772 L 486 775 L 477 779 L 464 779 L 463 780 L 460 780 L 459 779 L 456 779 L 452 777 L 446 776 L 445 777 L 439 778 L 438 780 L 436 781 L 436 783 L 434 786 L 434 794 L 436 797 L 436 802 L 438 803 L 439 821 L 438 822 L 438 826 L 437 827 L 436 832 L 434 835 L 432 842 L 430 843 L 430 847 L 426 855 L 426 857 L 422 867 L 420 878 L 419 879 L 418 890 L 416 894 L 416 897 L 417 898 L 417 901 L 416 902 L 416 917 L 417 918 L 417 929 L 418 930 L 418 935 L 419 936 L 419 940 L 421 945 L 421 951 L 423 952 L 425 960 L 431 972 L 431 975 L 433 978 L 435 979 L 436 983 L 438 984 L 438 986 L 439 986 L 443 991 L 443 993 L 446 995 L 446 997 L 450 1001 L 451 1001 L 462 1013 L 465 1014 L 468 1018 L 470 1018 L 472 1021 L 474 1021 L 475 1023 L 477 1023 L 478 1025 L 480 1025 L 481 1027 L 485 1028 L 486 1030 L 490 1031 L 494 1034 L 496 1034 L 504 1039 L 507 1039 L 515 1043 L 517 1043 L 524 1046 L 527 1046 L 534 1049 L 537 1049 L 542 1051 L 546 1051 L 547 1052 L 552 1052 L 554 1054 L 565 1054 L 566 1055 L 575 1055 L 576 1056 L 597 1056 L 598 1057 L 609 1057 L 610 1058 L 610 1070 L 612 1073 L 612 1075 L 614 1076 L 616 1079 L 618 1079 L 621 1081 L 632 1081 L 635 1079 L 637 1079 L 637 1078 L 641 1075 L 641 1073 L 643 1069 L 643 1058 L 644 1057 L 654 1057 L 655 1056 L 678 1056 L 679 1055 L 686 1055 L 687 1054 L 693 1054 L 694 1053 L 699 1054 L 701 1052 L 705 1052 L 706 1051 L 710 1051 L 711 1050 L 715 1050 L 723 1047 L 726 1047 L 727 1046 L 738 1043 L 746 1039 L 748 1039 L 763 1031 L 765 1031 L 766 1029 L 769 1028 L 771 1026 L 775 1025 L 778 1023 L 780 1020 L 782 1020 L 782 1019 L 784 1017 L 787 1016 L 790 1012 L 792 1012 L 792 1011 L 794 1010 L 804 1000 L 804 998 L 808 995 L 809 992 L 812 990 L 812 988 L 814 987 L 814 985 L 817 983 L 819 979 L 819 977 L 824 969 L 825 965 L 827 964 L 827 960 L 830 954 L 831 948 L 833 947 L 833 940 L 834 939 L 834 934 L 835 933 L 835 927 L 837 922 L 837 917 L 836 916 L 836 901 L 837 900 L 837 895 L 835 893 L 836 888 L 834 884 L 834 880 L 833 879 L 833 875 L 830 867 L 830 864 L 826 854 L 826 850 L 824 849 L 824 847 L 819 837 L 819 835 L 817 832 L 816 826 L 815 825 L 814 807 L 815 806 L 815 803 L 817 801 L 817 797 L 819 793 L 819 786 L 817 782 L 811 777 L 808 777 L 807 776 L 801 777 L 797 779 L 793 779 L 792 780 L 785 780 L 784 779 L 775 779 L 768 776 L 767 774 L 765 774 L 757 766 L 756 762 L 753 760 L 751 756 L 751 754 L 748 748 L 748 741 L 746 737 L 746 732 L 745 731 L 745 711 L 747 706 L 747 699 L 750 692 L 753 690 L 754 686 L 756 684 L 758 684 L 760 681 L 768 678 L 773 678 L 774 679 L 777 679 L 778 678 L 780 678 L 781 679 L 788 678 L 790 676 L 792 676 L 793 675 L 793 673 L 795 670 L 795 662 L 794 661 L 794 658 L 792 657 L 792 655 L 789 651 L 789 649 L 788 648 L 788 638 L 786 637 L 788 622 L 790 620 L 790 615 L 792 611 L 792 608 L 794 606 L 795 598 L 796 597 L 796 589 L 797 588 L 797 581 L 796 580 L 796 574 L 797 573 L 796 557 L 794 555 L 794 547 L 792 546 L 791 540 L 788 534 L 788 531 L 786 529 L 782 519 L 780 518 L 780 515 L 777 513 L 777 511 L 775 510 L 772 506 L 771 503 L 764 497 L 764 495 L 759 492 L 754 486 L 752 486 L 750 483 L 748 483 L 746 480 L 744 480 L 742 478 L 739 477 L 738 475 L 730 472 L 729 470 L 727 469 L 724 469 L 720 466 L 717 466 L 714 464 L 712 464 L 705 461 L 698 460 L 697 458 L 693 458 L 692 457 L 682 457 L 681 456 L 674 456 L 673 455 L 665 454 L 664 453 L 664 447 L 663 446 L 663 435 L 662 434 L 662 401 L 661 400 L 661 365 L 660 364 L 660 344 L 661 343 L 677 343 L 678 345 L 680 346 L 680 348 L 681 349 L 683 349 L 684 351 L 686 351 L 690 353 L 693 353 L 694 354 L 699 354 L 704 352 L 705 350 L 707 350 L 708 348 L 712 345 L 713 340 L 715 339 L 715 332 L 714 331 L 714 328 L 713 327 L 712 322 L 711 322 L 706 317 L 701 315 L 699 313 L 691 313 L 690 314 L 688 314 L 687 316 L 684 317 L 679 322 L 679 323 L 676 325 L 674 325 L 673 324 L 669 324 L 668 325 L 660 325 L 659 324 L 659 310 L 660 309 L 659 293 L 661 291 L 666 291 L 667 292 L 677 292 L 678 294 L 680 295 L 682 299 L 684 299 L 692 303 L 697 303 L 698 302 L 705 301 L 707 298 L 711 294 L 712 294 L 712 292 L 714 288 L 714 280 L 715 279 L 715 277 L 713 276 L 713 273 L 707 267 L 707 266 L 705 266 L 699 263 L 691 263 L 685 266 L 683 266 L 676 274 L 667 274 L 666 273 L 659 273 L 658 272 L 658 257 L 664 254 L 669 249 L 670 249 L 670 247 L 672 246 L 672 244 L 674 240 L 674 237 L 676 234 L 676 231 L 674 228 L 674 224 L 671 219 L 671 217 L 670 217 L 665 211 L 663 211 L 661 208 L 660 199 L 656 192 L 656 190 L 654 189 L 654 187 L 645 181 L 643 178 L 639 178 L 638 177 L 631 176 L 630 175 Z M 624 1060 L 625 1059 L 628 1059 L 629 1060 L 629 1064 L 628 1065 L 626 1065 L 624 1063 Z M 600 879 L 652 879 L 653 880 L 653 887 L 652 888 L 652 893 L 651 894 L 651 898 L 650 899 L 650 904 L 648 905 L 648 914 L 647 915 L 647 919 L 645 921 L 645 930 L 644 931 L 644 935 L 643 936 L 643 942 L 642 943 L 642 949 L 641 950 L 641 956 L 640 957 L 640 964 L 639 965 L 638 985 L 637 986 L 637 1007 L 636 1008 L 636 1021 L 635 1022 L 636 1039 L 633 1042 L 624 1042 L 623 1041 L 620 1041 L 617 1039 L 617 1020 L 616 1019 L 617 1004 L 616 1003 L 616 988 L 615 987 L 615 974 L 614 973 L 615 967 L 613 964 L 612 950 L 611 949 L 610 937 L 609 936 L 609 931 L 608 930 L 608 921 L 606 919 L 606 915 L 605 914 L 605 910 L 604 909 L 604 900 L 602 898 L 602 894 L 601 893 L 601 889 L 600 888 L 600 883 L 599 882 L 599 880 Z M 641 791 L 650 791 L 651 792 L 651 801 L 650 802 L 650 811 L 651 812 L 650 860 L 646 862 L 641 862 L 640 861 L 640 792 Z M 626 791 L 630 791 L 631 792 L 631 803 L 632 804 L 632 861 L 631 862 L 623 862 L 622 861 L 622 854 L 621 853 L 621 835 L 622 834 L 622 831 L 621 830 L 621 812 L 622 811 L 621 793 Z M 604 791 L 612 791 L 613 792 L 613 813 L 612 814 L 612 825 L 613 826 L 613 840 L 612 841 L 612 849 L 613 850 L 613 860 L 609 862 L 604 862 L 603 861 L 603 839 L 602 838 L 602 823 L 603 822 L 603 819 L 602 818 L 602 802 L 603 801 L 603 792 Z M 641 675 L 647 675 L 649 677 L 648 694 L 649 695 L 649 704 L 650 705 L 650 726 L 649 727 L 649 739 L 650 740 L 651 770 L 646 772 L 641 772 L 640 771 L 640 739 L 639 738 L 639 677 Z M 628 675 L 631 675 L 632 676 L 632 765 L 631 766 L 632 771 L 631 772 L 623 772 L 622 771 L 622 763 L 621 762 L 621 686 L 622 685 L 622 677 L 623 676 L 627 676 Z M 605 675 L 612 675 L 614 677 L 614 682 L 613 683 L 613 699 L 614 700 L 614 757 L 613 758 L 613 770 L 611 772 L 604 772 L 602 770 L 602 766 L 603 765 L 603 762 L 602 761 L 602 753 L 603 752 L 603 690 L 604 689 L 604 676 Z M 665 474 L 676 474 L 677 476 L 687 476 L 688 477 L 692 477 L 700 480 L 703 480 L 704 481 L 706 481 L 707 483 L 711 483 L 726 490 L 728 493 L 731 493 L 732 495 L 734 495 L 741 500 L 747 507 L 749 507 L 751 509 L 751 511 L 758 517 L 758 519 L 761 521 L 761 523 L 763 524 L 771 539 L 771 541 L 774 548 L 774 554 L 776 555 L 777 565 L 778 566 L 778 588 L 777 589 L 777 594 L 776 595 L 776 599 L 775 600 L 774 608 L 770 619 L 770 623 L 768 625 L 768 627 L 769 628 L 769 631 L 768 632 L 768 642 L 769 643 L 769 647 L 770 648 L 770 652 L 771 653 L 772 658 L 769 660 L 764 660 L 763 661 L 752 664 L 751 666 L 749 666 L 746 668 L 746 669 L 738 677 L 738 678 L 736 679 L 735 683 L 733 684 L 733 687 L 731 690 L 729 698 L 727 700 L 727 703 L 726 704 L 725 730 L 727 732 L 727 743 L 728 744 L 728 748 L 730 749 L 730 752 L 731 753 L 732 758 L 734 761 L 734 765 L 736 769 L 739 771 L 740 775 L 742 776 L 743 779 L 744 779 L 752 788 L 754 788 L 755 790 L 757 790 L 759 792 L 764 794 L 765 796 L 767 797 L 770 797 L 775 799 L 796 799 L 797 800 L 797 802 L 795 804 L 795 806 L 796 807 L 796 812 L 795 813 L 795 815 L 796 816 L 796 824 L 797 825 L 797 828 L 798 829 L 798 832 L 799 833 L 801 841 L 804 846 L 804 848 L 806 851 L 806 853 L 808 856 L 809 861 L 812 867 L 814 881 L 816 882 L 817 893 L 818 894 L 819 914 L 818 915 L 818 925 L 817 926 L 817 931 L 816 932 L 816 936 L 815 937 L 814 944 L 806 964 L 804 965 L 802 968 L 802 971 L 791 986 L 774 1002 L 771 1003 L 771 1004 L 770 1005 L 768 1005 L 766 1008 L 760 1011 L 758 1013 L 753 1015 L 751 1017 L 745 1020 L 743 1020 L 738 1023 L 736 1023 L 733 1025 L 731 1025 L 721 1029 L 718 1029 L 714 1031 L 711 1031 L 706 1033 L 702 1033 L 697 1035 L 691 1035 L 690 1036 L 684 1036 L 683 1037 L 657 1038 L 656 1037 L 652 1037 L 651 1036 L 651 1013 L 652 1012 L 652 990 L 653 989 L 653 977 L 654 976 L 655 959 L 656 958 L 656 953 L 657 952 L 657 947 L 658 946 L 658 940 L 659 939 L 659 934 L 660 933 L 660 929 L 661 928 L 662 917 L 663 916 L 664 908 L 665 907 L 665 903 L 666 902 L 666 897 L 667 896 L 667 892 L 668 891 L 668 887 L 669 886 L 669 881 L 671 880 L 670 870 L 667 865 L 662 862 L 660 862 L 658 860 L 658 849 L 659 848 L 659 840 L 658 839 L 658 792 L 659 791 L 665 791 L 667 790 L 671 784 L 671 778 L 670 776 L 665 772 L 659 772 L 658 771 L 658 767 L 659 766 L 659 761 L 658 760 L 658 751 L 659 750 L 659 746 L 658 745 L 658 732 L 657 731 L 657 687 L 656 686 L 656 677 L 657 676 L 661 676 L 662 674 L 664 674 L 667 670 L 669 665 L 669 649 L 668 648 L 668 613 L 667 612 L 667 578 L 666 577 L 666 542 L 665 541 L 665 503 L 664 502 L 664 475 Z M 577 474 L 587 475 L 588 476 L 588 482 L 589 483 L 589 498 L 588 499 L 588 532 L 587 533 L 587 570 L 586 571 L 586 606 L 585 607 L 585 644 L 584 645 L 584 666 L 585 667 L 585 670 L 586 670 L 589 674 L 595 675 L 596 676 L 596 709 L 595 710 L 595 713 L 596 714 L 596 734 L 595 735 L 595 771 L 594 772 L 588 772 L 587 773 L 585 773 L 583 775 L 583 777 L 582 778 L 582 785 L 586 789 L 588 790 L 592 790 L 595 792 L 595 835 L 594 836 L 594 840 L 595 841 L 595 850 L 594 851 L 595 860 L 593 862 L 591 862 L 586 865 L 583 870 L 583 886 L 585 887 L 586 897 L 587 898 L 587 903 L 588 904 L 588 908 L 589 909 L 589 913 L 590 914 L 590 918 L 591 919 L 591 923 L 592 924 L 592 928 L 593 929 L 593 933 L 594 934 L 594 940 L 595 941 L 595 946 L 596 947 L 596 952 L 597 953 L 597 959 L 598 960 L 598 967 L 599 968 L 599 976 L 600 977 L 600 989 L 601 990 L 601 1036 L 599 1038 L 582 1038 L 578 1036 L 571 1037 L 570 1036 L 564 1036 L 563 1035 L 557 1035 L 556 1034 L 547 1033 L 546 1032 L 539 1031 L 535 1029 L 532 1029 L 531 1028 L 520 1025 L 512 1021 L 510 1021 L 502 1017 L 500 1015 L 493 1012 L 484 1006 L 483 1004 L 481 1004 L 478 1000 L 476 1000 L 470 994 L 470 993 L 460 984 L 450 970 L 443 956 L 443 954 L 441 951 L 441 949 L 439 945 L 439 942 L 438 941 L 437 934 L 436 933 L 435 921 L 434 920 L 434 915 L 435 914 L 435 912 L 434 911 L 434 900 L 435 899 L 435 891 L 436 890 L 437 880 L 438 879 L 438 876 L 439 875 L 443 861 L 445 858 L 446 853 L 449 848 L 449 846 L 453 838 L 453 836 L 455 832 L 455 829 L 456 828 L 456 824 L 457 823 L 458 811 L 457 810 L 456 800 L 457 799 L 478 799 L 479 798 L 482 798 L 483 796 L 489 795 L 495 792 L 496 790 L 498 790 L 500 787 L 502 787 L 508 781 L 509 778 L 512 776 L 512 774 L 514 773 L 515 769 L 520 760 L 522 752 L 524 751 L 525 739 L 527 737 L 526 730 L 528 729 L 528 713 L 526 712 L 527 705 L 525 704 L 525 700 L 524 699 L 523 693 L 521 690 L 521 686 L 519 685 L 519 683 L 507 668 L 505 668 L 504 666 L 502 666 L 496 662 L 490 661 L 488 659 L 483 659 L 482 658 L 482 652 L 484 648 L 484 642 L 486 638 L 486 632 L 484 630 L 484 624 L 483 623 L 483 620 L 482 619 L 482 616 L 481 615 L 481 612 L 480 611 L 480 608 L 478 603 L 477 589 L 475 587 L 475 567 L 476 566 L 476 560 L 477 559 L 479 548 L 480 547 L 481 542 L 483 539 L 483 537 L 489 526 L 491 525 L 491 523 L 493 522 L 493 520 L 496 518 L 496 516 L 500 513 L 510 503 L 511 501 L 519 495 L 521 495 L 522 493 L 525 493 L 527 490 L 537 485 L 541 485 L 541 484 L 544 482 L 550 481 L 561 477 L 565 477 L 566 476 L 576 476 Z M 626 375 L 628 375 L 629 376 L 629 429 L 630 430 L 630 458 L 629 459 L 629 508 L 630 509 L 630 537 L 631 538 L 631 568 L 630 569 L 630 597 L 631 598 L 630 636 L 631 637 L 631 656 L 630 657 L 622 657 L 621 656 L 621 627 L 622 626 L 622 603 L 623 602 L 623 589 L 622 588 L 622 533 L 623 532 L 623 508 L 624 507 L 624 504 L 623 503 L 623 501 L 624 500 L 624 491 L 623 490 L 623 485 L 624 484 L 624 477 L 623 476 L 623 470 L 624 469 L 624 460 L 623 459 L 623 427 L 624 426 L 624 385 L 625 384 L 625 376 Z M 637 359 L 641 359 L 642 360 L 642 368 L 643 369 L 642 378 L 643 379 L 643 393 L 644 394 L 643 420 L 644 421 L 644 435 L 645 436 L 645 440 L 644 441 L 644 454 L 645 455 L 645 474 L 646 475 L 646 481 L 645 482 L 645 504 L 646 505 L 646 515 L 647 516 L 647 525 L 646 526 L 646 547 L 647 548 L 647 563 L 648 564 L 647 577 L 648 578 L 648 606 L 649 607 L 649 613 L 648 614 L 648 618 L 649 619 L 649 648 L 650 649 L 650 655 L 649 656 L 640 656 L 639 655 L 640 644 L 639 643 L 639 597 L 638 596 L 638 491 L 637 490 L 637 396 L 636 395 L 636 360 Z M 625 359 L 628 359 L 629 360 L 629 369 L 628 370 L 626 370 L 624 366 L 624 360 Z M 615 358 L 617 360 L 617 395 L 616 396 L 616 484 L 615 485 L 615 595 L 614 596 L 614 607 L 613 608 L 613 611 L 614 612 L 614 637 L 613 638 L 613 655 L 612 656 L 604 656 L 603 655 L 603 651 L 605 650 L 605 648 L 604 647 L 604 618 L 605 617 L 605 615 L 604 614 L 604 606 L 605 605 L 605 579 L 606 578 L 605 559 L 606 558 L 606 549 L 607 548 L 607 540 L 606 539 L 606 537 L 607 536 L 607 534 L 606 533 L 606 516 L 607 515 L 607 503 L 608 502 L 607 477 L 608 476 L 608 457 L 609 456 L 609 442 L 608 441 L 608 438 L 609 437 L 609 424 L 610 423 L 610 420 L 609 419 L 610 369 L 611 368 L 610 359 L 611 358 Z M 625 193 L 628 193 L 630 195 L 635 195 L 640 200 L 640 201 L 642 202 L 643 207 L 644 208 L 644 217 L 646 220 L 646 222 L 648 222 L 649 224 L 654 225 L 657 229 L 657 236 L 655 239 L 653 239 L 652 241 L 647 241 L 645 242 L 642 245 L 640 249 L 640 263 L 641 264 L 641 279 L 640 280 L 640 287 L 641 288 L 641 305 L 642 306 L 642 313 L 641 314 L 642 339 L 640 341 L 613 341 L 612 340 L 612 336 L 611 335 L 611 324 L 612 323 L 612 320 L 611 319 L 611 313 L 612 312 L 612 263 L 613 262 L 613 253 L 614 252 L 614 250 L 608 242 L 606 241 L 602 241 L 598 238 L 596 234 L 597 227 L 599 225 L 605 222 L 607 222 L 609 219 L 609 207 L 611 206 L 613 199 L 617 196 Z" fill="rgb(47,31,72)" fill-rule="evenodd"/>
  </g>
</svg>
