<?xml version="1.0" encoding="UTF-8"?>
<svg xmlns="http://www.w3.org/2000/svg" width="1254" height="1254" viewBox="0 0 1254 1254" fill="none">
  <path d="M 681 689 L 678 691 L 678 692 L 674 696 L 673 696 L 672 698 L 672 706 L 673 708 L 678 712 L 685 712 L 689 706 L 689 702 L 688 701 L 688 698 L 689 697 L 691 697 L 693 700 L 696 702 L 696 705 L 698 710 L 698 716 L 699 717 L 699 721 L 700 722 L 700 733 L 698 734 L 698 744 L 699 745 L 699 748 L 698 749 L 698 758 L 700 759 L 699 768 L 701 772 L 701 782 L 702 783 L 703 789 L 704 791 L 706 792 L 708 796 L 708 798 L 709 798 L 715 805 L 717 805 L 721 808 L 727 808 L 728 809 L 739 807 L 740 805 L 742 805 L 745 802 L 745 800 L 749 792 L 749 790 L 747 789 L 746 785 L 742 781 L 733 781 L 729 785 L 727 790 L 727 793 L 728 795 L 731 797 L 731 799 L 730 800 L 726 800 L 724 799 L 721 796 L 721 794 L 719 793 L 717 788 L 716 774 L 715 773 L 715 769 L 714 768 L 714 751 L 716 750 L 716 743 L 714 741 L 715 725 L 713 724 L 714 718 L 712 716 L 712 712 L 711 711 L 710 706 L 707 701 L 707 699 L 706 699 L 705 698 L 705 696 L 700 693 L 699 691 L 697 691 L 693 689 L 688 689 L 687 688 Z M 575 691 L 570 690 L 568 688 L 560 688 L 559 690 L 554 691 L 554 692 L 549 695 L 547 697 L 547 699 L 545 700 L 545 702 L 543 705 L 543 707 L 541 711 L 541 714 L 539 715 L 539 720 L 538 721 L 538 724 L 539 725 L 539 732 L 537 736 L 537 751 L 538 752 L 538 757 L 537 758 L 537 769 L 538 770 L 538 775 L 536 777 L 535 790 L 533 794 L 531 795 L 527 800 L 524 800 L 523 799 L 523 797 L 525 794 L 525 792 L 524 791 L 524 786 L 519 781 L 511 781 L 507 784 L 506 787 L 504 788 L 504 790 L 505 791 L 506 800 L 508 801 L 509 803 L 512 805 L 512 806 L 514 806 L 518 808 L 522 808 L 523 809 L 530 808 L 538 805 L 544 799 L 545 795 L 548 790 L 549 785 L 551 784 L 551 782 L 552 781 L 552 776 L 553 775 L 553 765 L 554 764 L 553 753 L 555 752 L 555 748 L 553 747 L 553 736 L 554 735 L 554 719 L 553 718 L 553 716 L 555 712 L 555 709 L 556 708 L 557 703 L 562 698 L 564 698 L 565 699 L 564 706 L 569 713 L 571 713 L 572 712 L 577 711 L 582 705 L 582 700 L 580 699 L 579 696 L 575 692 Z M 619 90 L 618 92 L 612 93 L 601 102 L 601 104 L 597 110 L 596 118 L 586 127 L 583 134 L 582 141 L 583 142 L 584 149 L 586 153 L 591 158 L 591 159 L 595 160 L 597 163 L 597 176 L 596 177 L 581 177 L 573 169 L 571 169 L 570 168 L 560 168 L 556 170 L 550 175 L 550 179 L 549 180 L 549 189 L 550 190 L 550 193 L 551 193 L 557 200 L 561 200 L 562 201 L 568 201 L 569 200 L 571 200 L 575 197 L 577 197 L 581 191 L 594 191 L 596 193 L 596 203 L 595 204 L 596 218 L 595 219 L 592 219 L 591 220 L 583 220 L 582 219 L 580 219 L 575 213 L 571 211 L 569 211 L 568 210 L 561 210 L 552 215 L 552 217 L 550 218 L 550 221 L 549 222 L 549 232 L 551 235 L 551 237 L 554 240 L 556 240 L 557 242 L 560 242 L 561 243 L 572 243 L 573 241 L 575 241 L 578 238 L 578 236 L 580 233 L 595 233 L 596 234 L 596 240 L 595 241 L 595 285 L 594 286 L 594 336 L 593 337 L 593 388 L 592 389 L 592 412 L 591 413 L 584 413 L 583 414 L 577 414 L 576 415 L 571 414 L 569 416 L 564 416 L 563 417 L 555 418 L 551 420 L 548 420 L 547 421 L 542 422 L 536 425 L 533 425 L 531 427 L 521 432 L 517 433 L 516 435 L 505 441 L 503 444 L 501 444 L 498 448 L 492 452 L 486 458 L 486 460 L 482 463 L 482 465 L 479 467 L 479 469 L 477 470 L 477 472 L 475 473 L 475 475 L 473 476 L 472 480 L 467 490 L 465 491 L 465 495 L 461 503 L 460 509 L 458 510 L 458 517 L 457 518 L 457 522 L 456 523 L 456 528 L 454 531 L 455 536 L 453 538 L 453 559 L 454 560 L 454 566 L 456 569 L 456 578 L 458 579 L 458 582 L 461 590 L 461 593 L 463 595 L 463 597 L 465 601 L 465 608 L 467 612 L 467 615 L 465 618 L 465 624 L 463 625 L 463 627 L 461 629 L 461 638 L 463 640 L 465 640 L 466 641 L 472 641 L 473 640 L 477 640 L 478 639 L 485 640 L 490 642 L 491 644 L 498 650 L 499 654 L 502 658 L 502 664 L 503 665 L 503 669 L 504 670 L 505 694 L 503 696 L 502 710 L 501 711 L 501 714 L 500 715 L 498 723 L 496 724 L 496 728 L 491 738 L 489 739 L 489 741 L 486 743 L 483 748 L 481 749 L 478 753 L 476 753 L 475 755 L 471 757 L 469 757 L 468 758 L 463 758 L 462 759 L 460 759 L 459 758 L 453 758 L 446 755 L 443 755 L 439 757 L 437 761 L 435 762 L 435 767 L 437 768 L 437 773 L 439 775 L 438 793 L 436 796 L 435 801 L 432 805 L 432 808 L 430 809 L 430 812 L 427 818 L 427 820 L 425 821 L 424 828 L 422 831 L 422 833 L 420 837 L 420 840 L 418 844 L 418 847 L 416 851 L 415 859 L 414 860 L 414 864 L 413 865 L 413 870 L 412 871 L 412 877 L 411 878 L 410 902 L 409 903 L 409 907 L 410 908 L 410 912 L 411 913 L 411 925 L 413 928 L 414 940 L 416 942 L 416 945 L 419 952 L 419 956 L 421 957 L 421 961 L 423 962 L 424 967 L 426 969 L 429 975 L 429 977 L 430 979 L 432 980 L 432 982 L 436 989 L 440 992 L 440 994 L 441 994 L 447 1001 L 447 1003 L 462 1018 L 464 1018 L 467 1022 L 469 1022 L 471 1025 L 473 1025 L 474 1027 L 477 1028 L 478 1030 L 482 1031 L 483 1033 L 485 1033 L 486 1035 L 490 1036 L 498 1040 L 499 1042 L 501 1042 L 504 1044 L 507 1044 L 515 1048 L 517 1048 L 530 1053 L 533 1053 L 534 1054 L 544 1056 L 545 1057 L 559 1059 L 560 1060 L 566 1060 L 567 1061 L 573 1061 L 574 1062 L 583 1062 L 584 1063 L 597 1063 L 598 1064 L 605 1064 L 606 1065 L 606 1081 L 607 1082 L 607 1085 L 609 1087 L 613 1088 L 614 1090 L 616 1090 L 617 1089 L 619 1089 L 620 1090 L 620 1148 L 617 1151 L 616 1158 L 619 1164 L 621 1164 L 622 1165 L 632 1165 L 632 1164 L 636 1160 L 636 1152 L 634 1150 L 634 1148 L 633 1147 L 633 1138 L 634 1137 L 634 1130 L 633 1129 L 633 1112 L 634 1111 L 633 1090 L 634 1089 L 639 1089 L 642 1087 L 644 1087 L 647 1081 L 647 1066 L 649 1064 L 679 1062 L 680 1061 L 686 1061 L 687 1060 L 693 1060 L 694 1059 L 708 1057 L 709 1056 L 716 1055 L 720 1053 L 723 1053 L 724 1052 L 735 1049 L 741 1046 L 744 1046 L 748 1043 L 750 1043 L 753 1041 L 755 1041 L 759 1039 L 760 1037 L 762 1037 L 764 1035 L 768 1034 L 771 1031 L 773 1031 L 774 1029 L 776 1029 L 777 1027 L 780 1026 L 780 1025 L 785 1021 L 787 1021 L 792 1015 L 795 1014 L 802 1007 L 803 1004 L 809 999 L 809 997 L 812 995 L 812 993 L 815 991 L 817 988 L 817 986 L 822 979 L 827 968 L 829 967 L 829 965 L 830 964 L 831 959 L 833 956 L 833 954 L 836 947 L 836 944 L 838 940 L 838 936 L 840 931 L 840 926 L 842 923 L 842 918 L 843 917 L 843 914 L 842 913 L 842 904 L 843 903 L 843 896 L 842 895 L 842 892 L 843 891 L 843 883 L 841 880 L 840 867 L 839 866 L 838 857 L 837 856 L 835 845 L 833 841 L 833 838 L 832 837 L 831 832 L 829 829 L 825 816 L 822 811 L 822 807 L 821 807 L 819 804 L 819 802 L 817 799 L 817 797 L 815 794 L 815 791 L 814 790 L 814 782 L 813 781 L 813 778 L 817 767 L 817 762 L 816 760 L 812 756 L 810 756 L 809 755 L 807 755 L 803 757 L 797 757 L 794 759 L 790 759 L 787 757 L 785 757 L 781 755 L 778 755 L 775 753 L 772 749 L 765 743 L 765 741 L 763 740 L 761 734 L 759 733 L 753 718 L 752 708 L 750 707 L 750 698 L 749 697 L 749 688 L 747 685 L 747 677 L 749 674 L 749 668 L 750 667 L 750 660 L 751 659 L 751 657 L 753 656 L 757 648 L 765 641 L 767 640 L 771 640 L 772 639 L 776 639 L 777 640 L 780 640 L 781 642 L 783 642 L 784 641 L 787 641 L 790 639 L 793 635 L 793 631 L 788 624 L 788 619 L 787 618 L 787 603 L 789 602 L 789 597 L 794 584 L 795 577 L 797 576 L 797 572 L 798 571 L 798 556 L 800 555 L 800 550 L 799 549 L 799 541 L 798 540 L 798 538 L 799 537 L 799 532 L 798 531 L 797 520 L 795 518 L 794 511 L 793 510 L 789 496 L 787 493 L 786 487 L 783 483 L 782 480 L 780 479 L 779 476 L 777 474 L 777 472 L 775 471 L 775 469 L 773 468 L 773 466 L 770 464 L 770 462 L 767 460 L 753 445 L 751 445 L 749 442 L 747 442 L 745 439 L 743 439 L 742 437 L 740 437 L 739 435 L 735 434 L 733 432 L 728 430 L 722 426 L 719 426 L 716 424 L 714 424 L 711 422 L 709 422 L 705 420 L 702 420 L 701 419 L 698 419 L 697 418 L 694 418 L 689 416 L 677 415 L 676 414 L 670 414 L 669 413 L 661 413 L 660 412 L 659 312 L 658 311 L 658 286 L 659 285 L 659 279 L 658 278 L 658 260 L 657 259 L 657 234 L 658 233 L 671 233 L 674 237 L 683 243 L 692 243 L 700 239 L 700 237 L 702 235 L 704 230 L 704 222 L 702 218 L 696 212 L 691 210 L 684 210 L 683 211 L 680 211 L 677 213 L 672 220 L 658 220 L 656 216 L 656 192 L 657 191 L 671 191 L 674 193 L 674 195 L 675 195 L 679 199 L 684 201 L 690 201 L 696 198 L 698 198 L 698 197 L 703 193 L 704 181 L 701 175 L 701 173 L 692 168 L 682 168 L 677 171 L 672 177 L 657 177 L 656 176 L 655 162 L 660 160 L 661 158 L 663 158 L 666 155 L 666 153 L 669 149 L 669 147 L 670 146 L 670 135 L 669 134 L 669 132 L 666 126 L 662 122 L 657 119 L 656 111 L 653 105 L 651 103 L 651 101 L 647 97 L 645 97 L 644 95 L 642 95 L 634 91 L 624 91 L 623 90 Z M 619 1066 L 621 1064 L 633 1064 L 634 1065 L 634 1075 L 633 1076 L 620 1076 L 619 1075 Z M 602 864 L 609 864 L 610 863 L 637 863 L 638 864 L 646 864 L 647 863 L 651 863 L 652 864 L 652 868 L 650 871 L 650 879 L 649 880 L 649 885 L 648 886 L 648 890 L 647 891 L 647 895 L 646 896 L 646 901 L 645 902 L 644 911 L 642 914 L 642 924 L 641 925 L 640 936 L 638 939 L 638 951 L 636 956 L 636 959 L 637 960 L 637 962 L 636 963 L 636 968 L 635 969 L 636 979 L 635 980 L 635 987 L 634 988 L 634 990 L 635 991 L 635 1000 L 634 1001 L 634 1006 L 635 1007 L 635 1023 L 634 1024 L 635 1046 L 632 1050 L 621 1050 L 617 1047 L 617 1042 L 618 1041 L 618 1038 L 617 1037 L 617 1021 L 618 1020 L 617 988 L 618 987 L 618 978 L 617 977 L 617 972 L 616 971 L 616 969 L 617 968 L 617 962 L 615 957 L 615 943 L 613 940 L 611 917 L 609 915 L 608 904 L 607 903 L 607 899 L 606 898 L 606 894 L 605 893 L 605 884 L 604 883 L 604 879 L 602 877 L 602 872 L 601 871 L 601 865 Z M 640 769 L 649 769 L 651 771 L 651 781 L 650 782 L 650 795 L 651 796 L 651 802 L 650 803 L 650 817 L 651 818 L 651 847 L 650 848 L 641 848 L 640 847 L 640 833 L 641 832 L 641 824 L 640 823 L 640 804 L 639 803 L 639 770 Z M 627 769 L 631 769 L 633 771 L 633 774 L 634 775 L 634 777 L 633 778 L 633 798 L 634 799 L 634 836 L 633 837 L 633 847 L 632 848 L 621 848 L 619 846 L 619 791 L 620 790 L 620 784 L 619 783 L 619 771 L 620 770 L 626 770 Z M 612 769 L 613 770 L 613 789 L 612 790 L 612 797 L 613 798 L 613 821 L 612 822 L 613 846 L 612 847 L 602 848 L 601 847 L 601 835 L 603 834 L 603 829 L 602 828 L 602 815 L 603 814 L 603 793 L 602 792 L 602 781 L 603 780 L 603 770 L 604 769 Z M 606 645 L 613 645 L 614 646 L 614 664 L 613 665 L 613 686 L 614 687 L 614 710 L 613 711 L 614 729 L 613 730 L 613 739 L 614 740 L 614 752 L 613 753 L 603 753 L 602 752 L 602 743 L 603 742 L 603 735 L 604 734 L 604 724 L 603 723 L 603 681 L 604 680 L 604 656 L 605 655 L 605 646 Z M 640 644 L 648 644 L 649 645 L 649 652 L 648 653 L 648 685 L 649 686 L 649 702 L 650 703 L 650 713 L 649 714 L 649 742 L 650 743 L 650 752 L 648 754 L 641 754 L 639 752 L 639 746 L 640 745 L 639 716 L 640 715 L 640 712 L 639 711 L 639 683 L 638 682 L 638 646 Z M 621 644 L 630 644 L 631 645 L 631 650 L 632 651 L 632 655 L 633 656 L 633 690 L 632 691 L 632 700 L 633 701 L 633 718 L 632 719 L 633 744 L 632 745 L 632 748 L 633 749 L 633 752 L 632 753 L 620 753 L 619 752 L 619 747 L 620 746 L 620 666 L 621 665 L 620 645 Z M 669 428 L 671 430 L 677 429 L 678 430 L 683 430 L 684 431 L 687 431 L 688 432 L 703 435 L 704 437 L 711 438 L 720 443 L 722 443 L 725 446 L 727 446 L 729 447 L 730 449 L 732 449 L 739 454 L 741 457 L 743 457 L 745 460 L 757 471 L 757 473 L 761 476 L 761 478 L 763 479 L 767 485 L 768 489 L 770 490 L 778 509 L 778 512 L 780 516 L 780 523 L 782 525 L 783 538 L 784 539 L 784 558 L 782 561 L 782 571 L 781 572 L 779 583 L 778 584 L 777 589 L 775 592 L 774 598 L 772 602 L 772 607 L 771 608 L 772 624 L 771 625 L 762 626 L 757 628 L 755 630 L 753 630 L 752 632 L 750 632 L 748 635 L 745 637 L 744 640 L 742 642 L 737 652 L 737 654 L 735 658 L 735 662 L 733 663 L 733 670 L 732 671 L 733 694 L 734 695 L 733 702 L 734 703 L 734 707 L 736 709 L 738 720 L 741 727 L 741 731 L 743 732 L 744 738 L 747 744 L 750 746 L 754 754 L 755 754 L 759 758 L 759 760 L 761 760 L 765 765 L 767 765 L 768 767 L 770 767 L 771 769 L 773 770 L 776 770 L 777 772 L 779 773 L 782 773 L 783 774 L 788 773 L 791 775 L 795 775 L 796 774 L 798 774 L 799 775 L 799 791 L 800 792 L 800 798 L 802 799 L 805 809 L 809 816 L 809 820 L 811 821 L 814 831 L 816 834 L 816 836 L 820 846 L 820 849 L 822 853 L 822 856 L 823 857 L 823 861 L 824 862 L 824 870 L 826 871 L 827 887 L 828 888 L 828 896 L 827 897 L 828 911 L 827 912 L 827 921 L 826 922 L 824 936 L 823 937 L 818 954 L 815 958 L 815 961 L 813 962 L 813 964 L 809 972 L 805 978 L 803 979 L 803 981 L 801 982 L 801 984 L 798 986 L 797 989 L 790 996 L 790 997 L 772 1013 L 770 1013 L 769 1015 L 767 1015 L 766 1017 L 760 1020 L 758 1022 L 738 1032 L 733 1033 L 730 1035 L 728 1035 L 721 1038 L 718 1038 L 714 1040 L 711 1040 L 710 1041 L 707 1041 L 702 1043 L 692 1044 L 691 1045 L 686 1045 L 685 1046 L 680 1046 L 679 1047 L 650 1049 L 649 1048 L 649 981 L 650 980 L 650 964 L 652 962 L 651 954 L 652 953 L 653 939 L 654 938 L 654 932 L 655 931 L 656 920 L 657 919 L 657 915 L 658 914 L 659 903 L 660 902 L 660 898 L 661 897 L 661 893 L 662 892 L 662 888 L 663 887 L 663 882 L 664 881 L 664 877 L 665 876 L 665 871 L 667 869 L 667 854 L 664 850 L 657 847 L 657 787 L 656 786 L 656 774 L 658 770 L 663 770 L 664 769 L 666 769 L 669 765 L 669 759 L 665 755 L 663 755 L 662 753 L 657 753 L 656 752 L 656 735 L 657 734 L 657 730 L 656 729 L 656 711 L 655 710 L 655 657 L 654 656 L 654 649 L 655 648 L 655 645 L 657 643 L 662 642 L 665 636 L 665 612 L 664 611 L 664 565 L 663 564 L 663 510 L 662 509 L 662 460 L 661 459 L 661 441 L 662 440 L 662 435 L 661 434 L 661 430 L 663 428 Z M 584 428 L 591 428 L 592 429 L 592 438 L 591 439 L 591 482 L 590 483 L 590 529 L 589 530 L 588 638 L 591 642 L 595 643 L 598 646 L 598 653 L 597 654 L 597 660 L 598 661 L 598 694 L 596 696 L 596 709 L 597 710 L 597 753 L 596 754 L 590 754 L 586 756 L 584 759 L 584 765 L 585 767 L 588 769 L 594 770 L 595 771 L 595 783 L 596 784 L 596 847 L 587 851 L 587 853 L 586 854 L 586 866 L 587 867 L 589 884 L 590 885 L 590 889 L 591 890 L 591 894 L 592 895 L 592 899 L 593 900 L 593 904 L 594 905 L 594 910 L 595 911 L 595 916 L 596 917 L 596 922 L 597 923 L 597 928 L 598 929 L 598 934 L 599 935 L 599 941 L 600 942 L 601 958 L 602 959 L 602 972 L 603 973 L 603 1048 L 602 1049 L 574 1047 L 573 1046 L 561 1045 L 560 1044 L 556 1044 L 555 1043 L 551 1043 L 550 1042 L 535 1039 L 534 1038 L 520 1034 L 510 1029 L 508 1029 L 500 1025 L 498 1023 L 491 1020 L 490 1018 L 488 1018 L 487 1016 L 485 1016 L 477 1010 L 458 992 L 449 980 L 448 976 L 445 974 L 445 972 L 443 971 L 434 952 L 434 950 L 430 940 L 430 937 L 429 936 L 429 933 L 427 928 L 427 924 L 426 923 L 426 916 L 425 915 L 425 897 L 426 896 L 425 884 L 426 883 L 427 870 L 429 868 L 429 860 L 430 859 L 431 852 L 433 848 L 433 845 L 434 844 L 437 833 L 439 830 L 442 820 L 444 819 L 444 815 L 448 808 L 448 806 L 450 803 L 450 801 L 453 794 L 455 776 L 456 775 L 460 775 L 465 773 L 470 773 L 474 771 L 478 771 L 479 769 L 485 767 L 487 764 L 489 764 L 497 756 L 497 754 L 500 752 L 500 750 L 502 749 L 502 747 L 504 746 L 504 744 L 507 738 L 509 737 L 510 735 L 510 731 L 512 730 L 512 726 L 515 719 L 515 716 L 517 715 L 517 707 L 518 706 L 518 702 L 520 700 L 520 693 L 521 692 L 521 672 L 520 671 L 520 665 L 518 663 L 518 660 L 516 655 L 516 651 L 514 650 L 513 645 L 511 644 L 510 641 L 501 631 L 499 631 L 493 627 L 487 626 L 485 624 L 482 624 L 481 623 L 481 604 L 480 603 L 480 600 L 479 599 L 479 597 L 474 584 L 474 581 L 472 577 L 472 574 L 471 573 L 471 565 L 469 561 L 469 535 L 470 534 L 470 528 L 472 527 L 472 519 L 473 518 L 474 511 L 479 500 L 479 498 L 480 496 L 482 495 L 482 492 L 487 483 L 489 482 L 489 480 L 491 479 L 491 477 L 494 475 L 494 473 L 499 469 L 499 467 L 505 461 L 509 459 L 512 455 L 514 455 L 516 452 L 518 452 L 518 451 L 522 448 L 539 439 L 541 439 L 547 436 L 549 436 L 553 434 L 556 434 L 560 432 L 564 432 L 565 431 L 569 431 L 570 430 L 575 430 L 576 429 L 583 429 Z M 636 246 L 642 246 L 643 247 L 643 250 L 642 251 L 642 277 L 643 278 L 643 299 L 644 300 L 643 331 L 644 332 L 644 350 L 645 351 L 644 386 L 645 387 L 645 396 L 646 397 L 646 408 L 645 409 L 645 434 L 646 435 L 646 451 L 647 452 L 646 492 L 647 493 L 647 508 L 648 509 L 648 522 L 647 523 L 647 530 L 648 531 L 648 558 L 649 559 L 649 565 L 648 566 L 648 581 L 649 582 L 649 601 L 650 602 L 650 612 L 649 613 L 650 627 L 648 629 L 643 629 L 639 627 L 639 615 L 638 614 L 638 568 L 637 567 L 637 525 L 638 524 L 637 512 L 638 511 L 638 508 L 637 507 L 637 469 L 636 468 L 636 466 L 637 465 L 637 463 L 636 462 L 636 409 L 637 408 L 637 402 L 636 401 L 636 367 L 635 366 L 635 247 Z M 628 246 L 629 247 L 629 345 L 630 346 L 630 369 L 629 370 L 629 432 L 630 433 L 630 450 L 631 451 L 631 483 L 630 484 L 630 505 L 631 506 L 630 520 L 631 521 L 631 534 L 630 535 L 630 539 L 631 540 L 631 553 L 632 554 L 632 575 L 631 576 L 631 609 L 632 610 L 632 622 L 631 623 L 631 627 L 630 628 L 625 628 L 624 629 L 622 629 L 620 627 L 620 604 L 621 603 L 621 577 L 622 576 L 621 515 L 622 514 L 622 498 L 623 497 L 623 463 L 622 462 L 622 422 L 623 421 L 623 390 L 624 389 L 624 367 L 623 366 L 623 361 L 624 360 L 624 349 L 623 348 L 623 296 L 624 295 L 624 268 L 625 267 L 624 252 L 625 251 L 625 247 L 626 246 Z M 616 246 L 617 247 L 617 253 L 618 254 L 618 269 L 617 270 L 617 281 L 618 282 L 618 325 L 617 326 L 617 420 L 616 421 L 616 437 L 615 438 L 615 440 L 616 441 L 616 460 L 615 461 L 615 482 L 616 483 L 616 518 L 615 519 L 615 546 L 614 547 L 614 555 L 615 556 L 615 568 L 614 569 L 614 585 L 615 586 L 615 624 L 613 629 L 608 629 L 604 627 L 604 619 L 603 618 L 603 606 L 604 605 L 603 580 L 605 575 L 605 567 L 604 566 L 604 538 L 605 537 L 605 528 L 606 527 L 606 500 L 605 499 L 605 484 L 606 483 L 606 466 L 607 465 L 606 436 L 607 435 L 607 416 L 608 415 L 607 386 L 608 385 L 608 366 L 609 365 L 609 348 L 608 347 L 609 304 L 610 303 L 610 298 L 609 297 L 609 280 L 610 279 L 610 254 L 611 253 L 610 247 L 611 246 Z M 620 107 L 630 107 L 635 109 L 642 116 L 642 119 L 643 120 L 643 128 L 647 132 L 652 133 L 654 136 L 654 139 L 655 140 L 654 145 L 652 147 L 646 148 L 642 150 L 642 152 L 640 155 L 640 163 L 641 164 L 641 168 L 640 169 L 640 179 L 641 180 L 641 197 L 642 198 L 642 219 L 641 220 L 641 231 L 640 232 L 612 231 L 610 226 L 610 220 L 611 219 L 611 208 L 612 207 L 612 193 L 611 192 L 612 154 L 609 149 L 607 148 L 603 148 L 600 146 L 598 142 L 598 138 L 602 133 L 608 130 L 609 127 L 611 125 L 611 118 L 612 117 L 613 112 L 615 111 L 616 109 L 618 109 Z" fill="rgb(43,25,72)" fill-rule="evenodd"/>
</svg>
