<?xml version="1.0" encoding="UTF-8"?>
<svg xmlns="http://www.w3.org/2000/svg" width="1254" height="1254" viewBox="0 0 1254 1254" fill="none">
  <g transform="rotate(40 627 627)">
    <path d="M 673 720 L 673 721 L 669 724 L 669 726 L 667 730 L 669 738 L 673 741 L 679 741 L 680 739 L 682 738 L 683 736 L 683 727 L 684 726 L 687 726 L 690 729 L 692 733 L 692 739 L 693 740 L 692 747 L 693 748 L 693 756 L 694 757 L 694 762 L 693 763 L 693 787 L 695 790 L 694 797 L 695 798 L 695 803 L 697 804 L 697 808 L 699 812 L 699 816 L 701 817 L 703 821 L 703 823 L 704 823 L 706 826 L 710 829 L 710 830 L 712 830 L 713 832 L 715 833 L 719 833 L 720 834 L 729 834 L 734 832 L 738 829 L 740 826 L 741 826 L 741 823 L 742 822 L 742 816 L 743 815 L 743 813 L 742 813 L 738 808 L 736 807 L 729 807 L 724 810 L 722 819 L 723 821 L 726 823 L 726 825 L 725 826 L 721 826 L 719 825 L 718 823 L 715 821 L 712 815 L 711 804 L 709 801 L 709 797 L 710 796 L 710 779 L 709 778 L 709 766 L 708 765 L 708 762 L 709 761 L 709 754 L 707 750 L 706 740 L 703 734 L 702 729 L 701 729 L 700 728 L 700 726 L 694 722 L 693 720 L 691 719 L 687 719 L 686 717 L 680 717 L 679 719 Z M 573 717 L 567 717 L 566 718 L 561 719 L 551 729 L 550 733 L 548 734 L 548 738 L 547 739 L 546 748 L 545 749 L 545 756 L 544 757 L 544 761 L 543 762 L 543 771 L 544 772 L 544 794 L 542 795 L 542 797 L 543 798 L 543 804 L 541 807 L 540 816 L 538 820 L 536 821 L 536 823 L 532 826 L 527 826 L 526 825 L 526 823 L 529 821 L 530 815 L 528 810 L 524 807 L 516 807 L 512 811 L 511 811 L 511 814 L 509 815 L 509 819 L 512 825 L 514 827 L 514 829 L 515 830 L 517 830 L 518 832 L 520 833 L 523 833 L 524 834 L 533 834 L 539 831 L 541 831 L 548 825 L 549 822 L 551 821 L 553 817 L 553 814 L 554 813 L 555 808 L 557 806 L 557 803 L 558 802 L 558 795 L 559 794 L 559 792 L 558 791 L 558 786 L 560 782 L 560 771 L 559 770 L 559 763 L 558 762 L 558 752 L 559 751 L 559 745 L 560 744 L 560 740 L 561 739 L 561 733 L 562 731 L 564 730 L 564 728 L 565 727 L 567 727 L 568 725 L 570 725 L 571 726 L 571 728 L 569 731 L 569 734 L 574 741 L 580 741 L 582 740 L 585 736 L 585 731 L 586 730 L 585 726 L 580 721 L 576 719 L 574 719 Z M 622 64 L 618 66 L 615 66 L 614 68 L 612 68 L 612 69 L 606 75 L 603 82 L 603 88 L 602 89 L 599 89 L 598 91 L 592 96 L 589 103 L 589 113 L 592 119 L 592 121 L 594 122 L 597 126 L 599 126 L 606 130 L 606 135 L 605 136 L 605 152 L 604 153 L 590 153 L 589 152 L 589 150 L 583 145 L 581 145 L 580 144 L 574 144 L 569 146 L 565 150 L 562 158 L 564 167 L 565 167 L 568 171 L 572 172 L 573 174 L 579 174 L 587 170 L 587 169 L 591 165 L 594 165 L 595 167 L 604 167 L 605 168 L 605 176 L 604 177 L 604 191 L 603 192 L 591 192 L 589 189 L 584 185 L 582 185 L 581 184 L 572 184 L 565 188 L 565 190 L 562 196 L 562 200 L 565 206 L 565 208 L 566 209 L 568 209 L 572 212 L 575 212 L 576 213 L 584 211 L 588 208 L 591 204 L 603 204 L 604 205 L 604 214 L 603 215 L 604 224 L 603 225 L 602 301 L 601 302 L 601 334 L 600 335 L 600 366 L 599 367 L 599 402 L 598 403 L 598 407 L 596 411 L 595 417 L 593 418 L 593 421 L 583 437 L 579 440 L 578 443 L 564 457 L 563 457 L 563 458 L 561 459 L 552 469 L 547 472 L 543 477 L 541 477 L 535 484 L 532 485 L 525 493 L 522 494 L 508 508 L 508 510 L 504 513 L 503 516 L 500 518 L 500 520 L 498 521 L 498 523 L 496 524 L 496 526 L 494 527 L 493 531 L 490 533 L 488 537 L 488 540 L 484 548 L 484 550 L 480 560 L 479 567 L 477 569 L 477 572 L 476 573 L 476 580 L 475 581 L 476 589 L 474 590 L 474 595 L 475 596 L 475 607 L 476 608 L 475 618 L 477 623 L 477 637 L 475 640 L 475 648 L 474 649 L 474 651 L 475 653 L 478 655 L 478 656 L 480 656 L 481 657 L 492 656 L 499 659 L 500 661 L 505 665 L 505 667 L 506 667 L 508 670 L 508 673 L 510 675 L 511 681 L 512 682 L 512 699 L 513 700 L 513 712 L 511 715 L 511 717 L 512 718 L 512 720 L 511 721 L 511 726 L 509 727 L 509 735 L 508 736 L 507 742 L 505 743 L 504 751 L 500 757 L 497 763 L 497 765 L 494 767 L 494 769 L 489 774 L 487 774 L 486 776 L 481 778 L 474 778 L 473 777 L 467 777 L 460 773 L 454 773 L 453 774 L 451 774 L 451 775 L 449 776 L 448 780 L 446 781 L 447 794 L 446 795 L 445 802 L 444 803 L 444 810 L 443 811 L 443 814 L 442 815 L 439 826 L 437 829 L 437 831 L 430 850 L 430 853 L 429 854 L 429 857 L 427 861 L 427 865 L 425 870 L 424 879 L 423 880 L 423 886 L 421 888 L 422 894 L 420 898 L 420 903 L 421 904 L 421 921 L 420 922 L 420 925 L 422 927 L 421 932 L 423 936 L 425 954 L 427 955 L 427 958 L 428 959 L 430 967 L 432 970 L 432 973 L 434 975 L 441 991 L 443 992 L 443 994 L 445 995 L 445 997 L 447 998 L 447 1000 L 450 1002 L 450 1004 L 454 1007 L 454 1009 L 458 1012 L 468 1023 L 470 1023 L 473 1027 L 476 1028 L 477 1030 L 479 1030 L 481 1033 L 484 1035 L 486 1035 L 489 1038 L 491 1038 L 497 1041 L 498 1043 L 503 1044 L 509 1048 L 515 1049 L 523 1053 L 526 1053 L 530 1055 L 533 1055 L 534 1056 L 544 1058 L 545 1059 L 555 1060 L 557 1062 L 568 1062 L 569 1063 L 575 1063 L 576 1064 L 607 1066 L 609 1068 L 609 1079 L 611 1083 L 616 1084 L 617 1085 L 620 1085 L 621 1086 L 621 1165 L 615 1172 L 615 1174 L 613 1176 L 613 1180 L 617 1188 L 619 1188 L 620 1190 L 628 1191 L 629 1190 L 634 1189 L 637 1185 L 639 1180 L 638 1173 L 632 1165 L 632 1087 L 634 1085 L 641 1084 L 644 1079 L 644 1068 L 646 1066 L 653 1066 L 654 1065 L 667 1065 L 668 1064 L 676 1064 L 677 1063 L 684 1063 L 685 1062 L 697 1061 L 698 1060 L 702 1060 L 703 1059 L 707 1059 L 708 1058 L 716 1057 L 726 1053 L 729 1053 L 730 1052 L 735 1051 L 745 1046 L 748 1046 L 750 1044 L 756 1041 L 760 1040 L 761 1038 L 765 1037 L 774 1030 L 776 1030 L 779 1026 L 781 1026 L 785 1021 L 790 1018 L 796 1012 L 797 1009 L 802 1005 L 802 1003 L 804 1002 L 805 999 L 807 998 L 807 996 L 809 995 L 809 993 L 811 992 L 812 988 L 814 987 L 819 977 L 819 974 L 823 966 L 824 961 L 826 960 L 826 954 L 827 953 L 827 950 L 829 945 L 830 934 L 832 930 L 832 901 L 831 900 L 832 892 L 830 890 L 829 877 L 828 876 L 828 872 L 827 871 L 827 867 L 826 866 L 824 855 L 822 851 L 822 846 L 820 844 L 820 842 L 815 829 L 815 825 L 813 824 L 813 822 L 810 815 L 809 805 L 808 804 L 808 800 L 807 799 L 807 795 L 806 794 L 806 785 L 805 784 L 805 780 L 803 776 L 798 773 L 793 773 L 792 774 L 789 774 L 788 776 L 783 778 L 772 778 L 767 776 L 766 774 L 764 774 L 758 768 L 758 766 L 756 765 L 756 763 L 754 762 L 750 754 L 750 752 L 747 747 L 745 737 L 744 736 L 744 729 L 743 728 L 742 719 L 740 716 L 741 709 L 739 705 L 739 693 L 741 692 L 741 680 L 742 679 L 742 676 L 744 675 L 744 671 L 746 667 L 749 665 L 749 663 L 755 658 L 760 656 L 767 656 L 768 657 L 771 657 L 777 653 L 778 651 L 778 645 L 776 642 L 776 640 L 777 639 L 777 619 L 776 618 L 776 616 L 778 612 L 778 598 L 777 597 L 777 595 L 778 594 L 778 584 L 777 583 L 776 571 L 774 569 L 774 566 L 772 561 L 772 555 L 770 554 L 769 549 L 767 546 L 766 540 L 765 538 L 763 537 L 763 534 L 761 531 L 759 530 L 758 527 L 756 525 L 756 523 L 754 522 L 753 518 L 748 514 L 748 512 L 747 512 L 739 504 L 739 502 L 736 499 L 734 499 L 724 488 L 722 488 L 717 482 L 713 480 L 708 474 L 706 474 L 696 463 L 694 463 L 680 449 L 680 448 L 672 440 L 672 438 L 669 436 L 669 434 L 666 432 L 665 429 L 661 424 L 658 418 L 658 416 L 655 409 L 655 406 L 654 405 L 654 392 L 653 391 L 653 357 L 652 356 L 652 322 L 651 321 L 651 284 L 650 283 L 650 244 L 649 243 L 649 203 L 650 202 L 661 202 L 664 204 L 664 206 L 667 209 L 669 209 L 673 211 L 678 211 L 679 210 L 684 209 L 684 208 L 688 204 L 690 200 L 690 192 L 688 188 L 684 184 L 676 181 L 674 181 L 667 184 L 662 190 L 649 190 L 648 189 L 648 183 L 649 182 L 648 165 L 649 164 L 662 164 L 667 170 L 671 172 L 673 172 L 674 171 L 680 171 L 688 166 L 688 164 L 690 160 L 690 153 L 688 149 L 683 144 L 678 142 L 673 142 L 668 144 L 664 148 L 664 149 L 661 151 L 648 150 L 647 149 L 648 129 L 649 128 L 654 127 L 654 126 L 658 124 L 658 122 L 661 120 L 661 118 L 663 115 L 663 111 L 664 110 L 663 102 L 661 97 L 657 93 L 657 92 L 656 91 L 654 91 L 653 89 L 650 87 L 649 80 L 647 76 L 638 66 L 636 65 L 631 65 L 630 64 Z M 623 1176 L 624 1175 L 627 1175 L 629 1177 L 629 1179 L 627 1181 L 624 1181 L 623 1180 Z M 619 1067 L 620 1066 L 633 1066 L 634 1067 L 634 1072 L 633 1073 L 620 1073 L 619 1072 Z M 600 879 L 652 879 L 653 880 L 653 885 L 652 886 L 652 891 L 651 892 L 651 896 L 650 897 L 648 911 L 646 913 L 646 917 L 645 918 L 644 932 L 642 934 L 640 957 L 638 960 L 638 967 L 637 968 L 638 975 L 637 976 L 637 990 L 636 991 L 636 997 L 635 998 L 635 1020 L 636 1021 L 636 1023 L 635 1024 L 635 1040 L 636 1041 L 636 1051 L 632 1054 L 620 1054 L 616 1051 L 616 1003 L 617 1002 L 617 991 L 616 990 L 616 984 L 615 983 L 616 976 L 614 971 L 615 966 L 613 962 L 613 951 L 611 948 L 611 943 L 610 942 L 609 926 L 608 925 L 608 921 L 606 919 L 606 915 L 605 914 L 605 910 L 604 909 L 603 895 L 601 894 L 601 890 L 600 889 L 600 885 L 599 884 L 599 880 Z M 639 786 L 649 786 L 650 787 L 650 803 L 649 804 L 649 807 L 650 808 L 650 830 L 649 831 L 650 858 L 649 859 L 649 865 L 648 866 L 639 866 L 638 865 L 638 787 Z M 603 786 L 614 786 L 615 787 L 615 806 L 614 807 L 614 809 L 615 810 L 615 865 L 614 866 L 604 866 L 603 865 L 603 799 L 602 798 L 602 787 Z M 622 785 L 631 785 L 632 786 L 632 802 L 633 803 L 633 815 L 632 816 L 632 825 L 633 826 L 633 842 L 632 843 L 632 847 L 633 848 L 633 865 L 631 867 L 622 866 L 621 865 L 621 856 L 620 855 L 620 787 Z M 622 686 L 632 686 L 633 687 L 633 738 L 632 739 L 632 742 L 633 743 L 632 768 L 633 769 L 633 771 L 632 772 L 622 772 L 621 771 L 621 765 L 620 764 L 620 752 L 621 751 L 621 744 L 620 743 L 620 690 Z M 639 685 L 647 685 L 648 686 L 648 693 L 649 694 L 649 702 L 648 703 L 648 711 L 649 712 L 649 741 L 650 742 L 650 751 L 649 752 L 650 770 L 649 771 L 639 771 L 638 770 L 638 763 L 639 762 L 639 758 L 638 757 L 638 719 L 639 718 L 638 686 Z M 606 685 L 613 685 L 615 687 L 615 699 L 614 700 L 614 725 L 615 726 L 615 770 L 614 771 L 604 771 L 603 770 L 603 762 L 604 761 L 604 752 L 603 751 L 603 739 L 604 738 L 604 735 L 603 734 L 603 723 L 604 722 L 604 687 Z M 659 445 L 683 471 L 690 476 L 697 484 L 701 486 L 707 493 L 709 493 L 719 504 L 721 504 L 725 508 L 725 509 L 726 509 L 734 517 L 734 519 L 739 523 L 739 525 L 742 527 L 742 529 L 745 531 L 745 534 L 748 536 L 748 538 L 756 552 L 756 554 L 757 555 L 757 560 L 759 561 L 759 564 L 761 568 L 761 572 L 762 573 L 762 577 L 763 578 L 763 586 L 764 587 L 764 598 L 763 599 L 764 611 L 763 612 L 763 617 L 762 618 L 762 623 L 763 624 L 763 643 L 762 644 L 757 644 L 756 645 L 751 646 L 747 649 L 745 649 L 742 653 L 740 653 L 740 655 L 737 657 L 731 669 L 730 674 L 728 675 L 728 678 L 727 679 L 727 694 L 726 695 L 726 705 L 727 706 L 726 717 L 728 718 L 728 729 L 730 731 L 733 749 L 735 752 L 735 754 L 737 755 L 737 757 L 741 764 L 741 767 L 742 769 L 745 771 L 748 777 L 755 784 L 757 784 L 760 786 L 761 788 L 766 789 L 767 791 L 769 791 L 770 792 L 779 792 L 780 791 L 787 791 L 788 790 L 791 790 L 792 791 L 792 794 L 794 798 L 794 804 L 795 805 L 795 813 L 797 814 L 798 820 L 799 821 L 800 826 L 802 829 L 802 831 L 803 832 L 803 834 L 811 856 L 811 859 L 812 860 L 812 863 L 814 868 L 814 872 L 815 873 L 815 877 L 816 878 L 816 882 L 817 883 L 817 889 L 818 890 L 818 897 L 819 898 L 819 903 L 818 904 L 819 924 L 818 925 L 818 934 L 817 935 L 815 949 L 814 950 L 810 964 L 807 969 L 807 971 L 803 979 L 789 999 L 786 1001 L 774 1014 L 771 1015 L 769 1018 L 757 1026 L 740 1035 L 738 1035 L 730 1039 L 728 1039 L 724 1041 L 721 1041 L 714 1044 L 711 1044 L 706 1046 L 702 1046 L 701 1047 L 697 1047 L 696 1048 L 685 1049 L 684 1050 L 673 1050 L 669 1052 L 657 1052 L 656 1053 L 652 1053 L 649 1051 L 649 1045 L 648 1044 L 648 987 L 649 986 L 649 975 L 650 974 L 650 965 L 651 964 L 651 957 L 652 956 L 652 950 L 653 949 L 655 932 L 656 931 L 656 927 L 657 926 L 657 922 L 658 921 L 659 911 L 661 906 L 661 902 L 662 901 L 664 887 L 666 886 L 666 878 L 667 877 L 667 873 L 665 870 L 665 868 L 663 868 L 662 867 L 657 867 L 656 866 L 656 854 L 655 853 L 655 817 L 656 816 L 656 801 L 655 800 L 655 794 L 656 793 L 656 787 L 657 786 L 664 786 L 668 781 L 668 776 L 666 773 L 664 772 L 657 772 L 655 770 L 655 756 L 656 755 L 656 748 L 655 747 L 655 735 L 654 734 L 654 697 L 653 696 L 653 686 L 654 685 L 659 684 L 662 679 L 662 677 L 661 676 L 661 646 L 660 645 L 660 613 L 659 612 L 658 538 L 657 537 L 657 505 L 656 504 L 656 463 L 655 462 L 656 446 L 657 445 Z M 594 443 L 596 443 L 597 444 L 597 446 L 596 447 L 596 456 L 597 457 L 597 479 L 596 480 L 596 515 L 595 516 L 595 551 L 594 552 L 594 587 L 593 588 L 593 620 L 592 621 L 591 681 L 598 687 L 598 699 L 599 700 L 599 732 L 597 733 L 597 737 L 598 738 L 598 752 L 597 753 L 598 770 L 596 772 L 587 772 L 585 774 L 585 782 L 589 785 L 596 785 L 597 786 L 597 790 L 598 791 L 598 812 L 597 813 L 597 827 L 598 828 L 598 858 L 597 859 L 597 866 L 596 867 L 591 867 L 587 870 L 586 872 L 586 879 L 587 880 L 587 884 L 588 885 L 588 889 L 589 890 L 591 904 L 592 905 L 593 913 L 594 914 L 594 919 L 595 920 L 596 930 L 598 935 L 598 940 L 599 941 L 599 946 L 600 947 L 600 953 L 601 954 L 601 960 L 602 961 L 602 968 L 603 969 L 603 980 L 604 981 L 604 1002 L 605 1003 L 605 1052 L 604 1053 L 584 1052 L 582 1050 L 568 1050 L 567 1049 L 562 1049 L 561 1048 L 557 1048 L 556 1047 L 551 1047 L 550 1046 L 535 1043 L 534 1042 L 520 1038 L 517 1036 L 515 1036 L 505 1031 L 503 1029 L 501 1029 L 488 1021 L 487 1019 L 485 1019 L 483 1016 L 481 1016 L 475 1010 L 474 1010 L 466 1002 L 466 1000 L 461 996 L 461 994 L 458 992 L 458 990 L 456 989 L 446 972 L 446 970 L 443 965 L 443 963 L 439 953 L 439 950 L 437 946 L 437 938 L 435 936 L 434 920 L 433 919 L 433 905 L 434 904 L 434 893 L 435 892 L 436 880 L 437 879 L 438 870 L 439 869 L 440 862 L 442 858 L 442 855 L 443 854 L 451 828 L 453 825 L 455 816 L 457 815 L 457 812 L 458 811 L 458 802 L 459 801 L 459 789 L 460 788 L 462 788 L 463 790 L 468 791 L 469 792 L 483 792 L 484 790 L 486 790 L 493 786 L 495 786 L 497 783 L 499 783 L 504 778 L 504 776 L 507 774 L 507 772 L 509 771 L 509 769 L 514 759 L 516 758 L 516 754 L 519 748 L 521 738 L 523 736 L 523 733 L 524 732 L 524 722 L 526 720 L 525 712 L 527 711 L 527 692 L 526 691 L 526 682 L 525 681 L 524 674 L 522 673 L 521 668 L 517 660 L 515 658 L 515 656 L 509 650 L 507 650 L 505 648 L 499 645 L 496 645 L 494 643 L 491 643 L 489 640 L 489 637 L 490 636 L 490 629 L 491 628 L 491 623 L 489 621 L 490 606 L 488 603 L 488 596 L 490 593 L 490 585 L 489 584 L 489 582 L 490 581 L 490 575 L 492 574 L 492 566 L 493 565 L 497 551 L 499 550 L 504 537 L 507 534 L 507 532 L 509 531 L 509 529 L 512 527 L 512 525 L 515 523 L 515 521 L 519 518 L 536 501 L 538 498 L 540 498 L 547 490 L 549 490 L 556 482 L 558 482 L 566 473 L 569 472 L 576 465 L 576 464 L 582 459 L 584 455 L 591 449 Z M 617 289 L 618 290 L 618 295 L 619 296 L 619 315 L 618 316 L 618 318 L 619 319 L 619 355 L 618 356 L 618 379 L 617 380 L 617 398 L 618 399 L 618 412 L 617 413 L 617 419 L 618 420 L 618 438 L 617 439 L 617 443 L 618 444 L 618 446 L 617 447 L 617 532 L 616 533 L 616 555 L 615 556 L 615 561 L 616 562 L 616 564 L 615 565 L 615 567 L 616 568 L 616 572 L 615 573 L 615 576 L 616 577 L 616 641 L 615 642 L 614 670 L 613 671 L 604 671 L 603 670 L 603 654 L 604 653 L 604 644 L 605 643 L 604 617 L 605 616 L 605 603 L 606 602 L 605 580 L 606 579 L 606 575 L 607 574 L 606 547 L 607 546 L 607 540 L 608 539 L 608 517 L 607 516 L 607 510 L 608 509 L 608 497 L 609 496 L 609 479 L 608 478 L 608 472 L 609 471 L 609 467 L 610 466 L 610 461 L 609 460 L 609 444 L 610 443 L 610 439 L 609 438 L 609 430 L 610 429 L 610 414 L 611 413 L 611 397 L 610 396 L 610 389 L 611 388 L 611 377 L 612 376 L 611 353 L 612 352 L 612 343 L 613 342 L 612 321 L 613 320 L 613 292 L 615 289 Z M 626 278 L 628 278 L 629 279 L 629 384 L 630 385 L 630 403 L 629 404 L 630 451 L 629 452 L 629 455 L 630 456 L 630 478 L 631 479 L 631 496 L 630 497 L 630 548 L 631 549 L 631 573 L 632 574 L 632 612 L 631 613 L 631 631 L 632 632 L 631 648 L 632 649 L 632 664 L 633 665 L 633 671 L 632 672 L 622 672 L 620 670 L 620 663 L 621 662 L 621 653 L 620 652 L 620 623 L 621 622 L 621 608 L 622 607 L 622 588 L 621 587 L 621 585 L 622 584 L 622 580 L 621 579 L 621 577 L 622 576 L 622 563 L 621 562 L 621 560 L 622 559 L 622 557 L 621 556 L 621 540 L 622 539 L 622 535 L 621 534 L 621 531 L 622 530 L 622 513 L 623 512 L 622 445 L 623 444 L 623 429 L 624 428 L 624 420 L 623 419 L 623 398 L 624 397 L 624 384 L 623 383 L 623 345 L 624 344 L 624 323 L 625 322 L 625 279 Z M 625 253 L 627 253 L 628 254 L 628 261 L 627 262 L 625 262 L 624 261 L 624 254 Z M 625 233 L 627 233 L 628 234 L 628 242 L 627 243 L 625 243 L 624 242 L 624 234 Z M 635 230 L 637 230 L 638 231 L 638 254 L 637 255 L 637 257 L 638 258 L 638 273 L 639 274 L 639 309 L 640 310 L 640 319 L 639 320 L 639 322 L 640 323 L 640 341 L 641 342 L 641 350 L 640 351 L 640 356 L 641 357 L 641 378 L 642 379 L 642 384 L 641 385 L 641 404 L 642 405 L 642 414 L 643 415 L 642 439 L 643 440 L 643 454 L 644 455 L 643 476 L 644 477 L 644 493 L 645 494 L 645 497 L 644 498 L 644 520 L 645 521 L 645 526 L 646 527 L 646 535 L 645 536 L 645 560 L 646 561 L 646 568 L 647 569 L 647 574 L 646 575 L 646 586 L 647 587 L 647 600 L 648 601 L 647 619 L 648 620 L 648 637 L 649 638 L 649 648 L 648 649 L 648 653 L 649 654 L 649 670 L 648 671 L 638 671 L 637 670 L 637 664 L 638 663 L 638 659 L 637 658 L 637 622 L 638 621 L 637 616 L 638 615 L 638 612 L 637 611 L 637 609 L 638 608 L 638 606 L 637 605 L 637 564 L 636 563 L 636 524 L 637 523 L 637 519 L 636 518 L 636 482 L 635 481 L 635 440 L 636 439 L 636 437 L 635 436 L 635 391 L 634 390 L 634 296 L 633 295 L 633 245 L 634 244 L 634 231 Z M 633 225 L 634 224 L 636 224 L 637 225 L 637 227 L 636 228 L 634 228 L 633 227 Z M 616 224 L 619 224 L 620 225 L 620 247 L 619 248 L 619 284 L 618 285 L 616 285 L 615 284 L 615 265 L 614 264 L 614 253 L 615 252 L 615 247 L 616 246 L 616 234 L 615 233 L 615 225 Z M 621 78 L 629 78 L 630 79 L 633 79 L 634 81 L 636 82 L 636 85 L 638 87 L 638 97 L 642 100 L 647 101 L 648 102 L 648 104 L 650 105 L 650 111 L 648 115 L 645 117 L 640 117 L 638 118 L 635 122 L 635 138 L 634 139 L 635 163 L 636 164 L 636 171 L 635 172 L 635 177 L 636 178 L 635 192 L 636 193 L 636 200 L 637 201 L 637 210 L 635 212 L 631 212 L 630 211 L 617 211 L 616 210 L 616 195 L 617 194 L 616 179 L 617 178 L 617 166 L 618 165 L 618 153 L 617 152 L 618 124 L 617 123 L 617 121 L 613 117 L 608 117 L 607 115 L 603 112 L 603 110 L 601 109 L 602 104 L 604 103 L 605 101 L 610 100 L 613 98 L 615 94 L 615 85 Z" fill="rgb(48,31,77)" fill-rule="evenodd"/>
  </g>
</svg>
