<?xml version="1.0" encoding="UTF-8"?>
<svg xmlns="http://www.w3.org/2000/svg" width="1254" height="1254" viewBox="0 0 1254 1254" fill="none">
  <g transform="rotate(40 627 627)">
    <path d="M 623 839 L 617 843 L 615 843 L 615 845 L 613 847 L 612 852 L 611 853 L 612 859 L 614 863 L 619 868 L 621 868 L 622 869 L 631 869 L 632 868 L 634 868 L 639 863 L 640 863 L 640 861 L 642 857 L 642 851 L 639 846 L 639 844 L 637 842 L 635 842 L 633 840 L 631 840 L 630 839 Z M 624 853 L 625 852 L 628 852 L 629 853 L 629 855 L 628 856 L 625 856 L 624 855 Z M 618 779 L 618 780 L 616 781 L 613 785 L 612 790 L 611 791 L 611 795 L 615 804 L 616 805 L 618 805 L 619 807 L 622 807 L 623 808 L 630 808 L 631 807 L 634 807 L 635 805 L 637 805 L 639 803 L 639 801 L 641 799 L 642 790 L 640 785 L 638 782 L 635 780 L 635 779 L 633 779 L 629 777 L 624 777 L 623 778 Z M 624 792 L 625 791 L 628 791 L 629 792 L 629 794 L 628 795 L 625 795 L 624 794 Z M 622 715 L 621 717 L 617 718 L 612 726 L 611 733 L 614 740 L 617 744 L 619 744 L 620 746 L 622 747 L 631 747 L 632 745 L 636 744 L 636 743 L 640 740 L 641 734 L 643 733 L 643 729 L 641 728 L 641 725 L 636 718 L 634 718 L 633 716 L 631 715 L 629 715 L 628 716 Z M 623 730 L 624 729 L 629 729 L 630 730 L 630 732 L 629 733 L 624 733 L 623 732 Z M 620 655 L 615 659 L 612 664 L 612 667 L 611 668 L 612 675 L 616 682 L 618 682 L 624 685 L 629 685 L 630 684 L 632 684 L 636 682 L 639 679 L 641 675 L 641 673 L 642 672 L 642 667 L 641 666 L 641 664 L 639 660 L 633 655 Z M 624 669 L 625 668 L 627 668 L 628 669 L 628 671 L 627 672 L 625 672 L 624 671 Z M 622 593 L 618 595 L 614 599 L 612 603 L 611 610 L 612 611 L 613 617 L 614 617 L 617 621 L 619 621 L 622 623 L 631 623 L 632 622 L 634 622 L 640 616 L 642 611 L 642 606 L 639 600 L 639 598 L 638 598 L 636 595 L 634 595 L 630 593 Z M 624 531 L 623 532 L 618 533 L 618 534 L 615 536 L 612 541 L 612 545 L 610 546 L 610 548 L 612 549 L 612 552 L 614 556 L 617 559 L 624 562 L 629 562 L 637 559 L 641 552 L 641 550 L 643 549 L 643 545 L 641 544 L 640 539 L 634 532 Z M 624 546 L 625 545 L 627 545 L 628 546 L 628 548 L 627 549 L 625 549 L 624 548 Z M 607 295 L 605 297 L 605 299 L 604 300 L 604 339 L 605 340 L 605 342 L 609 344 L 622 344 L 623 345 L 644 344 L 646 343 L 649 339 L 649 323 L 650 322 L 650 317 L 649 316 L 649 300 L 648 299 L 648 297 L 646 295 L 644 295 L 643 294 L 610 294 L 609 295 Z M 621 312 L 632 312 L 634 314 L 634 326 L 632 328 L 621 328 L 619 326 L 619 314 Z M 616 185 L 603 190 L 596 195 L 596 197 L 593 199 L 593 201 L 590 206 L 590 208 L 588 212 L 587 220 L 586 221 L 584 231 L 582 235 L 582 238 L 581 239 L 581 242 L 580 243 L 580 246 L 579 247 L 579 250 L 577 255 L 576 265 L 575 266 L 575 274 L 574 275 L 574 294 L 575 295 L 575 309 L 576 310 L 576 315 L 575 316 L 575 318 L 577 320 L 577 332 L 578 333 L 579 355 L 580 356 L 580 366 L 581 367 L 581 379 L 582 380 L 582 404 L 579 411 L 579 414 L 577 419 L 577 423 L 575 424 L 576 429 L 575 430 L 575 447 L 574 448 L 574 451 L 576 453 L 575 458 L 577 459 L 577 464 L 581 475 L 581 479 L 582 481 L 585 483 L 585 906 L 583 909 L 582 915 L 581 916 L 581 926 L 580 927 L 581 936 L 583 941 L 583 945 L 585 946 L 585 982 L 584 983 L 583 1000 L 582 1001 L 582 1005 L 581 1006 L 580 1014 L 576 1024 L 574 1027 L 571 1029 L 571 1031 L 569 1032 L 569 1034 L 567 1038 L 567 1049 L 568 1050 L 568 1054 L 569 1056 L 573 1060 L 575 1060 L 581 1064 L 589 1065 L 590 1066 L 597 1066 L 598 1067 L 608 1067 L 613 1069 L 616 1069 L 617 1068 L 634 1068 L 635 1069 L 642 1069 L 645 1067 L 655 1067 L 656 1066 L 663 1066 L 664 1065 L 672 1064 L 682 1058 L 682 1056 L 685 1054 L 685 1050 L 686 1049 L 686 1038 L 684 1034 L 684 1031 L 680 1028 L 676 1022 L 674 1017 L 674 1011 L 672 1010 L 671 1000 L 670 999 L 670 992 L 669 991 L 669 980 L 668 979 L 668 947 L 671 940 L 672 930 L 673 929 L 673 926 L 672 925 L 672 915 L 669 907 L 669 482 L 672 477 L 672 475 L 674 471 L 674 468 L 676 463 L 676 459 L 677 458 L 677 452 L 678 451 L 678 432 L 677 431 L 678 425 L 677 424 L 677 420 L 675 419 L 675 415 L 671 404 L 671 379 L 672 378 L 672 367 L 673 366 L 674 344 L 675 343 L 675 331 L 676 330 L 676 320 L 677 319 L 677 309 L 678 308 L 679 279 L 678 278 L 678 266 L 677 265 L 677 260 L 676 259 L 676 255 L 675 254 L 675 251 L 674 250 L 671 235 L 669 231 L 668 224 L 666 220 L 666 213 L 664 212 L 663 206 L 659 200 L 659 198 L 656 196 L 656 194 L 655 193 L 653 193 L 650 190 L 644 187 L 641 187 L 636 185 Z M 603 950 L 612 950 L 613 951 L 634 950 L 635 951 L 650 951 L 651 952 L 652 976 L 653 977 L 653 982 L 652 983 L 652 987 L 653 988 L 653 999 L 655 1002 L 655 1007 L 656 1008 L 657 1016 L 660 1023 L 660 1027 L 662 1028 L 664 1032 L 664 1034 L 666 1035 L 666 1037 L 669 1041 L 669 1046 L 666 1049 L 661 1049 L 660 1050 L 645 1050 L 644 1051 L 638 1051 L 637 1052 L 616 1052 L 615 1051 L 609 1051 L 608 1050 L 592 1050 L 591 1049 L 587 1049 L 584 1046 L 584 1040 L 587 1037 L 587 1035 L 589 1033 L 591 1028 L 593 1027 L 593 1023 L 597 1012 L 597 1007 L 599 1005 L 600 989 L 601 988 L 600 979 L 602 976 L 602 951 Z M 596 924 L 597 923 L 597 920 L 599 918 L 654 918 L 657 924 L 657 929 L 656 930 L 656 932 L 654 934 L 652 934 L 651 933 L 598 933 L 596 929 Z M 602 484 L 650 484 L 651 485 L 651 502 L 652 503 L 652 508 L 651 509 L 651 529 L 652 530 L 652 538 L 651 539 L 651 551 L 652 552 L 652 562 L 651 563 L 651 565 L 652 566 L 652 580 L 651 581 L 651 597 L 652 598 L 652 606 L 651 607 L 651 617 L 652 618 L 652 622 L 651 623 L 651 648 L 652 649 L 652 663 L 651 664 L 651 677 L 652 678 L 652 683 L 651 684 L 651 691 L 652 692 L 652 705 L 651 706 L 651 729 L 652 730 L 652 736 L 651 737 L 651 745 L 652 746 L 652 752 L 651 753 L 651 776 L 652 777 L 652 786 L 651 787 L 651 800 L 652 801 L 652 813 L 651 814 L 651 835 L 652 836 L 652 847 L 651 848 L 651 856 L 652 857 L 652 860 L 651 861 L 651 886 L 652 887 L 652 899 L 651 900 L 603 900 L 602 899 L 602 814 L 601 813 L 601 805 L 602 804 L 602 619 L 601 618 L 601 613 L 602 612 L 602 491 L 601 490 L 601 485 Z M 594 417 L 597 415 L 656 415 L 659 417 L 660 425 L 661 426 L 661 457 L 660 458 L 659 465 L 657 467 L 595 467 L 594 466 L 594 463 L 592 458 L 592 448 L 591 447 L 591 442 L 592 441 L 592 426 L 593 425 Z M 616 202 L 637 202 L 643 205 L 644 207 L 647 209 L 648 214 L 649 215 L 649 218 L 650 219 L 650 222 L 651 223 L 652 233 L 654 234 L 654 237 L 656 241 L 656 244 L 657 245 L 657 248 L 658 249 L 658 252 L 660 257 L 660 266 L 662 268 L 661 273 L 662 274 L 662 280 L 663 281 L 663 290 L 662 291 L 662 299 L 661 300 L 662 307 L 660 308 L 660 316 L 661 317 L 661 319 L 660 320 L 660 331 L 658 334 L 658 344 L 657 345 L 657 366 L 655 371 L 656 377 L 654 381 L 655 391 L 654 392 L 654 398 L 653 399 L 608 399 L 607 398 L 600 398 L 599 397 L 598 381 L 597 380 L 598 371 L 596 368 L 597 359 L 595 354 L 594 324 L 592 320 L 592 298 L 591 297 L 591 293 L 590 292 L 590 278 L 592 273 L 593 257 L 595 255 L 595 249 L 596 248 L 598 237 L 600 235 L 600 233 L 601 232 L 601 226 L 604 218 L 605 211 L 610 205 Z" fill="rgb(46,31,72)" fill-rule="evenodd"/>
  </g>
</svg>
